G04 #@! TF.GenerationSoftware,KiCad,Pcbnew,(5.0.1-3-g963ef8bb5)*
G04 #@! TF.CreationDate,2018-12-17T14:06:15+01:00*
G04 #@! TF.ProjectId,jtag-swd,6A7461672D7377642E6B696361645F70,rev?*
G04 #@! TF.SameCoordinates,Original*
G04 #@! TF.FileFunction,Legend,Top*
G04 #@! TF.FilePolarity,Positive*
%FSLAX46Y46*%
G04 Gerber Fmt 4.6, Leading zero omitted, Abs format (unit mm)*
G04 Created by KiCad (PCBNEW (5.0.1-3-g963ef8bb5)) date 2018 December 17, Monday 14:06:15*
%MOMM*%
%LPD*%
G01*
G04 APERTURE LIST*
%ADD10C,0.150000*%
%ADD11C,0.200000*%
%ADD12C,0.300000*%
%ADD13C,0.120000*%
G04 APERTURE END LIST*
D10*
X78142857Y-53661904D02*
X78142857Y-53128571D01*
X78142857Y-53280952D02*
X78180952Y-53204761D01*
X78219047Y-53166666D01*
X78295238Y-53128571D01*
X78371428Y-53128571D01*
X72700000Y-53900000D02*
X73200000Y-53600000D01*
X77461904Y-51261904D02*
X78033333Y-51261904D01*
X78147619Y-51300000D01*
X78223809Y-51376190D01*
X78261904Y-51490476D01*
X78261904Y-51566666D01*
X77461904Y-50995238D02*
X77461904Y-50538095D01*
X78261904Y-50766666D02*
X77461904Y-50766666D01*
X78033333Y-50309523D02*
X78033333Y-49928571D01*
X78261904Y-50385714D02*
X77461904Y-50119047D01*
X78261904Y-49852380D01*
X77500000Y-49166666D02*
X77461904Y-49242857D01*
X77461904Y-49357142D01*
X77500000Y-49471428D01*
X77576190Y-49547619D01*
X77652380Y-49585714D01*
X77804761Y-49623809D01*
X77919047Y-49623809D01*
X78071428Y-49585714D01*
X78147619Y-49547619D01*
X78223809Y-49471428D01*
X78261904Y-49357142D01*
X78261904Y-49280952D01*
X78223809Y-49166666D01*
X78185714Y-49128571D01*
X77919047Y-49128571D01*
X77919047Y-49280952D01*
X77957142Y-48785714D02*
X77957142Y-48176190D01*
X77728571Y-47795238D02*
X77957142Y-47185714D01*
X78185714Y-47795238D01*
X78223809Y-46842857D02*
X78261904Y-46728571D01*
X78261904Y-46538095D01*
X78223809Y-46461904D01*
X78185714Y-46423809D01*
X78109523Y-46385714D01*
X78033333Y-46385714D01*
X77957142Y-46423809D01*
X77919047Y-46461904D01*
X77880952Y-46538095D01*
X77842857Y-46690476D01*
X77804761Y-46766666D01*
X77766666Y-46804761D01*
X77690476Y-46842857D01*
X77614285Y-46842857D01*
X77538095Y-46804761D01*
X77500000Y-46766666D01*
X77461904Y-46690476D01*
X77461904Y-46500000D01*
X77500000Y-46385714D01*
X77461904Y-46119047D02*
X78261904Y-45928571D01*
X77690476Y-45776190D01*
X78261904Y-45623809D01*
X77461904Y-45433333D01*
X78261904Y-45128571D02*
X77461904Y-45128571D01*
X77461904Y-44938095D01*
X77500000Y-44823809D01*
X77576190Y-44747619D01*
X77652380Y-44709523D01*
X77804761Y-44671428D01*
X77919047Y-44671428D01*
X78071428Y-44709523D01*
X78147619Y-44747619D01*
X78223809Y-44823809D01*
X78261904Y-44938095D01*
X78261904Y-45128571D01*
X77600000Y-42700000D02*
X77600000Y-43300000D01*
X77500000Y-42700000D02*
X77500000Y-43300000D01*
X77700000Y-43300000D02*
X77700000Y-42700000D01*
X77700000Y-42700000D02*
X76700000Y-42700000D01*
X77400000Y-43300000D02*
X77400000Y-42700000D01*
X77700000Y-43300000D02*
X77400000Y-43300000D01*
X77700000Y-43600000D02*
X77700000Y-43300000D01*
X76700000Y-43600000D02*
X77700000Y-43600000D01*
X77100000Y-43000000D02*
X77100000Y-43600000D01*
X77000000Y-43000000D02*
X77100000Y-43000000D01*
X77000000Y-43600000D02*
X77000000Y-43000000D01*
X76700000Y-42700000D02*
X76700000Y-43600000D01*
X73806190Y-42761904D02*
X73806190Y-43333333D01*
X73768095Y-43447619D01*
X73691904Y-43523809D01*
X73577619Y-43561904D01*
X73501428Y-43561904D01*
X74187142Y-43561904D02*
X74187142Y-43028571D01*
X74187142Y-42761904D02*
X74149047Y-42800000D01*
X74187142Y-42838095D01*
X74225238Y-42800000D01*
X74187142Y-42761904D01*
X74187142Y-42838095D01*
X74453809Y-43028571D02*
X74758571Y-43028571D01*
X74568095Y-42761904D02*
X74568095Y-43447619D01*
X74606190Y-43523809D01*
X74682380Y-43561904D01*
X74758571Y-43561904D01*
X74910952Y-43028571D02*
X75215714Y-43028571D01*
X75025238Y-42761904D02*
X75025238Y-43447619D01*
X75063333Y-43523809D01*
X75139523Y-43561904D01*
X75215714Y-43561904D01*
X75787142Y-43523809D02*
X75710952Y-43561904D01*
X75558571Y-43561904D01*
X75482380Y-43523809D01*
X75444285Y-43447619D01*
X75444285Y-43142857D01*
X75482380Y-43066666D01*
X75558571Y-43028571D01*
X75710952Y-43028571D01*
X75787142Y-43066666D01*
X75825238Y-43142857D01*
X75825238Y-43219047D01*
X75444285Y-43295238D01*
X76168095Y-43561904D02*
X76168095Y-43028571D01*
X76168095Y-43180952D02*
X76206190Y-43104761D01*
X76244285Y-43066666D01*
X76320476Y-43028571D01*
X76396666Y-43028571D01*
X70447619Y-54123809D02*
X70523809Y-54161904D01*
X70676190Y-54161904D01*
X70752380Y-54123809D01*
X70790476Y-54047619D01*
X70790476Y-54009523D01*
X70752380Y-53933333D01*
X70676190Y-53895238D01*
X70561904Y-53895238D01*
X70485714Y-53857142D01*
X70447619Y-53780952D01*
X70447619Y-53742857D01*
X70485714Y-53666666D01*
X70561904Y-53628571D01*
X70676190Y-53628571D01*
X70752380Y-53666666D01*
X71057142Y-53628571D02*
X71209523Y-54161904D01*
X71361904Y-53780952D01*
X71514285Y-54161904D01*
X71666666Y-53628571D01*
X72085714Y-54161904D02*
X72009523Y-54123809D01*
X71971428Y-54085714D01*
X71933333Y-54009523D01*
X71933333Y-53780952D01*
X71971428Y-53704761D01*
X72009523Y-53666666D01*
X72085714Y-53628571D01*
X72200000Y-53628571D01*
X72276190Y-53666666D01*
X72314285Y-53704761D01*
X72352380Y-53780952D01*
X72352380Y-54009523D01*
X72314285Y-54085714D01*
X72276190Y-54123809D01*
X72200000Y-54161904D01*
X72085714Y-54161904D01*
D11*
X68223095Y-47394761D02*
X68365952Y-47442380D01*
X68604047Y-47442380D01*
X68699285Y-47394761D01*
X68746904Y-47347142D01*
X68794523Y-47251904D01*
X68794523Y-47156666D01*
X68746904Y-47061428D01*
X68699285Y-47013809D01*
X68604047Y-46966190D01*
X68413571Y-46918571D01*
X68318333Y-46870952D01*
X68270714Y-46823333D01*
X68223095Y-46728095D01*
X68223095Y-46632857D01*
X68270714Y-46537619D01*
X68318333Y-46490000D01*
X68413571Y-46442380D01*
X68651666Y-46442380D01*
X68794523Y-46490000D01*
X69127857Y-46442380D02*
X69365952Y-47442380D01*
X69556428Y-46728095D01*
X69746904Y-47442380D01*
X69985000Y-46442380D01*
X70365952Y-47442380D02*
X70365952Y-46442380D01*
X70604047Y-46442380D01*
X70746904Y-46490000D01*
X70842143Y-46585238D01*
X70889762Y-46680476D01*
X70937381Y-46870952D01*
X70937381Y-47013809D01*
X70889762Y-47204285D01*
X70842143Y-47299523D01*
X70746904Y-47394761D01*
X70604047Y-47442380D01*
X70365952Y-47442380D01*
X71365952Y-47442380D02*
X71365952Y-46442380D01*
X72032619Y-46442380D02*
X72223095Y-46442380D01*
X72318333Y-46490000D01*
X72413571Y-46585238D01*
X72461190Y-46775714D01*
X72461190Y-47109047D01*
X72413571Y-47299523D01*
X72318333Y-47394761D01*
X72223095Y-47442380D01*
X72032619Y-47442380D01*
X71937381Y-47394761D01*
X71842143Y-47299523D01*
X71794523Y-47109047D01*
X71794523Y-46775714D01*
X71842143Y-46585238D01*
X71937381Y-46490000D01*
X72032619Y-46442380D01*
X68223095Y-49934761D02*
X68365952Y-49982380D01*
X68604047Y-49982380D01*
X68699285Y-49934761D01*
X68746904Y-49887142D01*
X68794523Y-49791904D01*
X68794523Y-49696666D01*
X68746904Y-49601428D01*
X68699285Y-49553809D01*
X68604047Y-49506190D01*
X68413571Y-49458571D01*
X68318333Y-49410952D01*
X68270714Y-49363333D01*
X68223095Y-49268095D01*
X68223095Y-49172857D01*
X68270714Y-49077619D01*
X68318333Y-49030000D01*
X68413571Y-48982380D01*
X68651666Y-48982380D01*
X68794523Y-49030000D01*
X69127857Y-48982380D02*
X69365952Y-49982380D01*
X69556428Y-49268095D01*
X69746904Y-49982380D01*
X69985000Y-48982380D01*
X70937380Y-49887142D02*
X70889761Y-49934761D01*
X70746904Y-49982380D01*
X70651666Y-49982380D01*
X70508809Y-49934761D01*
X70413571Y-49839523D01*
X70365952Y-49744285D01*
X70318333Y-49553809D01*
X70318333Y-49410952D01*
X70365952Y-49220476D01*
X70413571Y-49125238D01*
X70508809Y-49030000D01*
X70651666Y-48982380D01*
X70746904Y-48982380D01*
X70889761Y-49030000D01*
X70937380Y-49077619D01*
X71842142Y-49982380D02*
X71365952Y-49982380D01*
X71365952Y-48982380D01*
X72175476Y-49982380D02*
X72175476Y-48982380D01*
X72746904Y-49982380D02*
X72318333Y-49410952D01*
X72746904Y-48982380D02*
X72175476Y-49553809D01*
D12*
X69225475Y-51320000D02*
X69082618Y-51248571D01*
X68868333Y-51248571D01*
X68654047Y-51320000D01*
X68511190Y-51462857D01*
X68439761Y-51605714D01*
X68368333Y-51891428D01*
X68368333Y-52105714D01*
X68439761Y-52391428D01*
X68511190Y-52534285D01*
X68654047Y-52677142D01*
X68868333Y-52748571D01*
X69011190Y-52748571D01*
X69225475Y-52677142D01*
X69296904Y-52605714D01*
X69296904Y-52105714D01*
X69011190Y-52105714D01*
X69939761Y-52748571D02*
X69939761Y-51248571D01*
X70796904Y-52748571D01*
X70796904Y-51248571D01*
X71511190Y-52748571D02*
X71511190Y-51248571D01*
X71868333Y-51248571D01*
X72082618Y-51320000D01*
X72225475Y-51462857D01*
X72296904Y-51605714D01*
X72368333Y-51891428D01*
X72368333Y-52105714D01*
X72296904Y-52391428D01*
X72225475Y-52534285D01*
X72082618Y-52677142D01*
X71868333Y-52748571D01*
X71511190Y-52748571D01*
X68296904Y-43628571D02*
X69225475Y-43628571D01*
X68725475Y-44200000D01*
X68939761Y-44200000D01*
X69082618Y-44271428D01*
X69154047Y-44342857D01*
X69225475Y-44485714D01*
X69225475Y-44842857D01*
X69154047Y-44985714D01*
X69082618Y-45057142D01*
X68939761Y-45128571D01*
X68511189Y-45128571D01*
X68368332Y-45057142D01*
X68296904Y-44985714D01*
X69654047Y-43628571D02*
X70154047Y-45128571D01*
X70654047Y-43628571D01*
X71011189Y-43628571D02*
X71939761Y-43628571D01*
X71439761Y-44200000D01*
X71654047Y-44200000D01*
X71796904Y-44271428D01*
X71868332Y-44342857D01*
X71939761Y-44485714D01*
X71939761Y-44842857D01*
X71868332Y-44985714D01*
X71796904Y-45057142D01*
X71654047Y-45128571D01*
X71225475Y-45128571D01*
X71082618Y-45057142D01*
X71011189Y-44985714D01*
D13*
G04 #@! TO.C,J2*
X64600000Y-53400000D02*
X64600000Y-43120000D01*
X64600000Y-43120000D02*
X61940000Y-43120000D01*
X61940000Y-43120000D02*
X61940000Y-53400000D01*
X61940000Y-53400000D02*
X64600000Y-53400000D01*
X61940000Y-52450000D02*
X55940000Y-52450000D01*
X55940000Y-52450000D02*
X55940000Y-51690000D01*
X55940000Y-51690000D02*
X61940000Y-51690000D01*
X61940000Y-52390000D02*
X55940000Y-52390000D01*
X61940000Y-52270000D02*
X55940000Y-52270000D01*
X61940000Y-52150000D02*
X55940000Y-52150000D01*
X61940000Y-52030000D02*
X55940000Y-52030000D01*
X61940000Y-51910000D02*
X55940000Y-51910000D01*
X61940000Y-51790000D02*
X55940000Y-51790000D01*
X64930000Y-52450000D02*
X64600000Y-52450000D01*
X64930000Y-51690000D02*
X64600000Y-51690000D01*
X64600000Y-50800000D02*
X61940000Y-50800000D01*
X61940000Y-49910000D02*
X55940000Y-49910000D01*
X55940000Y-49910000D02*
X55940000Y-49150000D01*
X55940000Y-49150000D02*
X61940000Y-49150000D01*
X64997071Y-49910000D02*
X64600000Y-49910000D01*
X64997071Y-49150000D02*
X64600000Y-49150000D01*
X64600000Y-48260000D02*
X61940000Y-48260000D01*
X61940000Y-47370000D02*
X55940000Y-47370000D01*
X55940000Y-47370000D02*
X55940000Y-46610000D01*
X55940000Y-46610000D02*
X61940000Y-46610000D01*
X64997071Y-47370000D02*
X64600000Y-47370000D01*
X64997071Y-46610000D02*
X64600000Y-46610000D01*
X64600000Y-45720000D02*
X61940000Y-45720000D01*
X61940000Y-44830000D02*
X55940000Y-44830000D01*
X55940000Y-44830000D02*
X55940000Y-44070000D01*
X55940000Y-44070000D02*
X61940000Y-44070000D01*
X64997071Y-44830000D02*
X64600000Y-44830000D01*
X64997071Y-44070000D02*
X64600000Y-44070000D01*
X67310000Y-52070000D02*
X67310000Y-53340000D01*
X67310000Y-53340000D02*
X66040000Y-53340000D01*
G04 #@! TD*
M02*
