G04 #@! TF.GenerationSoftware,KiCad,Pcbnew,(5.0.2-5-10.14)*
G04 #@! TF.CreationDate,2019-03-07T11:44:03+01:00*
G04 #@! TF.ProjectId,jtag-swd,6a746167-2d73-4776-942e-6b696361645f,rev?*
G04 #@! TF.SameCoordinates,Original*
G04 #@! TF.FileFunction,Legend,Top*
G04 #@! TF.FilePolarity,Positive*
%FSLAX46Y46*%
G04 Gerber Fmt 4.6, Leading zero omitted, Abs format (unit mm)*
G04 Created by KiCad (PCBNEW (5.0.2-5-10.14)) date 2019 March 07, Thursday 11:44:03*
%MOMM*%
%LPD*%
G01*
G04 APERTURE LIST*
%ADD10C,0.150000*%
%ADD11C,0.300000*%
%ADD12C,0.120000*%
G04 APERTURE END LIST*
D10*
G36*
X75500000Y-44750000D02*
X75500000Y-46250000D01*
X77250000Y-46250000D01*
X77250000Y-44750000D01*
X75500000Y-44750000D01*
G37*
X75500000Y-44750000D02*
X75500000Y-46250000D01*
X77250000Y-46250000D01*
X77250000Y-44750000D01*
X75500000Y-44750000D01*
G36*
X75500000Y-47500000D02*
X77000000Y-47500000D01*
X77000000Y-50000000D01*
X75500000Y-50000000D01*
X75500000Y-47500000D01*
G37*
X75500000Y-47500000D02*
X77000000Y-47500000D01*
X77000000Y-50000000D01*
X75500000Y-50000000D01*
X75500000Y-47500000D01*
G36*
X84000000Y-43500000D02*
X84000000Y-46000000D01*
X89250000Y-46000000D01*
X89250000Y-43500000D01*
X84000000Y-43500000D01*
G37*
X84000000Y-43500000D02*
X84000000Y-46000000D01*
X89250000Y-46000000D01*
X89250000Y-43500000D01*
X84000000Y-43500000D01*
D11*
X77750000Y-49000000D02*
X77750000Y-47100000D01*
D10*
X78742857Y-44461904D02*
X78742857Y-43928571D01*
X78742857Y-44080952D02*
X78780952Y-44004761D01*
X78819047Y-43966666D01*
X78895238Y-43928571D01*
X78971428Y-43928571D01*
X74138095Y-52961904D02*
X74138095Y-53533333D01*
X74100000Y-53647619D01*
X74023809Y-53723809D01*
X73909523Y-53761904D01*
X73833333Y-53761904D01*
X74404761Y-52961904D02*
X74861904Y-52961904D01*
X74633333Y-53761904D02*
X74633333Y-52961904D01*
X75090476Y-53533333D02*
X75471428Y-53533333D01*
X75014285Y-53761904D02*
X75280952Y-52961904D01*
X75547619Y-53761904D01*
X76233333Y-53000000D02*
X76157142Y-52961904D01*
X76042857Y-52961904D01*
X75928571Y-53000000D01*
X75852380Y-53076190D01*
X75814285Y-53152380D01*
X75776190Y-53304761D01*
X75776190Y-53419047D01*
X75814285Y-53571428D01*
X75852380Y-53647619D01*
X75928571Y-53723809D01*
X76042857Y-53761904D01*
X76119047Y-53761904D01*
X76233333Y-53723809D01*
X76271428Y-53685714D01*
X76271428Y-53419047D01*
X76119047Y-53419047D01*
X76614285Y-53457142D02*
X77223809Y-53457142D01*
X77604761Y-53228571D02*
X78214285Y-53457142D01*
X77604761Y-53685714D01*
X78557142Y-53723809D02*
X78671428Y-53761904D01*
X78861904Y-53761904D01*
X78938095Y-53723809D01*
X78976190Y-53685714D01*
X79014285Y-53609523D01*
X79014285Y-53533333D01*
X78976190Y-53457142D01*
X78938095Y-53419047D01*
X78861904Y-53380952D01*
X78709523Y-53342857D01*
X78633333Y-53304761D01*
X78595238Y-53266666D01*
X78557142Y-53190476D01*
X78557142Y-53114285D01*
X78595238Y-53038095D01*
X78633333Y-53000000D01*
X78709523Y-52961904D01*
X78900000Y-52961904D01*
X79014285Y-53000000D01*
X79280952Y-52961904D02*
X79471428Y-53761904D01*
X79623809Y-53190476D01*
X79776190Y-53761904D01*
X79966666Y-52961904D01*
X80271428Y-53761904D02*
X80271428Y-52961904D01*
X80461904Y-52961904D01*
X80576190Y-53000000D01*
X80652380Y-53076190D01*
X80690476Y-53152380D01*
X80728571Y-53304761D01*
X80728571Y-53419047D01*
X80690476Y-53571428D01*
X80652380Y-53647619D01*
X80576190Y-53723809D01*
X80461904Y-53761904D01*
X80271428Y-53761904D01*
X88200000Y-42100000D02*
X88200000Y-42700000D01*
X88100000Y-42100000D02*
X88100000Y-42700000D01*
X88300000Y-42700000D02*
X88300000Y-42100000D01*
X88300000Y-42100000D02*
X87300000Y-42100000D01*
X88000000Y-42700000D02*
X88000000Y-42100000D01*
X88300000Y-42700000D02*
X88000000Y-42700000D01*
X88300000Y-43000000D02*
X88300000Y-42700000D01*
X87300000Y-43000000D02*
X88300000Y-43000000D01*
X87700000Y-42400000D02*
X87700000Y-43000000D01*
X87600000Y-42400000D02*
X87700000Y-42400000D01*
X87600000Y-43000000D02*
X87600000Y-42400000D01*
X87300000Y-42100000D02*
X87300000Y-43000000D01*
X84406190Y-42161904D02*
X84406190Y-42733333D01*
X84368095Y-42847619D01*
X84291904Y-42923809D01*
X84177619Y-42961904D01*
X84101428Y-42961904D01*
X84787142Y-42961904D02*
X84787142Y-42428571D01*
X84787142Y-42161904D02*
X84749047Y-42200000D01*
X84787142Y-42238095D01*
X84825238Y-42200000D01*
X84787142Y-42161904D01*
X84787142Y-42238095D01*
X85053809Y-42428571D02*
X85358571Y-42428571D01*
X85168095Y-42161904D02*
X85168095Y-42847619D01*
X85206190Y-42923809D01*
X85282380Y-42961904D01*
X85358571Y-42961904D01*
X85510952Y-42428571D02*
X85815714Y-42428571D01*
X85625238Y-42161904D02*
X85625238Y-42847619D01*
X85663333Y-42923809D01*
X85739523Y-42961904D01*
X85815714Y-42961904D01*
X86387142Y-42923809D02*
X86310952Y-42961904D01*
X86158571Y-42961904D01*
X86082380Y-42923809D01*
X86044285Y-42847619D01*
X86044285Y-42542857D01*
X86082380Y-42466666D01*
X86158571Y-42428571D01*
X86310952Y-42428571D01*
X86387142Y-42466666D01*
X86425238Y-42542857D01*
X86425238Y-42619047D01*
X86044285Y-42695238D01*
X86768095Y-42961904D02*
X86768095Y-42428571D01*
X86768095Y-42580952D02*
X86806190Y-42504761D01*
X86844285Y-42466666D01*
X86920476Y-42428571D01*
X86996666Y-42428571D01*
X79480952Y-50204761D02*
X79623809Y-50252380D01*
X79861904Y-50252380D01*
X79957142Y-50204761D01*
X80004761Y-50157142D01*
X80052380Y-50061904D01*
X80052380Y-49966666D01*
X80004761Y-49871428D01*
X79957142Y-49823809D01*
X79861904Y-49776190D01*
X79671428Y-49728571D01*
X79576190Y-49680952D01*
X79528571Y-49633333D01*
X79480952Y-49538095D01*
X79480952Y-49442857D01*
X79528571Y-49347619D01*
X79576190Y-49300000D01*
X79671428Y-49252380D01*
X79909523Y-49252380D01*
X80052380Y-49300000D01*
X80385714Y-49252380D02*
X80623809Y-50252380D01*
X80814285Y-49538095D01*
X81004761Y-50252380D01*
X81242857Y-49252380D01*
X81623809Y-50252380D02*
X81623809Y-49252380D01*
X81861904Y-49252380D01*
X82004761Y-49300000D01*
X82100000Y-49395238D01*
X82147619Y-49490476D01*
X82195238Y-49680952D01*
X82195238Y-49823809D01*
X82147619Y-50014285D01*
X82100000Y-50109523D01*
X82004761Y-50204761D01*
X81861904Y-50252380D01*
X81623809Y-50252380D01*
X82623809Y-50252380D02*
X82623809Y-49252380D01*
X83290476Y-49252380D02*
X83480952Y-49252380D01*
X83576190Y-49300000D01*
X83671428Y-49395238D01*
X83719047Y-49585714D01*
X83719047Y-49919047D01*
X83671428Y-50109523D01*
X83576190Y-50204761D01*
X83480952Y-50252380D01*
X83290476Y-50252380D01*
X83195238Y-50204761D01*
X83100000Y-50109523D01*
X83052380Y-49919047D01*
X83052380Y-49585714D01*
X83100000Y-49395238D01*
X83195238Y-49300000D01*
X83290476Y-49252380D01*
X79238095Y-47704761D02*
X79380952Y-47752380D01*
X79619047Y-47752380D01*
X79714285Y-47704761D01*
X79761904Y-47657142D01*
X79809523Y-47561904D01*
X79809523Y-47466666D01*
X79761904Y-47371428D01*
X79714285Y-47323809D01*
X79619047Y-47276190D01*
X79428571Y-47228571D01*
X79333333Y-47180952D01*
X79285714Y-47133333D01*
X79238095Y-47038095D01*
X79238095Y-46942857D01*
X79285714Y-46847619D01*
X79333333Y-46800000D01*
X79428571Y-46752380D01*
X79666666Y-46752380D01*
X79809523Y-46800000D01*
X80142857Y-46752380D02*
X80380952Y-47752380D01*
X80571428Y-47038095D01*
X80761904Y-47752380D01*
X81000000Y-46752380D01*
X81952380Y-47657142D02*
X81904761Y-47704761D01*
X81761904Y-47752380D01*
X81666666Y-47752380D01*
X81523809Y-47704761D01*
X81428571Y-47609523D01*
X81380952Y-47514285D01*
X81333333Y-47323809D01*
X81333333Y-47180952D01*
X81380952Y-46990476D01*
X81428571Y-46895238D01*
X81523809Y-46800000D01*
X81666666Y-46752380D01*
X81761904Y-46752380D01*
X81904761Y-46800000D01*
X81952380Y-46847619D01*
X82857142Y-47752380D02*
X82380952Y-47752380D01*
X82380952Y-46752380D01*
X83190476Y-47752380D02*
X83190476Y-46752380D01*
X83761904Y-47752380D02*
X83333333Y-47180952D01*
X83761904Y-46752380D02*
X83190476Y-47323809D01*
X81338095Y-44300000D02*
X81242857Y-44252380D01*
X81100000Y-44252380D01*
X80957142Y-44300000D01*
X80861904Y-44395238D01*
X80814285Y-44490476D01*
X80766666Y-44680952D01*
X80766666Y-44823809D01*
X80814285Y-45014285D01*
X80861904Y-45109523D01*
X80957142Y-45204761D01*
X81100000Y-45252380D01*
X81195238Y-45252380D01*
X81338095Y-45204761D01*
X81385714Y-45157142D01*
X81385714Y-44823809D01*
X81195238Y-44823809D01*
X81814285Y-45252380D02*
X81814285Y-44252380D01*
X82385714Y-45252380D01*
X82385714Y-44252380D01*
X82861904Y-45252380D02*
X82861904Y-44252380D01*
X83100000Y-44252380D01*
X83242857Y-44300000D01*
X83338095Y-44395238D01*
X83385714Y-44490476D01*
X83433333Y-44680952D01*
X83433333Y-44823809D01*
X83385714Y-45014285D01*
X83338095Y-45109523D01*
X83242857Y-45204761D01*
X83100000Y-45252380D01*
X82861904Y-45252380D01*
X81161904Y-51852380D02*
X81780952Y-51852380D01*
X81447619Y-52233333D01*
X81590476Y-52233333D01*
X81685714Y-52280952D01*
X81733333Y-52328571D01*
X81780952Y-52423809D01*
X81780952Y-52661904D01*
X81733333Y-52757142D01*
X81685714Y-52804761D01*
X81590476Y-52852380D01*
X81304761Y-52852380D01*
X81209523Y-52804761D01*
X81161904Y-52757142D01*
X82066666Y-51852380D02*
X82400000Y-52852380D01*
X82733333Y-51852380D01*
X82971428Y-51852380D02*
X83590476Y-51852380D01*
X83257142Y-52233333D01*
X83400000Y-52233333D01*
X83495238Y-52280952D01*
X83542857Y-52328571D01*
X83590476Y-52423809D01*
X83590476Y-52661904D01*
X83542857Y-52757142D01*
X83495238Y-52804761D01*
X83400000Y-52852380D01*
X83114285Y-52852380D01*
X83019047Y-52804761D01*
X82971428Y-52757142D01*
D12*
G04 #@! TO.C,J2*
X86640000Y-43370000D02*
X86640000Y-53650000D01*
X86640000Y-53650000D02*
X89300000Y-53650000D01*
X89300000Y-53650000D02*
X89300000Y-43370000D01*
X89300000Y-43370000D02*
X86640000Y-43370000D01*
X89300000Y-44320000D02*
X95300000Y-44320000D01*
X95300000Y-44320000D02*
X95300000Y-45080000D01*
X95300000Y-45080000D02*
X89300000Y-45080000D01*
X89300000Y-44380000D02*
X95300000Y-44380000D01*
X89300000Y-44500000D02*
X95300000Y-44500000D01*
X89300000Y-44620000D02*
X95300000Y-44620000D01*
X89300000Y-44740000D02*
X95300000Y-44740000D01*
X89300000Y-44860000D02*
X95300000Y-44860000D01*
X89300000Y-44980000D02*
X95300000Y-44980000D01*
X86310000Y-44320000D02*
X86640000Y-44320000D01*
X86310000Y-45080000D02*
X86640000Y-45080000D01*
X86640000Y-45970000D02*
X89300000Y-45970000D01*
X89300000Y-46860000D02*
X95300000Y-46860000D01*
X95300000Y-46860000D02*
X95300000Y-47620000D01*
X95300000Y-47620000D02*
X89300000Y-47620000D01*
X86242929Y-46860000D02*
X86640000Y-46860000D01*
X86242929Y-47620000D02*
X86640000Y-47620000D01*
X86640000Y-48510000D02*
X89300000Y-48510000D01*
X89300000Y-49400000D02*
X95300000Y-49400000D01*
X95300000Y-49400000D02*
X95300000Y-50160000D01*
X95300000Y-50160000D02*
X89300000Y-50160000D01*
X86242929Y-49400000D02*
X86640000Y-49400000D01*
X86242929Y-50160000D02*
X86640000Y-50160000D01*
X86640000Y-51050000D02*
X89300000Y-51050000D01*
X89300000Y-51940000D02*
X95300000Y-51940000D01*
X95300000Y-51940000D02*
X95300000Y-52700000D01*
X95300000Y-52700000D02*
X89300000Y-52700000D01*
X86242929Y-51940000D02*
X86640000Y-51940000D01*
X86242929Y-52700000D02*
X86640000Y-52700000D01*
X83930000Y-44700000D02*
X83930000Y-43430000D01*
X83930000Y-43430000D02*
X85200000Y-43430000D01*
G04 #@! TO.C,J1*
X73880000Y-44905000D02*
X74522470Y-44905000D01*
X75137530Y-44905000D02*
X75340000Y-44905000D01*
X73880000Y-44905000D02*
X73880000Y-51375000D01*
X76407530Y-51375000D02*
X77050000Y-51375000D01*
X73880000Y-51375000D02*
X74522470Y-51375000D01*
X75137530Y-51375000D02*
X75792470Y-51375000D01*
X77050000Y-46235000D02*
X77050000Y-51375000D01*
X76860000Y-46235000D02*
X77050000Y-46235000D01*
X77050000Y-44840000D02*
X77050000Y-45600000D01*
X76100000Y-44840000D02*
X77050000Y-44840000D01*
G04 #@! TO.C,J3*
X73630000Y-42070000D02*
X73630000Y-44730000D01*
X76230000Y-42070000D02*
X73630000Y-42070000D01*
X76230000Y-44730000D02*
X73630000Y-44730000D01*
X76230000Y-42070000D02*
X76230000Y-44730000D01*
X77500000Y-42070000D02*
X78830000Y-42070000D01*
X78830000Y-42070000D02*
X78830000Y-43400000D01*
G04 #@! TD*
M02*
