G04 #@! TF.GenerationSoftware,KiCad,Pcbnew,(5.0.1-3-g963ef8bb5)*
G04 #@! TF.CreationDate,2018-12-20T13:19:58+01:00*
G04 #@! TF.ProjectId,jtag-swd,6A7461672D7377642E6B696361645F70,rev?*
G04 #@! TF.SameCoordinates,Original*
G04 #@! TF.FileFunction,Copper,L1,Top,Signal*
G04 #@! TF.FilePolarity,Positive*
%FSLAX46Y46*%
G04 Gerber Fmt 4.6, Leading zero omitted, Abs format (unit mm)*
G04 Created by KiCad (PCBNEW (5.0.1-3-g963ef8bb5)) date 2018 December 20, Thursday 13:19:58*
%MOMM*%
%LPD*%
G01*
G04 APERTURE LIST*
G04 #@! TA.AperFunction,ComponentPad*
%ADD10O,1.700000X1.700000*%
G04 #@! TD*
G04 #@! TA.AperFunction,ComponentPad*
%ADD11R,1.700000X1.700000*%
G04 #@! TD*
G04 #@! TA.AperFunction,ComponentPad*
%ADD12R,1.000000X1.000000*%
G04 #@! TD*
G04 #@! TA.AperFunction,ComponentPad*
%ADD13O,1.000000X1.000000*%
G04 #@! TD*
G04 #@! TA.AperFunction,Conductor*
%ADD14C,0.250000*%
G04 #@! TD*
G04 APERTURE END LIST*
D10*
G04 #@! TO.P,J3,2*
G04 #@! TO.N,/SWO*
X74295000Y-53340000D03*
D11*
G04 #@! TO.P,J3,1*
G04 #@! TO.N,/RESET*
X76835000Y-53340000D03*
G04 #@! TD*
G04 #@! TO.P,J2,1*
G04 #@! TO.N,GND*
X66040000Y-52070000D03*
D10*
G04 #@! TO.P,J2,2*
G04 #@! TO.N,/SWCLK*
X66040000Y-49530000D03*
G04 #@! TO.P,J2,3*
G04 #@! TO.N,/SWDIO*
X66040000Y-46990000D03*
G04 #@! TO.P,J2,4*
G04 #@! TO.N,+3V3*
X66040000Y-44450000D03*
G04 #@! TD*
D12*
G04 #@! TO.P,J1,9*
G04 #@! TO.N,N/C*
X76200000Y-50800000D03*
D13*
G04 #@! TO.P,J1,10*
G04 #@! TO.N,/RESET*
X74930000Y-50800000D03*
G04 #@! TO.P,J1,7*
G04 #@! TO.N,N/C*
X76200000Y-49530000D03*
G04 #@! TO.P,J1,8*
X74930000Y-49530000D03*
G04 #@! TO.P,J1,5*
G04 #@! TO.N,GND*
X76200000Y-48260000D03*
G04 #@! TO.P,J1,6*
G04 #@! TO.N,/SWO*
X74930000Y-48260000D03*
G04 #@! TO.P,J1,3*
G04 #@! TO.N,GND*
X76200000Y-46990000D03*
G04 #@! TO.P,J1,4*
G04 #@! TO.N,/SWCLK*
X74930000Y-46990000D03*
G04 #@! TO.P,J1,1*
G04 #@! TO.N,+3V3*
X76200000Y-45720000D03*
G04 #@! TO.P,J1,2*
G04 #@! TO.N,/SWDIO*
X74930000Y-45720000D03*
G04 #@! TD*
D14*
G04 #@! TO.N,+3V3*
X74930000Y-44450000D02*
X76200000Y-45720000D01*
X66040000Y-44450000D02*
X74930000Y-44450000D01*
G04 #@! TO.N,/SWDIO*
X67310000Y-45720000D02*
X74930000Y-45720000D01*
X66040000Y-46990000D02*
X67310000Y-45720000D01*
G04 #@! TO.N,/SWCLK*
X66040000Y-49530000D02*
X67945000Y-49530000D01*
X70485000Y-46990000D02*
X74930000Y-46990000D01*
X67945000Y-49530000D02*
X70485000Y-46990000D01*
G04 #@! TO.N,/RESET*
X76762894Y-53340000D02*
X76835000Y-53340000D01*
X74930000Y-51507106D02*
X76762894Y-53340000D01*
X74930000Y-50800000D02*
X74930000Y-51507106D01*
G04 #@! TO.N,/SWO*
X74295000Y-52137919D02*
X74295000Y-53340000D01*
X73660000Y-51502919D02*
X74295000Y-52137919D01*
X73660000Y-49530000D02*
X73660000Y-51502919D01*
X74930000Y-48260000D02*
X73660000Y-49530000D01*
G04 #@! TD*
M02*
