G04 #@! TF.GenerationSoftware,KiCad,Pcbnew,(5.0.2-5-10.14)*
G04 #@! TF.CreationDate,2019-03-07T11:44:03+01:00*
G04 #@! TF.ProjectId,jtag-swd,6a746167-2d73-4776-942e-6b696361645f,rev?*
G04 #@! TF.SameCoordinates,Original*
G04 #@! TF.FileFunction,Copper,L1,Top*
G04 #@! TF.FilePolarity,Positive*
%FSLAX46Y46*%
G04 Gerber Fmt 4.6, Leading zero omitted, Abs format (unit mm)*
G04 Created by KiCad (PCBNEW (5.0.2-5-10.14)) date 2019 March 07, Thursday 11:44:03*
%MOMM*%
%LPD*%
G01*
G04 APERTURE LIST*
G04 #@! TA.AperFunction,ComponentPad*
%ADD10R,1.700000X1.700000*%
G04 #@! TD*
G04 #@! TA.AperFunction,ComponentPad*
%ADD11O,1.700000X1.700000*%
G04 #@! TD*
G04 #@! TA.AperFunction,ComponentPad*
%ADD12R,1.000000X1.000000*%
G04 #@! TD*
G04 #@! TA.AperFunction,ComponentPad*
%ADD13O,1.000000X1.000000*%
G04 #@! TD*
G04 #@! TA.AperFunction,Conductor*
%ADD14C,0.250000*%
G04 #@! TD*
G04 APERTURE END LIST*
D10*
G04 #@! TO.P,J2,1*
G04 #@! TO.N,GND*
X85200000Y-44700000D03*
D11*
G04 #@! TO.P,J2,2*
G04 #@! TO.N,/SWCLK*
X85200000Y-47240000D03*
G04 #@! TO.P,J2,3*
G04 #@! TO.N,/SWDIO*
X85200000Y-49780000D03*
G04 #@! TO.P,J2,4*
G04 #@! TO.N,+3V3*
X85200000Y-52320000D03*
G04 #@! TD*
D12*
G04 #@! TO.P,J1,9*
G04 #@! TO.N,GND*
X76100000Y-45600000D03*
D13*
G04 #@! TO.P,J1,10*
G04 #@! TO.N,/RESET*
X74830000Y-45600000D03*
G04 #@! TO.P,J1,7*
G04 #@! TO.N,N/C*
X76100000Y-46870000D03*
G04 #@! TO.P,J1,8*
X74830000Y-46870000D03*
G04 #@! TO.P,J1,5*
G04 #@! TO.N,GND*
X76100000Y-48140000D03*
G04 #@! TO.P,J1,6*
G04 #@! TO.N,/SWO*
X74830000Y-48140000D03*
G04 #@! TO.P,J1,3*
G04 #@! TO.N,GND*
X76100000Y-49410000D03*
G04 #@! TO.P,J1,4*
G04 #@! TO.N,/SWCLK*
X74830000Y-49410000D03*
G04 #@! TO.P,J1,1*
G04 #@! TO.N,+3V3*
X76100000Y-50680000D03*
G04 #@! TO.P,J1,2*
G04 #@! TO.N,/SWDIO*
X74830000Y-50680000D03*
G04 #@! TD*
D10*
G04 #@! TO.P,J3,1*
G04 #@! TO.N,/RESET*
X77500000Y-43400000D03*
D11*
G04 #@! TO.P,J3,2*
G04 #@! TO.N,/SWO*
X74960000Y-43400000D03*
G04 #@! TD*
D14*
G04 #@! TO.N,+3V3*
X76100000Y-50680000D02*
X83680000Y-43100000D01*
X85885002Y-43100000D02*
X87700000Y-44914998D01*
X83680000Y-43100000D02*
X85885002Y-43100000D01*
X87700000Y-49820000D02*
X85200000Y-52320000D01*
X87700000Y-44914998D02*
X87700000Y-49820000D01*
G04 #@! TO.N,/SWDIO*
X74947895Y-51505001D02*
X78994999Y-51505001D01*
X74830000Y-51387106D02*
X74947895Y-51505001D01*
X74830000Y-50680000D02*
X74830000Y-51387106D01*
X80720000Y-49780000D02*
X85200000Y-49780000D01*
X78994999Y-51505001D02*
X80720000Y-49780000D01*
G04 #@! TO.N,/SWCLK*
X74004999Y-50235001D02*
X74004999Y-51704999D01*
X74830000Y-49410000D02*
X74004999Y-50235001D01*
X74255011Y-51955011D02*
X79844989Y-51955011D01*
X74004999Y-51704999D02*
X74255011Y-51955011D01*
X86375001Y-48415001D02*
X86049999Y-48089999D01*
X86375001Y-50344001D02*
X86375001Y-48415001D01*
X86049999Y-48089999D02*
X85200000Y-47240000D01*
X85574003Y-51144999D02*
X86375001Y-50344001D01*
X80655001Y-51144999D02*
X85574003Y-51144999D01*
X79844989Y-51955011D02*
X80655001Y-51144999D01*
G04 #@! TO.N,/RESET*
X76714998Y-43400000D02*
X77500000Y-43400000D01*
X74830000Y-45284998D02*
X76714998Y-43400000D01*
X74830000Y-45600000D02*
X74830000Y-45284998D01*
G04 #@! TO.N,/SWO*
X74004999Y-47314999D02*
X74830000Y-48140000D01*
X74004999Y-44355001D02*
X74004999Y-47314999D01*
X74960000Y-43400000D02*
X74004999Y-44355001D01*
G04 #@! TD*
M02*
