G04 #@! TF.GenerationSoftware,KiCad,Pcbnew,(5.0.1-3-g963ef8bb5)*
G04 #@! TF.CreationDate,2018-12-17T14:06:15+01:00*
G04 #@! TF.ProjectId,jtag-swd,6A7461672D7377642E6B696361645F70,rev?*
G04 #@! TF.SameCoordinates,Original*
G04 #@! TF.FileFunction,Copper,L2,Bot,Signal*
G04 #@! TF.FilePolarity,Positive*
%FSLAX46Y46*%
G04 Gerber Fmt 4.6, Leading zero omitted, Abs format (unit mm)*
G04 Created by KiCad (PCBNEW (5.0.1-3-g963ef8bb5)) date 2018 December 17, Monday 14:06:15*
%MOMM*%
%LPD*%
G01*
G04 APERTURE LIST*
G04 #@! TA.AperFunction,ComponentPad*
%ADD10O,1.700000X1.700000*%
G04 #@! TD*
G04 #@! TA.AperFunction,ComponentPad*
%ADD11R,1.700000X1.700000*%
G04 #@! TD*
G04 #@! TA.AperFunction,ComponentPad*
%ADD12R,1.000000X1.000000*%
G04 #@! TD*
G04 #@! TA.AperFunction,ComponentPad*
%ADD13O,1.000000X1.000000*%
G04 #@! TD*
G04 #@! TA.AperFunction,Conductor*
%ADD14C,0.254000*%
G04 #@! TD*
G04 APERTURE END LIST*
D10*
G04 #@! TO.P,J3,2*
G04 #@! TO.N,/SWO*
X74295000Y-53340000D03*
D11*
G04 #@! TO.P,J3,1*
G04 #@! TO.N,/RESET*
X76835000Y-53340000D03*
G04 #@! TD*
G04 #@! TO.P,J2,1*
G04 #@! TO.N,GND*
X66040000Y-52070000D03*
D10*
G04 #@! TO.P,J2,2*
G04 #@! TO.N,/SWCLK*
X66040000Y-49530000D03*
G04 #@! TO.P,J2,3*
G04 #@! TO.N,/SWDIO*
X66040000Y-46990000D03*
G04 #@! TO.P,J2,4*
G04 #@! TO.N,+3V3*
X66040000Y-44450000D03*
G04 #@! TD*
D12*
G04 #@! TO.P,J1,9*
G04 #@! TO.N,N/C*
X76200000Y-50800000D03*
D13*
G04 #@! TO.P,J1,10*
G04 #@! TO.N,/RESET*
X74930000Y-50800000D03*
G04 #@! TO.P,J1,7*
G04 #@! TO.N,N/C*
X76200000Y-49530000D03*
G04 #@! TO.P,J1,8*
X74930000Y-49530000D03*
G04 #@! TO.P,J1,5*
G04 #@! TO.N,GND*
X76200000Y-48260000D03*
G04 #@! TO.P,J1,6*
G04 #@! TO.N,/SWO*
X74930000Y-48260000D03*
G04 #@! TO.P,J1,3*
G04 #@! TO.N,GND*
X76200000Y-46990000D03*
G04 #@! TO.P,J1,4*
G04 #@! TO.N,/SWCLK*
X74930000Y-46990000D03*
G04 #@! TO.P,J1,1*
G04 #@! TO.N,+3V3*
X76200000Y-45720000D03*
G04 #@! TO.P,J1,2*
G04 #@! TO.N,/SWDIO*
X74930000Y-45720000D03*
G04 #@! TD*
D14*
G04 #@! TO.N,GND*
G36*
X77657787Y-42664065D02*
X77822920Y-42759405D01*
X77945488Y-42905477D01*
X78021555Y-43114465D01*
X78030001Y-43211007D01*
X78030000Y-51956814D01*
X77932765Y-51891843D01*
X77685000Y-51842560D01*
X77030971Y-51842560D01*
X77157809Y-51757809D01*
X77298157Y-51547765D01*
X77347440Y-51300000D01*
X77347440Y-50300000D01*
X77298157Y-50052235D01*
X77257131Y-49990836D01*
X77269146Y-49972855D01*
X77357235Y-49530000D01*
X77269146Y-49087145D01*
X77132801Y-48883090D01*
X77187127Y-48820209D01*
X77294119Y-48561874D01*
X77167954Y-48387000D01*
X76327000Y-48387000D01*
X76327000Y-48398027D01*
X76311783Y-48395000D01*
X76088217Y-48395000D01*
X76073000Y-48398027D01*
X76073000Y-48387000D01*
X76061973Y-48387000D01*
X76087235Y-48260000D01*
X76061973Y-48133000D01*
X76073000Y-48133000D01*
X76073000Y-47117000D01*
X76327000Y-47117000D01*
X76327000Y-48133000D01*
X77167954Y-48133000D01*
X77294119Y-47958126D01*
X77187127Y-47699791D01*
X77122511Y-47625000D01*
X77187127Y-47550209D01*
X77294119Y-47291874D01*
X77167954Y-47117000D01*
X76327000Y-47117000D01*
X76073000Y-47117000D01*
X76061973Y-47117000D01*
X76087235Y-46990000D01*
X76061973Y-46863000D01*
X76073000Y-46863000D01*
X76073000Y-46851973D01*
X76088217Y-46855000D01*
X76311783Y-46855000D01*
X76327000Y-46851973D01*
X76327000Y-46863000D01*
X77167954Y-46863000D01*
X77294119Y-46688126D01*
X77187127Y-46429791D01*
X77132801Y-46366910D01*
X77269146Y-46162855D01*
X77357235Y-45720000D01*
X77269146Y-45277145D01*
X77018289Y-44901711D01*
X76642855Y-44650854D01*
X76311783Y-44585000D01*
X76088217Y-44585000D01*
X75757145Y-44650854D01*
X75565000Y-44779241D01*
X75372855Y-44650854D01*
X75041783Y-44585000D01*
X74818217Y-44585000D01*
X74487145Y-44650854D01*
X74111711Y-44901711D01*
X73860854Y-45277145D01*
X73772765Y-45720000D01*
X73860854Y-46162855D01*
X73989241Y-46355000D01*
X73860854Y-46547145D01*
X73772765Y-46990000D01*
X73860854Y-47432855D01*
X73989241Y-47625000D01*
X73860854Y-47817145D01*
X73772765Y-48260000D01*
X73860854Y-48702855D01*
X73989241Y-48895000D01*
X73860854Y-49087145D01*
X73772765Y-49530000D01*
X73860854Y-49972855D01*
X73989241Y-50165000D01*
X73860854Y-50357145D01*
X73772765Y-50800000D01*
X73860854Y-51242855D01*
X74111711Y-51618289D01*
X74476451Y-51862001D01*
X74441256Y-51855000D01*
X74148744Y-51855000D01*
X73715582Y-51941161D01*
X73224375Y-52269375D01*
X72896161Y-52760582D01*
X72780908Y-53340000D01*
X72892299Y-53900000D01*
X63562119Y-53900000D01*
X63312213Y-53855935D01*
X63147081Y-53760596D01*
X63024512Y-53614524D01*
X62948445Y-53405532D01*
X62940000Y-53309004D01*
X62940000Y-52355750D01*
X64555000Y-52355750D01*
X64555000Y-53046310D01*
X64651673Y-53279699D01*
X64830302Y-53458327D01*
X65063691Y-53555000D01*
X65754250Y-53555000D01*
X65913000Y-53396250D01*
X65913000Y-52197000D01*
X66167000Y-52197000D01*
X66167000Y-53396250D01*
X66325750Y-53555000D01*
X67016309Y-53555000D01*
X67249698Y-53458327D01*
X67428327Y-53279699D01*
X67525000Y-53046310D01*
X67525000Y-52355750D01*
X67366250Y-52197000D01*
X66167000Y-52197000D01*
X65913000Y-52197000D01*
X64713750Y-52197000D01*
X64555000Y-52355750D01*
X62940000Y-52355750D01*
X62940000Y-44450000D01*
X64525908Y-44450000D01*
X64641161Y-45029418D01*
X64969375Y-45520625D01*
X65267761Y-45720000D01*
X64969375Y-45919375D01*
X64641161Y-46410582D01*
X64525908Y-46990000D01*
X64641161Y-47569418D01*
X64969375Y-48060625D01*
X65267761Y-48260000D01*
X64969375Y-48459375D01*
X64641161Y-48950582D01*
X64525908Y-49530000D01*
X64641161Y-50109418D01*
X64969375Y-50600625D01*
X64991033Y-50615096D01*
X64830302Y-50681673D01*
X64651673Y-50860301D01*
X64555000Y-51093690D01*
X64555000Y-51784250D01*
X64713750Y-51943000D01*
X65913000Y-51943000D01*
X65913000Y-51923000D01*
X66167000Y-51923000D01*
X66167000Y-51943000D01*
X67366250Y-51943000D01*
X67525000Y-51784250D01*
X67525000Y-51093690D01*
X67428327Y-50860301D01*
X67249698Y-50681673D01*
X67088967Y-50615096D01*
X67110625Y-50600625D01*
X67438839Y-50109418D01*
X67554092Y-49530000D01*
X67438839Y-48950582D01*
X67110625Y-48459375D01*
X66812239Y-48260000D01*
X67110625Y-48060625D01*
X67438839Y-47569418D01*
X67554092Y-46990000D01*
X67438839Y-46410582D01*
X67110625Y-45919375D01*
X66812239Y-45720000D01*
X67110625Y-45520625D01*
X67438839Y-45029418D01*
X67554092Y-44450000D01*
X67438839Y-43870582D01*
X67110625Y-43379375D01*
X66619418Y-43051161D01*
X66186256Y-42965000D01*
X65893744Y-42965000D01*
X65460582Y-43051161D01*
X64969375Y-43379375D01*
X64641161Y-43870582D01*
X64525908Y-44450000D01*
X62940000Y-44450000D01*
X62940000Y-43242119D01*
X62984065Y-42992213D01*
X63079405Y-42827080D01*
X63225477Y-42704512D01*
X63434465Y-42628445D01*
X63530996Y-42620000D01*
X77407881Y-42620000D01*
X77657787Y-42664065D01*
X77657787Y-42664065D01*
G37*
X77657787Y-42664065D02*
X77822920Y-42759405D01*
X77945488Y-42905477D01*
X78021555Y-43114465D01*
X78030001Y-43211007D01*
X78030000Y-51956814D01*
X77932765Y-51891843D01*
X77685000Y-51842560D01*
X77030971Y-51842560D01*
X77157809Y-51757809D01*
X77298157Y-51547765D01*
X77347440Y-51300000D01*
X77347440Y-50300000D01*
X77298157Y-50052235D01*
X77257131Y-49990836D01*
X77269146Y-49972855D01*
X77357235Y-49530000D01*
X77269146Y-49087145D01*
X77132801Y-48883090D01*
X77187127Y-48820209D01*
X77294119Y-48561874D01*
X77167954Y-48387000D01*
X76327000Y-48387000D01*
X76327000Y-48398027D01*
X76311783Y-48395000D01*
X76088217Y-48395000D01*
X76073000Y-48398027D01*
X76073000Y-48387000D01*
X76061973Y-48387000D01*
X76087235Y-48260000D01*
X76061973Y-48133000D01*
X76073000Y-48133000D01*
X76073000Y-47117000D01*
X76327000Y-47117000D01*
X76327000Y-48133000D01*
X77167954Y-48133000D01*
X77294119Y-47958126D01*
X77187127Y-47699791D01*
X77122511Y-47625000D01*
X77187127Y-47550209D01*
X77294119Y-47291874D01*
X77167954Y-47117000D01*
X76327000Y-47117000D01*
X76073000Y-47117000D01*
X76061973Y-47117000D01*
X76087235Y-46990000D01*
X76061973Y-46863000D01*
X76073000Y-46863000D01*
X76073000Y-46851973D01*
X76088217Y-46855000D01*
X76311783Y-46855000D01*
X76327000Y-46851973D01*
X76327000Y-46863000D01*
X77167954Y-46863000D01*
X77294119Y-46688126D01*
X77187127Y-46429791D01*
X77132801Y-46366910D01*
X77269146Y-46162855D01*
X77357235Y-45720000D01*
X77269146Y-45277145D01*
X77018289Y-44901711D01*
X76642855Y-44650854D01*
X76311783Y-44585000D01*
X76088217Y-44585000D01*
X75757145Y-44650854D01*
X75565000Y-44779241D01*
X75372855Y-44650854D01*
X75041783Y-44585000D01*
X74818217Y-44585000D01*
X74487145Y-44650854D01*
X74111711Y-44901711D01*
X73860854Y-45277145D01*
X73772765Y-45720000D01*
X73860854Y-46162855D01*
X73989241Y-46355000D01*
X73860854Y-46547145D01*
X73772765Y-46990000D01*
X73860854Y-47432855D01*
X73989241Y-47625000D01*
X73860854Y-47817145D01*
X73772765Y-48260000D01*
X73860854Y-48702855D01*
X73989241Y-48895000D01*
X73860854Y-49087145D01*
X73772765Y-49530000D01*
X73860854Y-49972855D01*
X73989241Y-50165000D01*
X73860854Y-50357145D01*
X73772765Y-50800000D01*
X73860854Y-51242855D01*
X74111711Y-51618289D01*
X74476451Y-51862001D01*
X74441256Y-51855000D01*
X74148744Y-51855000D01*
X73715582Y-51941161D01*
X73224375Y-52269375D01*
X72896161Y-52760582D01*
X72780908Y-53340000D01*
X72892299Y-53900000D01*
X63562119Y-53900000D01*
X63312213Y-53855935D01*
X63147081Y-53760596D01*
X63024512Y-53614524D01*
X62948445Y-53405532D01*
X62940000Y-53309004D01*
X62940000Y-52355750D01*
X64555000Y-52355750D01*
X64555000Y-53046310D01*
X64651673Y-53279699D01*
X64830302Y-53458327D01*
X65063691Y-53555000D01*
X65754250Y-53555000D01*
X65913000Y-53396250D01*
X65913000Y-52197000D01*
X66167000Y-52197000D01*
X66167000Y-53396250D01*
X66325750Y-53555000D01*
X67016309Y-53555000D01*
X67249698Y-53458327D01*
X67428327Y-53279699D01*
X67525000Y-53046310D01*
X67525000Y-52355750D01*
X67366250Y-52197000D01*
X66167000Y-52197000D01*
X65913000Y-52197000D01*
X64713750Y-52197000D01*
X64555000Y-52355750D01*
X62940000Y-52355750D01*
X62940000Y-44450000D01*
X64525908Y-44450000D01*
X64641161Y-45029418D01*
X64969375Y-45520625D01*
X65267761Y-45720000D01*
X64969375Y-45919375D01*
X64641161Y-46410582D01*
X64525908Y-46990000D01*
X64641161Y-47569418D01*
X64969375Y-48060625D01*
X65267761Y-48260000D01*
X64969375Y-48459375D01*
X64641161Y-48950582D01*
X64525908Y-49530000D01*
X64641161Y-50109418D01*
X64969375Y-50600625D01*
X64991033Y-50615096D01*
X64830302Y-50681673D01*
X64651673Y-50860301D01*
X64555000Y-51093690D01*
X64555000Y-51784250D01*
X64713750Y-51943000D01*
X65913000Y-51943000D01*
X65913000Y-51923000D01*
X66167000Y-51923000D01*
X66167000Y-51943000D01*
X67366250Y-51943000D01*
X67525000Y-51784250D01*
X67525000Y-51093690D01*
X67428327Y-50860301D01*
X67249698Y-50681673D01*
X67088967Y-50615096D01*
X67110625Y-50600625D01*
X67438839Y-50109418D01*
X67554092Y-49530000D01*
X67438839Y-48950582D01*
X67110625Y-48459375D01*
X66812239Y-48260000D01*
X67110625Y-48060625D01*
X67438839Y-47569418D01*
X67554092Y-46990000D01*
X67438839Y-46410582D01*
X67110625Y-45919375D01*
X66812239Y-45720000D01*
X67110625Y-45520625D01*
X67438839Y-45029418D01*
X67554092Y-44450000D01*
X67438839Y-43870582D01*
X67110625Y-43379375D01*
X66619418Y-43051161D01*
X66186256Y-42965000D01*
X65893744Y-42965000D01*
X65460582Y-43051161D01*
X64969375Y-43379375D01*
X64641161Y-43870582D01*
X64525908Y-44450000D01*
X62940000Y-44450000D01*
X62940000Y-43242119D01*
X62984065Y-42992213D01*
X63079405Y-42827080D01*
X63225477Y-42704512D01*
X63434465Y-42628445D01*
X63530996Y-42620000D01*
X77407881Y-42620000D01*
X77657787Y-42664065D01*
G04 #@! TD*
M02*
