G04 #@! TF.GenerationSoftware,KiCad,Pcbnew,(5.0.2-5-10.14)*
G04 #@! TF.CreationDate,2019-03-07T11:44:03+01:00*
G04 #@! TF.ProjectId,jtag-swd,6a746167-2d73-4776-942e-6b696361645f,rev?*
G04 #@! TF.SameCoordinates,Original*
G04 #@! TF.FileFunction,Legend,Bot*
G04 #@! TF.FilePolarity,Positive*
%FSLAX46Y46*%
G04 Gerber Fmt 4.6, Leading zero omitted, Abs format (unit mm)*
G04 Created by KiCad (PCBNEW (5.0.2-5-10.14)) date 2019 March 07, Thursday 11:44:03*
%MOMM*%
%LPD*%
G01*
G04 APERTURE LIST*
%ADD10C,0.150000*%
%ADD11C,0.300000*%
G04 APERTURE END LIST*
D10*
G36*
X77000000Y-47500000D02*
X75500000Y-47500000D01*
X75500000Y-50000000D01*
X77000000Y-50000000D01*
X77000000Y-47500000D01*
G37*
X77000000Y-47500000D02*
X75500000Y-47500000D01*
X75500000Y-50000000D01*
X77000000Y-50000000D01*
X77000000Y-47500000D01*
G36*
X77250000Y-44750000D02*
X77250000Y-46250000D01*
X75500000Y-46250000D01*
X75500000Y-44750000D01*
X77250000Y-44750000D01*
G37*
X77250000Y-44750000D02*
X77250000Y-46250000D01*
X75500000Y-46250000D01*
X75500000Y-44750000D01*
X77250000Y-44750000D01*
G36*
X84000000Y-46000000D02*
X84000000Y-43500000D01*
X87750000Y-43500000D01*
X87750000Y-46000000D01*
X84000000Y-46000000D01*
G37*
X84000000Y-46000000D02*
X84000000Y-43500000D01*
X87750000Y-43500000D01*
X87750000Y-46000000D01*
X84000000Y-46000000D01*
X74800000Y-52400000D02*
X75800000Y-52400000D01*
X74800000Y-53700000D02*
X75800000Y-53700000D01*
X73800000Y-42500000D02*
X74100000Y-42500000D01*
X74800000Y-53700000D02*
X74800000Y-51500000D01*
X79200000Y-50700000D02*
X76900000Y-50700000D01*
X81100000Y-52700000D02*
X79200000Y-50700000D01*
X84000000Y-52700000D02*
X81100000Y-52700000D01*
X83790476Y-51352380D02*
X83171428Y-51352380D01*
X83504761Y-51733333D01*
X83361904Y-51733333D01*
X83266666Y-51780952D01*
X83219047Y-51828571D01*
X83171428Y-51923809D01*
X83171428Y-52161904D01*
X83219047Y-52257142D01*
X83266666Y-52304761D01*
X83361904Y-52352380D01*
X83647619Y-52352380D01*
X83742857Y-52304761D01*
X83790476Y-52257142D01*
X82838095Y-51685714D02*
X82600000Y-52352380D01*
X82361904Y-51685714D01*
X82076190Y-51352380D02*
X81457142Y-51352380D01*
X81790476Y-51733333D01*
X81647619Y-51733333D01*
X81552380Y-51780952D01*
X81504761Y-51828571D01*
X81457142Y-51923809D01*
X81457142Y-52161904D01*
X81504761Y-52257142D01*
X81552380Y-52304761D01*
X81647619Y-52352380D01*
X81933333Y-52352380D01*
X82028571Y-52304761D01*
X82076190Y-52257142D01*
X79833333Y-52704761D02*
X79738095Y-52752380D01*
X79547619Y-52752380D01*
X79452380Y-52704761D01*
X79404761Y-52609523D01*
X79404761Y-52561904D01*
X79452380Y-52466666D01*
X79547619Y-52419047D01*
X79690476Y-52419047D01*
X79785714Y-52371428D01*
X79833333Y-52276190D01*
X79833333Y-52228571D01*
X79785714Y-52133333D01*
X79690476Y-52085714D01*
X79547619Y-52085714D01*
X79452380Y-52133333D01*
X79071428Y-52085714D02*
X78880952Y-52752380D01*
X78690476Y-52276190D01*
X78500000Y-52752380D01*
X78309523Y-52085714D01*
X77500000Y-52704761D02*
X77595238Y-52752380D01*
X77785714Y-52752380D01*
X77880952Y-52704761D01*
X77928571Y-52657142D01*
X77976190Y-52561904D01*
X77976190Y-52276190D01*
X77928571Y-52180952D01*
X77880952Y-52133333D01*
X77785714Y-52085714D01*
X77595238Y-52085714D01*
X77500000Y-52133333D01*
X76928571Y-52752380D02*
X77023809Y-52704761D01*
X77071428Y-52609523D01*
X77071428Y-51752380D01*
X76547619Y-52752380D02*
X76547619Y-51752380D01*
X76452380Y-52371428D02*
X76166666Y-52752380D01*
X76166666Y-52085714D02*
X76547619Y-52466666D01*
X73600000Y-47400000D02*
X74000000Y-47900000D01*
X73600000Y-45100000D02*
X73600000Y-47400000D01*
X79880952Y-54004761D02*
X79785714Y-54052380D01*
X79595238Y-54052380D01*
X79500000Y-54004761D01*
X79452380Y-53909523D01*
X79452380Y-53861904D01*
X79500000Y-53766666D01*
X79595238Y-53719047D01*
X79738095Y-53719047D01*
X79833333Y-53671428D01*
X79880952Y-53576190D01*
X79880952Y-53528571D01*
X79833333Y-53433333D01*
X79738095Y-53385714D01*
X79595238Y-53385714D01*
X79500000Y-53433333D01*
X79119047Y-53385714D02*
X78928571Y-54052380D01*
X78738095Y-53576190D01*
X78547619Y-54052380D01*
X78357142Y-53385714D01*
X77547619Y-54052380D02*
X77547619Y-53052380D01*
X77547619Y-54004761D02*
X77642857Y-54052380D01*
X77833333Y-54052380D01*
X77928571Y-54004761D01*
X77976190Y-53957142D01*
X78023809Y-53861904D01*
X78023809Y-53576190D01*
X77976190Y-53480952D01*
X77928571Y-53433333D01*
X77833333Y-53385714D01*
X77642857Y-53385714D01*
X77547619Y-53433333D01*
X77071428Y-54052380D02*
X77071428Y-53385714D01*
X77071428Y-53052380D02*
X77119047Y-53100000D01*
X77071428Y-53147619D01*
X77023809Y-53100000D01*
X77071428Y-53052380D01*
X77071428Y-53147619D01*
X76452380Y-54052380D02*
X76547619Y-54004761D01*
X76595238Y-53957142D01*
X76642857Y-53861904D01*
X76642857Y-53576190D01*
X76595238Y-53480952D01*
X76547619Y-53433333D01*
X76452380Y-53385714D01*
X76309523Y-53385714D01*
X76214285Y-53433333D01*
X76166666Y-53480952D01*
X76119047Y-53576190D01*
X76119047Y-53861904D01*
X76166666Y-53957142D01*
X76214285Y-54004761D01*
X76309523Y-54052380D01*
X76452380Y-54052380D01*
D11*
X77700000Y-47100000D02*
X77700000Y-49000000D01*
D10*
X88861904Y-44345238D02*
X88061904Y-44345238D01*
X88633333Y-44611904D01*
X88061904Y-44878571D01*
X88861904Y-44878571D01*
X88861904Y-45602380D02*
X88442857Y-45602380D01*
X88366666Y-45564285D01*
X88328571Y-45488095D01*
X88328571Y-45335714D01*
X88366666Y-45259523D01*
X88823809Y-45602380D02*
X88861904Y-45526190D01*
X88861904Y-45335714D01*
X88823809Y-45259523D01*
X88747619Y-45221428D01*
X88671428Y-45221428D01*
X88595238Y-45259523D01*
X88557142Y-45335714D01*
X88557142Y-45526190D01*
X88519047Y-45602380D01*
X88861904Y-46326190D02*
X88061904Y-46326190D01*
X88823809Y-46326190D02*
X88861904Y-46250000D01*
X88861904Y-46097619D01*
X88823809Y-46021428D01*
X88785714Y-45983333D01*
X88709523Y-45945238D01*
X88480952Y-45945238D01*
X88404761Y-45983333D01*
X88366666Y-46021428D01*
X88328571Y-46097619D01*
X88328571Y-46250000D01*
X88366666Y-46326190D01*
X88823809Y-47011904D02*
X88861904Y-46935714D01*
X88861904Y-46783333D01*
X88823809Y-46707142D01*
X88747619Y-46669047D01*
X88442857Y-46669047D01*
X88366666Y-46707142D01*
X88328571Y-46783333D01*
X88328571Y-46935714D01*
X88366666Y-47011904D01*
X88442857Y-47050000D01*
X88519047Y-47050000D01*
X88595238Y-46669047D01*
X88861904Y-48002380D02*
X88328571Y-48002380D01*
X88061904Y-48002380D02*
X88100000Y-47964285D01*
X88138095Y-48002380D01*
X88100000Y-48040476D01*
X88061904Y-48002380D01*
X88138095Y-48002380D01*
X88328571Y-48383333D02*
X88861904Y-48383333D01*
X88404761Y-48383333D02*
X88366666Y-48421428D01*
X88328571Y-48497619D01*
X88328571Y-48611904D01*
X88366666Y-48688095D01*
X88442857Y-48726190D01*
X88861904Y-48726190D01*
X88861904Y-49716666D02*
X88061904Y-49716666D01*
X88061904Y-49907142D01*
X88100000Y-50021428D01*
X88176190Y-50097619D01*
X88252380Y-50135714D01*
X88404761Y-50173809D01*
X88519047Y-50173809D01*
X88671428Y-50135714D01*
X88747619Y-50097619D01*
X88823809Y-50021428D01*
X88861904Y-49907142D01*
X88861904Y-49716666D01*
X88823809Y-50821428D02*
X88861904Y-50745238D01*
X88861904Y-50592857D01*
X88823809Y-50516666D01*
X88747619Y-50478571D01*
X88442857Y-50478571D01*
X88366666Y-50516666D01*
X88328571Y-50592857D01*
X88328571Y-50745238D01*
X88366666Y-50821428D01*
X88442857Y-50859523D01*
X88519047Y-50859523D01*
X88595238Y-50478571D01*
X88861904Y-51316666D02*
X88823809Y-51240476D01*
X88747619Y-51202380D01*
X88061904Y-51202380D01*
X88328571Y-51507142D02*
X88328571Y-51811904D01*
X88861904Y-51621428D02*
X88176190Y-51621428D01*
X88100000Y-51659523D01*
X88061904Y-51735714D01*
X88061904Y-51811904D01*
X88328571Y-51964285D02*
X88328571Y-52269047D01*
X88061904Y-52078571D02*
X88747619Y-52078571D01*
X88823809Y-52116666D01*
X88861904Y-52192857D01*
X88861904Y-52269047D01*
X73823809Y-42747619D02*
X73861904Y-42823809D01*
X73861904Y-42976190D01*
X73823809Y-43052380D01*
X73747619Y-43090476D01*
X73709523Y-43090476D01*
X73633333Y-43052380D01*
X73595238Y-42976190D01*
X73595238Y-42861904D01*
X73557142Y-42785714D01*
X73480952Y-42747619D01*
X73442857Y-42747619D01*
X73366666Y-42785714D01*
X73328571Y-42861904D01*
X73328571Y-42976190D01*
X73366666Y-43052380D01*
X73328571Y-43357142D02*
X73861904Y-43509523D01*
X73480952Y-43661904D01*
X73861904Y-43814285D01*
X73328571Y-43966666D01*
X73861904Y-44385714D02*
X73823809Y-44309523D01*
X73785714Y-44271428D01*
X73709523Y-44233333D01*
X73480952Y-44233333D01*
X73404761Y-44271428D01*
X73366666Y-44309523D01*
X73328571Y-44385714D01*
X73328571Y-44500000D01*
X73366666Y-44576190D01*
X73404761Y-44614285D01*
X73480952Y-44652380D01*
X73709523Y-44652380D01*
X73785714Y-44614285D01*
X73823809Y-44576190D01*
X73861904Y-44500000D01*
X73861904Y-44385714D01*
X83761904Y-47704761D02*
X83619047Y-47752380D01*
X83380952Y-47752380D01*
X83285714Y-47704761D01*
X83238095Y-47657142D01*
X83190476Y-47561904D01*
X83190476Y-47466666D01*
X83238095Y-47371428D01*
X83285714Y-47323809D01*
X83380952Y-47276190D01*
X83571428Y-47228571D01*
X83666666Y-47180952D01*
X83714285Y-47133333D01*
X83761904Y-47038095D01*
X83761904Y-46942857D01*
X83714285Y-46847619D01*
X83666666Y-46800000D01*
X83571428Y-46752380D01*
X83333333Y-46752380D01*
X83190476Y-46800000D01*
X82857142Y-46752380D02*
X82619047Y-47752380D01*
X82428571Y-47038095D01*
X82238095Y-47752380D01*
X82000000Y-46752380D01*
X81047619Y-47657142D02*
X81095238Y-47704761D01*
X81238095Y-47752380D01*
X81333333Y-47752380D01*
X81476190Y-47704761D01*
X81571428Y-47609523D01*
X81619047Y-47514285D01*
X81666666Y-47323809D01*
X81666666Y-47180952D01*
X81619047Y-46990476D01*
X81571428Y-46895238D01*
X81476190Y-46800000D01*
X81333333Y-46752380D01*
X81238095Y-46752380D01*
X81095238Y-46800000D01*
X81047619Y-46847619D01*
X80142857Y-47752380D02*
X80619047Y-47752380D01*
X80619047Y-46752380D01*
X79809523Y-47752380D02*
X79809523Y-46752380D01*
X79238095Y-47752380D02*
X79666666Y-47180952D01*
X79238095Y-46752380D02*
X79809523Y-47323809D01*
X83761904Y-50104761D02*
X83619047Y-50152380D01*
X83380952Y-50152380D01*
X83285714Y-50104761D01*
X83238095Y-50057142D01*
X83190476Y-49961904D01*
X83190476Y-49866666D01*
X83238095Y-49771428D01*
X83285714Y-49723809D01*
X83380952Y-49676190D01*
X83571428Y-49628571D01*
X83666666Y-49580952D01*
X83714285Y-49533333D01*
X83761904Y-49438095D01*
X83761904Y-49342857D01*
X83714285Y-49247619D01*
X83666666Y-49200000D01*
X83571428Y-49152380D01*
X83333333Y-49152380D01*
X83190476Y-49200000D01*
X82857142Y-49152380D02*
X82619047Y-50152380D01*
X82428571Y-49438095D01*
X82238095Y-50152380D01*
X81999999Y-49152380D01*
X81619047Y-50152380D02*
X81619047Y-49152380D01*
X81380952Y-49152380D01*
X81238095Y-49200000D01*
X81142857Y-49295238D01*
X81095237Y-49390476D01*
X81047618Y-49580952D01*
X81047618Y-49723809D01*
X81095237Y-49914285D01*
X81142857Y-50009523D01*
X81238095Y-50104761D01*
X81380952Y-50152380D01*
X81619047Y-50152380D01*
X80619047Y-50152380D02*
X80619047Y-49152380D01*
X79952380Y-49152380D02*
X79761904Y-49152380D01*
X79666666Y-49200000D01*
X79571428Y-49295238D01*
X79523809Y-49485714D01*
X79523809Y-49819047D01*
X79571428Y-50009523D01*
X79666666Y-50104761D01*
X79761904Y-50152380D01*
X79952380Y-50152380D01*
X80047618Y-50104761D01*
X80142857Y-50009523D01*
X80190476Y-49819047D01*
X80190476Y-49485714D01*
X80142857Y-49295238D01*
X80047618Y-49200000D01*
X79952380Y-49152380D01*
X83190475Y-44300000D02*
X83285713Y-44252380D01*
X83428571Y-44252380D01*
X83571428Y-44300000D01*
X83666666Y-44395238D01*
X83714285Y-44490476D01*
X83761904Y-44680952D01*
X83761904Y-44823809D01*
X83714285Y-45014285D01*
X83666666Y-45109523D01*
X83571428Y-45204761D01*
X83428571Y-45252380D01*
X83333332Y-45252380D01*
X83190475Y-45204761D01*
X83142856Y-45157142D01*
X83142856Y-44823809D01*
X83333332Y-44823809D01*
X82714285Y-45252380D02*
X82714285Y-44252380D01*
X82142856Y-45252380D01*
X82142856Y-44252380D01*
X81666666Y-45252380D02*
X81666666Y-44252380D01*
X81428571Y-44252380D01*
X81285713Y-44300000D01*
X81190475Y-44395238D01*
X81142856Y-44490476D01*
X81095237Y-44680952D01*
X81095237Y-44823809D01*
X81142856Y-45014285D01*
X81190475Y-45109523D01*
X81285713Y-45204761D01*
X81428571Y-45252380D01*
X81666666Y-45252380D01*
M02*
