G04 #@! TF.GenerationSoftware,KiCad,Pcbnew,(5.0.1-3-g963ef8bb5)*
G04 #@! TF.CreationDate,2018-12-20T13:19:58+01:00*
G04 #@! TF.ProjectId,jtag-swd,6A7461672D7377642E6B696361645F70,rev?*
G04 #@! TF.SameCoordinates,Original*
G04 #@! TF.FileFunction,Legend,Bot*
G04 #@! TF.FilePolarity,Positive*
%FSLAX46Y46*%
G04 Gerber Fmt 4.6, Leading zero omitted, Abs format (unit mm)*
G04 Created by KiCad (PCBNEW (5.0.1-3-g963ef8bb5)) date 2018 December 20, Thursday 13:19:58*
%MOMM*%
%LPD*%
G01*
G04 APERTURE LIST*
%ADD10C,0.150000*%
%ADD11C,0.200000*%
%ADD12C,0.300000*%
%ADD13C,0.120000*%
G04 APERTURE END LIST*
D10*
X70263238Y-42564095D02*
X70263238Y-43364095D01*
X70529904Y-42792666D01*
X70796571Y-43364095D01*
X70796571Y-42564095D01*
X71520380Y-42564095D02*
X71520380Y-42983142D01*
X71482285Y-43059333D01*
X71406095Y-43097428D01*
X71253714Y-43097428D01*
X71177523Y-43059333D01*
X71520380Y-42602190D02*
X71444190Y-42564095D01*
X71253714Y-42564095D01*
X71177523Y-42602190D01*
X71139428Y-42678380D01*
X71139428Y-42754571D01*
X71177523Y-42830761D01*
X71253714Y-42868857D01*
X71444190Y-42868857D01*
X71520380Y-42906952D01*
X72244190Y-42564095D02*
X72244190Y-43364095D01*
X72244190Y-42602190D02*
X72168000Y-42564095D01*
X72015619Y-42564095D01*
X71939428Y-42602190D01*
X71901333Y-42640285D01*
X71863238Y-42716476D01*
X71863238Y-42945047D01*
X71901333Y-43021238D01*
X71939428Y-43059333D01*
X72015619Y-43097428D01*
X72168000Y-43097428D01*
X72244190Y-43059333D01*
X72929904Y-42602190D02*
X72853714Y-42564095D01*
X72701333Y-42564095D01*
X72625142Y-42602190D01*
X72587047Y-42678380D01*
X72587047Y-42983142D01*
X72625142Y-43059333D01*
X72701333Y-43097428D01*
X72853714Y-43097428D01*
X72929904Y-43059333D01*
X72968000Y-42983142D01*
X72968000Y-42906952D01*
X72587047Y-42830761D01*
X73920380Y-42564095D02*
X73920380Y-43097428D01*
X73920380Y-43364095D02*
X73882285Y-43326000D01*
X73920380Y-43287904D01*
X73958476Y-43326000D01*
X73920380Y-43364095D01*
X73920380Y-43287904D01*
X74301333Y-43097428D02*
X74301333Y-42564095D01*
X74301333Y-43021238D02*
X74339428Y-43059333D01*
X74415619Y-43097428D01*
X74529904Y-43097428D01*
X74606095Y-43059333D01*
X74644190Y-42983142D01*
X74644190Y-42564095D01*
X75634666Y-42564095D02*
X75634666Y-43364095D01*
X75825142Y-43364095D01*
X75939428Y-43326000D01*
X76015619Y-43249809D01*
X76053714Y-43173619D01*
X76091809Y-43021238D01*
X76091809Y-42906952D01*
X76053714Y-42754571D01*
X76015619Y-42678380D01*
X75939428Y-42602190D01*
X75825142Y-42564095D01*
X75634666Y-42564095D01*
X76739428Y-42602190D02*
X76663238Y-42564095D01*
X76510857Y-42564095D01*
X76434666Y-42602190D01*
X76396571Y-42678380D01*
X76396571Y-42983142D01*
X76434666Y-43059333D01*
X76510857Y-43097428D01*
X76663238Y-43097428D01*
X76739428Y-43059333D01*
X76777523Y-42983142D01*
X76777523Y-42906952D01*
X76396571Y-42830761D01*
X77234666Y-42564095D02*
X77158476Y-42602190D01*
X77120380Y-42678380D01*
X77120380Y-43364095D01*
X77425142Y-43097428D02*
X77729904Y-43097428D01*
X77539428Y-42564095D02*
X77539428Y-43249809D01*
X77577523Y-43326000D01*
X77653714Y-43364095D01*
X77729904Y-43364095D01*
X77882285Y-43097428D02*
X78187047Y-43097428D01*
X77996571Y-43364095D02*
X77996571Y-42678380D01*
X78034666Y-42602190D01*
X78110857Y-42564095D01*
X78187047Y-42564095D01*
D11*
X68080238Y-49125238D02*
X68223095Y-49077619D01*
X68461190Y-49077619D01*
X68556428Y-49125238D01*
X68604047Y-49172857D01*
X68651666Y-49268095D01*
X68651666Y-49363333D01*
X68604047Y-49458571D01*
X68556428Y-49506190D01*
X68461190Y-49553809D01*
X68270714Y-49601428D01*
X68175476Y-49649047D01*
X68127857Y-49696666D01*
X68080238Y-49791904D01*
X68080238Y-49887142D01*
X68127857Y-49982380D01*
X68175476Y-50030000D01*
X68270714Y-50077619D01*
X68508809Y-50077619D01*
X68651666Y-50030000D01*
X68985000Y-50077619D02*
X69223095Y-49077619D01*
X69413571Y-49791904D01*
X69604047Y-49077619D01*
X69842143Y-50077619D01*
X70794523Y-49172857D02*
X70746904Y-49125238D01*
X70604047Y-49077619D01*
X70508809Y-49077619D01*
X70365952Y-49125238D01*
X70270714Y-49220476D01*
X70223095Y-49315714D01*
X70175476Y-49506190D01*
X70175476Y-49649047D01*
X70223095Y-49839523D01*
X70270714Y-49934761D01*
X70365952Y-50030000D01*
X70508809Y-50077619D01*
X70604047Y-50077619D01*
X70746904Y-50030000D01*
X70794523Y-49982380D01*
X71699285Y-49077619D02*
X71223095Y-49077619D01*
X71223095Y-50077619D01*
X72032619Y-49077619D02*
X72032619Y-50077619D01*
X72604047Y-49077619D02*
X72175476Y-49649047D01*
X72604047Y-50077619D02*
X72032619Y-49506190D01*
X68223095Y-46585238D02*
X68365952Y-46537619D01*
X68604047Y-46537619D01*
X68699285Y-46585238D01*
X68746904Y-46632857D01*
X68794523Y-46728095D01*
X68794523Y-46823333D01*
X68746904Y-46918571D01*
X68699285Y-46966190D01*
X68604047Y-47013809D01*
X68413571Y-47061428D01*
X68318333Y-47109047D01*
X68270714Y-47156666D01*
X68223095Y-47251904D01*
X68223095Y-47347142D01*
X68270714Y-47442380D01*
X68318333Y-47490000D01*
X68413571Y-47537619D01*
X68651666Y-47537619D01*
X68794523Y-47490000D01*
X69127857Y-47537619D02*
X69365952Y-46537619D01*
X69556428Y-47251904D01*
X69746904Y-46537619D01*
X69985000Y-47537619D01*
X70365952Y-46537619D02*
X70365952Y-47537619D01*
X70604047Y-47537619D01*
X70746904Y-47490000D01*
X70842143Y-47394761D01*
X70889762Y-47299523D01*
X70937381Y-47109047D01*
X70937381Y-46966190D01*
X70889762Y-46775714D01*
X70842143Y-46680476D01*
X70746904Y-46585238D01*
X70604047Y-46537619D01*
X70365952Y-46537619D01*
X71365952Y-46537619D02*
X71365952Y-47537619D01*
X72032619Y-47537619D02*
X72223095Y-47537619D01*
X72318333Y-47490000D01*
X72413571Y-47394761D01*
X72461190Y-47204285D01*
X72461190Y-46870952D01*
X72413571Y-46680476D01*
X72318333Y-46585238D01*
X72223095Y-46537619D01*
X72032619Y-46537619D01*
X71937381Y-46585238D01*
X71842143Y-46680476D01*
X71794523Y-46870952D01*
X71794523Y-47204285D01*
X71842143Y-47394761D01*
X71937381Y-47490000D01*
X72032619Y-47537619D01*
D12*
X68707142Y-52820000D02*
X68564285Y-52891428D01*
X68350000Y-52891428D01*
X68135714Y-52820000D01*
X67992857Y-52677142D01*
X67921428Y-52534285D01*
X67850000Y-52248571D01*
X67850000Y-52034285D01*
X67921428Y-51748571D01*
X67992857Y-51605714D01*
X68135714Y-51462857D01*
X68350000Y-51391428D01*
X68492857Y-51391428D01*
X68707142Y-51462857D01*
X68778571Y-51534285D01*
X68778571Y-52034285D01*
X68492857Y-52034285D01*
X69421428Y-51391428D02*
X69421428Y-52891428D01*
X70278571Y-51391428D01*
X70278571Y-52891428D01*
X70992857Y-51391428D02*
X70992857Y-52891428D01*
X71350000Y-52891428D01*
X71564285Y-52820000D01*
X71707142Y-52677142D01*
X71778571Y-52534285D01*
X71850000Y-52248571D01*
X71850000Y-52034285D01*
X71778571Y-51748571D01*
X71707142Y-51605714D01*
X71564285Y-51462857D01*
X71350000Y-51391428D01*
X70992857Y-51391428D01*
X67992857Y-45271428D02*
X68921428Y-45271428D01*
X68421428Y-44700000D01*
X68635714Y-44700000D01*
X68778571Y-44628571D01*
X68850000Y-44557142D01*
X68921428Y-44414285D01*
X68921428Y-44057142D01*
X68850000Y-43914285D01*
X68778571Y-43842857D01*
X68635714Y-43771428D01*
X68207142Y-43771428D01*
X68064285Y-43842857D01*
X67992857Y-43914285D01*
X69350000Y-45271428D02*
X69850000Y-43771428D01*
X70350000Y-45271428D01*
X70707142Y-45271428D02*
X71635714Y-45271428D01*
X71135714Y-44700000D01*
X71350000Y-44700000D01*
X71492857Y-44628571D01*
X71564285Y-44557142D01*
X71635714Y-44414285D01*
X71635714Y-44057142D01*
X71564285Y-43914285D01*
X71492857Y-43842857D01*
X71350000Y-43771428D01*
X70921428Y-43771428D01*
X70778571Y-43842857D01*
X70707142Y-43914285D01*
D13*
G04 #@! TO.C,J1*
X73980000Y-51495000D02*
X74622470Y-51495000D01*
X75237530Y-51495000D02*
X75440000Y-51495000D01*
X73980000Y-51495000D02*
X73980000Y-45025000D01*
X76507530Y-45025000D02*
X77150000Y-45025000D01*
X73980000Y-45025000D02*
X74622470Y-45025000D01*
X75237530Y-45025000D02*
X75892470Y-45025000D01*
X77150000Y-50165000D02*
X77150000Y-45025000D01*
X76960000Y-50165000D02*
X77150000Y-50165000D01*
X77150000Y-51560000D02*
X77150000Y-50800000D01*
X76200000Y-51560000D02*
X77150000Y-51560000D01*
G04 #@! TD*
M02*
