M48
;DRILL file {KiCad (5.0.2-5-10.14)} date 2019 March 07, Thursday 11:52:29
;FORMAT={3:3/ absolute / metric / suppress leading zeros}
FMAT,2
METRIC,TZ
T1C0.400
T2C0.550
T3C0.850
T4C0.920
T5C1.000
T6C2.000
T7C2.200
T8C2.300
%
G90
G05
T1
X52000Y-36000
X52000Y-38000
X52000Y-40000
X52000Y-42000
X52000Y-44000
X52000Y-46000
X52000Y-48000
X54000Y-36000
X54500Y-56300
X56000Y-36000
X57000Y-48000
X57000Y-64000
X57300Y-56700
X58000Y-36000
X60000Y-36000
X60000Y-64000
X60955Y-61000
X62000Y-36000
X62000Y-40000
X62000Y-44000
X62000Y-48000
X62000Y-52000
X63000Y-64000
X64000Y-36000
X66000Y-36000
X67000Y-40000
X67000Y-44000
X67000Y-48000
X67000Y-52000
X68000Y-36000
X70000Y-36000
X71000Y-64000
X72000Y-36000
X73500Y-60900
X74000Y-36000
X74000Y-64000
X76000Y-36000
X77000Y-64000
X78000Y-36000
X78000Y-41000
X78000Y-45000
X78000Y-48000
X79000Y-64000
X82000Y-41000
X82000Y-45000
X82700Y-35900
X84000Y-64000
X86000Y-41000
X86000Y-45000
X86000Y-49000
X86000Y-53000
X86000Y-57000
X86000Y-61000
X86000Y-64000
X88000Y-64000
X89000Y-42000
X89000Y-44000
X89000Y-46000
X89000Y-48000
X89000Y-50000
X89000Y-52000
X89000Y-54000
X89000Y-56000
X89000Y-58000
X89000Y-60000
X89000Y-62000
X51450Y-62700
X51933Y-61533
X51933Y-63867
X53100Y-61050
X53100Y-64350
X54267Y-61533
X54267Y-63867
X54750Y-62700
X85850Y-37300
X86333Y-36133
X86333Y-38467
X87500Y-35650
X87500Y-38950
X88667Y-36133
X88667Y-38467
X89150Y-37300
T4
X79000Y-52000
X79000Y-54500
X79000Y-56500
X79000Y-59000
T5
X66500Y-59000
X69040Y-59000
X66500Y-62600
X69040Y-62600
X63300Y-54600
X65840Y-54600
X68380Y-54600
T6
X72800Y-42200
X58100Y-42200
T7
X53100Y-62700
X87500Y-37300
T8
X81650Y-48930
X81650Y-62070
T2
X52375Y-51125G85X51725Y-51125
G05
X52375Y-58875G85X51725Y-58875
G05
T3
X56125Y-51275G85X55575Y-51275
G05
X56125Y-58725G85X55575Y-58725
G05
T0
M30
