G04 #@! TF.GenerationSoftware,KiCad,Pcbnew,(5.0.2-5-10.14)*
G04 #@! TF.CreationDate,2019-03-07T11:52:20+01:00*
G04 #@! TF.ProjectId,USBSwitch,55534253-7769-4746-9368-2e6b69636164,rev?*
G04 #@! TF.SameCoordinates,Original*
G04 #@! TF.FileFunction,Copper,L1,Top*
G04 #@! TF.FilePolarity,Positive*
%FSLAX46Y46*%
G04 Gerber Fmt 4.6, Leading zero omitted, Abs format (unit mm)*
G04 Created by KiCad (PCBNEW (5.0.2-5-10.14)) date 2019 March 07, Thursday 11:52:20*
%MOMM*%
%LPD*%
G01*
G04 APERTURE LIST*
G04 #@! TA.AperFunction,ComponentPad*
%ADD10C,4.000000*%
G04 #@! TD*
G04 #@! TA.AperFunction,ComponentPad*
%ADD11O,1.800000X1.150000*%
G04 #@! TD*
G04 #@! TA.AperFunction,ComponentPad*
%ADD12O,2.000000X1.450000*%
G04 #@! TD*
G04 #@! TA.AperFunction,SMDPad,CuDef*
%ADD13R,1.300000X0.450000*%
G04 #@! TD*
G04 #@! TA.AperFunction,ComponentPad*
%ADD14C,3.000000*%
G04 #@! TD*
G04 #@! TA.AperFunction,ComponentPad*
%ADD15R,1.500000X1.500000*%
G04 #@! TD*
G04 #@! TA.AperFunction,ComponentPad*
%ADD16C,1.500000*%
G04 #@! TD*
G04 #@! TA.AperFunction,ComponentPad*
%ADD17O,1.700000X1.700000*%
G04 #@! TD*
G04 #@! TA.AperFunction,ComponentPad*
%ADD18R,1.700000X1.700000*%
G04 #@! TD*
G04 #@! TA.AperFunction,Conductor*
%ADD19C,0.100000*%
G04 #@! TD*
G04 #@! TA.AperFunction,SMDPad,CuDef*
%ADD20C,0.950000*%
G04 #@! TD*
G04 #@! TA.AperFunction,ComponentPad*
%ADD21C,0.700000*%
G04 #@! TD*
G04 #@! TA.AperFunction,ComponentPad*
%ADD22C,4.400000*%
G04 #@! TD*
G04 #@! TA.AperFunction,ViaPad*
%ADD23C,0.800000*%
G04 #@! TD*
G04 #@! TA.AperFunction,Conductor*
%ADD24C,0.600000*%
G04 #@! TD*
G04 #@! TA.AperFunction,Conductor*
%ADD25C,0.250000*%
G04 #@! TD*
G04 #@! TA.AperFunction,Conductor*
%ADD26C,2.000000*%
G04 #@! TD*
G04 #@! TA.AperFunction,Conductor*
%ADD27C,1.000000*%
G04 #@! TD*
G04 #@! TA.AperFunction,NonConductor*
%ADD28C,0.200000*%
G04 #@! TD*
G04 APERTURE END LIST*
D10*
G04 #@! TO.P,J2,1*
G04 #@! TO.N,GND*
X58100000Y-42200000D03*
G04 #@! TD*
G04 #@! TO.P,J1,1*
G04 #@! TO.N,+5V*
X72800000Y-42200000D03*
G04 #@! TD*
D11*
G04 #@! TO.P,J4,6*
G04 #@! TO.N,GND*
X52050000Y-58875000D03*
X52050000Y-51125000D03*
D12*
X55850000Y-58725000D03*
X55850000Y-51275000D03*
D13*
G04 #@! TO.P,J4,5*
X55900000Y-56300000D03*
G04 #@! TO.P,J4,4*
G04 #@! TO.N,N/C*
X55900000Y-55650000D03*
G04 #@! TO.P,J4,3*
G04 #@! TO.N,/D+*
X55900000Y-55000000D03*
G04 #@! TO.P,J4,2*
G04 #@! TO.N,/D-*
X55900000Y-54350000D03*
G04 #@! TO.P,J4,1*
G04 #@! TO.N,VBUS*
X55900000Y-53700000D03*
G04 #@! TD*
D14*
G04 #@! TO.P,J3,5*
G04 #@! TO.N,GND*
X81650000Y-48930000D03*
X81650000Y-62070000D03*
D15*
G04 #@! TO.P,J3,1*
G04 #@! TO.N,VCC*
X79000000Y-59000000D03*
D16*
G04 #@! TO.P,J3,2*
G04 #@! TO.N,Net-(J3-Pad2)*
X79000000Y-56500000D03*
G04 #@! TO.P,J3,3*
G04 #@! TO.N,Net-(J3-Pad3)*
X79000000Y-54500000D03*
G04 #@! TO.P,J3,4*
G04 #@! TO.N,GND*
X79000000Y-52000000D03*
G04 #@! TD*
D17*
G04 #@! TO.P,JP1,3*
G04 #@! TO.N,+5V*
X68380000Y-54600000D03*
G04 #@! TO.P,JP1,2*
G04 #@! TO.N,VCC*
X65840000Y-54600000D03*
D18*
G04 #@! TO.P,JP1,1*
G04 #@! TO.N,VBUS*
X63300000Y-54600000D03*
G04 #@! TD*
D17*
G04 #@! TO.P,JP2,2*
G04 #@! TO.N,Net-(J3-Pad3)*
X69040000Y-62600000D03*
D18*
G04 #@! TO.P,JP2,1*
G04 #@! TO.N,/D+*
X66500000Y-62600000D03*
G04 #@! TD*
D17*
G04 #@! TO.P,JP3,2*
G04 #@! TO.N,Net-(J3-Pad2)*
X69040000Y-59000000D03*
D18*
G04 #@! TO.P,JP3,1*
G04 #@! TO.N,/D-*
X66500000Y-59000000D03*
G04 #@! TD*
D19*
G04 #@! TO.N,Net-(D1-Pad2)*
G04 #@! TO.C,D1*
G36*
X82460779Y-38251144D02*
X82483834Y-38254563D01*
X82506443Y-38260227D01*
X82528387Y-38268079D01*
X82549457Y-38278044D01*
X82569448Y-38290026D01*
X82588168Y-38303910D01*
X82605438Y-38319562D01*
X82621090Y-38336832D01*
X82634974Y-38355552D01*
X82646956Y-38375543D01*
X82656921Y-38396613D01*
X82664773Y-38418557D01*
X82670437Y-38441166D01*
X82673856Y-38464221D01*
X82675000Y-38487500D01*
X82675000Y-39062500D01*
X82673856Y-39085779D01*
X82670437Y-39108834D01*
X82664773Y-39131443D01*
X82656921Y-39153387D01*
X82646956Y-39174457D01*
X82634974Y-39194448D01*
X82621090Y-39213168D01*
X82605438Y-39230438D01*
X82588168Y-39246090D01*
X82569448Y-39259974D01*
X82549457Y-39271956D01*
X82528387Y-39281921D01*
X82506443Y-39289773D01*
X82483834Y-39295437D01*
X82460779Y-39298856D01*
X82437500Y-39300000D01*
X81962500Y-39300000D01*
X81939221Y-39298856D01*
X81916166Y-39295437D01*
X81893557Y-39289773D01*
X81871613Y-39281921D01*
X81850543Y-39271956D01*
X81830552Y-39259974D01*
X81811832Y-39246090D01*
X81794562Y-39230438D01*
X81778910Y-39213168D01*
X81765026Y-39194448D01*
X81753044Y-39174457D01*
X81743079Y-39153387D01*
X81735227Y-39131443D01*
X81729563Y-39108834D01*
X81726144Y-39085779D01*
X81725000Y-39062500D01*
X81725000Y-38487500D01*
X81726144Y-38464221D01*
X81729563Y-38441166D01*
X81735227Y-38418557D01*
X81743079Y-38396613D01*
X81753044Y-38375543D01*
X81765026Y-38355552D01*
X81778910Y-38336832D01*
X81794562Y-38319562D01*
X81811832Y-38303910D01*
X81830552Y-38290026D01*
X81850543Y-38278044D01*
X81871613Y-38268079D01*
X81893557Y-38260227D01*
X81916166Y-38254563D01*
X81939221Y-38251144D01*
X81962500Y-38250000D01*
X82437500Y-38250000D01*
X82460779Y-38251144D01*
X82460779Y-38251144D01*
G37*
D20*
G04 #@! TD*
G04 #@! TO.P,D1,2*
G04 #@! TO.N,Net-(D1-Pad2)*
X82200000Y-38775000D03*
D19*
G04 #@! TO.N,GND*
G04 #@! TO.C,D1*
G36*
X82460779Y-36501144D02*
X82483834Y-36504563D01*
X82506443Y-36510227D01*
X82528387Y-36518079D01*
X82549457Y-36528044D01*
X82569448Y-36540026D01*
X82588168Y-36553910D01*
X82605438Y-36569562D01*
X82621090Y-36586832D01*
X82634974Y-36605552D01*
X82646956Y-36625543D01*
X82656921Y-36646613D01*
X82664773Y-36668557D01*
X82670437Y-36691166D01*
X82673856Y-36714221D01*
X82675000Y-36737500D01*
X82675000Y-37312500D01*
X82673856Y-37335779D01*
X82670437Y-37358834D01*
X82664773Y-37381443D01*
X82656921Y-37403387D01*
X82646956Y-37424457D01*
X82634974Y-37444448D01*
X82621090Y-37463168D01*
X82605438Y-37480438D01*
X82588168Y-37496090D01*
X82569448Y-37509974D01*
X82549457Y-37521956D01*
X82528387Y-37531921D01*
X82506443Y-37539773D01*
X82483834Y-37545437D01*
X82460779Y-37548856D01*
X82437500Y-37550000D01*
X81962500Y-37550000D01*
X81939221Y-37548856D01*
X81916166Y-37545437D01*
X81893557Y-37539773D01*
X81871613Y-37531921D01*
X81850543Y-37521956D01*
X81830552Y-37509974D01*
X81811832Y-37496090D01*
X81794562Y-37480438D01*
X81778910Y-37463168D01*
X81765026Y-37444448D01*
X81753044Y-37424457D01*
X81743079Y-37403387D01*
X81735227Y-37381443D01*
X81729563Y-37358834D01*
X81726144Y-37335779D01*
X81725000Y-37312500D01*
X81725000Y-36737500D01*
X81726144Y-36714221D01*
X81729563Y-36691166D01*
X81735227Y-36668557D01*
X81743079Y-36646613D01*
X81753044Y-36625543D01*
X81765026Y-36605552D01*
X81778910Y-36586832D01*
X81794562Y-36569562D01*
X81811832Y-36553910D01*
X81830552Y-36540026D01*
X81850543Y-36528044D01*
X81871613Y-36518079D01*
X81893557Y-36510227D01*
X81916166Y-36504563D01*
X81939221Y-36501144D01*
X81962500Y-36500000D01*
X82437500Y-36500000D01*
X82460779Y-36501144D01*
X82460779Y-36501144D01*
G37*
D20*
G04 #@! TD*
G04 #@! TO.P,D1,1*
G04 #@! TO.N,GND*
X82200000Y-37025000D03*
D19*
G04 #@! TO.N,Net-(D2-Pad2)*
G04 #@! TO.C,D2*
G36*
X60260779Y-62171144D02*
X60283834Y-62174563D01*
X60306443Y-62180227D01*
X60328387Y-62188079D01*
X60349457Y-62198044D01*
X60369448Y-62210026D01*
X60388168Y-62223910D01*
X60405438Y-62239562D01*
X60421090Y-62256832D01*
X60434974Y-62275552D01*
X60446956Y-62295543D01*
X60456921Y-62316613D01*
X60464773Y-62338557D01*
X60470437Y-62361166D01*
X60473856Y-62384221D01*
X60475000Y-62407500D01*
X60475000Y-62982500D01*
X60473856Y-63005779D01*
X60470437Y-63028834D01*
X60464773Y-63051443D01*
X60456921Y-63073387D01*
X60446956Y-63094457D01*
X60434974Y-63114448D01*
X60421090Y-63133168D01*
X60405438Y-63150438D01*
X60388168Y-63166090D01*
X60369448Y-63179974D01*
X60349457Y-63191956D01*
X60328387Y-63201921D01*
X60306443Y-63209773D01*
X60283834Y-63215437D01*
X60260779Y-63218856D01*
X60237500Y-63220000D01*
X59762500Y-63220000D01*
X59739221Y-63218856D01*
X59716166Y-63215437D01*
X59693557Y-63209773D01*
X59671613Y-63201921D01*
X59650543Y-63191956D01*
X59630552Y-63179974D01*
X59611832Y-63166090D01*
X59594562Y-63150438D01*
X59578910Y-63133168D01*
X59565026Y-63114448D01*
X59553044Y-63094457D01*
X59543079Y-63073387D01*
X59535227Y-63051443D01*
X59529563Y-63028834D01*
X59526144Y-63005779D01*
X59525000Y-62982500D01*
X59525000Y-62407500D01*
X59526144Y-62384221D01*
X59529563Y-62361166D01*
X59535227Y-62338557D01*
X59543079Y-62316613D01*
X59553044Y-62295543D01*
X59565026Y-62275552D01*
X59578910Y-62256832D01*
X59594562Y-62239562D01*
X59611832Y-62223910D01*
X59630552Y-62210026D01*
X59650543Y-62198044D01*
X59671613Y-62188079D01*
X59693557Y-62180227D01*
X59716166Y-62174563D01*
X59739221Y-62171144D01*
X59762500Y-62170000D01*
X60237500Y-62170000D01*
X60260779Y-62171144D01*
X60260779Y-62171144D01*
G37*
D20*
G04 #@! TD*
G04 #@! TO.P,D2,2*
G04 #@! TO.N,Net-(D2-Pad2)*
X60000000Y-62695000D03*
D19*
G04 #@! TO.N,GND*
G04 #@! TO.C,D2*
G36*
X60260779Y-60421144D02*
X60283834Y-60424563D01*
X60306443Y-60430227D01*
X60328387Y-60438079D01*
X60349457Y-60448044D01*
X60369448Y-60460026D01*
X60388168Y-60473910D01*
X60405438Y-60489562D01*
X60421090Y-60506832D01*
X60434974Y-60525552D01*
X60446956Y-60545543D01*
X60456921Y-60566613D01*
X60464773Y-60588557D01*
X60470437Y-60611166D01*
X60473856Y-60634221D01*
X60475000Y-60657500D01*
X60475000Y-61232500D01*
X60473856Y-61255779D01*
X60470437Y-61278834D01*
X60464773Y-61301443D01*
X60456921Y-61323387D01*
X60446956Y-61344457D01*
X60434974Y-61364448D01*
X60421090Y-61383168D01*
X60405438Y-61400438D01*
X60388168Y-61416090D01*
X60369448Y-61429974D01*
X60349457Y-61441956D01*
X60328387Y-61451921D01*
X60306443Y-61459773D01*
X60283834Y-61465437D01*
X60260779Y-61468856D01*
X60237500Y-61470000D01*
X59762500Y-61470000D01*
X59739221Y-61468856D01*
X59716166Y-61465437D01*
X59693557Y-61459773D01*
X59671613Y-61451921D01*
X59650543Y-61441956D01*
X59630552Y-61429974D01*
X59611832Y-61416090D01*
X59594562Y-61400438D01*
X59578910Y-61383168D01*
X59565026Y-61364448D01*
X59553044Y-61344457D01*
X59543079Y-61323387D01*
X59535227Y-61301443D01*
X59529563Y-61278834D01*
X59526144Y-61255779D01*
X59525000Y-61232500D01*
X59525000Y-60657500D01*
X59526144Y-60634221D01*
X59529563Y-60611166D01*
X59535227Y-60588557D01*
X59543079Y-60566613D01*
X59553044Y-60545543D01*
X59565026Y-60525552D01*
X59578910Y-60506832D01*
X59594562Y-60489562D01*
X59611832Y-60473910D01*
X59630552Y-60460026D01*
X59650543Y-60448044D01*
X59671613Y-60438079D01*
X59693557Y-60430227D01*
X59716166Y-60424563D01*
X59739221Y-60421144D01*
X59762500Y-60420000D01*
X60237500Y-60420000D01*
X60260779Y-60421144D01*
X60260779Y-60421144D01*
G37*
D20*
G04 #@! TD*
G04 #@! TO.P,D2,1*
G04 #@! TO.N,GND*
X60000000Y-60945000D03*
D19*
G04 #@! TO.N,Net-(D3-Pad2)*
G04 #@! TO.C,D3*
G36*
X74760779Y-62126144D02*
X74783834Y-62129563D01*
X74806443Y-62135227D01*
X74828387Y-62143079D01*
X74849457Y-62153044D01*
X74869448Y-62165026D01*
X74888168Y-62178910D01*
X74905438Y-62194562D01*
X74921090Y-62211832D01*
X74934974Y-62230552D01*
X74946956Y-62250543D01*
X74956921Y-62271613D01*
X74964773Y-62293557D01*
X74970437Y-62316166D01*
X74973856Y-62339221D01*
X74975000Y-62362500D01*
X74975000Y-62937500D01*
X74973856Y-62960779D01*
X74970437Y-62983834D01*
X74964773Y-63006443D01*
X74956921Y-63028387D01*
X74946956Y-63049457D01*
X74934974Y-63069448D01*
X74921090Y-63088168D01*
X74905438Y-63105438D01*
X74888168Y-63121090D01*
X74869448Y-63134974D01*
X74849457Y-63146956D01*
X74828387Y-63156921D01*
X74806443Y-63164773D01*
X74783834Y-63170437D01*
X74760779Y-63173856D01*
X74737500Y-63175000D01*
X74262500Y-63175000D01*
X74239221Y-63173856D01*
X74216166Y-63170437D01*
X74193557Y-63164773D01*
X74171613Y-63156921D01*
X74150543Y-63146956D01*
X74130552Y-63134974D01*
X74111832Y-63121090D01*
X74094562Y-63105438D01*
X74078910Y-63088168D01*
X74065026Y-63069448D01*
X74053044Y-63049457D01*
X74043079Y-63028387D01*
X74035227Y-63006443D01*
X74029563Y-62983834D01*
X74026144Y-62960779D01*
X74025000Y-62937500D01*
X74025000Y-62362500D01*
X74026144Y-62339221D01*
X74029563Y-62316166D01*
X74035227Y-62293557D01*
X74043079Y-62271613D01*
X74053044Y-62250543D01*
X74065026Y-62230552D01*
X74078910Y-62211832D01*
X74094562Y-62194562D01*
X74111832Y-62178910D01*
X74130552Y-62165026D01*
X74150543Y-62153044D01*
X74171613Y-62143079D01*
X74193557Y-62135227D01*
X74216166Y-62129563D01*
X74239221Y-62126144D01*
X74262500Y-62125000D01*
X74737500Y-62125000D01*
X74760779Y-62126144D01*
X74760779Y-62126144D01*
G37*
D20*
G04 #@! TD*
G04 #@! TO.P,D3,2*
G04 #@! TO.N,Net-(D3-Pad2)*
X74500000Y-62650000D03*
D19*
G04 #@! TO.N,GND*
G04 #@! TO.C,D3*
G36*
X74760779Y-60376144D02*
X74783834Y-60379563D01*
X74806443Y-60385227D01*
X74828387Y-60393079D01*
X74849457Y-60403044D01*
X74869448Y-60415026D01*
X74888168Y-60428910D01*
X74905438Y-60444562D01*
X74921090Y-60461832D01*
X74934974Y-60480552D01*
X74946956Y-60500543D01*
X74956921Y-60521613D01*
X74964773Y-60543557D01*
X74970437Y-60566166D01*
X74973856Y-60589221D01*
X74975000Y-60612500D01*
X74975000Y-61187500D01*
X74973856Y-61210779D01*
X74970437Y-61233834D01*
X74964773Y-61256443D01*
X74956921Y-61278387D01*
X74946956Y-61299457D01*
X74934974Y-61319448D01*
X74921090Y-61338168D01*
X74905438Y-61355438D01*
X74888168Y-61371090D01*
X74869448Y-61384974D01*
X74849457Y-61396956D01*
X74828387Y-61406921D01*
X74806443Y-61414773D01*
X74783834Y-61420437D01*
X74760779Y-61423856D01*
X74737500Y-61425000D01*
X74262500Y-61425000D01*
X74239221Y-61423856D01*
X74216166Y-61420437D01*
X74193557Y-61414773D01*
X74171613Y-61406921D01*
X74150543Y-61396956D01*
X74130552Y-61384974D01*
X74111832Y-61371090D01*
X74094562Y-61355438D01*
X74078910Y-61338168D01*
X74065026Y-61319448D01*
X74053044Y-61299457D01*
X74043079Y-61278387D01*
X74035227Y-61256443D01*
X74029563Y-61233834D01*
X74026144Y-61210779D01*
X74025000Y-61187500D01*
X74025000Y-60612500D01*
X74026144Y-60589221D01*
X74029563Y-60566166D01*
X74035227Y-60543557D01*
X74043079Y-60521613D01*
X74053044Y-60500543D01*
X74065026Y-60480552D01*
X74078910Y-60461832D01*
X74094562Y-60444562D01*
X74111832Y-60428910D01*
X74130552Y-60415026D01*
X74150543Y-60403044D01*
X74171613Y-60393079D01*
X74193557Y-60385227D01*
X74216166Y-60379563D01*
X74239221Y-60376144D01*
X74262500Y-60375000D01*
X74737500Y-60375000D01*
X74760779Y-60376144D01*
X74760779Y-60376144D01*
G37*
D20*
G04 #@! TD*
G04 #@! TO.P,D3,1*
G04 #@! TO.N,GND*
X74500000Y-60900000D03*
D21*
G04 #@! TO.P,H1,1*
G04 #@! TO.N,GND*
X88666726Y-36133274D03*
X87500000Y-35650000D03*
X86333274Y-36133274D03*
X85850000Y-37300000D03*
X86333274Y-38466726D03*
X87500000Y-38950000D03*
X88666726Y-38466726D03*
X89150000Y-37300000D03*
D22*
X87500000Y-37300000D03*
G04 #@! TD*
D21*
G04 #@! TO.P,H2,1*
G04 #@! TO.N,GND*
X54266726Y-61533274D03*
X53100000Y-61050000D03*
X51933274Y-61533274D03*
X51450000Y-62700000D03*
X51933274Y-63866726D03*
X53100000Y-64350000D03*
X54266726Y-63866726D03*
X54750000Y-62700000D03*
D22*
X53100000Y-62700000D03*
G04 #@! TD*
D19*
G04 #@! TO.N,Net-(D1-Pad2)*
G04 #@! TO.C,R1*
G36*
X80960779Y-38251144D02*
X80983834Y-38254563D01*
X81006443Y-38260227D01*
X81028387Y-38268079D01*
X81049457Y-38278044D01*
X81069448Y-38290026D01*
X81088168Y-38303910D01*
X81105438Y-38319562D01*
X81121090Y-38336832D01*
X81134974Y-38355552D01*
X81146956Y-38375543D01*
X81156921Y-38396613D01*
X81164773Y-38418557D01*
X81170437Y-38441166D01*
X81173856Y-38464221D01*
X81175000Y-38487500D01*
X81175000Y-39062500D01*
X81173856Y-39085779D01*
X81170437Y-39108834D01*
X81164773Y-39131443D01*
X81156921Y-39153387D01*
X81146956Y-39174457D01*
X81134974Y-39194448D01*
X81121090Y-39213168D01*
X81105438Y-39230438D01*
X81088168Y-39246090D01*
X81069448Y-39259974D01*
X81049457Y-39271956D01*
X81028387Y-39281921D01*
X81006443Y-39289773D01*
X80983834Y-39295437D01*
X80960779Y-39298856D01*
X80937500Y-39300000D01*
X80462500Y-39300000D01*
X80439221Y-39298856D01*
X80416166Y-39295437D01*
X80393557Y-39289773D01*
X80371613Y-39281921D01*
X80350543Y-39271956D01*
X80330552Y-39259974D01*
X80311832Y-39246090D01*
X80294562Y-39230438D01*
X80278910Y-39213168D01*
X80265026Y-39194448D01*
X80253044Y-39174457D01*
X80243079Y-39153387D01*
X80235227Y-39131443D01*
X80229563Y-39108834D01*
X80226144Y-39085779D01*
X80225000Y-39062500D01*
X80225000Y-38487500D01*
X80226144Y-38464221D01*
X80229563Y-38441166D01*
X80235227Y-38418557D01*
X80243079Y-38396613D01*
X80253044Y-38375543D01*
X80265026Y-38355552D01*
X80278910Y-38336832D01*
X80294562Y-38319562D01*
X80311832Y-38303910D01*
X80330552Y-38290026D01*
X80350543Y-38278044D01*
X80371613Y-38268079D01*
X80393557Y-38260227D01*
X80416166Y-38254563D01*
X80439221Y-38251144D01*
X80462500Y-38250000D01*
X80937500Y-38250000D01*
X80960779Y-38251144D01*
X80960779Y-38251144D01*
G37*
D20*
G04 #@! TD*
G04 #@! TO.P,R1,2*
G04 #@! TO.N,Net-(D1-Pad2)*
X80700000Y-38775000D03*
D19*
G04 #@! TO.N,+5V*
G04 #@! TO.C,R1*
G36*
X80960779Y-36501144D02*
X80983834Y-36504563D01*
X81006443Y-36510227D01*
X81028387Y-36518079D01*
X81049457Y-36528044D01*
X81069448Y-36540026D01*
X81088168Y-36553910D01*
X81105438Y-36569562D01*
X81121090Y-36586832D01*
X81134974Y-36605552D01*
X81146956Y-36625543D01*
X81156921Y-36646613D01*
X81164773Y-36668557D01*
X81170437Y-36691166D01*
X81173856Y-36714221D01*
X81175000Y-36737500D01*
X81175000Y-37312500D01*
X81173856Y-37335779D01*
X81170437Y-37358834D01*
X81164773Y-37381443D01*
X81156921Y-37403387D01*
X81146956Y-37424457D01*
X81134974Y-37444448D01*
X81121090Y-37463168D01*
X81105438Y-37480438D01*
X81088168Y-37496090D01*
X81069448Y-37509974D01*
X81049457Y-37521956D01*
X81028387Y-37531921D01*
X81006443Y-37539773D01*
X80983834Y-37545437D01*
X80960779Y-37548856D01*
X80937500Y-37550000D01*
X80462500Y-37550000D01*
X80439221Y-37548856D01*
X80416166Y-37545437D01*
X80393557Y-37539773D01*
X80371613Y-37531921D01*
X80350543Y-37521956D01*
X80330552Y-37509974D01*
X80311832Y-37496090D01*
X80294562Y-37480438D01*
X80278910Y-37463168D01*
X80265026Y-37444448D01*
X80253044Y-37424457D01*
X80243079Y-37403387D01*
X80235227Y-37381443D01*
X80229563Y-37358834D01*
X80226144Y-37335779D01*
X80225000Y-37312500D01*
X80225000Y-36737500D01*
X80226144Y-36714221D01*
X80229563Y-36691166D01*
X80235227Y-36668557D01*
X80243079Y-36646613D01*
X80253044Y-36625543D01*
X80265026Y-36605552D01*
X80278910Y-36586832D01*
X80294562Y-36569562D01*
X80311832Y-36553910D01*
X80330552Y-36540026D01*
X80350543Y-36528044D01*
X80371613Y-36518079D01*
X80393557Y-36510227D01*
X80416166Y-36504563D01*
X80439221Y-36501144D01*
X80462500Y-36500000D01*
X80937500Y-36500000D01*
X80960779Y-36501144D01*
X80960779Y-36501144D01*
G37*
D20*
G04 #@! TD*
G04 #@! TO.P,R1,1*
G04 #@! TO.N,+5V*
X80700000Y-37025000D03*
D19*
G04 #@! TO.N,Net-(D2-Pad2)*
G04 #@! TO.C,R2*
G36*
X58760779Y-62126144D02*
X58783834Y-62129563D01*
X58806443Y-62135227D01*
X58828387Y-62143079D01*
X58849457Y-62153044D01*
X58869448Y-62165026D01*
X58888168Y-62178910D01*
X58905438Y-62194562D01*
X58921090Y-62211832D01*
X58934974Y-62230552D01*
X58946956Y-62250543D01*
X58956921Y-62271613D01*
X58964773Y-62293557D01*
X58970437Y-62316166D01*
X58973856Y-62339221D01*
X58975000Y-62362500D01*
X58975000Y-62937500D01*
X58973856Y-62960779D01*
X58970437Y-62983834D01*
X58964773Y-63006443D01*
X58956921Y-63028387D01*
X58946956Y-63049457D01*
X58934974Y-63069448D01*
X58921090Y-63088168D01*
X58905438Y-63105438D01*
X58888168Y-63121090D01*
X58869448Y-63134974D01*
X58849457Y-63146956D01*
X58828387Y-63156921D01*
X58806443Y-63164773D01*
X58783834Y-63170437D01*
X58760779Y-63173856D01*
X58737500Y-63175000D01*
X58262500Y-63175000D01*
X58239221Y-63173856D01*
X58216166Y-63170437D01*
X58193557Y-63164773D01*
X58171613Y-63156921D01*
X58150543Y-63146956D01*
X58130552Y-63134974D01*
X58111832Y-63121090D01*
X58094562Y-63105438D01*
X58078910Y-63088168D01*
X58065026Y-63069448D01*
X58053044Y-63049457D01*
X58043079Y-63028387D01*
X58035227Y-63006443D01*
X58029563Y-62983834D01*
X58026144Y-62960779D01*
X58025000Y-62937500D01*
X58025000Y-62362500D01*
X58026144Y-62339221D01*
X58029563Y-62316166D01*
X58035227Y-62293557D01*
X58043079Y-62271613D01*
X58053044Y-62250543D01*
X58065026Y-62230552D01*
X58078910Y-62211832D01*
X58094562Y-62194562D01*
X58111832Y-62178910D01*
X58130552Y-62165026D01*
X58150543Y-62153044D01*
X58171613Y-62143079D01*
X58193557Y-62135227D01*
X58216166Y-62129563D01*
X58239221Y-62126144D01*
X58262500Y-62125000D01*
X58737500Y-62125000D01*
X58760779Y-62126144D01*
X58760779Y-62126144D01*
G37*
D20*
G04 #@! TD*
G04 #@! TO.P,R2,2*
G04 #@! TO.N,Net-(D2-Pad2)*
X58500000Y-62650000D03*
D19*
G04 #@! TO.N,VBUS*
G04 #@! TO.C,R2*
G36*
X58760779Y-60376144D02*
X58783834Y-60379563D01*
X58806443Y-60385227D01*
X58828387Y-60393079D01*
X58849457Y-60403044D01*
X58869448Y-60415026D01*
X58888168Y-60428910D01*
X58905438Y-60444562D01*
X58921090Y-60461832D01*
X58934974Y-60480552D01*
X58946956Y-60500543D01*
X58956921Y-60521613D01*
X58964773Y-60543557D01*
X58970437Y-60566166D01*
X58973856Y-60589221D01*
X58975000Y-60612500D01*
X58975000Y-61187500D01*
X58973856Y-61210779D01*
X58970437Y-61233834D01*
X58964773Y-61256443D01*
X58956921Y-61278387D01*
X58946956Y-61299457D01*
X58934974Y-61319448D01*
X58921090Y-61338168D01*
X58905438Y-61355438D01*
X58888168Y-61371090D01*
X58869448Y-61384974D01*
X58849457Y-61396956D01*
X58828387Y-61406921D01*
X58806443Y-61414773D01*
X58783834Y-61420437D01*
X58760779Y-61423856D01*
X58737500Y-61425000D01*
X58262500Y-61425000D01*
X58239221Y-61423856D01*
X58216166Y-61420437D01*
X58193557Y-61414773D01*
X58171613Y-61406921D01*
X58150543Y-61396956D01*
X58130552Y-61384974D01*
X58111832Y-61371090D01*
X58094562Y-61355438D01*
X58078910Y-61338168D01*
X58065026Y-61319448D01*
X58053044Y-61299457D01*
X58043079Y-61278387D01*
X58035227Y-61256443D01*
X58029563Y-61233834D01*
X58026144Y-61210779D01*
X58025000Y-61187500D01*
X58025000Y-60612500D01*
X58026144Y-60589221D01*
X58029563Y-60566166D01*
X58035227Y-60543557D01*
X58043079Y-60521613D01*
X58053044Y-60500543D01*
X58065026Y-60480552D01*
X58078910Y-60461832D01*
X58094562Y-60444562D01*
X58111832Y-60428910D01*
X58130552Y-60415026D01*
X58150543Y-60403044D01*
X58171613Y-60393079D01*
X58193557Y-60385227D01*
X58216166Y-60379563D01*
X58239221Y-60376144D01*
X58262500Y-60375000D01*
X58737500Y-60375000D01*
X58760779Y-60376144D01*
X58760779Y-60376144D01*
G37*
D20*
G04 #@! TD*
G04 #@! TO.P,R2,1*
G04 #@! TO.N,VBUS*
X58500000Y-60900000D03*
D19*
G04 #@! TO.N,Net-(D3-Pad2)*
G04 #@! TO.C,R3*
G36*
X76260779Y-62126144D02*
X76283834Y-62129563D01*
X76306443Y-62135227D01*
X76328387Y-62143079D01*
X76349457Y-62153044D01*
X76369448Y-62165026D01*
X76388168Y-62178910D01*
X76405438Y-62194562D01*
X76421090Y-62211832D01*
X76434974Y-62230552D01*
X76446956Y-62250543D01*
X76456921Y-62271613D01*
X76464773Y-62293557D01*
X76470437Y-62316166D01*
X76473856Y-62339221D01*
X76475000Y-62362500D01*
X76475000Y-62937500D01*
X76473856Y-62960779D01*
X76470437Y-62983834D01*
X76464773Y-63006443D01*
X76456921Y-63028387D01*
X76446956Y-63049457D01*
X76434974Y-63069448D01*
X76421090Y-63088168D01*
X76405438Y-63105438D01*
X76388168Y-63121090D01*
X76369448Y-63134974D01*
X76349457Y-63146956D01*
X76328387Y-63156921D01*
X76306443Y-63164773D01*
X76283834Y-63170437D01*
X76260779Y-63173856D01*
X76237500Y-63175000D01*
X75762500Y-63175000D01*
X75739221Y-63173856D01*
X75716166Y-63170437D01*
X75693557Y-63164773D01*
X75671613Y-63156921D01*
X75650543Y-63146956D01*
X75630552Y-63134974D01*
X75611832Y-63121090D01*
X75594562Y-63105438D01*
X75578910Y-63088168D01*
X75565026Y-63069448D01*
X75553044Y-63049457D01*
X75543079Y-63028387D01*
X75535227Y-63006443D01*
X75529563Y-62983834D01*
X75526144Y-62960779D01*
X75525000Y-62937500D01*
X75525000Y-62362500D01*
X75526144Y-62339221D01*
X75529563Y-62316166D01*
X75535227Y-62293557D01*
X75543079Y-62271613D01*
X75553044Y-62250543D01*
X75565026Y-62230552D01*
X75578910Y-62211832D01*
X75594562Y-62194562D01*
X75611832Y-62178910D01*
X75630552Y-62165026D01*
X75650543Y-62153044D01*
X75671613Y-62143079D01*
X75693557Y-62135227D01*
X75716166Y-62129563D01*
X75739221Y-62126144D01*
X75762500Y-62125000D01*
X76237500Y-62125000D01*
X76260779Y-62126144D01*
X76260779Y-62126144D01*
G37*
D20*
G04 #@! TD*
G04 #@! TO.P,R3,2*
G04 #@! TO.N,Net-(D3-Pad2)*
X76000000Y-62650000D03*
D19*
G04 #@! TO.N,VCC*
G04 #@! TO.C,R3*
G36*
X76260779Y-60376144D02*
X76283834Y-60379563D01*
X76306443Y-60385227D01*
X76328387Y-60393079D01*
X76349457Y-60403044D01*
X76369448Y-60415026D01*
X76388168Y-60428910D01*
X76405438Y-60444562D01*
X76421090Y-60461832D01*
X76434974Y-60480552D01*
X76446956Y-60500543D01*
X76456921Y-60521613D01*
X76464773Y-60543557D01*
X76470437Y-60566166D01*
X76473856Y-60589221D01*
X76475000Y-60612500D01*
X76475000Y-61187500D01*
X76473856Y-61210779D01*
X76470437Y-61233834D01*
X76464773Y-61256443D01*
X76456921Y-61278387D01*
X76446956Y-61299457D01*
X76434974Y-61319448D01*
X76421090Y-61338168D01*
X76405438Y-61355438D01*
X76388168Y-61371090D01*
X76369448Y-61384974D01*
X76349457Y-61396956D01*
X76328387Y-61406921D01*
X76306443Y-61414773D01*
X76283834Y-61420437D01*
X76260779Y-61423856D01*
X76237500Y-61425000D01*
X75762500Y-61425000D01*
X75739221Y-61423856D01*
X75716166Y-61420437D01*
X75693557Y-61414773D01*
X75671613Y-61406921D01*
X75650543Y-61396956D01*
X75630552Y-61384974D01*
X75611832Y-61371090D01*
X75594562Y-61355438D01*
X75578910Y-61338168D01*
X75565026Y-61319448D01*
X75553044Y-61299457D01*
X75543079Y-61278387D01*
X75535227Y-61256443D01*
X75529563Y-61233834D01*
X75526144Y-61210779D01*
X75525000Y-61187500D01*
X75525000Y-60612500D01*
X75526144Y-60589221D01*
X75529563Y-60566166D01*
X75535227Y-60543557D01*
X75543079Y-60521613D01*
X75553044Y-60500543D01*
X75565026Y-60480552D01*
X75578910Y-60461832D01*
X75594562Y-60444562D01*
X75611832Y-60428910D01*
X75630552Y-60415026D01*
X75650543Y-60403044D01*
X75671613Y-60393079D01*
X75693557Y-60385227D01*
X75716166Y-60379563D01*
X75739221Y-60376144D01*
X75762500Y-60375000D01*
X76237500Y-60375000D01*
X76260779Y-60376144D01*
X76260779Y-60376144D01*
G37*
D20*
G04 #@! TD*
G04 #@! TO.P,R3,1*
G04 #@! TO.N,VCC*
X76000000Y-60900000D03*
D23*
G04 #@! TO.N,GND*
X52000000Y-38000000D03*
X52000000Y-40000000D03*
X52000000Y-42000000D03*
X52000000Y-44000000D03*
X52000000Y-46000000D03*
X52000000Y-48000000D03*
X52000000Y-36000000D03*
X54000000Y-36000000D03*
X56000000Y-36000000D03*
X58000000Y-36000000D03*
X60000000Y-36000000D03*
X62000000Y-36000000D03*
X64000000Y-36000000D03*
X66000000Y-36000000D03*
X68000000Y-36000000D03*
X70000000Y-36000000D03*
X72000000Y-36000000D03*
X74000000Y-36000000D03*
X76000000Y-36000000D03*
X78000000Y-36000000D03*
X89000000Y-42000000D03*
X89000000Y-44000000D03*
X89000000Y-46000000D03*
X89000000Y-48000000D03*
X89000000Y-50000000D03*
X89000000Y-52000000D03*
X89000000Y-54000000D03*
X89000000Y-56000000D03*
X89000000Y-58000000D03*
X89000000Y-60000000D03*
X89000000Y-62000000D03*
X88000000Y-64000000D03*
X86000000Y-64000000D03*
X84000000Y-64000000D03*
X57000000Y-64000000D03*
X60000000Y-64000000D03*
X63000000Y-64000000D03*
X71000000Y-64000000D03*
X74000000Y-64000000D03*
X77000000Y-64000000D03*
X79000000Y-64000000D03*
X62000000Y-40000000D03*
X62000000Y-44000000D03*
X62000000Y-48000000D03*
X67000000Y-48000000D03*
X67000000Y-44000000D03*
X67000000Y-40000000D03*
X57000000Y-48000000D03*
X78000000Y-48000000D03*
X78000000Y-45000000D03*
X78000000Y-41000000D03*
X82000000Y-45000000D03*
X86000000Y-45000000D03*
X86000000Y-49000000D03*
X86000000Y-53000000D03*
X86000000Y-57000000D03*
X86000000Y-61000000D03*
X67000000Y-52000000D03*
X62000000Y-52000000D03*
X82000000Y-41000000D03*
X86000000Y-41000000D03*
X54500000Y-56300000D03*
X57300000Y-56700000D03*
X82700000Y-35900000D03*
X60955000Y-61000000D03*
X73500000Y-60899986D03*
G04 #@! TD*
D24*
G04 #@! TO.N,GND*
X82200000Y-36400000D02*
X82700000Y-35900000D01*
X82200000Y-37025000D02*
X82200000Y-36400000D01*
X60000000Y-61000000D02*
X60955000Y-61000000D01*
X74500000Y-60900000D02*
X73500014Y-60900000D01*
X73500014Y-60900000D02*
X73500000Y-60899986D01*
X56409316Y-56375001D02*
X54575001Y-56375001D01*
X56734315Y-56700000D02*
X56409316Y-56375001D01*
X54575001Y-56375001D02*
X54500000Y-56300000D01*
X57300000Y-56700000D02*
X56734315Y-56700000D01*
D25*
G04 #@! TO.N,Net-(J3-Pad3)*
X79749999Y-55249999D02*
X79000000Y-54500000D01*
X80075001Y-55575001D02*
X79749999Y-55249999D01*
X80075001Y-57016001D02*
X80075001Y-55575001D01*
X79166003Y-57924999D02*
X80075001Y-57016001D01*
X73711411Y-57924999D02*
X77989999Y-57924999D01*
X69136411Y-62500000D02*
X73686399Y-57950011D01*
X69040000Y-62500000D02*
X69136411Y-62500000D01*
X77989999Y-57924999D02*
X79166003Y-57924999D01*
G04 #@! TO.N,Net-(J3-Pad2)*
X78025012Y-57474988D02*
X79000000Y-56500000D01*
X73525012Y-57474988D02*
X78025012Y-57474988D01*
X72000000Y-59000000D02*
X73525012Y-57474988D01*
X69040000Y-59000000D02*
X72000000Y-59000000D01*
D26*
G04 #@! TO.N,+5V*
X72800000Y-50180000D02*
X72800000Y-42200000D01*
X68380000Y-54600000D02*
X72800000Y-50180000D01*
D24*
X77975000Y-37025000D02*
X80700000Y-37025000D01*
X72800000Y-42200000D02*
X77975000Y-37025000D01*
G04 #@! TO.N,VCC*
X77100000Y-60900000D02*
X76000000Y-60900000D01*
X79000000Y-59000000D02*
X77100000Y-60900000D01*
D27*
X65840000Y-55802081D02*
X66687919Y-56650000D01*
X65840000Y-54600000D02*
X65840000Y-55802081D01*
X66687919Y-56650000D02*
X71900000Y-56650000D01*
X79496002Y-50350000D02*
X81450000Y-52303998D01*
X78200000Y-50350000D02*
X79496002Y-50350000D01*
X71900000Y-56650000D02*
X78200000Y-50350000D01*
X80750000Y-59000000D02*
X79000000Y-59000000D01*
X81450000Y-58300000D02*
X80750000Y-59000000D01*
X81450000Y-52303998D02*
X81450000Y-58300000D01*
G04 #@! TO.N,VBUS*
X63300000Y-54600000D02*
X61150000Y-54600000D01*
X61150000Y-54600000D02*
X59950001Y-53400001D01*
D24*
X58399999Y-60799999D02*
X58500000Y-60900000D01*
X53599999Y-59079706D02*
X55320292Y-60799999D01*
X53599999Y-54874999D02*
X53599999Y-59079706D01*
X55320292Y-60799999D02*
X58399999Y-60799999D01*
X55074997Y-53400001D02*
X53599999Y-54874999D01*
D27*
X59950001Y-53400001D02*
X55999999Y-53400001D01*
D24*
X55074997Y-53400001D02*
X55999999Y-53400001D01*
D25*
G04 #@! TO.N,Net-(D1-Pad2)*
X80700000Y-38775000D02*
X82200000Y-38775000D01*
G04 #@! TO.N,Net-(D2-Pad2)*
X60000000Y-62695000D02*
X58545000Y-62695000D01*
G04 #@! TO.N,Net-(D3-Pad2)*
X74500000Y-62650000D02*
X76000000Y-62650000D01*
G04 #@! TO.N,/D-*
X64900000Y-60600000D02*
X66500000Y-59000000D01*
X63050000Y-60600000D02*
X64900000Y-60600000D01*
X56800000Y-54350000D02*
X63050000Y-60600000D01*
X55900000Y-54350000D02*
X56800000Y-54350000D01*
G04 #@! TO.N,/D+*
X64349990Y-62500000D02*
X66500000Y-62500000D01*
X64800000Y-62500000D02*
X64349990Y-62500000D01*
X55900000Y-55000000D02*
X56800000Y-55000000D01*
X64300000Y-62500000D02*
X64349990Y-62500000D01*
X56800000Y-55000000D02*
X64300000Y-62500000D01*
G04 #@! TD*
D28*
G36*
X50787251Y-65003641D02*
X50800745Y-65017811D01*
X50812683Y-65033313D01*
X50843003Y-65062186D01*
X51456836Y-65588305D01*
X51472902Y-65599471D01*
X51487716Y-65612258D01*
X51523222Y-65634445D01*
X52002297Y-65900000D01*
X50349222Y-65900000D01*
X50337691Y-64424072D01*
X50787251Y-65003641D01*
X50787251Y-65003641D01*
G37*
X50787251Y-65003641D02*
X50800745Y-65017811D01*
X50812683Y-65033313D01*
X50843003Y-65062186D01*
X51456836Y-65588305D01*
X51472902Y-65599471D01*
X51487716Y-65612258D01*
X51523222Y-65634445D01*
X52002297Y-65900000D01*
X50349222Y-65900000D01*
X50337691Y-64424072D01*
X50787251Y-65003641D01*
G36*
X91649216Y-65900000D02*
X88993665Y-65900000D01*
X89296280Y-65751095D01*
X89312873Y-65740727D01*
X89330460Y-65732149D01*
X89364840Y-65708254D01*
X90003641Y-65212749D01*
X90017811Y-65199255D01*
X90033313Y-65187317D01*
X90062186Y-65156997D01*
X90588305Y-64543164D01*
X90599471Y-64527098D01*
X90612258Y-64512284D01*
X90634445Y-64476778D01*
X91026389Y-63769691D01*
X91034096Y-63751709D01*
X91043643Y-63734627D01*
X91058237Y-63695384D01*
X91299997Y-62923928D01*
X91303931Y-62904763D01*
X91309848Y-62886110D01*
X91316253Y-62844735D01*
X91397952Y-62040422D01*
X91397952Y-61959577D01*
X91381696Y-61880383D01*
X91375000Y-61864760D01*
X91375000Y-38133252D01*
X91389431Y-38091341D01*
X91399844Y-38011169D01*
X91398821Y-37969313D01*
X91351735Y-37357370D01*
X91349135Y-37342918D01*
X91348417Y-37328243D01*
X91339998Y-37287229D01*
X91136212Y-36504884D01*
X91129390Y-36486542D01*
X91124525Y-36467592D01*
X91108031Y-36429110D01*
X90751095Y-35703721D01*
X90740728Y-35687131D01*
X90732149Y-35669540D01*
X90708254Y-35635160D01*
X90212749Y-34996359D01*
X90199258Y-34982192D01*
X90187317Y-34966686D01*
X90156996Y-34937813D01*
X89543164Y-34411695D01*
X89527100Y-34400530D01*
X89512285Y-34387742D01*
X89476778Y-34365555D01*
X88997704Y-34100000D01*
X91400778Y-34100000D01*
X91649216Y-65900000D01*
X91649216Y-65900000D01*
G37*
X91649216Y-65900000D02*
X88993665Y-65900000D01*
X89296280Y-65751095D01*
X89312873Y-65740727D01*
X89330460Y-65732149D01*
X89364840Y-65708254D01*
X90003641Y-65212749D01*
X90017811Y-65199255D01*
X90033313Y-65187317D01*
X90062186Y-65156997D01*
X90588305Y-64543164D01*
X90599471Y-64527098D01*
X90612258Y-64512284D01*
X90634445Y-64476778D01*
X91026389Y-63769691D01*
X91034096Y-63751709D01*
X91043643Y-63734627D01*
X91058237Y-63695384D01*
X91299997Y-62923928D01*
X91303931Y-62904763D01*
X91309848Y-62886110D01*
X91316253Y-62844735D01*
X91397952Y-62040422D01*
X91397952Y-61959577D01*
X91381696Y-61880383D01*
X91375000Y-61864760D01*
X91375000Y-38133252D01*
X91389431Y-38091341D01*
X91399844Y-38011169D01*
X91398821Y-37969313D01*
X91351735Y-37357370D01*
X91349135Y-37342918D01*
X91348417Y-37328243D01*
X91339998Y-37287229D01*
X91136212Y-36504884D01*
X91129390Y-36486542D01*
X91124525Y-36467592D01*
X91108031Y-36429110D01*
X90751095Y-35703721D01*
X90740728Y-35687131D01*
X90732149Y-35669540D01*
X90708254Y-35635160D01*
X90212749Y-34996359D01*
X90199258Y-34982192D01*
X90187317Y-34966686D01*
X90156996Y-34937813D01*
X89543164Y-34411695D01*
X89527100Y-34400530D01*
X89512285Y-34387742D01*
X89476778Y-34365555D01*
X88997704Y-34100000D01*
X91400778Y-34100000D01*
X91649216Y-65900000D01*
G36*
X86918202Y-34391547D02*
X86959577Y-34397952D01*
X87723466Y-34475545D01*
X88417379Y-34693004D01*
X89053394Y-35045552D01*
X89605527Y-35518788D01*
X90051229Y-36093384D01*
X90372285Y-36745857D01*
X90556832Y-37454341D01*
X90601179Y-38030687D01*
X90615495Y-38110255D01*
X90625001Y-38134021D01*
X90625000Y-61866039D01*
X90608453Y-61918202D01*
X90602048Y-61959577D01*
X90524455Y-62723465D01*
X90306996Y-63417379D01*
X89954446Y-64053395D01*
X89481212Y-64605527D01*
X88906616Y-65051229D01*
X88254146Y-65372285D01*
X87545659Y-65556832D01*
X86969313Y-65601179D01*
X86889746Y-65615495D01*
X86865982Y-65625000D01*
X54133961Y-65625000D01*
X54081798Y-65608453D01*
X54040423Y-65602048D01*
X53276535Y-65524455D01*
X52582621Y-65306996D01*
X51946605Y-64954446D01*
X51887409Y-64903709D01*
X52602719Y-65200000D01*
X53597281Y-65200000D01*
X54516136Y-64819398D01*
X55219398Y-64116136D01*
X55325177Y-63860761D01*
X56300000Y-63860761D01*
X56300000Y-64139239D01*
X56406568Y-64396518D01*
X56603482Y-64593432D01*
X56860761Y-64700000D01*
X57139239Y-64700000D01*
X57396518Y-64593432D01*
X57593432Y-64396518D01*
X57700000Y-64139239D01*
X57700000Y-63860761D01*
X57593432Y-63603482D01*
X57396518Y-63406568D01*
X57139239Y-63300000D01*
X56860761Y-63300000D01*
X56603482Y-63406568D01*
X56406568Y-63603482D01*
X56300000Y-63860761D01*
X55325177Y-63860761D01*
X55600000Y-63197281D01*
X55600000Y-62362500D01*
X57719123Y-62362500D01*
X57719123Y-62937500D01*
X57760485Y-63145441D01*
X57878274Y-63321726D01*
X58054559Y-63439515D01*
X58262500Y-63480877D01*
X58737500Y-63480877D01*
X58945441Y-63439515D01*
X59121726Y-63321726D01*
X59239515Y-63145441D01*
X59244576Y-63120000D01*
X59246473Y-63120000D01*
X59260485Y-63190441D01*
X59378274Y-63366726D01*
X59537160Y-63472890D01*
X59406568Y-63603482D01*
X59300000Y-63860761D01*
X59300000Y-64139239D01*
X59406568Y-64396518D01*
X59603482Y-64593432D01*
X59860761Y-64700000D01*
X60139239Y-64700000D01*
X60396518Y-64593432D01*
X60593432Y-64396518D01*
X60700000Y-64139239D01*
X60700000Y-63860761D01*
X62300000Y-63860761D01*
X62300000Y-64139239D01*
X62406568Y-64396518D01*
X62603482Y-64593432D01*
X62860761Y-64700000D01*
X63139239Y-64700000D01*
X63396518Y-64593432D01*
X63593432Y-64396518D01*
X63700000Y-64139239D01*
X63700000Y-63860761D01*
X70300000Y-63860761D01*
X70300000Y-64139239D01*
X70406568Y-64396518D01*
X70603482Y-64593432D01*
X70860761Y-64700000D01*
X71139239Y-64700000D01*
X71396518Y-64593432D01*
X71593432Y-64396518D01*
X71700000Y-64139239D01*
X71700000Y-63860761D01*
X73300000Y-63860761D01*
X73300000Y-64139239D01*
X73406568Y-64396518D01*
X73603482Y-64593432D01*
X73860761Y-64700000D01*
X74139239Y-64700000D01*
X74396518Y-64593432D01*
X74593432Y-64396518D01*
X74700000Y-64139239D01*
X74700000Y-63860761D01*
X76300000Y-63860761D01*
X76300000Y-64139239D01*
X76406568Y-64396518D01*
X76603482Y-64593432D01*
X76860761Y-64700000D01*
X77139239Y-64700000D01*
X77396518Y-64593432D01*
X77593432Y-64396518D01*
X77700000Y-64139239D01*
X77700000Y-63860761D01*
X78300000Y-63860761D01*
X78300000Y-64139239D01*
X78406568Y-64396518D01*
X78603482Y-64593432D01*
X78860761Y-64700000D01*
X79139239Y-64700000D01*
X79396518Y-64593432D01*
X79593432Y-64396518D01*
X79700000Y-64139239D01*
X79700000Y-63860761D01*
X79593432Y-63603482D01*
X79396518Y-63406568D01*
X79139239Y-63300000D01*
X78860761Y-63300000D01*
X78603482Y-63406568D01*
X78406568Y-63603482D01*
X78300000Y-63860761D01*
X77700000Y-63860761D01*
X77593432Y-63603482D01*
X77396518Y-63406568D01*
X77139239Y-63300000D01*
X76860761Y-63300000D01*
X76603482Y-63406568D01*
X76406568Y-63603482D01*
X76300000Y-63860761D01*
X74700000Y-63860761D01*
X74593432Y-63603482D01*
X74470827Y-63480877D01*
X74737500Y-63480877D01*
X74945441Y-63439515D01*
X75121726Y-63321726D01*
X75239515Y-63145441D01*
X75250000Y-63092729D01*
X75260485Y-63145441D01*
X75378274Y-63321726D01*
X75554559Y-63439515D01*
X75762500Y-63480877D01*
X76237500Y-63480877D01*
X76445441Y-63439515D01*
X76621726Y-63321726D01*
X76739515Y-63145441D01*
X76780877Y-62937500D01*
X76780877Y-62362500D01*
X76739515Y-62154559D01*
X76621726Y-61978274D01*
X76445441Y-61860485D01*
X76237500Y-61819123D01*
X75762500Y-61819123D01*
X75554559Y-61860485D01*
X75378274Y-61978274D01*
X75260485Y-62154559D01*
X75250000Y-62207271D01*
X75239515Y-62154559D01*
X75121726Y-61978274D01*
X74945441Y-61860485D01*
X74737500Y-61819123D01*
X74262500Y-61819123D01*
X74054559Y-61860485D01*
X73878274Y-61978274D01*
X73760485Y-62154559D01*
X73719123Y-62362500D01*
X73719123Y-62937500D01*
X73760485Y-63145441D01*
X73863757Y-63300000D01*
X73860761Y-63300000D01*
X73603482Y-63406568D01*
X73406568Y-63603482D01*
X73300000Y-63860761D01*
X71700000Y-63860761D01*
X71593432Y-63603482D01*
X71396518Y-63406568D01*
X71139239Y-63300000D01*
X70860761Y-63300000D01*
X70603482Y-63406568D01*
X70406568Y-63603482D01*
X70300000Y-63860761D01*
X63700000Y-63860761D01*
X63593432Y-63603482D01*
X63396518Y-63406568D01*
X63139239Y-63300000D01*
X62860761Y-63300000D01*
X62603482Y-63406568D01*
X62406568Y-63603482D01*
X62300000Y-63860761D01*
X60700000Y-63860761D01*
X60593432Y-63603482D01*
X60462840Y-63472890D01*
X60621726Y-63366726D01*
X60739515Y-63190441D01*
X60780877Y-62982500D01*
X60780877Y-62407500D01*
X60739515Y-62199559D01*
X60621726Y-62023274D01*
X60445441Y-61905485D01*
X60237500Y-61864123D01*
X59762500Y-61864123D01*
X59554559Y-61905485D01*
X59378274Y-62023274D01*
X59260485Y-62199559D01*
X59254476Y-62229771D01*
X59239515Y-62154559D01*
X59121726Y-61978274D01*
X58945441Y-61860485D01*
X58737500Y-61819123D01*
X58262500Y-61819123D01*
X58054559Y-61860485D01*
X57878274Y-61978274D01*
X57760485Y-62154559D01*
X57719123Y-62362500D01*
X55600000Y-62362500D01*
X55600000Y-62202719D01*
X55268068Y-61401364D01*
X55320292Y-61411752D01*
X55379380Y-61399999D01*
X57763531Y-61399999D01*
X57878274Y-61571726D01*
X58054559Y-61689515D01*
X58262500Y-61730877D01*
X58737500Y-61730877D01*
X58945441Y-61689515D01*
X59121726Y-61571726D01*
X59239515Y-61395441D01*
X59245524Y-61365229D01*
X59260485Y-61440441D01*
X59378274Y-61616726D01*
X59554559Y-61734515D01*
X59762500Y-61775877D01*
X60237500Y-61775877D01*
X60445441Y-61734515D01*
X60619045Y-61618518D01*
X60815761Y-61700000D01*
X61094239Y-61700000D01*
X61351518Y-61593432D01*
X61548432Y-61396518D01*
X61655000Y-61139239D01*
X61655000Y-60860761D01*
X61548432Y-60603482D01*
X61351518Y-60406568D01*
X61094239Y-60300000D01*
X60815761Y-60300000D01*
X60677774Y-60357156D01*
X60621726Y-60273274D01*
X60445441Y-60155485D01*
X60237500Y-60114123D01*
X59762500Y-60114123D01*
X59554559Y-60155485D01*
X59378274Y-60273274D01*
X59260485Y-60449559D01*
X59254476Y-60479771D01*
X59239515Y-60404559D01*
X59121726Y-60228274D01*
X58945441Y-60110485D01*
X58737500Y-60069123D01*
X58262500Y-60069123D01*
X58054559Y-60110485D01*
X57920591Y-60199999D01*
X55568820Y-60199999D01*
X54199999Y-58831179D01*
X54199999Y-57862000D01*
X54295329Y-58004671D01*
X54526874Y-58159385D01*
X54697499Y-58193324D01*
X54609472Y-58325065D01*
X54529920Y-58725000D01*
X54609472Y-59124935D01*
X54836017Y-59463983D01*
X55175065Y-59690528D01*
X55474051Y-59750000D01*
X56225949Y-59750000D01*
X56524935Y-59690528D01*
X56863983Y-59463983D01*
X57090528Y-59124935D01*
X57170080Y-58725000D01*
X57090528Y-58325065D01*
X56863983Y-57986017D01*
X56524935Y-57759472D01*
X56225949Y-57700000D01*
X55474051Y-57700000D01*
X55473926Y-57700025D01*
X55513713Y-57500000D01*
X55459385Y-57226874D01*
X55304671Y-56995329D01*
X55274248Y-56975001D01*
X56160789Y-56975001D01*
X56268266Y-57082478D01*
X56301740Y-57132575D01*
X56500207Y-57265187D01*
X56675224Y-57300000D01*
X56675228Y-57300000D01*
X56734315Y-57311753D01*
X56793401Y-57300000D01*
X56919339Y-57300000D01*
X57160761Y-57400000D01*
X57439239Y-57400000D01*
X57696518Y-57293432D01*
X57893432Y-57096518D01*
X58000000Y-56839239D01*
X58000000Y-56801040D01*
X63969881Y-62770922D01*
X63993592Y-62806408D01*
X64029077Y-62830118D01*
X64134173Y-62900341D01*
X64300000Y-62933326D01*
X64341857Y-62925000D01*
X65344123Y-62925000D01*
X65344123Y-63450000D01*
X65367407Y-63567054D01*
X65433712Y-63666288D01*
X65532946Y-63732593D01*
X65650000Y-63755877D01*
X67350000Y-63755877D01*
X67467054Y-63732593D01*
X67566288Y-63666288D01*
X67632593Y-63567054D01*
X67655877Y-63450000D01*
X67655877Y-61750000D01*
X67632593Y-61632946D01*
X67566288Y-61533712D01*
X67467054Y-61467407D01*
X67350000Y-61444123D01*
X65650000Y-61444123D01*
X65532946Y-61467407D01*
X65433712Y-61533712D01*
X65367407Y-61632946D01*
X65344123Y-61750000D01*
X65344123Y-62075000D01*
X64476041Y-62075000D01*
X63426041Y-61025000D01*
X64858143Y-61025000D01*
X64900000Y-61033326D01*
X64941857Y-61025000D01*
X64941858Y-61025000D01*
X65065827Y-61000341D01*
X65206408Y-60906408D01*
X65230121Y-60870919D01*
X65945163Y-60155877D01*
X67350000Y-60155877D01*
X67467054Y-60132593D01*
X67566288Y-60066288D01*
X67632593Y-59967054D01*
X67655877Y-59850000D01*
X67655877Y-58150000D01*
X67632593Y-58032946D01*
X67566288Y-57933712D01*
X67467054Y-57867407D01*
X67350000Y-57844123D01*
X65650000Y-57844123D01*
X65532946Y-57867407D01*
X65433712Y-57933712D01*
X65367407Y-58032946D01*
X65344123Y-58150000D01*
X65344123Y-59554837D01*
X64723960Y-60175000D01*
X63226041Y-60175000D01*
X57251041Y-54200001D01*
X59618631Y-54200001D01*
X60528603Y-55109974D01*
X60573233Y-55176767D01*
X60640025Y-55221396D01*
X60640026Y-55221397D01*
X60645888Y-55225314D01*
X60837856Y-55353583D01*
X61071211Y-55400000D01*
X61071216Y-55400000D01*
X61150000Y-55415671D01*
X61228784Y-55400000D01*
X62144123Y-55400000D01*
X62144123Y-55450000D01*
X62167407Y-55567054D01*
X62233712Y-55666288D01*
X62332946Y-55732593D01*
X62450000Y-55755877D01*
X64150000Y-55755877D01*
X64267054Y-55732593D01*
X64366288Y-55666288D01*
X64432593Y-55567054D01*
X64455877Y-55450000D01*
X64455877Y-54600000D01*
X64667471Y-54600000D01*
X64756724Y-55048707D01*
X65010897Y-55429103D01*
X65040001Y-55448549D01*
X65040001Y-55723293D01*
X65024329Y-55802081D01*
X65040001Y-55880870D01*
X65044499Y-55903482D01*
X65086418Y-56114225D01*
X65218603Y-56312054D01*
X65218605Y-56312056D01*
X65263234Y-56378848D01*
X65330026Y-56423477D01*
X66066521Y-57159972D01*
X66111152Y-57226767D01*
X66238342Y-57311753D01*
X66375774Y-57403583D01*
X66687919Y-57465672D01*
X66766708Y-57450000D01*
X71821216Y-57450000D01*
X71900000Y-57465671D01*
X71978784Y-57450000D01*
X71978789Y-57450000D01*
X72212144Y-57403583D01*
X72476767Y-57226767D01*
X72521398Y-57159972D01*
X77992265Y-51689106D01*
X77950000Y-51791142D01*
X77950000Y-52208858D01*
X78109853Y-52594777D01*
X78405223Y-52890147D01*
X78791142Y-53050000D01*
X79208858Y-53050000D01*
X79594777Y-52890147D01*
X79890147Y-52594777D01*
X80050000Y-52208858D01*
X80050000Y-52035369D01*
X80650000Y-52635369D01*
X80650001Y-57968628D01*
X80418630Y-58200000D01*
X80045931Y-58200000D01*
X80032593Y-58132946D01*
X79966288Y-58033712D01*
X79867054Y-57967407D01*
X79750000Y-57944123D01*
X79747919Y-57944123D01*
X80345924Y-57346119D01*
X80381409Y-57322409D01*
X80475342Y-57181828D01*
X80482693Y-57144870D01*
X80508327Y-57016002D01*
X80500001Y-56974144D01*
X80500001Y-55616858D01*
X80508327Y-55575000D01*
X80475342Y-55409174D01*
X80405119Y-55304078D01*
X80381409Y-55268593D01*
X80345923Y-55244882D01*
X80080119Y-54979079D01*
X80080117Y-54979076D01*
X79979676Y-54878635D01*
X80050000Y-54708858D01*
X80050000Y-54291142D01*
X79890147Y-53905223D01*
X79594777Y-53609853D01*
X79208858Y-53450000D01*
X78791142Y-53450000D01*
X78405223Y-53609853D01*
X78109853Y-53905223D01*
X77950000Y-54291142D01*
X77950000Y-54708858D01*
X78109853Y-55094777D01*
X78405223Y-55390147D01*
X78670431Y-55500000D01*
X78405223Y-55609853D01*
X78109853Y-55905223D01*
X77950000Y-56291142D01*
X77950000Y-56708858D01*
X78020324Y-56878635D01*
X77848972Y-57049988D01*
X73566869Y-57049988D01*
X73525012Y-57041662D01*
X73483154Y-57049988D01*
X73359185Y-57074647D01*
X73218604Y-57168580D01*
X73194893Y-57204066D01*
X71823960Y-58575000D01*
X70127992Y-58575000D01*
X70123276Y-58551293D01*
X69869103Y-58170897D01*
X69488707Y-57916724D01*
X69153261Y-57850000D01*
X68926739Y-57850000D01*
X68591293Y-57916724D01*
X68210897Y-58170897D01*
X67956724Y-58551293D01*
X67867471Y-59000000D01*
X67956724Y-59448707D01*
X68210897Y-59829103D01*
X68591293Y-60083276D01*
X68926739Y-60150000D01*
X69153261Y-60150000D01*
X69488707Y-60083276D01*
X69869103Y-59829103D01*
X70123276Y-59448707D01*
X70127992Y-59425000D01*
X71610370Y-59425000D01*
X69506655Y-61528716D01*
X69488707Y-61516724D01*
X69153261Y-61450000D01*
X68926739Y-61450000D01*
X68591293Y-61516724D01*
X68210897Y-61770897D01*
X67956724Y-62151293D01*
X67867471Y-62600000D01*
X67956724Y-63048707D01*
X68210897Y-63429103D01*
X68591293Y-63683276D01*
X68926739Y-63750000D01*
X69153261Y-63750000D01*
X69488707Y-63683276D01*
X69869103Y-63429103D01*
X70123276Y-63048707D01*
X70212529Y-62600000D01*
X70123276Y-62151293D01*
X70108409Y-62129042D01*
X73887452Y-58349999D01*
X77944123Y-58349999D01*
X77944123Y-59207349D01*
X76851473Y-60300000D01*
X76669651Y-60300000D01*
X76621726Y-60228274D01*
X76445441Y-60110485D01*
X76237500Y-60069123D01*
X75762500Y-60069123D01*
X75554559Y-60110485D01*
X75378274Y-60228274D01*
X75260485Y-60404559D01*
X75250000Y-60457271D01*
X75239515Y-60404559D01*
X75121726Y-60228274D01*
X74945441Y-60110485D01*
X74737500Y-60069123D01*
X74262500Y-60069123D01*
X74054559Y-60110485D01*
X73878274Y-60228274D01*
X73841262Y-60283666D01*
X73639239Y-60199986D01*
X73360761Y-60199986D01*
X73103482Y-60306554D01*
X72906568Y-60503468D01*
X72800000Y-60760747D01*
X72800000Y-61039225D01*
X72906568Y-61296504D01*
X73103482Y-61493418D01*
X73360761Y-61599986D01*
X73639239Y-61599986D01*
X73841248Y-61516312D01*
X73878274Y-61571726D01*
X74054559Y-61689515D01*
X74262500Y-61730877D01*
X74737500Y-61730877D01*
X74945441Y-61689515D01*
X75121726Y-61571726D01*
X75239515Y-61395441D01*
X75250000Y-61342729D01*
X75260485Y-61395441D01*
X75378274Y-61571726D01*
X75554559Y-61689515D01*
X75762500Y-61730877D01*
X76237500Y-61730877D01*
X76332612Y-61711958D01*
X79850000Y-61711958D01*
X79850000Y-62428042D01*
X80124034Y-63089618D01*
X80630382Y-63595966D01*
X81291958Y-63870000D01*
X82008042Y-63870000D01*
X82030346Y-63860761D01*
X83300000Y-63860761D01*
X83300000Y-64139239D01*
X83406568Y-64396518D01*
X83603482Y-64593432D01*
X83860761Y-64700000D01*
X84139239Y-64700000D01*
X84396518Y-64593432D01*
X84593432Y-64396518D01*
X84700000Y-64139239D01*
X84700000Y-63860761D01*
X85300000Y-63860761D01*
X85300000Y-64139239D01*
X85406568Y-64396518D01*
X85603482Y-64593432D01*
X85860761Y-64700000D01*
X86139239Y-64700000D01*
X86396518Y-64593432D01*
X86593432Y-64396518D01*
X86700000Y-64139239D01*
X86700000Y-63860761D01*
X87300000Y-63860761D01*
X87300000Y-64139239D01*
X87406568Y-64396518D01*
X87603482Y-64593432D01*
X87860761Y-64700000D01*
X88139239Y-64700000D01*
X88396518Y-64593432D01*
X88593432Y-64396518D01*
X88700000Y-64139239D01*
X88700000Y-63860761D01*
X88593432Y-63603482D01*
X88396518Y-63406568D01*
X88139239Y-63300000D01*
X87860761Y-63300000D01*
X87603482Y-63406568D01*
X87406568Y-63603482D01*
X87300000Y-63860761D01*
X86700000Y-63860761D01*
X86593432Y-63603482D01*
X86396518Y-63406568D01*
X86139239Y-63300000D01*
X85860761Y-63300000D01*
X85603482Y-63406568D01*
X85406568Y-63603482D01*
X85300000Y-63860761D01*
X84700000Y-63860761D01*
X84593432Y-63603482D01*
X84396518Y-63406568D01*
X84139239Y-63300000D01*
X83860761Y-63300000D01*
X83603482Y-63406568D01*
X83406568Y-63603482D01*
X83300000Y-63860761D01*
X82030346Y-63860761D01*
X82669618Y-63595966D01*
X83175966Y-63089618D01*
X83450000Y-62428042D01*
X83450000Y-61860761D01*
X88300000Y-61860761D01*
X88300000Y-62139239D01*
X88406568Y-62396518D01*
X88603482Y-62593432D01*
X88860761Y-62700000D01*
X89139239Y-62700000D01*
X89396518Y-62593432D01*
X89593432Y-62396518D01*
X89700000Y-62139239D01*
X89700000Y-61860761D01*
X89593432Y-61603482D01*
X89396518Y-61406568D01*
X89139239Y-61300000D01*
X88860761Y-61300000D01*
X88603482Y-61406568D01*
X88406568Y-61603482D01*
X88300000Y-61860761D01*
X83450000Y-61860761D01*
X83450000Y-61711958D01*
X83175966Y-61050382D01*
X82986345Y-60860761D01*
X85300000Y-60860761D01*
X85300000Y-61139239D01*
X85406568Y-61396518D01*
X85603482Y-61593432D01*
X85860761Y-61700000D01*
X86139239Y-61700000D01*
X86396518Y-61593432D01*
X86593432Y-61396518D01*
X86700000Y-61139239D01*
X86700000Y-60860761D01*
X86593432Y-60603482D01*
X86396518Y-60406568D01*
X86139239Y-60300000D01*
X85860761Y-60300000D01*
X85603482Y-60406568D01*
X85406568Y-60603482D01*
X85300000Y-60860761D01*
X82986345Y-60860761D01*
X82669618Y-60544034D01*
X82008042Y-60270000D01*
X81291958Y-60270000D01*
X80630382Y-60544034D01*
X80124034Y-61050382D01*
X79850000Y-61711958D01*
X76332612Y-61711958D01*
X76445441Y-61689515D01*
X76621726Y-61571726D01*
X76669651Y-61500000D01*
X77040914Y-61500000D01*
X77100000Y-61511753D01*
X77159086Y-61500000D01*
X77159091Y-61500000D01*
X77334108Y-61465187D01*
X77532575Y-61332575D01*
X77566049Y-61282478D01*
X78792651Y-60055877D01*
X79750000Y-60055877D01*
X79867054Y-60032593D01*
X79966288Y-59966288D01*
X80032593Y-59867054D01*
X80033844Y-59860761D01*
X88300000Y-59860761D01*
X88300000Y-60139239D01*
X88406568Y-60396518D01*
X88603482Y-60593432D01*
X88860761Y-60700000D01*
X89139239Y-60700000D01*
X89396518Y-60593432D01*
X89593432Y-60396518D01*
X89700000Y-60139239D01*
X89700000Y-59860761D01*
X89593432Y-59603482D01*
X89396518Y-59406568D01*
X89139239Y-59300000D01*
X88860761Y-59300000D01*
X88603482Y-59406568D01*
X88406568Y-59603482D01*
X88300000Y-59860761D01*
X80033844Y-59860761D01*
X80045931Y-59800000D01*
X80671216Y-59800000D01*
X80750000Y-59815671D01*
X80828784Y-59800000D01*
X80828789Y-59800000D01*
X81062144Y-59753583D01*
X81326767Y-59576767D01*
X81371398Y-59509972D01*
X81959974Y-58921397D01*
X82026767Y-58876767D01*
X82203583Y-58612144D01*
X82250000Y-58378789D01*
X82250000Y-58378785D01*
X82265671Y-58300001D01*
X82250000Y-58221217D01*
X82250000Y-57860761D01*
X88300000Y-57860761D01*
X88300000Y-58139239D01*
X88406568Y-58396518D01*
X88603482Y-58593432D01*
X88860761Y-58700000D01*
X89139239Y-58700000D01*
X89396518Y-58593432D01*
X89593432Y-58396518D01*
X89700000Y-58139239D01*
X89700000Y-57860761D01*
X89593432Y-57603482D01*
X89396518Y-57406568D01*
X89139239Y-57300000D01*
X88860761Y-57300000D01*
X88603482Y-57406568D01*
X88406568Y-57603482D01*
X88300000Y-57860761D01*
X82250000Y-57860761D01*
X82250000Y-56860761D01*
X85300000Y-56860761D01*
X85300000Y-57139239D01*
X85406568Y-57396518D01*
X85603482Y-57593432D01*
X85860761Y-57700000D01*
X86139239Y-57700000D01*
X86396518Y-57593432D01*
X86593432Y-57396518D01*
X86700000Y-57139239D01*
X86700000Y-56860761D01*
X86593432Y-56603482D01*
X86396518Y-56406568D01*
X86139239Y-56300000D01*
X85860761Y-56300000D01*
X85603482Y-56406568D01*
X85406568Y-56603482D01*
X85300000Y-56860761D01*
X82250000Y-56860761D01*
X82250000Y-55860761D01*
X88300000Y-55860761D01*
X88300000Y-56139239D01*
X88406568Y-56396518D01*
X88603482Y-56593432D01*
X88860761Y-56700000D01*
X89139239Y-56700000D01*
X89396518Y-56593432D01*
X89593432Y-56396518D01*
X89700000Y-56139239D01*
X89700000Y-55860761D01*
X89593432Y-55603482D01*
X89396518Y-55406568D01*
X89139239Y-55300000D01*
X88860761Y-55300000D01*
X88603482Y-55406568D01*
X88406568Y-55603482D01*
X88300000Y-55860761D01*
X82250000Y-55860761D01*
X82250000Y-53860761D01*
X88300000Y-53860761D01*
X88300000Y-54139239D01*
X88406568Y-54396518D01*
X88603482Y-54593432D01*
X88860761Y-54700000D01*
X89139239Y-54700000D01*
X89396518Y-54593432D01*
X89593432Y-54396518D01*
X89700000Y-54139239D01*
X89700000Y-53860761D01*
X89593432Y-53603482D01*
X89396518Y-53406568D01*
X89139239Y-53300000D01*
X88860761Y-53300000D01*
X88603482Y-53406568D01*
X88406568Y-53603482D01*
X88300000Y-53860761D01*
X82250000Y-53860761D01*
X82250000Y-52860761D01*
X85300000Y-52860761D01*
X85300000Y-53139239D01*
X85406568Y-53396518D01*
X85603482Y-53593432D01*
X85860761Y-53700000D01*
X86139239Y-53700000D01*
X86396518Y-53593432D01*
X86593432Y-53396518D01*
X86700000Y-53139239D01*
X86700000Y-52860761D01*
X86593432Y-52603482D01*
X86396518Y-52406568D01*
X86139239Y-52300000D01*
X85860761Y-52300000D01*
X85603482Y-52406568D01*
X85406568Y-52603482D01*
X85300000Y-52860761D01*
X82250000Y-52860761D01*
X82250000Y-52382781D01*
X82265671Y-52303997D01*
X82250000Y-52225213D01*
X82250000Y-52225209D01*
X82203583Y-51991854D01*
X82115990Y-51860761D01*
X88300000Y-51860761D01*
X88300000Y-52139239D01*
X88406568Y-52396518D01*
X88603482Y-52593432D01*
X88860761Y-52700000D01*
X89139239Y-52700000D01*
X89396518Y-52593432D01*
X89593432Y-52396518D01*
X89700000Y-52139239D01*
X89700000Y-51860761D01*
X89593432Y-51603482D01*
X89396518Y-51406568D01*
X89139239Y-51300000D01*
X88860761Y-51300000D01*
X88603482Y-51406568D01*
X88406568Y-51603482D01*
X88300000Y-51860761D01*
X82115990Y-51860761D01*
X82026767Y-51727231D01*
X81959975Y-51682602D01*
X80806140Y-50528767D01*
X81291958Y-50730000D01*
X82008042Y-50730000D01*
X82669618Y-50455966D01*
X83175966Y-49949618D01*
X83212771Y-49860761D01*
X88300000Y-49860761D01*
X88300000Y-50139239D01*
X88406568Y-50396518D01*
X88603482Y-50593432D01*
X88860761Y-50700000D01*
X89139239Y-50700000D01*
X89396518Y-50593432D01*
X89593432Y-50396518D01*
X89700000Y-50139239D01*
X89700000Y-49860761D01*
X89593432Y-49603482D01*
X89396518Y-49406568D01*
X89139239Y-49300000D01*
X88860761Y-49300000D01*
X88603482Y-49406568D01*
X88406568Y-49603482D01*
X88300000Y-49860761D01*
X83212771Y-49860761D01*
X83450000Y-49288042D01*
X83450000Y-48860761D01*
X85300000Y-48860761D01*
X85300000Y-49139239D01*
X85406568Y-49396518D01*
X85603482Y-49593432D01*
X85860761Y-49700000D01*
X86139239Y-49700000D01*
X86396518Y-49593432D01*
X86593432Y-49396518D01*
X86700000Y-49139239D01*
X86700000Y-48860761D01*
X86593432Y-48603482D01*
X86396518Y-48406568D01*
X86139239Y-48300000D01*
X85860761Y-48300000D01*
X85603482Y-48406568D01*
X85406568Y-48603482D01*
X85300000Y-48860761D01*
X83450000Y-48860761D01*
X83450000Y-48571958D01*
X83175966Y-47910382D01*
X83126345Y-47860761D01*
X88300000Y-47860761D01*
X88300000Y-48139239D01*
X88406568Y-48396518D01*
X88603482Y-48593432D01*
X88860761Y-48700000D01*
X89139239Y-48700000D01*
X89396518Y-48593432D01*
X89593432Y-48396518D01*
X89700000Y-48139239D01*
X89700000Y-47860761D01*
X89593432Y-47603482D01*
X89396518Y-47406568D01*
X89139239Y-47300000D01*
X88860761Y-47300000D01*
X88603482Y-47406568D01*
X88406568Y-47603482D01*
X88300000Y-47860761D01*
X83126345Y-47860761D01*
X82669618Y-47404034D01*
X82008042Y-47130000D01*
X81291958Y-47130000D01*
X80630382Y-47404034D01*
X80124034Y-47910382D01*
X79850000Y-48571958D01*
X79850000Y-49288042D01*
X80042632Y-49753096D01*
X79808146Y-49596417D01*
X79574791Y-49550000D01*
X79574786Y-49550000D01*
X79496002Y-49534329D01*
X79417218Y-49550000D01*
X78278783Y-49550000D01*
X78199999Y-49534329D01*
X78121215Y-49550000D01*
X78121211Y-49550000D01*
X77887856Y-49596417D01*
X77887854Y-49596418D01*
X77887855Y-49596418D01*
X77732834Y-49700000D01*
X77623233Y-49773233D01*
X77578604Y-49840025D01*
X71568630Y-55850000D01*
X68759402Y-55850000D01*
X68887234Y-55824573D01*
X69208702Y-55609774D01*
X73628703Y-51189774D01*
X73737247Y-51117247D01*
X74024573Y-50687235D01*
X74100000Y-50308037D01*
X74100000Y-50308033D01*
X74125467Y-50180000D01*
X74100000Y-50051967D01*
X74100000Y-47860761D01*
X77300000Y-47860761D01*
X77300000Y-48139239D01*
X77406568Y-48396518D01*
X77603482Y-48593432D01*
X77860761Y-48700000D01*
X78139239Y-48700000D01*
X78396518Y-48593432D01*
X78593432Y-48396518D01*
X78700000Y-48139239D01*
X78700000Y-47860761D01*
X78593432Y-47603482D01*
X78396518Y-47406568D01*
X78139239Y-47300000D01*
X77860761Y-47300000D01*
X77603482Y-47406568D01*
X77406568Y-47603482D01*
X77300000Y-47860761D01*
X74100000Y-47860761D01*
X74100000Y-45860761D01*
X88300000Y-45860761D01*
X88300000Y-46139239D01*
X88406568Y-46396518D01*
X88603482Y-46593432D01*
X88860761Y-46700000D01*
X89139239Y-46700000D01*
X89396518Y-46593432D01*
X89593432Y-46396518D01*
X89700000Y-46139239D01*
X89700000Y-45860761D01*
X89593432Y-45603482D01*
X89396518Y-45406568D01*
X89139239Y-45300000D01*
X88860761Y-45300000D01*
X88603482Y-45406568D01*
X88406568Y-45603482D01*
X88300000Y-45860761D01*
X74100000Y-45860761D01*
X74100000Y-44860761D01*
X77300000Y-44860761D01*
X77300000Y-45139239D01*
X77406568Y-45396518D01*
X77603482Y-45593432D01*
X77860761Y-45700000D01*
X78139239Y-45700000D01*
X78396518Y-45593432D01*
X78593432Y-45396518D01*
X78700000Y-45139239D01*
X78700000Y-44860761D01*
X81300000Y-44860761D01*
X81300000Y-45139239D01*
X81406568Y-45396518D01*
X81603482Y-45593432D01*
X81860761Y-45700000D01*
X82139239Y-45700000D01*
X82396518Y-45593432D01*
X82593432Y-45396518D01*
X82700000Y-45139239D01*
X82700000Y-44860761D01*
X85300000Y-44860761D01*
X85300000Y-45139239D01*
X85406568Y-45396518D01*
X85603482Y-45593432D01*
X85860761Y-45700000D01*
X86139239Y-45700000D01*
X86396518Y-45593432D01*
X86593432Y-45396518D01*
X86700000Y-45139239D01*
X86700000Y-44860761D01*
X86593432Y-44603482D01*
X86396518Y-44406568D01*
X86139239Y-44300000D01*
X85860761Y-44300000D01*
X85603482Y-44406568D01*
X85406568Y-44603482D01*
X85300000Y-44860761D01*
X82700000Y-44860761D01*
X82593432Y-44603482D01*
X82396518Y-44406568D01*
X82139239Y-44300000D01*
X81860761Y-44300000D01*
X81603482Y-44406568D01*
X81406568Y-44603482D01*
X81300000Y-44860761D01*
X78700000Y-44860761D01*
X78593432Y-44603482D01*
X78396518Y-44406568D01*
X78139239Y-44300000D01*
X77860761Y-44300000D01*
X77603482Y-44406568D01*
X77406568Y-44603482D01*
X77300000Y-44860761D01*
X74100000Y-44860761D01*
X74100000Y-44151025D01*
X74102846Y-44149846D01*
X74391931Y-43860761D01*
X88300000Y-43860761D01*
X88300000Y-44139239D01*
X88406568Y-44396518D01*
X88603482Y-44593432D01*
X88860761Y-44700000D01*
X89139239Y-44700000D01*
X89396518Y-44593432D01*
X89593432Y-44396518D01*
X89700000Y-44139239D01*
X89700000Y-43860761D01*
X89593432Y-43603482D01*
X89396518Y-43406568D01*
X89139239Y-43300000D01*
X88860761Y-43300000D01*
X88603482Y-43406568D01*
X88406568Y-43603482D01*
X88300000Y-43860761D01*
X74391931Y-43860761D01*
X74749846Y-43502846D01*
X75100000Y-42657499D01*
X75100000Y-41860761D01*
X88300000Y-41860761D01*
X88300000Y-42139239D01*
X88406568Y-42396518D01*
X88603482Y-42593432D01*
X88860761Y-42700000D01*
X89139239Y-42700000D01*
X89396518Y-42593432D01*
X89593432Y-42396518D01*
X89700000Y-42139239D01*
X89700000Y-41860761D01*
X89593432Y-41603482D01*
X89396518Y-41406568D01*
X89139239Y-41300000D01*
X88860761Y-41300000D01*
X88603482Y-41406568D01*
X88406568Y-41603482D01*
X88300000Y-41860761D01*
X75100000Y-41860761D01*
X75100000Y-41742501D01*
X74808872Y-41039655D01*
X74987766Y-40860761D01*
X77300000Y-40860761D01*
X77300000Y-41139239D01*
X77406568Y-41396518D01*
X77603482Y-41593432D01*
X77860761Y-41700000D01*
X78139239Y-41700000D01*
X78396518Y-41593432D01*
X78593432Y-41396518D01*
X78700000Y-41139239D01*
X78700000Y-40860761D01*
X81300000Y-40860761D01*
X81300000Y-41139239D01*
X81406568Y-41396518D01*
X81603482Y-41593432D01*
X81860761Y-41700000D01*
X82139239Y-41700000D01*
X82396518Y-41593432D01*
X82593432Y-41396518D01*
X82700000Y-41139239D01*
X82700000Y-40860761D01*
X85300000Y-40860761D01*
X85300000Y-41139239D01*
X85406568Y-41396518D01*
X85603482Y-41593432D01*
X85860761Y-41700000D01*
X86139239Y-41700000D01*
X86396518Y-41593432D01*
X86593432Y-41396518D01*
X86700000Y-41139239D01*
X86700000Y-40860761D01*
X86593432Y-40603482D01*
X86396518Y-40406568D01*
X86139239Y-40300000D01*
X85860761Y-40300000D01*
X85603482Y-40406568D01*
X85406568Y-40603482D01*
X85300000Y-40860761D01*
X82700000Y-40860761D01*
X82593432Y-40603482D01*
X82396518Y-40406568D01*
X82139239Y-40300000D01*
X81860761Y-40300000D01*
X81603482Y-40406568D01*
X81406568Y-40603482D01*
X81300000Y-40860761D01*
X78700000Y-40860761D01*
X78593432Y-40603482D01*
X78396518Y-40406568D01*
X78139239Y-40300000D01*
X77860761Y-40300000D01*
X77603482Y-40406568D01*
X77406568Y-40603482D01*
X77300000Y-40860761D01*
X74987766Y-40860761D01*
X77361027Y-38487500D01*
X79919123Y-38487500D01*
X79919123Y-39062500D01*
X79960485Y-39270441D01*
X80078274Y-39446726D01*
X80254559Y-39564515D01*
X80462500Y-39605877D01*
X80937500Y-39605877D01*
X81145441Y-39564515D01*
X81321726Y-39446726D01*
X81439515Y-39270441D01*
X81450000Y-39217729D01*
X81460485Y-39270441D01*
X81578274Y-39446726D01*
X81754559Y-39564515D01*
X81962500Y-39605877D01*
X82437500Y-39605877D01*
X82645441Y-39564515D01*
X82821726Y-39446726D01*
X82939515Y-39270441D01*
X82980877Y-39062500D01*
X82980877Y-38487500D01*
X82939515Y-38279559D01*
X82821726Y-38103274D01*
X82645441Y-37985485D01*
X82437500Y-37944123D01*
X81962500Y-37944123D01*
X81754559Y-37985485D01*
X81578274Y-38103274D01*
X81460485Y-38279559D01*
X81450000Y-38332271D01*
X81439515Y-38279559D01*
X81321726Y-38103274D01*
X81145441Y-37985485D01*
X80937500Y-37944123D01*
X80462500Y-37944123D01*
X80254559Y-37985485D01*
X80078274Y-38103274D01*
X79960485Y-38279559D01*
X79919123Y-38487500D01*
X77361027Y-38487500D01*
X78223528Y-37625000D01*
X80030349Y-37625000D01*
X80078274Y-37696726D01*
X80254559Y-37814515D01*
X80462500Y-37855877D01*
X80937500Y-37855877D01*
X81145441Y-37814515D01*
X81321726Y-37696726D01*
X81439515Y-37520441D01*
X81450000Y-37467729D01*
X81460485Y-37520441D01*
X81578274Y-37696726D01*
X81754559Y-37814515D01*
X81962500Y-37855877D01*
X82437500Y-37855877D01*
X82645441Y-37814515D01*
X82821726Y-37696726D01*
X82939515Y-37520441D01*
X82980877Y-37312500D01*
X82980877Y-36802719D01*
X85000000Y-36802719D01*
X85000000Y-37797281D01*
X85380602Y-38716136D01*
X86083864Y-39419398D01*
X87002719Y-39800000D01*
X87997281Y-39800000D01*
X88916136Y-39419398D01*
X89619398Y-38716136D01*
X90000000Y-37797281D01*
X90000000Y-36802719D01*
X89619398Y-35883864D01*
X88916136Y-35180602D01*
X87997281Y-34800000D01*
X87002719Y-34800000D01*
X86083864Y-35180602D01*
X85380602Y-35883864D01*
X85000000Y-36802719D01*
X82980877Y-36802719D01*
X82980877Y-36737500D01*
X82944827Y-36556264D01*
X83096518Y-36493432D01*
X83293432Y-36296518D01*
X83400000Y-36039239D01*
X83400000Y-35760761D01*
X83293432Y-35503482D01*
X83096518Y-35306568D01*
X82839239Y-35200000D01*
X82560761Y-35200000D01*
X82303482Y-35306568D01*
X82106568Y-35503482D01*
X82006568Y-35744905D01*
X81817519Y-35933954D01*
X81767426Y-35967425D01*
X81634813Y-36165892D01*
X81600494Y-36338427D01*
X81578274Y-36353274D01*
X81460485Y-36529559D01*
X81450000Y-36582271D01*
X81439515Y-36529559D01*
X81321726Y-36353274D01*
X81145441Y-36235485D01*
X80937500Y-36194123D01*
X80462500Y-36194123D01*
X80254559Y-36235485D01*
X80078274Y-36353274D01*
X80030349Y-36425000D01*
X78564950Y-36425000D01*
X78593432Y-36396518D01*
X78700000Y-36139239D01*
X78700000Y-35860761D01*
X78593432Y-35603482D01*
X78396518Y-35406568D01*
X78139239Y-35300000D01*
X77860761Y-35300000D01*
X77603482Y-35406568D01*
X77406568Y-35603482D01*
X77300000Y-35860761D01*
X77300000Y-36139239D01*
X77406568Y-36396518D01*
X77578422Y-36568372D01*
X77542425Y-36592425D01*
X77508953Y-36642519D01*
X73960345Y-40191128D01*
X73257499Y-39900000D01*
X72342501Y-39900000D01*
X71497154Y-40250154D01*
X70850154Y-40897154D01*
X70500000Y-41742501D01*
X70500000Y-42657499D01*
X70850154Y-43502846D01*
X71497154Y-44149846D01*
X71500001Y-44151025D01*
X71500000Y-49641523D01*
X67370226Y-53771298D01*
X67155427Y-54092766D01*
X67054533Y-54600000D01*
X67155427Y-55107234D01*
X67442753Y-55537247D01*
X67872766Y-55824573D01*
X68000598Y-55850000D01*
X67019289Y-55850000D01*
X66640000Y-55470711D01*
X66640000Y-55448549D01*
X66669103Y-55429103D01*
X66923276Y-55048707D01*
X67012529Y-54600000D01*
X66923276Y-54151293D01*
X66669103Y-53770897D01*
X66288707Y-53516724D01*
X65953261Y-53450000D01*
X65726739Y-53450000D01*
X65391293Y-53516724D01*
X65010897Y-53770897D01*
X64756724Y-54151293D01*
X64667471Y-54600000D01*
X64455877Y-54600000D01*
X64455877Y-53750000D01*
X64432593Y-53632946D01*
X64366288Y-53533712D01*
X64267054Y-53467407D01*
X64150000Y-53444123D01*
X62450000Y-53444123D01*
X62332946Y-53467407D01*
X62233712Y-53533712D01*
X62167407Y-53632946D01*
X62144123Y-53750000D01*
X62144123Y-53800000D01*
X61481371Y-53800000D01*
X60571399Y-52890029D01*
X60526768Y-52823234D01*
X60262145Y-52646418D01*
X60028790Y-52600001D01*
X60028785Y-52600001D01*
X59950001Y-52584330D01*
X59871217Y-52600001D01*
X55921210Y-52600001D01*
X55687855Y-52646418D01*
X55458003Y-52800001D01*
X55441428Y-52800001D01*
X55459385Y-52773126D01*
X55513713Y-52500000D01*
X55473926Y-52299975D01*
X55474051Y-52300000D01*
X56225949Y-52300000D01*
X56524935Y-52240528D01*
X56863983Y-52013983D01*
X56966362Y-51860761D01*
X61300000Y-51860761D01*
X61300000Y-52139239D01*
X61406568Y-52396518D01*
X61603482Y-52593432D01*
X61860761Y-52700000D01*
X62139239Y-52700000D01*
X62396518Y-52593432D01*
X62593432Y-52396518D01*
X62700000Y-52139239D01*
X62700000Y-51860761D01*
X66300000Y-51860761D01*
X66300000Y-52139239D01*
X66406568Y-52396518D01*
X66603482Y-52593432D01*
X66860761Y-52700000D01*
X67139239Y-52700000D01*
X67396518Y-52593432D01*
X67593432Y-52396518D01*
X67700000Y-52139239D01*
X67700000Y-51860761D01*
X67593432Y-51603482D01*
X67396518Y-51406568D01*
X67139239Y-51300000D01*
X66860761Y-51300000D01*
X66603482Y-51406568D01*
X66406568Y-51603482D01*
X66300000Y-51860761D01*
X62700000Y-51860761D01*
X62593432Y-51603482D01*
X62396518Y-51406568D01*
X62139239Y-51300000D01*
X61860761Y-51300000D01*
X61603482Y-51406568D01*
X61406568Y-51603482D01*
X61300000Y-51860761D01*
X56966362Y-51860761D01*
X57090528Y-51674935D01*
X57170080Y-51275000D01*
X57090528Y-50875065D01*
X56863983Y-50536017D01*
X56524935Y-50309472D01*
X56225949Y-50250000D01*
X55474051Y-50250000D01*
X55175065Y-50309472D01*
X54836017Y-50536017D01*
X54609472Y-50875065D01*
X54529920Y-51275000D01*
X54609472Y-51674935D01*
X54697499Y-51806676D01*
X54526874Y-51840615D01*
X54295329Y-51995329D01*
X54140615Y-52226874D01*
X54086287Y-52500000D01*
X54140615Y-52773126D01*
X54295329Y-53004671D01*
X54491033Y-53135437D01*
X53217521Y-54408950D01*
X53167424Y-54442424D01*
X53034812Y-54640892D01*
X52999999Y-54815909D01*
X52999999Y-54815913D01*
X52988246Y-54874999D01*
X52999999Y-54934085D01*
X53000000Y-58240258D01*
X52716408Y-58050768D01*
X52461179Y-58000000D01*
X51638821Y-58000000D01*
X51383592Y-58050768D01*
X51094160Y-58244160D01*
X50900768Y-58533592D01*
X50832858Y-58875000D01*
X50900768Y-59216408D01*
X51094160Y-59505840D01*
X51383592Y-59699232D01*
X51638821Y-59750000D01*
X52461179Y-59750000D01*
X52716408Y-59699232D01*
X53005840Y-59505840D01*
X53084480Y-59388146D01*
X53114669Y-59433326D01*
X53167425Y-59512281D01*
X53217519Y-59545753D01*
X54065855Y-60394090D01*
X53597281Y-60200000D01*
X52602719Y-60200000D01*
X51683864Y-60580602D01*
X50980602Y-61283864D01*
X50600000Y-62202719D01*
X50600000Y-63147745D01*
X50443168Y-62545659D01*
X50398821Y-61969313D01*
X50384505Y-61889746D01*
X50375000Y-61865982D01*
X50375000Y-51125000D01*
X50832858Y-51125000D01*
X50900768Y-51466408D01*
X51094160Y-51755840D01*
X51383592Y-51949232D01*
X51638821Y-52000000D01*
X52461179Y-52000000D01*
X52716408Y-51949232D01*
X53005840Y-51755840D01*
X53199232Y-51466408D01*
X53267142Y-51125000D01*
X53199232Y-50783592D01*
X53005840Y-50494160D01*
X52716408Y-50300768D01*
X52461179Y-50250000D01*
X51638821Y-50250000D01*
X51383592Y-50300768D01*
X51094160Y-50494160D01*
X50900768Y-50783592D01*
X50832858Y-51125000D01*
X50375000Y-51125000D01*
X50375000Y-47860761D01*
X51300000Y-47860761D01*
X51300000Y-48139239D01*
X51406568Y-48396518D01*
X51603482Y-48593432D01*
X51860761Y-48700000D01*
X52139239Y-48700000D01*
X52396518Y-48593432D01*
X52593432Y-48396518D01*
X52700000Y-48139239D01*
X52700000Y-47860761D01*
X56300000Y-47860761D01*
X56300000Y-48139239D01*
X56406568Y-48396518D01*
X56603482Y-48593432D01*
X56860761Y-48700000D01*
X57139239Y-48700000D01*
X57396518Y-48593432D01*
X57593432Y-48396518D01*
X57700000Y-48139239D01*
X57700000Y-47860761D01*
X61300000Y-47860761D01*
X61300000Y-48139239D01*
X61406568Y-48396518D01*
X61603482Y-48593432D01*
X61860761Y-48700000D01*
X62139239Y-48700000D01*
X62396518Y-48593432D01*
X62593432Y-48396518D01*
X62700000Y-48139239D01*
X62700000Y-47860761D01*
X66300000Y-47860761D01*
X66300000Y-48139239D01*
X66406568Y-48396518D01*
X66603482Y-48593432D01*
X66860761Y-48700000D01*
X67139239Y-48700000D01*
X67396518Y-48593432D01*
X67593432Y-48396518D01*
X67700000Y-48139239D01*
X67700000Y-47860761D01*
X67593432Y-47603482D01*
X67396518Y-47406568D01*
X67139239Y-47300000D01*
X66860761Y-47300000D01*
X66603482Y-47406568D01*
X66406568Y-47603482D01*
X66300000Y-47860761D01*
X62700000Y-47860761D01*
X62593432Y-47603482D01*
X62396518Y-47406568D01*
X62139239Y-47300000D01*
X61860761Y-47300000D01*
X61603482Y-47406568D01*
X61406568Y-47603482D01*
X61300000Y-47860761D01*
X57700000Y-47860761D01*
X57593432Y-47603482D01*
X57396518Y-47406568D01*
X57139239Y-47300000D01*
X56860761Y-47300000D01*
X56603482Y-47406568D01*
X56406568Y-47603482D01*
X56300000Y-47860761D01*
X52700000Y-47860761D01*
X52593432Y-47603482D01*
X52396518Y-47406568D01*
X52139239Y-47300000D01*
X51860761Y-47300000D01*
X51603482Y-47406568D01*
X51406568Y-47603482D01*
X51300000Y-47860761D01*
X50375000Y-47860761D01*
X50375000Y-45860761D01*
X51300000Y-45860761D01*
X51300000Y-46139239D01*
X51406568Y-46396518D01*
X51603482Y-46593432D01*
X51860761Y-46700000D01*
X52139239Y-46700000D01*
X52396518Y-46593432D01*
X52593432Y-46396518D01*
X52700000Y-46139239D01*
X52700000Y-45860761D01*
X52593432Y-45603482D01*
X52396518Y-45406568D01*
X52139239Y-45300000D01*
X51860761Y-45300000D01*
X51603482Y-45406568D01*
X51406568Y-45603482D01*
X51300000Y-45860761D01*
X50375000Y-45860761D01*
X50375000Y-43860761D01*
X51300000Y-43860761D01*
X51300000Y-44139239D01*
X51406568Y-44396518D01*
X51603482Y-44593432D01*
X51860761Y-44700000D01*
X52139239Y-44700000D01*
X52396518Y-44593432D01*
X52593432Y-44396518D01*
X52700000Y-44139239D01*
X52700000Y-43860761D01*
X52593432Y-43603482D01*
X52396518Y-43406568D01*
X52139239Y-43300000D01*
X51860761Y-43300000D01*
X51603482Y-43406568D01*
X51406568Y-43603482D01*
X51300000Y-43860761D01*
X50375000Y-43860761D01*
X50375000Y-41860761D01*
X51300000Y-41860761D01*
X51300000Y-42139239D01*
X51406568Y-42396518D01*
X51603482Y-42593432D01*
X51860761Y-42700000D01*
X52139239Y-42700000D01*
X52396518Y-42593432D01*
X52593432Y-42396518D01*
X52700000Y-42139239D01*
X52700000Y-41860761D01*
X52651016Y-41742501D01*
X55800000Y-41742501D01*
X55800000Y-42657499D01*
X56150154Y-43502846D01*
X56797154Y-44149846D01*
X57642501Y-44500000D01*
X58557499Y-44500000D01*
X59402846Y-44149846D01*
X59691931Y-43860761D01*
X61300000Y-43860761D01*
X61300000Y-44139239D01*
X61406568Y-44396518D01*
X61603482Y-44593432D01*
X61860761Y-44700000D01*
X62139239Y-44700000D01*
X62396518Y-44593432D01*
X62593432Y-44396518D01*
X62700000Y-44139239D01*
X62700000Y-43860761D01*
X66300000Y-43860761D01*
X66300000Y-44139239D01*
X66406568Y-44396518D01*
X66603482Y-44593432D01*
X66860761Y-44700000D01*
X67139239Y-44700000D01*
X67396518Y-44593432D01*
X67593432Y-44396518D01*
X67700000Y-44139239D01*
X67700000Y-43860761D01*
X67593432Y-43603482D01*
X67396518Y-43406568D01*
X67139239Y-43300000D01*
X66860761Y-43300000D01*
X66603482Y-43406568D01*
X66406568Y-43603482D01*
X66300000Y-43860761D01*
X62700000Y-43860761D01*
X62593432Y-43603482D01*
X62396518Y-43406568D01*
X62139239Y-43300000D01*
X61860761Y-43300000D01*
X61603482Y-43406568D01*
X61406568Y-43603482D01*
X61300000Y-43860761D01*
X59691931Y-43860761D01*
X60049846Y-43502846D01*
X60400000Y-42657499D01*
X60400000Y-41742501D01*
X60049846Y-40897154D01*
X59402846Y-40250154D01*
X58557499Y-39900000D01*
X57642501Y-39900000D01*
X56797154Y-40250154D01*
X56150154Y-40897154D01*
X55800000Y-41742501D01*
X52651016Y-41742501D01*
X52593432Y-41603482D01*
X52396518Y-41406568D01*
X52139239Y-41300000D01*
X51860761Y-41300000D01*
X51603482Y-41406568D01*
X51406568Y-41603482D01*
X51300000Y-41860761D01*
X50375000Y-41860761D01*
X50375000Y-39860761D01*
X51300000Y-39860761D01*
X51300000Y-40139239D01*
X51406568Y-40396518D01*
X51603482Y-40593432D01*
X51860761Y-40700000D01*
X52139239Y-40700000D01*
X52396518Y-40593432D01*
X52593432Y-40396518D01*
X52700000Y-40139239D01*
X52700000Y-39860761D01*
X61300000Y-39860761D01*
X61300000Y-40139239D01*
X61406568Y-40396518D01*
X61603482Y-40593432D01*
X61860761Y-40700000D01*
X62139239Y-40700000D01*
X62396518Y-40593432D01*
X62593432Y-40396518D01*
X62700000Y-40139239D01*
X62700000Y-39860761D01*
X66300000Y-39860761D01*
X66300000Y-40139239D01*
X66406568Y-40396518D01*
X66603482Y-40593432D01*
X66860761Y-40700000D01*
X67139239Y-40700000D01*
X67396518Y-40593432D01*
X67593432Y-40396518D01*
X67700000Y-40139239D01*
X67700000Y-39860761D01*
X67593432Y-39603482D01*
X67396518Y-39406568D01*
X67139239Y-39300000D01*
X66860761Y-39300000D01*
X66603482Y-39406568D01*
X66406568Y-39603482D01*
X66300000Y-39860761D01*
X62700000Y-39860761D01*
X62593432Y-39603482D01*
X62396518Y-39406568D01*
X62139239Y-39300000D01*
X61860761Y-39300000D01*
X61603482Y-39406568D01*
X61406568Y-39603482D01*
X61300000Y-39860761D01*
X52700000Y-39860761D01*
X52593432Y-39603482D01*
X52396518Y-39406568D01*
X52139239Y-39300000D01*
X51860761Y-39300000D01*
X51603482Y-39406568D01*
X51406568Y-39603482D01*
X51300000Y-39860761D01*
X50375000Y-39860761D01*
X50375000Y-38133961D01*
X50391547Y-38081798D01*
X50397952Y-38040423D01*
X50416201Y-37860761D01*
X51300000Y-37860761D01*
X51300000Y-38139239D01*
X51406568Y-38396518D01*
X51603482Y-38593432D01*
X51860761Y-38700000D01*
X52139239Y-38700000D01*
X52396518Y-38593432D01*
X52593432Y-38396518D01*
X52700000Y-38139239D01*
X52700000Y-37860761D01*
X52593432Y-37603482D01*
X52396518Y-37406568D01*
X52139239Y-37300000D01*
X51860761Y-37300000D01*
X51603482Y-37406568D01*
X51406568Y-37603482D01*
X51300000Y-37860761D01*
X50416201Y-37860761D01*
X50475545Y-37276534D01*
X50693004Y-36582621D01*
X51045552Y-35946606D01*
X51119130Y-35860761D01*
X51300000Y-35860761D01*
X51300000Y-36139239D01*
X51406568Y-36396518D01*
X51603482Y-36593432D01*
X51860761Y-36700000D01*
X52139239Y-36700000D01*
X52396518Y-36593432D01*
X52593432Y-36396518D01*
X52700000Y-36139239D01*
X52700000Y-35860761D01*
X53300000Y-35860761D01*
X53300000Y-36139239D01*
X53406568Y-36396518D01*
X53603482Y-36593432D01*
X53860761Y-36700000D01*
X54139239Y-36700000D01*
X54396518Y-36593432D01*
X54593432Y-36396518D01*
X54700000Y-36139239D01*
X54700000Y-35860761D01*
X55300000Y-35860761D01*
X55300000Y-36139239D01*
X55406568Y-36396518D01*
X55603482Y-36593432D01*
X55860761Y-36700000D01*
X56139239Y-36700000D01*
X56396518Y-36593432D01*
X56593432Y-36396518D01*
X56700000Y-36139239D01*
X56700000Y-35860761D01*
X57300000Y-35860761D01*
X57300000Y-36139239D01*
X57406568Y-36396518D01*
X57603482Y-36593432D01*
X57860761Y-36700000D01*
X58139239Y-36700000D01*
X58396518Y-36593432D01*
X58593432Y-36396518D01*
X58700000Y-36139239D01*
X58700000Y-35860761D01*
X59300000Y-35860761D01*
X59300000Y-36139239D01*
X59406568Y-36396518D01*
X59603482Y-36593432D01*
X59860761Y-36700000D01*
X60139239Y-36700000D01*
X60396518Y-36593432D01*
X60593432Y-36396518D01*
X60700000Y-36139239D01*
X60700000Y-35860761D01*
X61300000Y-35860761D01*
X61300000Y-36139239D01*
X61406568Y-36396518D01*
X61603482Y-36593432D01*
X61860761Y-36700000D01*
X62139239Y-36700000D01*
X62396518Y-36593432D01*
X62593432Y-36396518D01*
X62700000Y-36139239D01*
X62700000Y-35860761D01*
X63300000Y-35860761D01*
X63300000Y-36139239D01*
X63406568Y-36396518D01*
X63603482Y-36593432D01*
X63860761Y-36700000D01*
X64139239Y-36700000D01*
X64396518Y-36593432D01*
X64593432Y-36396518D01*
X64700000Y-36139239D01*
X64700000Y-35860761D01*
X65300000Y-35860761D01*
X65300000Y-36139239D01*
X65406568Y-36396518D01*
X65603482Y-36593432D01*
X65860761Y-36700000D01*
X66139239Y-36700000D01*
X66396518Y-36593432D01*
X66593432Y-36396518D01*
X66700000Y-36139239D01*
X66700000Y-35860761D01*
X67300000Y-35860761D01*
X67300000Y-36139239D01*
X67406568Y-36396518D01*
X67603482Y-36593432D01*
X67860761Y-36700000D01*
X68139239Y-36700000D01*
X68396518Y-36593432D01*
X68593432Y-36396518D01*
X68700000Y-36139239D01*
X68700000Y-35860761D01*
X69300000Y-35860761D01*
X69300000Y-36139239D01*
X69406568Y-36396518D01*
X69603482Y-36593432D01*
X69860761Y-36700000D01*
X70139239Y-36700000D01*
X70396518Y-36593432D01*
X70593432Y-36396518D01*
X70700000Y-36139239D01*
X70700000Y-35860761D01*
X71300000Y-35860761D01*
X71300000Y-36139239D01*
X71406568Y-36396518D01*
X71603482Y-36593432D01*
X71860761Y-36700000D01*
X72139239Y-36700000D01*
X72396518Y-36593432D01*
X72593432Y-36396518D01*
X72700000Y-36139239D01*
X72700000Y-35860761D01*
X73300000Y-35860761D01*
X73300000Y-36139239D01*
X73406568Y-36396518D01*
X73603482Y-36593432D01*
X73860761Y-36700000D01*
X74139239Y-36700000D01*
X74396518Y-36593432D01*
X74593432Y-36396518D01*
X74700000Y-36139239D01*
X74700000Y-35860761D01*
X75300000Y-35860761D01*
X75300000Y-36139239D01*
X75406568Y-36396518D01*
X75603482Y-36593432D01*
X75860761Y-36700000D01*
X76139239Y-36700000D01*
X76396518Y-36593432D01*
X76593432Y-36396518D01*
X76700000Y-36139239D01*
X76700000Y-35860761D01*
X76593432Y-35603482D01*
X76396518Y-35406568D01*
X76139239Y-35300000D01*
X75860761Y-35300000D01*
X75603482Y-35406568D01*
X75406568Y-35603482D01*
X75300000Y-35860761D01*
X74700000Y-35860761D01*
X74593432Y-35603482D01*
X74396518Y-35406568D01*
X74139239Y-35300000D01*
X73860761Y-35300000D01*
X73603482Y-35406568D01*
X73406568Y-35603482D01*
X73300000Y-35860761D01*
X72700000Y-35860761D01*
X72593432Y-35603482D01*
X72396518Y-35406568D01*
X72139239Y-35300000D01*
X71860761Y-35300000D01*
X71603482Y-35406568D01*
X71406568Y-35603482D01*
X71300000Y-35860761D01*
X70700000Y-35860761D01*
X70593432Y-35603482D01*
X70396518Y-35406568D01*
X70139239Y-35300000D01*
X69860761Y-35300000D01*
X69603482Y-35406568D01*
X69406568Y-35603482D01*
X69300000Y-35860761D01*
X68700000Y-35860761D01*
X68593432Y-35603482D01*
X68396518Y-35406568D01*
X68139239Y-35300000D01*
X67860761Y-35300000D01*
X67603482Y-35406568D01*
X67406568Y-35603482D01*
X67300000Y-35860761D01*
X66700000Y-35860761D01*
X66593432Y-35603482D01*
X66396518Y-35406568D01*
X66139239Y-35300000D01*
X65860761Y-35300000D01*
X65603482Y-35406568D01*
X65406568Y-35603482D01*
X65300000Y-35860761D01*
X64700000Y-35860761D01*
X64593432Y-35603482D01*
X64396518Y-35406568D01*
X64139239Y-35300000D01*
X63860761Y-35300000D01*
X63603482Y-35406568D01*
X63406568Y-35603482D01*
X63300000Y-35860761D01*
X62700000Y-35860761D01*
X62593432Y-35603482D01*
X62396518Y-35406568D01*
X62139239Y-35300000D01*
X61860761Y-35300000D01*
X61603482Y-35406568D01*
X61406568Y-35603482D01*
X61300000Y-35860761D01*
X60700000Y-35860761D01*
X60593432Y-35603482D01*
X60396518Y-35406568D01*
X60139239Y-35300000D01*
X59860761Y-35300000D01*
X59603482Y-35406568D01*
X59406568Y-35603482D01*
X59300000Y-35860761D01*
X58700000Y-35860761D01*
X58593432Y-35603482D01*
X58396518Y-35406568D01*
X58139239Y-35300000D01*
X57860761Y-35300000D01*
X57603482Y-35406568D01*
X57406568Y-35603482D01*
X57300000Y-35860761D01*
X56700000Y-35860761D01*
X56593432Y-35603482D01*
X56396518Y-35406568D01*
X56139239Y-35300000D01*
X55860761Y-35300000D01*
X55603482Y-35406568D01*
X55406568Y-35603482D01*
X55300000Y-35860761D01*
X54700000Y-35860761D01*
X54593432Y-35603482D01*
X54396518Y-35406568D01*
X54139239Y-35300000D01*
X53860761Y-35300000D01*
X53603482Y-35406568D01*
X53406568Y-35603482D01*
X53300000Y-35860761D01*
X52700000Y-35860761D01*
X52593432Y-35603482D01*
X52396518Y-35406568D01*
X52139239Y-35300000D01*
X51860761Y-35300000D01*
X51603482Y-35406568D01*
X51406568Y-35603482D01*
X51300000Y-35860761D01*
X51119130Y-35860761D01*
X51518788Y-35394473D01*
X52093384Y-34948771D01*
X52745857Y-34627715D01*
X53454341Y-34443168D01*
X54030687Y-34398821D01*
X54110255Y-34384505D01*
X54134019Y-34375000D01*
X86866039Y-34375000D01*
X86918202Y-34391547D01*
X86918202Y-34391547D01*
G37*
X86918202Y-34391547D02*
X86959577Y-34397952D01*
X87723466Y-34475545D01*
X88417379Y-34693004D01*
X89053394Y-35045552D01*
X89605527Y-35518788D01*
X90051229Y-36093384D01*
X90372285Y-36745857D01*
X90556832Y-37454341D01*
X90601179Y-38030687D01*
X90615495Y-38110255D01*
X90625001Y-38134021D01*
X90625000Y-61866039D01*
X90608453Y-61918202D01*
X90602048Y-61959577D01*
X90524455Y-62723465D01*
X90306996Y-63417379D01*
X89954446Y-64053395D01*
X89481212Y-64605527D01*
X88906616Y-65051229D01*
X88254146Y-65372285D01*
X87545659Y-65556832D01*
X86969313Y-65601179D01*
X86889746Y-65615495D01*
X86865982Y-65625000D01*
X54133961Y-65625000D01*
X54081798Y-65608453D01*
X54040423Y-65602048D01*
X53276535Y-65524455D01*
X52582621Y-65306996D01*
X51946605Y-64954446D01*
X51887409Y-64903709D01*
X52602719Y-65200000D01*
X53597281Y-65200000D01*
X54516136Y-64819398D01*
X55219398Y-64116136D01*
X55325177Y-63860761D01*
X56300000Y-63860761D01*
X56300000Y-64139239D01*
X56406568Y-64396518D01*
X56603482Y-64593432D01*
X56860761Y-64700000D01*
X57139239Y-64700000D01*
X57396518Y-64593432D01*
X57593432Y-64396518D01*
X57700000Y-64139239D01*
X57700000Y-63860761D01*
X57593432Y-63603482D01*
X57396518Y-63406568D01*
X57139239Y-63300000D01*
X56860761Y-63300000D01*
X56603482Y-63406568D01*
X56406568Y-63603482D01*
X56300000Y-63860761D01*
X55325177Y-63860761D01*
X55600000Y-63197281D01*
X55600000Y-62362500D01*
X57719123Y-62362500D01*
X57719123Y-62937500D01*
X57760485Y-63145441D01*
X57878274Y-63321726D01*
X58054559Y-63439515D01*
X58262500Y-63480877D01*
X58737500Y-63480877D01*
X58945441Y-63439515D01*
X59121726Y-63321726D01*
X59239515Y-63145441D01*
X59244576Y-63120000D01*
X59246473Y-63120000D01*
X59260485Y-63190441D01*
X59378274Y-63366726D01*
X59537160Y-63472890D01*
X59406568Y-63603482D01*
X59300000Y-63860761D01*
X59300000Y-64139239D01*
X59406568Y-64396518D01*
X59603482Y-64593432D01*
X59860761Y-64700000D01*
X60139239Y-64700000D01*
X60396518Y-64593432D01*
X60593432Y-64396518D01*
X60700000Y-64139239D01*
X60700000Y-63860761D01*
X62300000Y-63860761D01*
X62300000Y-64139239D01*
X62406568Y-64396518D01*
X62603482Y-64593432D01*
X62860761Y-64700000D01*
X63139239Y-64700000D01*
X63396518Y-64593432D01*
X63593432Y-64396518D01*
X63700000Y-64139239D01*
X63700000Y-63860761D01*
X70300000Y-63860761D01*
X70300000Y-64139239D01*
X70406568Y-64396518D01*
X70603482Y-64593432D01*
X70860761Y-64700000D01*
X71139239Y-64700000D01*
X71396518Y-64593432D01*
X71593432Y-64396518D01*
X71700000Y-64139239D01*
X71700000Y-63860761D01*
X73300000Y-63860761D01*
X73300000Y-64139239D01*
X73406568Y-64396518D01*
X73603482Y-64593432D01*
X73860761Y-64700000D01*
X74139239Y-64700000D01*
X74396518Y-64593432D01*
X74593432Y-64396518D01*
X74700000Y-64139239D01*
X74700000Y-63860761D01*
X76300000Y-63860761D01*
X76300000Y-64139239D01*
X76406568Y-64396518D01*
X76603482Y-64593432D01*
X76860761Y-64700000D01*
X77139239Y-64700000D01*
X77396518Y-64593432D01*
X77593432Y-64396518D01*
X77700000Y-64139239D01*
X77700000Y-63860761D01*
X78300000Y-63860761D01*
X78300000Y-64139239D01*
X78406568Y-64396518D01*
X78603482Y-64593432D01*
X78860761Y-64700000D01*
X79139239Y-64700000D01*
X79396518Y-64593432D01*
X79593432Y-64396518D01*
X79700000Y-64139239D01*
X79700000Y-63860761D01*
X79593432Y-63603482D01*
X79396518Y-63406568D01*
X79139239Y-63300000D01*
X78860761Y-63300000D01*
X78603482Y-63406568D01*
X78406568Y-63603482D01*
X78300000Y-63860761D01*
X77700000Y-63860761D01*
X77593432Y-63603482D01*
X77396518Y-63406568D01*
X77139239Y-63300000D01*
X76860761Y-63300000D01*
X76603482Y-63406568D01*
X76406568Y-63603482D01*
X76300000Y-63860761D01*
X74700000Y-63860761D01*
X74593432Y-63603482D01*
X74470827Y-63480877D01*
X74737500Y-63480877D01*
X74945441Y-63439515D01*
X75121726Y-63321726D01*
X75239515Y-63145441D01*
X75250000Y-63092729D01*
X75260485Y-63145441D01*
X75378274Y-63321726D01*
X75554559Y-63439515D01*
X75762500Y-63480877D01*
X76237500Y-63480877D01*
X76445441Y-63439515D01*
X76621726Y-63321726D01*
X76739515Y-63145441D01*
X76780877Y-62937500D01*
X76780877Y-62362500D01*
X76739515Y-62154559D01*
X76621726Y-61978274D01*
X76445441Y-61860485D01*
X76237500Y-61819123D01*
X75762500Y-61819123D01*
X75554559Y-61860485D01*
X75378274Y-61978274D01*
X75260485Y-62154559D01*
X75250000Y-62207271D01*
X75239515Y-62154559D01*
X75121726Y-61978274D01*
X74945441Y-61860485D01*
X74737500Y-61819123D01*
X74262500Y-61819123D01*
X74054559Y-61860485D01*
X73878274Y-61978274D01*
X73760485Y-62154559D01*
X73719123Y-62362500D01*
X73719123Y-62937500D01*
X73760485Y-63145441D01*
X73863757Y-63300000D01*
X73860761Y-63300000D01*
X73603482Y-63406568D01*
X73406568Y-63603482D01*
X73300000Y-63860761D01*
X71700000Y-63860761D01*
X71593432Y-63603482D01*
X71396518Y-63406568D01*
X71139239Y-63300000D01*
X70860761Y-63300000D01*
X70603482Y-63406568D01*
X70406568Y-63603482D01*
X70300000Y-63860761D01*
X63700000Y-63860761D01*
X63593432Y-63603482D01*
X63396518Y-63406568D01*
X63139239Y-63300000D01*
X62860761Y-63300000D01*
X62603482Y-63406568D01*
X62406568Y-63603482D01*
X62300000Y-63860761D01*
X60700000Y-63860761D01*
X60593432Y-63603482D01*
X60462840Y-63472890D01*
X60621726Y-63366726D01*
X60739515Y-63190441D01*
X60780877Y-62982500D01*
X60780877Y-62407500D01*
X60739515Y-62199559D01*
X60621726Y-62023274D01*
X60445441Y-61905485D01*
X60237500Y-61864123D01*
X59762500Y-61864123D01*
X59554559Y-61905485D01*
X59378274Y-62023274D01*
X59260485Y-62199559D01*
X59254476Y-62229771D01*
X59239515Y-62154559D01*
X59121726Y-61978274D01*
X58945441Y-61860485D01*
X58737500Y-61819123D01*
X58262500Y-61819123D01*
X58054559Y-61860485D01*
X57878274Y-61978274D01*
X57760485Y-62154559D01*
X57719123Y-62362500D01*
X55600000Y-62362500D01*
X55600000Y-62202719D01*
X55268068Y-61401364D01*
X55320292Y-61411752D01*
X55379380Y-61399999D01*
X57763531Y-61399999D01*
X57878274Y-61571726D01*
X58054559Y-61689515D01*
X58262500Y-61730877D01*
X58737500Y-61730877D01*
X58945441Y-61689515D01*
X59121726Y-61571726D01*
X59239515Y-61395441D01*
X59245524Y-61365229D01*
X59260485Y-61440441D01*
X59378274Y-61616726D01*
X59554559Y-61734515D01*
X59762500Y-61775877D01*
X60237500Y-61775877D01*
X60445441Y-61734515D01*
X60619045Y-61618518D01*
X60815761Y-61700000D01*
X61094239Y-61700000D01*
X61351518Y-61593432D01*
X61548432Y-61396518D01*
X61655000Y-61139239D01*
X61655000Y-60860761D01*
X61548432Y-60603482D01*
X61351518Y-60406568D01*
X61094239Y-60300000D01*
X60815761Y-60300000D01*
X60677774Y-60357156D01*
X60621726Y-60273274D01*
X60445441Y-60155485D01*
X60237500Y-60114123D01*
X59762500Y-60114123D01*
X59554559Y-60155485D01*
X59378274Y-60273274D01*
X59260485Y-60449559D01*
X59254476Y-60479771D01*
X59239515Y-60404559D01*
X59121726Y-60228274D01*
X58945441Y-60110485D01*
X58737500Y-60069123D01*
X58262500Y-60069123D01*
X58054559Y-60110485D01*
X57920591Y-60199999D01*
X55568820Y-60199999D01*
X54199999Y-58831179D01*
X54199999Y-57862000D01*
X54295329Y-58004671D01*
X54526874Y-58159385D01*
X54697499Y-58193324D01*
X54609472Y-58325065D01*
X54529920Y-58725000D01*
X54609472Y-59124935D01*
X54836017Y-59463983D01*
X55175065Y-59690528D01*
X55474051Y-59750000D01*
X56225949Y-59750000D01*
X56524935Y-59690528D01*
X56863983Y-59463983D01*
X57090528Y-59124935D01*
X57170080Y-58725000D01*
X57090528Y-58325065D01*
X56863983Y-57986017D01*
X56524935Y-57759472D01*
X56225949Y-57700000D01*
X55474051Y-57700000D01*
X55473926Y-57700025D01*
X55513713Y-57500000D01*
X55459385Y-57226874D01*
X55304671Y-56995329D01*
X55274248Y-56975001D01*
X56160789Y-56975001D01*
X56268266Y-57082478D01*
X56301740Y-57132575D01*
X56500207Y-57265187D01*
X56675224Y-57300000D01*
X56675228Y-57300000D01*
X56734315Y-57311753D01*
X56793401Y-57300000D01*
X56919339Y-57300000D01*
X57160761Y-57400000D01*
X57439239Y-57400000D01*
X57696518Y-57293432D01*
X57893432Y-57096518D01*
X58000000Y-56839239D01*
X58000000Y-56801040D01*
X63969881Y-62770922D01*
X63993592Y-62806408D01*
X64029077Y-62830118D01*
X64134173Y-62900341D01*
X64300000Y-62933326D01*
X64341857Y-62925000D01*
X65344123Y-62925000D01*
X65344123Y-63450000D01*
X65367407Y-63567054D01*
X65433712Y-63666288D01*
X65532946Y-63732593D01*
X65650000Y-63755877D01*
X67350000Y-63755877D01*
X67467054Y-63732593D01*
X67566288Y-63666288D01*
X67632593Y-63567054D01*
X67655877Y-63450000D01*
X67655877Y-61750000D01*
X67632593Y-61632946D01*
X67566288Y-61533712D01*
X67467054Y-61467407D01*
X67350000Y-61444123D01*
X65650000Y-61444123D01*
X65532946Y-61467407D01*
X65433712Y-61533712D01*
X65367407Y-61632946D01*
X65344123Y-61750000D01*
X65344123Y-62075000D01*
X64476041Y-62075000D01*
X63426041Y-61025000D01*
X64858143Y-61025000D01*
X64900000Y-61033326D01*
X64941857Y-61025000D01*
X64941858Y-61025000D01*
X65065827Y-61000341D01*
X65206408Y-60906408D01*
X65230121Y-60870919D01*
X65945163Y-60155877D01*
X67350000Y-60155877D01*
X67467054Y-60132593D01*
X67566288Y-60066288D01*
X67632593Y-59967054D01*
X67655877Y-59850000D01*
X67655877Y-58150000D01*
X67632593Y-58032946D01*
X67566288Y-57933712D01*
X67467054Y-57867407D01*
X67350000Y-57844123D01*
X65650000Y-57844123D01*
X65532946Y-57867407D01*
X65433712Y-57933712D01*
X65367407Y-58032946D01*
X65344123Y-58150000D01*
X65344123Y-59554837D01*
X64723960Y-60175000D01*
X63226041Y-60175000D01*
X57251041Y-54200001D01*
X59618631Y-54200001D01*
X60528603Y-55109974D01*
X60573233Y-55176767D01*
X60640025Y-55221396D01*
X60640026Y-55221397D01*
X60645888Y-55225314D01*
X60837856Y-55353583D01*
X61071211Y-55400000D01*
X61071216Y-55400000D01*
X61150000Y-55415671D01*
X61228784Y-55400000D01*
X62144123Y-55400000D01*
X62144123Y-55450000D01*
X62167407Y-55567054D01*
X62233712Y-55666288D01*
X62332946Y-55732593D01*
X62450000Y-55755877D01*
X64150000Y-55755877D01*
X64267054Y-55732593D01*
X64366288Y-55666288D01*
X64432593Y-55567054D01*
X64455877Y-55450000D01*
X64455877Y-54600000D01*
X64667471Y-54600000D01*
X64756724Y-55048707D01*
X65010897Y-55429103D01*
X65040001Y-55448549D01*
X65040001Y-55723293D01*
X65024329Y-55802081D01*
X65040001Y-55880870D01*
X65044499Y-55903482D01*
X65086418Y-56114225D01*
X65218603Y-56312054D01*
X65218605Y-56312056D01*
X65263234Y-56378848D01*
X65330026Y-56423477D01*
X66066521Y-57159972D01*
X66111152Y-57226767D01*
X66238342Y-57311753D01*
X66375774Y-57403583D01*
X66687919Y-57465672D01*
X66766708Y-57450000D01*
X71821216Y-57450000D01*
X71900000Y-57465671D01*
X71978784Y-57450000D01*
X71978789Y-57450000D01*
X72212144Y-57403583D01*
X72476767Y-57226767D01*
X72521398Y-57159972D01*
X77992265Y-51689106D01*
X77950000Y-51791142D01*
X77950000Y-52208858D01*
X78109853Y-52594777D01*
X78405223Y-52890147D01*
X78791142Y-53050000D01*
X79208858Y-53050000D01*
X79594777Y-52890147D01*
X79890147Y-52594777D01*
X80050000Y-52208858D01*
X80050000Y-52035369D01*
X80650000Y-52635369D01*
X80650001Y-57968628D01*
X80418630Y-58200000D01*
X80045931Y-58200000D01*
X80032593Y-58132946D01*
X79966288Y-58033712D01*
X79867054Y-57967407D01*
X79750000Y-57944123D01*
X79747919Y-57944123D01*
X80345924Y-57346119D01*
X80381409Y-57322409D01*
X80475342Y-57181828D01*
X80482693Y-57144870D01*
X80508327Y-57016002D01*
X80500001Y-56974144D01*
X80500001Y-55616858D01*
X80508327Y-55575000D01*
X80475342Y-55409174D01*
X80405119Y-55304078D01*
X80381409Y-55268593D01*
X80345923Y-55244882D01*
X80080119Y-54979079D01*
X80080117Y-54979076D01*
X79979676Y-54878635D01*
X80050000Y-54708858D01*
X80050000Y-54291142D01*
X79890147Y-53905223D01*
X79594777Y-53609853D01*
X79208858Y-53450000D01*
X78791142Y-53450000D01*
X78405223Y-53609853D01*
X78109853Y-53905223D01*
X77950000Y-54291142D01*
X77950000Y-54708858D01*
X78109853Y-55094777D01*
X78405223Y-55390147D01*
X78670431Y-55500000D01*
X78405223Y-55609853D01*
X78109853Y-55905223D01*
X77950000Y-56291142D01*
X77950000Y-56708858D01*
X78020324Y-56878635D01*
X77848972Y-57049988D01*
X73566869Y-57049988D01*
X73525012Y-57041662D01*
X73483154Y-57049988D01*
X73359185Y-57074647D01*
X73218604Y-57168580D01*
X73194893Y-57204066D01*
X71823960Y-58575000D01*
X70127992Y-58575000D01*
X70123276Y-58551293D01*
X69869103Y-58170897D01*
X69488707Y-57916724D01*
X69153261Y-57850000D01*
X68926739Y-57850000D01*
X68591293Y-57916724D01*
X68210897Y-58170897D01*
X67956724Y-58551293D01*
X67867471Y-59000000D01*
X67956724Y-59448707D01*
X68210897Y-59829103D01*
X68591293Y-60083276D01*
X68926739Y-60150000D01*
X69153261Y-60150000D01*
X69488707Y-60083276D01*
X69869103Y-59829103D01*
X70123276Y-59448707D01*
X70127992Y-59425000D01*
X71610370Y-59425000D01*
X69506655Y-61528716D01*
X69488707Y-61516724D01*
X69153261Y-61450000D01*
X68926739Y-61450000D01*
X68591293Y-61516724D01*
X68210897Y-61770897D01*
X67956724Y-62151293D01*
X67867471Y-62600000D01*
X67956724Y-63048707D01*
X68210897Y-63429103D01*
X68591293Y-63683276D01*
X68926739Y-63750000D01*
X69153261Y-63750000D01*
X69488707Y-63683276D01*
X69869103Y-63429103D01*
X70123276Y-63048707D01*
X70212529Y-62600000D01*
X70123276Y-62151293D01*
X70108409Y-62129042D01*
X73887452Y-58349999D01*
X77944123Y-58349999D01*
X77944123Y-59207349D01*
X76851473Y-60300000D01*
X76669651Y-60300000D01*
X76621726Y-60228274D01*
X76445441Y-60110485D01*
X76237500Y-60069123D01*
X75762500Y-60069123D01*
X75554559Y-60110485D01*
X75378274Y-60228274D01*
X75260485Y-60404559D01*
X75250000Y-60457271D01*
X75239515Y-60404559D01*
X75121726Y-60228274D01*
X74945441Y-60110485D01*
X74737500Y-60069123D01*
X74262500Y-60069123D01*
X74054559Y-60110485D01*
X73878274Y-60228274D01*
X73841262Y-60283666D01*
X73639239Y-60199986D01*
X73360761Y-60199986D01*
X73103482Y-60306554D01*
X72906568Y-60503468D01*
X72800000Y-60760747D01*
X72800000Y-61039225D01*
X72906568Y-61296504D01*
X73103482Y-61493418D01*
X73360761Y-61599986D01*
X73639239Y-61599986D01*
X73841248Y-61516312D01*
X73878274Y-61571726D01*
X74054559Y-61689515D01*
X74262500Y-61730877D01*
X74737500Y-61730877D01*
X74945441Y-61689515D01*
X75121726Y-61571726D01*
X75239515Y-61395441D01*
X75250000Y-61342729D01*
X75260485Y-61395441D01*
X75378274Y-61571726D01*
X75554559Y-61689515D01*
X75762500Y-61730877D01*
X76237500Y-61730877D01*
X76332612Y-61711958D01*
X79850000Y-61711958D01*
X79850000Y-62428042D01*
X80124034Y-63089618D01*
X80630382Y-63595966D01*
X81291958Y-63870000D01*
X82008042Y-63870000D01*
X82030346Y-63860761D01*
X83300000Y-63860761D01*
X83300000Y-64139239D01*
X83406568Y-64396518D01*
X83603482Y-64593432D01*
X83860761Y-64700000D01*
X84139239Y-64700000D01*
X84396518Y-64593432D01*
X84593432Y-64396518D01*
X84700000Y-64139239D01*
X84700000Y-63860761D01*
X85300000Y-63860761D01*
X85300000Y-64139239D01*
X85406568Y-64396518D01*
X85603482Y-64593432D01*
X85860761Y-64700000D01*
X86139239Y-64700000D01*
X86396518Y-64593432D01*
X86593432Y-64396518D01*
X86700000Y-64139239D01*
X86700000Y-63860761D01*
X87300000Y-63860761D01*
X87300000Y-64139239D01*
X87406568Y-64396518D01*
X87603482Y-64593432D01*
X87860761Y-64700000D01*
X88139239Y-64700000D01*
X88396518Y-64593432D01*
X88593432Y-64396518D01*
X88700000Y-64139239D01*
X88700000Y-63860761D01*
X88593432Y-63603482D01*
X88396518Y-63406568D01*
X88139239Y-63300000D01*
X87860761Y-63300000D01*
X87603482Y-63406568D01*
X87406568Y-63603482D01*
X87300000Y-63860761D01*
X86700000Y-63860761D01*
X86593432Y-63603482D01*
X86396518Y-63406568D01*
X86139239Y-63300000D01*
X85860761Y-63300000D01*
X85603482Y-63406568D01*
X85406568Y-63603482D01*
X85300000Y-63860761D01*
X84700000Y-63860761D01*
X84593432Y-63603482D01*
X84396518Y-63406568D01*
X84139239Y-63300000D01*
X83860761Y-63300000D01*
X83603482Y-63406568D01*
X83406568Y-63603482D01*
X83300000Y-63860761D01*
X82030346Y-63860761D01*
X82669618Y-63595966D01*
X83175966Y-63089618D01*
X83450000Y-62428042D01*
X83450000Y-61860761D01*
X88300000Y-61860761D01*
X88300000Y-62139239D01*
X88406568Y-62396518D01*
X88603482Y-62593432D01*
X88860761Y-62700000D01*
X89139239Y-62700000D01*
X89396518Y-62593432D01*
X89593432Y-62396518D01*
X89700000Y-62139239D01*
X89700000Y-61860761D01*
X89593432Y-61603482D01*
X89396518Y-61406568D01*
X89139239Y-61300000D01*
X88860761Y-61300000D01*
X88603482Y-61406568D01*
X88406568Y-61603482D01*
X88300000Y-61860761D01*
X83450000Y-61860761D01*
X83450000Y-61711958D01*
X83175966Y-61050382D01*
X82986345Y-60860761D01*
X85300000Y-60860761D01*
X85300000Y-61139239D01*
X85406568Y-61396518D01*
X85603482Y-61593432D01*
X85860761Y-61700000D01*
X86139239Y-61700000D01*
X86396518Y-61593432D01*
X86593432Y-61396518D01*
X86700000Y-61139239D01*
X86700000Y-60860761D01*
X86593432Y-60603482D01*
X86396518Y-60406568D01*
X86139239Y-60300000D01*
X85860761Y-60300000D01*
X85603482Y-60406568D01*
X85406568Y-60603482D01*
X85300000Y-60860761D01*
X82986345Y-60860761D01*
X82669618Y-60544034D01*
X82008042Y-60270000D01*
X81291958Y-60270000D01*
X80630382Y-60544034D01*
X80124034Y-61050382D01*
X79850000Y-61711958D01*
X76332612Y-61711958D01*
X76445441Y-61689515D01*
X76621726Y-61571726D01*
X76669651Y-61500000D01*
X77040914Y-61500000D01*
X77100000Y-61511753D01*
X77159086Y-61500000D01*
X77159091Y-61500000D01*
X77334108Y-61465187D01*
X77532575Y-61332575D01*
X77566049Y-61282478D01*
X78792651Y-60055877D01*
X79750000Y-60055877D01*
X79867054Y-60032593D01*
X79966288Y-59966288D01*
X80032593Y-59867054D01*
X80033844Y-59860761D01*
X88300000Y-59860761D01*
X88300000Y-60139239D01*
X88406568Y-60396518D01*
X88603482Y-60593432D01*
X88860761Y-60700000D01*
X89139239Y-60700000D01*
X89396518Y-60593432D01*
X89593432Y-60396518D01*
X89700000Y-60139239D01*
X89700000Y-59860761D01*
X89593432Y-59603482D01*
X89396518Y-59406568D01*
X89139239Y-59300000D01*
X88860761Y-59300000D01*
X88603482Y-59406568D01*
X88406568Y-59603482D01*
X88300000Y-59860761D01*
X80033844Y-59860761D01*
X80045931Y-59800000D01*
X80671216Y-59800000D01*
X80750000Y-59815671D01*
X80828784Y-59800000D01*
X80828789Y-59800000D01*
X81062144Y-59753583D01*
X81326767Y-59576767D01*
X81371398Y-59509972D01*
X81959974Y-58921397D01*
X82026767Y-58876767D01*
X82203583Y-58612144D01*
X82250000Y-58378789D01*
X82250000Y-58378785D01*
X82265671Y-58300001D01*
X82250000Y-58221217D01*
X82250000Y-57860761D01*
X88300000Y-57860761D01*
X88300000Y-58139239D01*
X88406568Y-58396518D01*
X88603482Y-58593432D01*
X88860761Y-58700000D01*
X89139239Y-58700000D01*
X89396518Y-58593432D01*
X89593432Y-58396518D01*
X89700000Y-58139239D01*
X89700000Y-57860761D01*
X89593432Y-57603482D01*
X89396518Y-57406568D01*
X89139239Y-57300000D01*
X88860761Y-57300000D01*
X88603482Y-57406568D01*
X88406568Y-57603482D01*
X88300000Y-57860761D01*
X82250000Y-57860761D01*
X82250000Y-56860761D01*
X85300000Y-56860761D01*
X85300000Y-57139239D01*
X85406568Y-57396518D01*
X85603482Y-57593432D01*
X85860761Y-57700000D01*
X86139239Y-57700000D01*
X86396518Y-57593432D01*
X86593432Y-57396518D01*
X86700000Y-57139239D01*
X86700000Y-56860761D01*
X86593432Y-56603482D01*
X86396518Y-56406568D01*
X86139239Y-56300000D01*
X85860761Y-56300000D01*
X85603482Y-56406568D01*
X85406568Y-56603482D01*
X85300000Y-56860761D01*
X82250000Y-56860761D01*
X82250000Y-55860761D01*
X88300000Y-55860761D01*
X88300000Y-56139239D01*
X88406568Y-56396518D01*
X88603482Y-56593432D01*
X88860761Y-56700000D01*
X89139239Y-56700000D01*
X89396518Y-56593432D01*
X89593432Y-56396518D01*
X89700000Y-56139239D01*
X89700000Y-55860761D01*
X89593432Y-55603482D01*
X89396518Y-55406568D01*
X89139239Y-55300000D01*
X88860761Y-55300000D01*
X88603482Y-55406568D01*
X88406568Y-55603482D01*
X88300000Y-55860761D01*
X82250000Y-55860761D01*
X82250000Y-53860761D01*
X88300000Y-53860761D01*
X88300000Y-54139239D01*
X88406568Y-54396518D01*
X88603482Y-54593432D01*
X88860761Y-54700000D01*
X89139239Y-54700000D01*
X89396518Y-54593432D01*
X89593432Y-54396518D01*
X89700000Y-54139239D01*
X89700000Y-53860761D01*
X89593432Y-53603482D01*
X89396518Y-53406568D01*
X89139239Y-53300000D01*
X88860761Y-53300000D01*
X88603482Y-53406568D01*
X88406568Y-53603482D01*
X88300000Y-53860761D01*
X82250000Y-53860761D01*
X82250000Y-52860761D01*
X85300000Y-52860761D01*
X85300000Y-53139239D01*
X85406568Y-53396518D01*
X85603482Y-53593432D01*
X85860761Y-53700000D01*
X86139239Y-53700000D01*
X86396518Y-53593432D01*
X86593432Y-53396518D01*
X86700000Y-53139239D01*
X86700000Y-52860761D01*
X86593432Y-52603482D01*
X86396518Y-52406568D01*
X86139239Y-52300000D01*
X85860761Y-52300000D01*
X85603482Y-52406568D01*
X85406568Y-52603482D01*
X85300000Y-52860761D01*
X82250000Y-52860761D01*
X82250000Y-52382781D01*
X82265671Y-52303997D01*
X82250000Y-52225213D01*
X82250000Y-52225209D01*
X82203583Y-51991854D01*
X82115990Y-51860761D01*
X88300000Y-51860761D01*
X88300000Y-52139239D01*
X88406568Y-52396518D01*
X88603482Y-52593432D01*
X88860761Y-52700000D01*
X89139239Y-52700000D01*
X89396518Y-52593432D01*
X89593432Y-52396518D01*
X89700000Y-52139239D01*
X89700000Y-51860761D01*
X89593432Y-51603482D01*
X89396518Y-51406568D01*
X89139239Y-51300000D01*
X88860761Y-51300000D01*
X88603482Y-51406568D01*
X88406568Y-51603482D01*
X88300000Y-51860761D01*
X82115990Y-51860761D01*
X82026767Y-51727231D01*
X81959975Y-51682602D01*
X80806140Y-50528767D01*
X81291958Y-50730000D01*
X82008042Y-50730000D01*
X82669618Y-50455966D01*
X83175966Y-49949618D01*
X83212771Y-49860761D01*
X88300000Y-49860761D01*
X88300000Y-50139239D01*
X88406568Y-50396518D01*
X88603482Y-50593432D01*
X88860761Y-50700000D01*
X89139239Y-50700000D01*
X89396518Y-50593432D01*
X89593432Y-50396518D01*
X89700000Y-50139239D01*
X89700000Y-49860761D01*
X89593432Y-49603482D01*
X89396518Y-49406568D01*
X89139239Y-49300000D01*
X88860761Y-49300000D01*
X88603482Y-49406568D01*
X88406568Y-49603482D01*
X88300000Y-49860761D01*
X83212771Y-49860761D01*
X83450000Y-49288042D01*
X83450000Y-48860761D01*
X85300000Y-48860761D01*
X85300000Y-49139239D01*
X85406568Y-49396518D01*
X85603482Y-49593432D01*
X85860761Y-49700000D01*
X86139239Y-49700000D01*
X86396518Y-49593432D01*
X86593432Y-49396518D01*
X86700000Y-49139239D01*
X86700000Y-48860761D01*
X86593432Y-48603482D01*
X86396518Y-48406568D01*
X86139239Y-48300000D01*
X85860761Y-48300000D01*
X85603482Y-48406568D01*
X85406568Y-48603482D01*
X85300000Y-48860761D01*
X83450000Y-48860761D01*
X83450000Y-48571958D01*
X83175966Y-47910382D01*
X83126345Y-47860761D01*
X88300000Y-47860761D01*
X88300000Y-48139239D01*
X88406568Y-48396518D01*
X88603482Y-48593432D01*
X88860761Y-48700000D01*
X89139239Y-48700000D01*
X89396518Y-48593432D01*
X89593432Y-48396518D01*
X89700000Y-48139239D01*
X89700000Y-47860761D01*
X89593432Y-47603482D01*
X89396518Y-47406568D01*
X89139239Y-47300000D01*
X88860761Y-47300000D01*
X88603482Y-47406568D01*
X88406568Y-47603482D01*
X88300000Y-47860761D01*
X83126345Y-47860761D01*
X82669618Y-47404034D01*
X82008042Y-47130000D01*
X81291958Y-47130000D01*
X80630382Y-47404034D01*
X80124034Y-47910382D01*
X79850000Y-48571958D01*
X79850000Y-49288042D01*
X80042632Y-49753096D01*
X79808146Y-49596417D01*
X79574791Y-49550000D01*
X79574786Y-49550000D01*
X79496002Y-49534329D01*
X79417218Y-49550000D01*
X78278783Y-49550000D01*
X78199999Y-49534329D01*
X78121215Y-49550000D01*
X78121211Y-49550000D01*
X77887856Y-49596417D01*
X77887854Y-49596418D01*
X77887855Y-49596418D01*
X77732834Y-49700000D01*
X77623233Y-49773233D01*
X77578604Y-49840025D01*
X71568630Y-55850000D01*
X68759402Y-55850000D01*
X68887234Y-55824573D01*
X69208702Y-55609774D01*
X73628703Y-51189774D01*
X73737247Y-51117247D01*
X74024573Y-50687235D01*
X74100000Y-50308037D01*
X74100000Y-50308033D01*
X74125467Y-50180000D01*
X74100000Y-50051967D01*
X74100000Y-47860761D01*
X77300000Y-47860761D01*
X77300000Y-48139239D01*
X77406568Y-48396518D01*
X77603482Y-48593432D01*
X77860761Y-48700000D01*
X78139239Y-48700000D01*
X78396518Y-48593432D01*
X78593432Y-48396518D01*
X78700000Y-48139239D01*
X78700000Y-47860761D01*
X78593432Y-47603482D01*
X78396518Y-47406568D01*
X78139239Y-47300000D01*
X77860761Y-47300000D01*
X77603482Y-47406568D01*
X77406568Y-47603482D01*
X77300000Y-47860761D01*
X74100000Y-47860761D01*
X74100000Y-45860761D01*
X88300000Y-45860761D01*
X88300000Y-46139239D01*
X88406568Y-46396518D01*
X88603482Y-46593432D01*
X88860761Y-46700000D01*
X89139239Y-46700000D01*
X89396518Y-46593432D01*
X89593432Y-46396518D01*
X89700000Y-46139239D01*
X89700000Y-45860761D01*
X89593432Y-45603482D01*
X89396518Y-45406568D01*
X89139239Y-45300000D01*
X88860761Y-45300000D01*
X88603482Y-45406568D01*
X88406568Y-45603482D01*
X88300000Y-45860761D01*
X74100000Y-45860761D01*
X74100000Y-44860761D01*
X77300000Y-44860761D01*
X77300000Y-45139239D01*
X77406568Y-45396518D01*
X77603482Y-45593432D01*
X77860761Y-45700000D01*
X78139239Y-45700000D01*
X78396518Y-45593432D01*
X78593432Y-45396518D01*
X78700000Y-45139239D01*
X78700000Y-44860761D01*
X81300000Y-44860761D01*
X81300000Y-45139239D01*
X81406568Y-45396518D01*
X81603482Y-45593432D01*
X81860761Y-45700000D01*
X82139239Y-45700000D01*
X82396518Y-45593432D01*
X82593432Y-45396518D01*
X82700000Y-45139239D01*
X82700000Y-44860761D01*
X85300000Y-44860761D01*
X85300000Y-45139239D01*
X85406568Y-45396518D01*
X85603482Y-45593432D01*
X85860761Y-45700000D01*
X86139239Y-45700000D01*
X86396518Y-45593432D01*
X86593432Y-45396518D01*
X86700000Y-45139239D01*
X86700000Y-44860761D01*
X86593432Y-44603482D01*
X86396518Y-44406568D01*
X86139239Y-44300000D01*
X85860761Y-44300000D01*
X85603482Y-44406568D01*
X85406568Y-44603482D01*
X85300000Y-44860761D01*
X82700000Y-44860761D01*
X82593432Y-44603482D01*
X82396518Y-44406568D01*
X82139239Y-44300000D01*
X81860761Y-44300000D01*
X81603482Y-44406568D01*
X81406568Y-44603482D01*
X81300000Y-44860761D01*
X78700000Y-44860761D01*
X78593432Y-44603482D01*
X78396518Y-44406568D01*
X78139239Y-44300000D01*
X77860761Y-44300000D01*
X77603482Y-44406568D01*
X77406568Y-44603482D01*
X77300000Y-44860761D01*
X74100000Y-44860761D01*
X74100000Y-44151025D01*
X74102846Y-44149846D01*
X74391931Y-43860761D01*
X88300000Y-43860761D01*
X88300000Y-44139239D01*
X88406568Y-44396518D01*
X88603482Y-44593432D01*
X88860761Y-44700000D01*
X89139239Y-44700000D01*
X89396518Y-44593432D01*
X89593432Y-44396518D01*
X89700000Y-44139239D01*
X89700000Y-43860761D01*
X89593432Y-43603482D01*
X89396518Y-43406568D01*
X89139239Y-43300000D01*
X88860761Y-43300000D01*
X88603482Y-43406568D01*
X88406568Y-43603482D01*
X88300000Y-43860761D01*
X74391931Y-43860761D01*
X74749846Y-43502846D01*
X75100000Y-42657499D01*
X75100000Y-41860761D01*
X88300000Y-41860761D01*
X88300000Y-42139239D01*
X88406568Y-42396518D01*
X88603482Y-42593432D01*
X88860761Y-42700000D01*
X89139239Y-42700000D01*
X89396518Y-42593432D01*
X89593432Y-42396518D01*
X89700000Y-42139239D01*
X89700000Y-41860761D01*
X89593432Y-41603482D01*
X89396518Y-41406568D01*
X89139239Y-41300000D01*
X88860761Y-41300000D01*
X88603482Y-41406568D01*
X88406568Y-41603482D01*
X88300000Y-41860761D01*
X75100000Y-41860761D01*
X75100000Y-41742501D01*
X74808872Y-41039655D01*
X74987766Y-40860761D01*
X77300000Y-40860761D01*
X77300000Y-41139239D01*
X77406568Y-41396518D01*
X77603482Y-41593432D01*
X77860761Y-41700000D01*
X78139239Y-41700000D01*
X78396518Y-41593432D01*
X78593432Y-41396518D01*
X78700000Y-41139239D01*
X78700000Y-40860761D01*
X81300000Y-40860761D01*
X81300000Y-41139239D01*
X81406568Y-41396518D01*
X81603482Y-41593432D01*
X81860761Y-41700000D01*
X82139239Y-41700000D01*
X82396518Y-41593432D01*
X82593432Y-41396518D01*
X82700000Y-41139239D01*
X82700000Y-40860761D01*
X85300000Y-40860761D01*
X85300000Y-41139239D01*
X85406568Y-41396518D01*
X85603482Y-41593432D01*
X85860761Y-41700000D01*
X86139239Y-41700000D01*
X86396518Y-41593432D01*
X86593432Y-41396518D01*
X86700000Y-41139239D01*
X86700000Y-40860761D01*
X86593432Y-40603482D01*
X86396518Y-40406568D01*
X86139239Y-40300000D01*
X85860761Y-40300000D01*
X85603482Y-40406568D01*
X85406568Y-40603482D01*
X85300000Y-40860761D01*
X82700000Y-40860761D01*
X82593432Y-40603482D01*
X82396518Y-40406568D01*
X82139239Y-40300000D01*
X81860761Y-40300000D01*
X81603482Y-40406568D01*
X81406568Y-40603482D01*
X81300000Y-40860761D01*
X78700000Y-40860761D01*
X78593432Y-40603482D01*
X78396518Y-40406568D01*
X78139239Y-40300000D01*
X77860761Y-40300000D01*
X77603482Y-40406568D01*
X77406568Y-40603482D01*
X77300000Y-40860761D01*
X74987766Y-40860761D01*
X77361027Y-38487500D01*
X79919123Y-38487500D01*
X79919123Y-39062500D01*
X79960485Y-39270441D01*
X80078274Y-39446726D01*
X80254559Y-39564515D01*
X80462500Y-39605877D01*
X80937500Y-39605877D01*
X81145441Y-39564515D01*
X81321726Y-39446726D01*
X81439515Y-39270441D01*
X81450000Y-39217729D01*
X81460485Y-39270441D01*
X81578274Y-39446726D01*
X81754559Y-39564515D01*
X81962500Y-39605877D01*
X82437500Y-39605877D01*
X82645441Y-39564515D01*
X82821726Y-39446726D01*
X82939515Y-39270441D01*
X82980877Y-39062500D01*
X82980877Y-38487500D01*
X82939515Y-38279559D01*
X82821726Y-38103274D01*
X82645441Y-37985485D01*
X82437500Y-37944123D01*
X81962500Y-37944123D01*
X81754559Y-37985485D01*
X81578274Y-38103274D01*
X81460485Y-38279559D01*
X81450000Y-38332271D01*
X81439515Y-38279559D01*
X81321726Y-38103274D01*
X81145441Y-37985485D01*
X80937500Y-37944123D01*
X80462500Y-37944123D01*
X80254559Y-37985485D01*
X80078274Y-38103274D01*
X79960485Y-38279559D01*
X79919123Y-38487500D01*
X77361027Y-38487500D01*
X78223528Y-37625000D01*
X80030349Y-37625000D01*
X80078274Y-37696726D01*
X80254559Y-37814515D01*
X80462500Y-37855877D01*
X80937500Y-37855877D01*
X81145441Y-37814515D01*
X81321726Y-37696726D01*
X81439515Y-37520441D01*
X81450000Y-37467729D01*
X81460485Y-37520441D01*
X81578274Y-37696726D01*
X81754559Y-37814515D01*
X81962500Y-37855877D01*
X82437500Y-37855877D01*
X82645441Y-37814515D01*
X82821726Y-37696726D01*
X82939515Y-37520441D01*
X82980877Y-37312500D01*
X82980877Y-36802719D01*
X85000000Y-36802719D01*
X85000000Y-37797281D01*
X85380602Y-38716136D01*
X86083864Y-39419398D01*
X87002719Y-39800000D01*
X87997281Y-39800000D01*
X88916136Y-39419398D01*
X89619398Y-38716136D01*
X90000000Y-37797281D01*
X90000000Y-36802719D01*
X89619398Y-35883864D01*
X88916136Y-35180602D01*
X87997281Y-34800000D01*
X87002719Y-34800000D01*
X86083864Y-35180602D01*
X85380602Y-35883864D01*
X85000000Y-36802719D01*
X82980877Y-36802719D01*
X82980877Y-36737500D01*
X82944827Y-36556264D01*
X83096518Y-36493432D01*
X83293432Y-36296518D01*
X83400000Y-36039239D01*
X83400000Y-35760761D01*
X83293432Y-35503482D01*
X83096518Y-35306568D01*
X82839239Y-35200000D01*
X82560761Y-35200000D01*
X82303482Y-35306568D01*
X82106568Y-35503482D01*
X82006568Y-35744905D01*
X81817519Y-35933954D01*
X81767426Y-35967425D01*
X81634813Y-36165892D01*
X81600494Y-36338427D01*
X81578274Y-36353274D01*
X81460485Y-36529559D01*
X81450000Y-36582271D01*
X81439515Y-36529559D01*
X81321726Y-36353274D01*
X81145441Y-36235485D01*
X80937500Y-36194123D01*
X80462500Y-36194123D01*
X80254559Y-36235485D01*
X80078274Y-36353274D01*
X80030349Y-36425000D01*
X78564950Y-36425000D01*
X78593432Y-36396518D01*
X78700000Y-36139239D01*
X78700000Y-35860761D01*
X78593432Y-35603482D01*
X78396518Y-35406568D01*
X78139239Y-35300000D01*
X77860761Y-35300000D01*
X77603482Y-35406568D01*
X77406568Y-35603482D01*
X77300000Y-35860761D01*
X77300000Y-36139239D01*
X77406568Y-36396518D01*
X77578422Y-36568372D01*
X77542425Y-36592425D01*
X77508953Y-36642519D01*
X73960345Y-40191128D01*
X73257499Y-39900000D01*
X72342501Y-39900000D01*
X71497154Y-40250154D01*
X70850154Y-40897154D01*
X70500000Y-41742501D01*
X70500000Y-42657499D01*
X70850154Y-43502846D01*
X71497154Y-44149846D01*
X71500001Y-44151025D01*
X71500000Y-49641523D01*
X67370226Y-53771298D01*
X67155427Y-54092766D01*
X67054533Y-54600000D01*
X67155427Y-55107234D01*
X67442753Y-55537247D01*
X67872766Y-55824573D01*
X68000598Y-55850000D01*
X67019289Y-55850000D01*
X66640000Y-55470711D01*
X66640000Y-55448549D01*
X66669103Y-55429103D01*
X66923276Y-55048707D01*
X67012529Y-54600000D01*
X66923276Y-54151293D01*
X66669103Y-53770897D01*
X66288707Y-53516724D01*
X65953261Y-53450000D01*
X65726739Y-53450000D01*
X65391293Y-53516724D01*
X65010897Y-53770897D01*
X64756724Y-54151293D01*
X64667471Y-54600000D01*
X64455877Y-54600000D01*
X64455877Y-53750000D01*
X64432593Y-53632946D01*
X64366288Y-53533712D01*
X64267054Y-53467407D01*
X64150000Y-53444123D01*
X62450000Y-53444123D01*
X62332946Y-53467407D01*
X62233712Y-53533712D01*
X62167407Y-53632946D01*
X62144123Y-53750000D01*
X62144123Y-53800000D01*
X61481371Y-53800000D01*
X60571399Y-52890029D01*
X60526768Y-52823234D01*
X60262145Y-52646418D01*
X60028790Y-52600001D01*
X60028785Y-52600001D01*
X59950001Y-52584330D01*
X59871217Y-52600001D01*
X55921210Y-52600001D01*
X55687855Y-52646418D01*
X55458003Y-52800001D01*
X55441428Y-52800001D01*
X55459385Y-52773126D01*
X55513713Y-52500000D01*
X55473926Y-52299975D01*
X55474051Y-52300000D01*
X56225949Y-52300000D01*
X56524935Y-52240528D01*
X56863983Y-52013983D01*
X56966362Y-51860761D01*
X61300000Y-51860761D01*
X61300000Y-52139239D01*
X61406568Y-52396518D01*
X61603482Y-52593432D01*
X61860761Y-52700000D01*
X62139239Y-52700000D01*
X62396518Y-52593432D01*
X62593432Y-52396518D01*
X62700000Y-52139239D01*
X62700000Y-51860761D01*
X66300000Y-51860761D01*
X66300000Y-52139239D01*
X66406568Y-52396518D01*
X66603482Y-52593432D01*
X66860761Y-52700000D01*
X67139239Y-52700000D01*
X67396518Y-52593432D01*
X67593432Y-52396518D01*
X67700000Y-52139239D01*
X67700000Y-51860761D01*
X67593432Y-51603482D01*
X67396518Y-51406568D01*
X67139239Y-51300000D01*
X66860761Y-51300000D01*
X66603482Y-51406568D01*
X66406568Y-51603482D01*
X66300000Y-51860761D01*
X62700000Y-51860761D01*
X62593432Y-51603482D01*
X62396518Y-51406568D01*
X62139239Y-51300000D01*
X61860761Y-51300000D01*
X61603482Y-51406568D01*
X61406568Y-51603482D01*
X61300000Y-51860761D01*
X56966362Y-51860761D01*
X57090528Y-51674935D01*
X57170080Y-51275000D01*
X57090528Y-50875065D01*
X56863983Y-50536017D01*
X56524935Y-50309472D01*
X56225949Y-50250000D01*
X55474051Y-50250000D01*
X55175065Y-50309472D01*
X54836017Y-50536017D01*
X54609472Y-50875065D01*
X54529920Y-51275000D01*
X54609472Y-51674935D01*
X54697499Y-51806676D01*
X54526874Y-51840615D01*
X54295329Y-51995329D01*
X54140615Y-52226874D01*
X54086287Y-52500000D01*
X54140615Y-52773126D01*
X54295329Y-53004671D01*
X54491033Y-53135437D01*
X53217521Y-54408950D01*
X53167424Y-54442424D01*
X53034812Y-54640892D01*
X52999999Y-54815909D01*
X52999999Y-54815913D01*
X52988246Y-54874999D01*
X52999999Y-54934085D01*
X53000000Y-58240258D01*
X52716408Y-58050768D01*
X52461179Y-58000000D01*
X51638821Y-58000000D01*
X51383592Y-58050768D01*
X51094160Y-58244160D01*
X50900768Y-58533592D01*
X50832858Y-58875000D01*
X50900768Y-59216408D01*
X51094160Y-59505840D01*
X51383592Y-59699232D01*
X51638821Y-59750000D01*
X52461179Y-59750000D01*
X52716408Y-59699232D01*
X53005840Y-59505840D01*
X53084480Y-59388146D01*
X53114669Y-59433326D01*
X53167425Y-59512281D01*
X53217519Y-59545753D01*
X54065855Y-60394090D01*
X53597281Y-60200000D01*
X52602719Y-60200000D01*
X51683864Y-60580602D01*
X50980602Y-61283864D01*
X50600000Y-62202719D01*
X50600000Y-63147745D01*
X50443168Y-62545659D01*
X50398821Y-61969313D01*
X50384505Y-61889746D01*
X50375000Y-61865982D01*
X50375000Y-51125000D01*
X50832858Y-51125000D01*
X50900768Y-51466408D01*
X51094160Y-51755840D01*
X51383592Y-51949232D01*
X51638821Y-52000000D01*
X52461179Y-52000000D01*
X52716408Y-51949232D01*
X53005840Y-51755840D01*
X53199232Y-51466408D01*
X53267142Y-51125000D01*
X53199232Y-50783592D01*
X53005840Y-50494160D01*
X52716408Y-50300768D01*
X52461179Y-50250000D01*
X51638821Y-50250000D01*
X51383592Y-50300768D01*
X51094160Y-50494160D01*
X50900768Y-50783592D01*
X50832858Y-51125000D01*
X50375000Y-51125000D01*
X50375000Y-47860761D01*
X51300000Y-47860761D01*
X51300000Y-48139239D01*
X51406568Y-48396518D01*
X51603482Y-48593432D01*
X51860761Y-48700000D01*
X52139239Y-48700000D01*
X52396518Y-48593432D01*
X52593432Y-48396518D01*
X52700000Y-48139239D01*
X52700000Y-47860761D01*
X56300000Y-47860761D01*
X56300000Y-48139239D01*
X56406568Y-48396518D01*
X56603482Y-48593432D01*
X56860761Y-48700000D01*
X57139239Y-48700000D01*
X57396518Y-48593432D01*
X57593432Y-48396518D01*
X57700000Y-48139239D01*
X57700000Y-47860761D01*
X61300000Y-47860761D01*
X61300000Y-48139239D01*
X61406568Y-48396518D01*
X61603482Y-48593432D01*
X61860761Y-48700000D01*
X62139239Y-48700000D01*
X62396518Y-48593432D01*
X62593432Y-48396518D01*
X62700000Y-48139239D01*
X62700000Y-47860761D01*
X66300000Y-47860761D01*
X66300000Y-48139239D01*
X66406568Y-48396518D01*
X66603482Y-48593432D01*
X66860761Y-48700000D01*
X67139239Y-48700000D01*
X67396518Y-48593432D01*
X67593432Y-48396518D01*
X67700000Y-48139239D01*
X67700000Y-47860761D01*
X67593432Y-47603482D01*
X67396518Y-47406568D01*
X67139239Y-47300000D01*
X66860761Y-47300000D01*
X66603482Y-47406568D01*
X66406568Y-47603482D01*
X66300000Y-47860761D01*
X62700000Y-47860761D01*
X62593432Y-47603482D01*
X62396518Y-47406568D01*
X62139239Y-47300000D01*
X61860761Y-47300000D01*
X61603482Y-47406568D01*
X61406568Y-47603482D01*
X61300000Y-47860761D01*
X57700000Y-47860761D01*
X57593432Y-47603482D01*
X57396518Y-47406568D01*
X57139239Y-47300000D01*
X56860761Y-47300000D01*
X56603482Y-47406568D01*
X56406568Y-47603482D01*
X56300000Y-47860761D01*
X52700000Y-47860761D01*
X52593432Y-47603482D01*
X52396518Y-47406568D01*
X52139239Y-47300000D01*
X51860761Y-47300000D01*
X51603482Y-47406568D01*
X51406568Y-47603482D01*
X51300000Y-47860761D01*
X50375000Y-47860761D01*
X50375000Y-45860761D01*
X51300000Y-45860761D01*
X51300000Y-46139239D01*
X51406568Y-46396518D01*
X51603482Y-46593432D01*
X51860761Y-46700000D01*
X52139239Y-46700000D01*
X52396518Y-46593432D01*
X52593432Y-46396518D01*
X52700000Y-46139239D01*
X52700000Y-45860761D01*
X52593432Y-45603482D01*
X52396518Y-45406568D01*
X52139239Y-45300000D01*
X51860761Y-45300000D01*
X51603482Y-45406568D01*
X51406568Y-45603482D01*
X51300000Y-45860761D01*
X50375000Y-45860761D01*
X50375000Y-43860761D01*
X51300000Y-43860761D01*
X51300000Y-44139239D01*
X51406568Y-44396518D01*
X51603482Y-44593432D01*
X51860761Y-44700000D01*
X52139239Y-44700000D01*
X52396518Y-44593432D01*
X52593432Y-44396518D01*
X52700000Y-44139239D01*
X52700000Y-43860761D01*
X52593432Y-43603482D01*
X52396518Y-43406568D01*
X52139239Y-43300000D01*
X51860761Y-43300000D01*
X51603482Y-43406568D01*
X51406568Y-43603482D01*
X51300000Y-43860761D01*
X50375000Y-43860761D01*
X50375000Y-41860761D01*
X51300000Y-41860761D01*
X51300000Y-42139239D01*
X51406568Y-42396518D01*
X51603482Y-42593432D01*
X51860761Y-42700000D01*
X52139239Y-42700000D01*
X52396518Y-42593432D01*
X52593432Y-42396518D01*
X52700000Y-42139239D01*
X52700000Y-41860761D01*
X52651016Y-41742501D01*
X55800000Y-41742501D01*
X55800000Y-42657499D01*
X56150154Y-43502846D01*
X56797154Y-44149846D01*
X57642501Y-44500000D01*
X58557499Y-44500000D01*
X59402846Y-44149846D01*
X59691931Y-43860761D01*
X61300000Y-43860761D01*
X61300000Y-44139239D01*
X61406568Y-44396518D01*
X61603482Y-44593432D01*
X61860761Y-44700000D01*
X62139239Y-44700000D01*
X62396518Y-44593432D01*
X62593432Y-44396518D01*
X62700000Y-44139239D01*
X62700000Y-43860761D01*
X66300000Y-43860761D01*
X66300000Y-44139239D01*
X66406568Y-44396518D01*
X66603482Y-44593432D01*
X66860761Y-44700000D01*
X67139239Y-44700000D01*
X67396518Y-44593432D01*
X67593432Y-44396518D01*
X67700000Y-44139239D01*
X67700000Y-43860761D01*
X67593432Y-43603482D01*
X67396518Y-43406568D01*
X67139239Y-43300000D01*
X66860761Y-43300000D01*
X66603482Y-43406568D01*
X66406568Y-43603482D01*
X66300000Y-43860761D01*
X62700000Y-43860761D01*
X62593432Y-43603482D01*
X62396518Y-43406568D01*
X62139239Y-43300000D01*
X61860761Y-43300000D01*
X61603482Y-43406568D01*
X61406568Y-43603482D01*
X61300000Y-43860761D01*
X59691931Y-43860761D01*
X60049846Y-43502846D01*
X60400000Y-42657499D01*
X60400000Y-41742501D01*
X60049846Y-40897154D01*
X59402846Y-40250154D01*
X58557499Y-39900000D01*
X57642501Y-39900000D01*
X56797154Y-40250154D01*
X56150154Y-40897154D01*
X55800000Y-41742501D01*
X52651016Y-41742501D01*
X52593432Y-41603482D01*
X52396518Y-41406568D01*
X52139239Y-41300000D01*
X51860761Y-41300000D01*
X51603482Y-41406568D01*
X51406568Y-41603482D01*
X51300000Y-41860761D01*
X50375000Y-41860761D01*
X50375000Y-39860761D01*
X51300000Y-39860761D01*
X51300000Y-40139239D01*
X51406568Y-40396518D01*
X51603482Y-40593432D01*
X51860761Y-40700000D01*
X52139239Y-40700000D01*
X52396518Y-40593432D01*
X52593432Y-40396518D01*
X52700000Y-40139239D01*
X52700000Y-39860761D01*
X61300000Y-39860761D01*
X61300000Y-40139239D01*
X61406568Y-40396518D01*
X61603482Y-40593432D01*
X61860761Y-40700000D01*
X62139239Y-40700000D01*
X62396518Y-40593432D01*
X62593432Y-40396518D01*
X62700000Y-40139239D01*
X62700000Y-39860761D01*
X66300000Y-39860761D01*
X66300000Y-40139239D01*
X66406568Y-40396518D01*
X66603482Y-40593432D01*
X66860761Y-40700000D01*
X67139239Y-40700000D01*
X67396518Y-40593432D01*
X67593432Y-40396518D01*
X67700000Y-40139239D01*
X67700000Y-39860761D01*
X67593432Y-39603482D01*
X67396518Y-39406568D01*
X67139239Y-39300000D01*
X66860761Y-39300000D01*
X66603482Y-39406568D01*
X66406568Y-39603482D01*
X66300000Y-39860761D01*
X62700000Y-39860761D01*
X62593432Y-39603482D01*
X62396518Y-39406568D01*
X62139239Y-39300000D01*
X61860761Y-39300000D01*
X61603482Y-39406568D01*
X61406568Y-39603482D01*
X61300000Y-39860761D01*
X52700000Y-39860761D01*
X52593432Y-39603482D01*
X52396518Y-39406568D01*
X52139239Y-39300000D01*
X51860761Y-39300000D01*
X51603482Y-39406568D01*
X51406568Y-39603482D01*
X51300000Y-39860761D01*
X50375000Y-39860761D01*
X50375000Y-38133961D01*
X50391547Y-38081798D01*
X50397952Y-38040423D01*
X50416201Y-37860761D01*
X51300000Y-37860761D01*
X51300000Y-38139239D01*
X51406568Y-38396518D01*
X51603482Y-38593432D01*
X51860761Y-38700000D01*
X52139239Y-38700000D01*
X52396518Y-38593432D01*
X52593432Y-38396518D01*
X52700000Y-38139239D01*
X52700000Y-37860761D01*
X52593432Y-37603482D01*
X52396518Y-37406568D01*
X52139239Y-37300000D01*
X51860761Y-37300000D01*
X51603482Y-37406568D01*
X51406568Y-37603482D01*
X51300000Y-37860761D01*
X50416201Y-37860761D01*
X50475545Y-37276534D01*
X50693004Y-36582621D01*
X51045552Y-35946606D01*
X51119130Y-35860761D01*
X51300000Y-35860761D01*
X51300000Y-36139239D01*
X51406568Y-36396518D01*
X51603482Y-36593432D01*
X51860761Y-36700000D01*
X52139239Y-36700000D01*
X52396518Y-36593432D01*
X52593432Y-36396518D01*
X52700000Y-36139239D01*
X52700000Y-35860761D01*
X53300000Y-35860761D01*
X53300000Y-36139239D01*
X53406568Y-36396518D01*
X53603482Y-36593432D01*
X53860761Y-36700000D01*
X54139239Y-36700000D01*
X54396518Y-36593432D01*
X54593432Y-36396518D01*
X54700000Y-36139239D01*
X54700000Y-35860761D01*
X55300000Y-35860761D01*
X55300000Y-36139239D01*
X55406568Y-36396518D01*
X55603482Y-36593432D01*
X55860761Y-36700000D01*
X56139239Y-36700000D01*
X56396518Y-36593432D01*
X56593432Y-36396518D01*
X56700000Y-36139239D01*
X56700000Y-35860761D01*
X57300000Y-35860761D01*
X57300000Y-36139239D01*
X57406568Y-36396518D01*
X57603482Y-36593432D01*
X57860761Y-36700000D01*
X58139239Y-36700000D01*
X58396518Y-36593432D01*
X58593432Y-36396518D01*
X58700000Y-36139239D01*
X58700000Y-35860761D01*
X59300000Y-35860761D01*
X59300000Y-36139239D01*
X59406568Y-36396518D01*
X59603482Y-36593432D01*
X59860761Y-36700000D01*
X60139239Y-36700000D01*
X60396518Y-36593432D01*
X60593432Y-36396518D01*
X60700000Y-36139239D01*
X60700000Y-35860761D01*
X61300000Y-35860761D01*
X61300000Y-36139239D01*
X61406568Y-36396518D01*
X61603482Y-36593432D01*
X61860761Y-36700000D01*
X62139239Y-36700000D01*
X62396518Y-36593432D01*
X62593432Y-36396518D01*
X62700000Y-36139239D01*
X62700000Y-35860761D01*
X63300000Y-35860761D01*
X63300000Y-36139239D01*
X63406568Y-36396518D01*
X63603482Y-36593432D01*
X63860761Y-36700000D01*
X64139239Y-36700000D01*
X64396518Y-36593432D01*
X64593432Y-36396518D01*
X64700000Y-36139239D01*
X64700000Y-35860761D01*
X65300000Y-35860761D01*
X65300000Y-36139239D01*
X65406568Y-36396518D01*
X65603482Y-36593432D01*
X65860761Y-36700000D01*
X66139239Y-36700000D01*
X66396518Y-36593432D01*
X66593432Y-36396518D01*
X66700000Y-36139239D01*
X66700000Y-35860761D01*
X67300000Y-35860761D01*
X67300000Y-36139239D01*
X67406568Y-36396518D01*
X67603482Y-36593432D01*
X67860761Y-36700000D01*
X68139239Y-36700000D01*
X68396518Y-36593432D01*
X68593432Y-36396518D01*
X68700000Y-36139239D01*
X68700000Y-35860761D01*
X69300000Y-35860761D01*
X69300000Y-36139239D01*
X69406568Y-36396518D01*
X69603482Y-36593432D01*
X69860761Y-36700000D01*
X70139239Y-36700000D01*
X70396518Y-36593432D01*
X70593432Y-36396518D01*
X70700000Y-36139239D01*
X70700000Y-35860761D01*
X71300000Y-35860761D01*
X71300000Y-36139239D01*
X71406568Y-36396518D01*
X71603482Y-36593432D01*
X71860761Y-36700000D01*
X72139239Y-36700000D01*
X72396518Y-36593432D01*
X72593432Y-36396518D01*
X72700000Y-36139239D01*
X72700000Y-35860761D01*
X73300000Y-35860761D01*
X73300000Y-36139239D01*
X73406568Y-36396518D01*
X73603482Y-36593432D01*
X73860761Y-36700000D01*
X74139239Y-36700000D01*
X74396518Y-36593432D01*
X74593432Y-36396518D01*
X74700000Y-36139239D01*
X74700000Y-35860761D01*
X75300000Y-35860761D01*
X75300000Y-36139239D01*
X75406568Y-36396518D01*
X75603482Y-36593432D01*
X75860761Y-36700000D01*
X76139239Y-36700000D01*
X76396518Y-36593432D01*
X76593432Y-36396518D01*
X76700000Y-36139239D01*
X76700000Y-35860761D01*
X76593432Y-35603482D01*
X76396518Y-35406568D01*
X76139239Y-35300000D01*
X75860761Y-35300000D01*
X75603482Y-35406568D01*
X75406568Y-35603482D01*
X75300000Y-35860761D01*
X74700000Y-35860761D01*
X74593432Y-35603482D01*
X74396518Y-35406568D01*
X74139239Y-35300000D01*
X73860761Y-35300000D01*
X73603482Y-35406568D01*
X73406568Y-35603482D01*
X73300000Y-35860761D01*
X72700000Y-35860761D01*
X72593432Y-35603482D01*
X72396518Y-35406568D01*
X72139239Y-35300000D01*
X71860761Y-35300000D01*
X71603482Y-35406568D01*
X71406568Y-35603482D01*
X71300000Y-35860761D01*
X70700000Y-35860761D01*
X70593432Y-35603482D01*
X70396518Y-35406568D01*
X70139239Y-35300000D01*
X69860761Y-35300000D01*
X69603482Y-35406568D01*
X69406568Y-35603482D01*
X69300000Y-35860761D01*
X68700000Y-35860761D01*
X68593432Y-35603482D01*
X68396518Y-35406568D01*
X68139239Y-35300000D01*
X67860761Y-35300000D01*
X67603482Y-35406568D01*
X67406568Y-35603482D01*
X67300000Y-35860761D01*
X66700000Y-35860761D01*
X66593432Y-35603482D01*
X66396518Y-35406568D01*
X66139239Y-35300000D01*
X65860761Y-35300000D01*
X65603482Y-35406568D01*
X65406568Y-35603482D01*
X65300000Y-35860761D01*
X64700000Y-35860761D01*
X64593432Y-35603482D01*
X64396518Y-35406568D01*
X64139239Y-35300000D01*
X63860761Y-35300000D01*
X63603482Y-35406568D01*
X63406568Y-35603482D01*
X63300000Y-35860761D01*
X62700000Y-35860761D01*
X62593432Y-35603482D01*
X62396518Y-35406568D01*
X62139239Y-35300000D01*
X61860761Y-35300000D01*
X61603482Y-35406568D01*
X61406568Y-35603482D01*
X61300000Y-35860761D01*
X60700000Y-35860761D01*
X60593432Y-35603482D01*
X60396518Y-35406568D01*
X60139239Y-35300000D01*
X59860761Y-35300000D01*
X59603482Y-35406568D01*
X59406568Y-35603482D01*
X59300000Y-35860761D01*
X58700000Y-35860761D01*
X58593432Y-35603482D01*
X58396518Y-35406568D01*
X58139239Y-35300000D01*
X57860761Y-35300000D01*
X57603482Y-35406568D01*
X57406568Y-35603482D01*
X57300000Y-35860761D01*
X56700000Y-35860761D01*
X56593432Y-35603482D01*
X56396518Y-35406568D01*
X56139239Y-35300000D01*
X55860761Y-35300000D01*
X55603482Y-35406568D01*
X55406568Y-35603482D01*
X55300000Y-35860761D01*
X54700000Y-35860761D01*
X54593432Y-35603482D01*
X54396518Y-35406568D01*
X54139239Y-35300000D01*
X53860761Y-35300000D01*
X53603482Y-35406568D01*
X53406568Y-35603482D01*
X53300000Y-35860761D01*
X52700000Y-35860761D01*
X52593432Y-35603482D01*
X52396518Y-35406568D01*
X52139239Y-35300000D01*
X51860761Y-35300000D01*
X51603482Y-35406568D01*
X51406568Y-35603482D01*
X51300000Y-35860761D01*
X51119130Y-35860761D01*
X51518788Y-35394473D01*
X52093384Y-34948771D01*
X52745857Y-34627715D01*
X53454341Y-34443168D01*
X54030687Y-34398821D01*
X54110255Y-34384505D01*
X54134019Y-34375000D01*
X86866039Y-34375000D01*
X86918202Y-34391547D01*
G36*
X78670429Y-57499999D02*
X78601041Y-57499999D01*
X78621365Y-57479676D01*
X78670429Y-57499999D01*
X78670429Y-57499999D01*
G37*
X78670429Y-57499999D02*
X78601041Y-57499999D01*
X78621365Y-57479676D01*
X78670429Y-57499999D01*
G36*
X79448026Y-55549067D02*
X79329569Y-55500000D01*
X79378635Y-55479676D01*
X79448026Y-55549067D01*
X79448026Y-55549067D01*
G37*
X79448026Y-55549067D02*
X79329569Y-55500000D01*
X79378635Y-55479676D01*
X79448026Y-55549067D01*
G36*
X54316053Y-56981481D02*
X54295329Y-56995329D01*
X54199999Y-57138000D01*
X54199999Y-56933410D01*
X54316053Y-56981481D01*
X54316053Y-56981481D01*
G37*
X54316053Y-56981481D02*
X54295329Y-56995329D01*
X54199999Y-57138000D01*
X54199999Y-56933410D01*
X54316053Y-56981481D01*
G36*
X57198960Y-56000000D02*
X57160761Y-56000000D01*
X56964242Y-56081400D01*
X56875365Y-55992523D01*
X56842333Y-55943088D01*
X56855877Y-55875000D01*
X56855877Y-55656917D01*
X57198960Y-56000000D01*
X57198960Y-56000000D01*
G37*
X57198960Y-56000000D02*
X57160761Y-56000000D01*
X56964242Y-56081400D01*
X56875365Y-55992523D01*
X56842333Y-55943088D01*
X56855877Y-55875000D01*
X56855877Y-55656917D01*
X57198960Y-56000000D01*
G36*
X54944123Y-54575000D02*
X54964015Y-54675000D01*
X54944123Y-54775000D01*
X54944123Y-55225000D01*
X54964015Y-55325000D01*
X54944123Y-55425000D01*
X54944123Y-55754173D01*
X54896518Y-55706568D01*
X54639239Y-55600000D01*
X54360761Y-55600000D01*
X54199999Y-55666590D01*
X54199999Y-55123526D01*
X54944123Y-54379403D01*
X54944123Y-54575000D01*
X54944123Y-54575000D01*
G37*
X54944123Y-54575000D02*
X54964015Y-54675000D01*
X54944123Y-54775000D01*
X54944123Y-55225000D01*
X54964015Y-55325000D01*
X54944123Y-55425000D01*
X54944123Y-55754173D01*
X54896518Y-55706568D01*
X54639239Y-55600000D01*
X54360761Y-55600000D01*
X54199999Y-55666590D01*
X54199999Y-55123526D01*
X54944123Y-54379403D01*
X54944123Y-54575000D01*
G36*
X51703721Y-34248905D02*
X51687131Y-34259272D01*
X51669540Y-34267851D01*
X51635160Y-34291746D01*
X50996359Y-34787251D01*
X50982192Y-34800742D01*
X50966686Y-34812683D01*
X50937813Y-34843004D01*
X50411695Y-35456836D01*
X50400530Y-35472900D01*
X50387742Y-35487715D01*
X50365555Y-35523222D01*
X50115428Y-35974463D01*
X50100784Y-34100000D01*
X52006336Y-34100000D01*
X51703721Y-34248905D01*
X51703721Y-34248905D01*
G37*
X51703721Y-34248905D02*
X51687131Y-34259272D01*
X51669540Y-34267851D01*
X51635160Y-34291746D01*
X50996359Y-34787251D01*
X50982192Y-34800742D01*
X50966686Y-34812683D01*
X50937813Y-34843004D01*
X50411695Y-35456836D01*
X50400530Y-35472900D01*
X50387742Y-35487715D01*
X50365555Y-35523222D01*
X50115428Y-35974463D01*
X50100784Y-34100000D01*
X52006336Y-34100000D01*
X51703721Y-34248905D01*
M02*
