G04 #@! TF.GenerationSoftware,KiCad,Pcbnew,(5.0.2-5-10.14)*
G04 #@! TF.CreationDate,2019-03-07T11:52:20+01:00*
G04 #@! TF.ProjectId,USBSwitch,55534253-7769-4746-9368-2e6b69636164,rev?*
G04 #@! TF.SameCoordinates,Original*
G04 #@! TF.FileFunction,Copper,L2,Bot*
G04 #@! TF.FilePolarity,Positive*
%FSLAX46Y46*%
G04 Gerber Fmt 4.6, Leading zero omitted, Abs format (unit mm)*
G04 Created by KiCad (PCBNEW (5.0.2-5-10.14)) date 2019 March 07, Thursday 11:52:20*
%MOMM*%
%LPD*%
G01*
G04 APERTURE LIST*
G04 #@! TA.AperFunction,NonConductor*
%ADD10C,0.300000*%
G04 #@! TD*
G04 #@! TA.AperFunction,ComponentPad*
%ADD11C,4.000000*%
G04 #@! TD*
G04 #@! TA.AperFunction,ComponentPad*
%ADD12O,1.800000X1.150000*%
G04 #@! TD*
G04 #@! TA.AperFunction,ComponentPad*
%ADD13O,2.000000X1.450000*%
G04 #@! TD*
G04 #@! TA.AperFunction,ComponentPad*
%ADD14C,3.000000*%
G04 #@! TD*
G04 #@! TA.AperFunction,ComponentPad*
%ADD15R,1.500000X1.500000*%
G04 #@! TD*
G04 #@! TA.AperFunction,ComponentPad*
%ADD16C,1.500000*%
G04 #@! TD*
G04 #@! TA.AperFunction,ComponentPad*
%ADD17O,1.700000X1.700000*%
G04 #@! TD*
G04 #@! TA.AperFunction,ComponentPad*
%ADD18R,1.700000X1.700000*%
G04 #@! TD*
G04 #@! TA.AperFunction,ComponentPad*
%ADD19C,0.700000*%
G04 #@! TD*
G04 #@! TA.AperFunction,ComponentPad*
%ADD20C,4.400000*%
G04 #@! TD*
G04 #@! TA.AperFunction,ViaPad*
%ADD21C,0.800000*%
G04 #@! TD*
G04 #@! TA.AperFunction,Conductor*
%ADD22C,0.400000*%
G04 #@! TD*
G04 #@! TA.AperFunction,Conductor*
%ADD23C,0.250000*%
G04 #@! TD*
G04 #@! TA.AperFunction,Conductor*
%ADD24C,0.200000*%
G04 #@! TD*
G04 APERTURE END LIST*
D10*
X81552500Y-39028571D02*
X81320357Y-40028571D01*
X80838214Y-39028571D01*
X79606071Y-40028571D02*
X80463214Y-40028571D01*
X80034642Y-40028571D02*
X79847142Y-38528571D01*
X80016785Y-38742857D01*
X80177500Y-38885714D01*
X80329285Y-38957142D01*
D11*
G04 #@! TO.P,J2,1*
G04 #@! TO.N,GND*
X58100000Y-42200000D03*
G04 #@! TD*
G04 #@! TO.P,J1,1*
G04 #@! TO.N,+5V*
X72800000Y-42200000D03*
G04 #@! TD*
D12*
G04 #@! TO.P,J4,6*
G04 #@! TO.N,GND*
X52050000Y-58875000D03*
X52050000Y-51125000D03*
D13*
X55850000Y-58725000D03*
X55850000Y-51275000D03*
G04 #@! TD*
D14*
G04 #@! TO.P,J3,5*
G04 #@! TO.N,GND*
X81650000Y-48930000D03*
X81650000Y-62070000D03*
D15*
G04 #@! TO.P,J3,1*
G04 #@! TO.N,VCC*
X79000000Y-59000000D03*
D16*
G04 #@! TO.P,J3,2*
G04 #@! TO.N,Net-(J3-Pad2)*
X79000000Y-56500000D03*
G04 #@! TO.P,J3,3*
G04 #@! TO.N,Net-(J3-Pad3)*
X79000000Y-54500000D03*
G04 #@! TO.P,J3,4*
G04 #@! TO.N,GND*
X79000000Y-52000000D03*
G04 #@! TD*
D17*
G04 #@! TO.P,JP1,3*
G04 #@! TO.N,+5V*
X68380000Y-54600000D03*
G04 #@! TO.P,JP1,2*
G04 #@! TO.N,VCC*
X65840000Y-54600000D03*
D18*
G04 #@! TO.P,JP1,1*
G04 #@! TO.N,VBUS*
X63300000Y-54600000D03*
G04 #@! TD*
D17*
G04 #@! TO.P,JP2,2*
G04 #@! TO.N,Net-(J3-Pad3)*
X69040000Y-62600000D03*
D18*
G04 #@! TO.P,JP2,1*
G04 #@! TO.N,/D+*
X66500000Y-62600000D03*
G04 #@! TD*
D17*
G04 #@! TO.P,JP3,2*
G04 #@! TO.N,Net-(J3-Pad2)*
X69040000Y-59000000D03*
D18*
G04 #@! TO.P,JP3,1*
G04 #@! TO.N,/D-*
X66500000Y-59000000D03*
G04 #@! TD*
D19*
G04 #@! TO.P,H1,1*
G04 #@! TO.N,GND*
X88666726Y-36133274D03*
X87500000Y-35650000D03*
X86333274Y-36133274D03*
X85850000Y-37300000D03*
X86333274Y-38466726D03*
X87500000Y-38950000D03*
X88666726Y-38466726D03*
X89150000Y-37300000D03*
D20*
X87500000Y-37300000D03*
G04 #@! TD*
D19*
G04 #@! TO.P,H2,1*
G04 #@! TO.N,GND*
X54266726Y-61533274D03*
X53100000Y-61050000D03*
X51933274Y-61533274D03*
X51450000Y-62700000D03*
X51933274Y-63866726D03*
X53100000Y-64350000D03*
X54266726Y-63866726D03*
X54750000Y-62700000D03*
D20*
X53100000Y-62700000D03*
G04 #@! TD*
D21*
G04 #@! TO.N,GND*
X52000000Y-38000000D03*
X52000000Y-40000000D03*
X52000000Y-42000000D03*
X52000000Y-44000000D03*
X52000000Y-46000000D03*
X52000000Y-48000000D03*
X52000000Y-36000000D03*
X54000000Y-36000000D03*
X56000000Y-36000000D03*
X58000000Y-36000000D03*
X60000000Y-36000000D03*
X62000000Y-36000000D03*
X64000000Y-36000000D03*
X66000000Y-36000000D03*
X68000000Y-36000000D03*
X70000000Y-36000000D03*
X72000000Y-36000000D03*
X74000000Y-36000000D03*
X76000000Y-36000000D03*
X78000000Y-36000000D03*
X89000000Y-42000000D03*
X89000000Y-44000000D03*
X89000000Y-46000000D03*
X89000000Y-48000000D03*
X89000000Y-50000000D03*
X89000000Y-52000000D03*
X89000000Y-54000000D03*
X89000000Y-56000000D03*
X89000000Y-58000000D03*
X89000000Y-60000000D03*
X89000000Y-62000000D03*
X88000000Y-64000000D03*
X86000000Y-64000000D03*
X84000000Y-64000000D03*
X57000000Y-64000000D03*
X60000000Y-64000000D03*
X63000000Y-64000000D03*
X71000000Y-64000000D03*
X74000000Y-64000000D03*
X77000000Y-64000000D03*
X79000000Y-64000000D03*
X62000000Y-40000000D03*
X62000000Y-44000000D03*
X62000000Y-48000000D03*
X67000000Y-48000000D03*
X67000000Y-44000000D03*
X67000000Y-40000000D03*
X57000000Y-48000000D03*
X78000000Y-48000000D03*
X78000000Y-45000000D03*
X78000000Y-41000000D03*
X82000000Y-45000000D03*
X86000000Y-45000000D03*
X86000000Y-49000000D03*
X86000000Y-53000000D03*
X86000000Y-57000000D03*
X86000000Y-61000000D03*
X67000000Y-52000000D03*
X62000000Y-52000000D03*
X82000000Y-41000000D03*
X86000000Y-41000000D03*
X54500000Y-56300000D03*
X57300000Y-56700000D03*
X82700000Y-35900000D03*
X60955000Y-61000000D03*
X73500000Y-60899986D03*
G04 #@! TD*
D22*
G04 #@! TO.N,GND*
X83300000Y-57700000D02*
X75950002Y-57700000D01*
D23*
X83500000Y-58000000D02*
X83424999Y-57924999D01*
X67800000Y-57100000D02*
X67800000Y-64600000D01*
X67100000Y-52700000D02*
X67100000Y-56300000D01*
X64600000Y-52500000D02*
X64600000Y-56800000D01*
G04 #@! TD*
D24*
G04 #@! TO.N,GND*
G36*
X86918202Y-34391547D02*
X86959577Y-34397952D01*
X87723466Y-34475545D01*
X88417379Y-34693004D01*
X89053394Y-35045552D01*
X89605527Y-35518788D01*
X90051229Y-36093384D01*
X90372285Y-36745857D01*
X90556832Y-37454341D01*
X90601179Y-38030687D01*
X90615495Y-38110255D01*
X90625001Y-38134021D01*
X90625000Y-61866039D01*
X90608453Y-61918202D01*
X90602048Y-61959577D01*
X90524455Y-62723465D01*
X90306996Y-63417379D01*
X89954446Y-64053395D01*
X89481212Y-64605527D01*
X88906616Y-65051229D01*
X88254146Y-65372285D01*
X87545659Y-65556832D01*
X86969313Y-65601179D01*
X86889746Y-65615495D01*
X86865982Y-65625000D01*
X54133961Y-65625000D01*
X54081798Y-65608453D01*
X54040423Y-65602048D01*
X53276535Y-65524455D01*
X52582621Y-65306996D01*
X51946605Y-64954446D01*
X51394473Y-64481212D01*
X50948771Y-63906616D01*
X50627715Y-63254146D01*
X50443168Y-62545659D01*
X50398821Y-61969313D01*
X50384505Y-61889746D01*
X50375000Y-61865982D01*
X50375000Y-61750000D01*
X65344123Y-61750000D01*
X65344123Y-63450000D01*
X65367407Y-63567054D01*
X65433712Y-63666288D01*
X65532946Y-63732593D01*
X65650000Y-63755877D01*
X67350000Y-63755877D01*
X67467054Y-63732593D01*
X67566288Y-63666288D01*
X67632593Y-63567054D01*
X67655877Y-63450000D01*
X67655877Y-62600000D01*
X67867471Y-62600000D01*
X67956724Y-63048707D01*
X68210897Y-63429103D01*
X68591293Y-63683276D01*
X68926739Y-63750000D01*
X69153261Y-63750000D01*
X69488707Y-63683276D01*
X69869103Y-63429103D01*
X70123276Y-63048707D01*
X70212529Y-62600000D01*
X70123276Y-62151293D01*
X69869103Y-61770897D01*
X69488707Y-61516724D01*
X69153261Y-61450000D01*
X68926739Y-61450000D01*
X68591293Y-61516724D01*
X68210897Y-61770897D01*
X67956724Y-62151293D01*
X67867471Y-62600000D01*
X67655877Y-62600000D01*
X67655877Y-61750000D01*
X67632593Y-61632946D01*
X67566288Y-61533712D01*
X67467054Y-61467407D01*
X67350000Y-61444123D01*
X65650000Y-61444123D01*
X65532946Y-61467407D01*
X65433712Y-61533712D01*
X65367407Y-61632946D01*
X65344123Y-61750000D01*
X50375000Y-61750000D01*
X50375000Y-57500000D01*
X54086287Y-57500000D01*
X54140615Y-57773126D01*
X54295329Y-58004671D01*
X54526874Y-58159385D01*
X54731060Y-58200000D01*
X54868940Y-58200000D01*
X55073126Y-58159385D01*
X55087171Y-58150000D01*
X65344123Y-58150000D01*
X65344123Y-59850000D01*
X65367407Y-59967054D01*
X65433712Y-60066288D01*
X65532946Y-60132593D01*
X65650000Y-60155877D01*
X67350000Y-60155877D01*
X67467054Y-60132593D01*
X67566288Y-60066288D01*
X67632593Y-59967054D01*
X67655877Y-59850000D01*
X67655877Y-59000000D01*
X67867471Y-59000000D01*
X67956724Y-59448707D01*
X68210897Y-59829103D01*
X68591293Y-60083276D01*
X68926739Y-60150000D01*
X69153261Y-60150000D01*
X69488707Y-60083276D01*
X69869103Y-59829103D01*
X70123276Y-59448707D01*
X70212529Y-59000000D01*
X70123276Y-58551293D01*
X69921959Y-58250000D01*
X77944123Y-58250000D01*
X77944123Y-59750000D01*
X77967407Y-59867054D01*
X78033712Y-59966288D01*
X78132946Y-60032593D01*
X78250000Y-60055877D01*
X79750000Y-60055877D01*
X79867054Y-60032593D01*
X79966288Y-59966288D01*
X80032593Y-59867054D01*
X80055877Y-59750000D01*
X80055877Y-58250000D01*
X80032593Y-58132946D01*
X79966288Y-58033712D01*
X79867054Y-57967407D01*
X79750000Y-57944123D01*
X78250000Y-57944123D01*
X78132946Y-57967407D01*
X78033712Y-58033712D01*
X77967407Y-58132946D01*
X77944123Y-58250000D01*
X69921959Y-58250000D01*
X69869103Y-58170897D01*
X69488707Y-57916724D01*
X69153261Y-57850000D01*
X68926739Y-57850000D01*
X68591293Y-57916724D01*
X68210897Y-58170897D01*
X67956724Y-58551293D01*
X67867471Y-59000000D01*
X67655877Y-59000000D01*
X67655877Y-58150000D01*
X67632593Y-58032946D01*
X67566288Y-57933712D01*
X67467054Y-57867407D01*
X67350000Y-57844123D01*
X65650000Y-57844123D01*
X65532946Y-57867407D01*
X65433712Y-57933712D01*
X65367407Y-58032946D01*
X65344123Y-58150000D01*
X55087171Y-58150000D01*
X55304671Y-58004671D01*
X55459385Y-57773126D01*
X55513713Y-57500000D01*
X55459385Y-57226874D01*
X55304671Y-56995329D01*
X55073126Y-56840615D01*
X54868940Y-56800000D01*
X54731060Y-56800000D01*
X54526874Y-56840615D01*
X54295329Y-56995329D01*
X54140615Y-57226874D01*
X54086287Y-57500000D01*
X50375000Y-57500000D01*
X50375000Y-53750000D01*
X62144123Y-53750000D01*
X62144123Y-55450000D01*
X62167407Y-55567054D01*
X62233712Y-55666288D01*
X62332946Y-55732593D01*
X62450000Y-55755877D01*
X64150000Y-55755877D01*
X64267054Y-55732593D01*
X64366288Y-55666288D01*
X64432593Y-55567054D01*
X64455877Y-55450000D01*
X64455877Y-54600000D01*
X64667471Y-54600000D01*
X64756724Y-55048707D01*
X65010897Y-55429103D01*
X65391293Y-55683276D01*
X65726739Y-55750000D01*
X65953261Y-55750000D01*
X66288707Y-55683276D01*
X66669103Y-55429103D01*
X66923276Y-55048707D01*
X67012529Y-54600000D01*
X67207471Y-54600000D01*
X67296724Y-55048707D01*
X67550897Y-55429103D01*
X67931293Y-55683276D01*
X68266739Y-55750000D01*
X68493261Y-55750000D01*
X68828707Y-55683276D01*
X69209103Y-55429103D01*
X69463276Y-55048707D01*
X69552529Y-54600000D01*
X69491094Y-54291142D01*
X77950000Y-54291142D01*
X77950000Y-54708858D01*
X78109853Y-55094777D01*
X78405223Y-55390147D01*
X78670431Y-55500000D01*
X78405223Y-55609853D01*
X78109853Y-55905223D01*
X77950000Y-56291142D01*
X77950000Y-56708858D01*
X78109853Y-57094777D01*
X78405223Y-57390147D01*
X78791142Y-57550000D01*
X79208858Y-57550000D01*
X79594777Y-57390147D01*
X79890147Y-57094777D01*
X80050000Y-56708858D01*
X80050000Y-56291142D01*
X79890147Y-55905223D01*
X79594777Y-55609853D01*
X79329569Y-55500000D01*
X79594777Y-55390147D01*
X79890147Y-55094777D01*
X80050000Y-54708858D01*
X80050000Y-54291142D01*
X79890147Y-53905223D01*
X79594777Y-53609853D01*
X79208858Y-53450000D01*
X78791142Y-53450000D01*
X78405223Y-53609853D01*
X78109853Y-53905223D01*
X77950000Y-54291142D01*
X69491094Y-54291142D01*
X69463276Y-54151293D01*
X69209103Y-53770897D01*
X68828707Y-53516724D01*
X68493261Y-53450000D01*
X68266739Y-53450000D01*
X67931293Y-53516724D01*
X67550897Y-53770897D01*
X67296724Y-54151293D01*
X67207471Y-54600000D01*
X67012529Y-54600000D01*
X66923276Y-54151293D01*
X66669103Y-53770897D01*
X66288707Y-53516724D01*
X65953261Y-53450000D01*
X65726739Y-53450000D01*
X65391293Y-53516724D01*
X65010897Y-53770897D01*
X64756724Y-54151293D01*
X64667471Y-54600000D01*
X64455877Y-54600000D01*
X64455877Y-53750000D01*
X64432593Y-53632946D01*
X64366288Y-53533712D01*
X64267054Y-53467407D01*
X64150000Y-53444123D01*
X62450000Y-53444123D01*
X62332946Y-53467407D01*
X62233712Y-53533712D01*
X62167407Y-53632946D01*
X62144123Y-53750000D01*
X50375000Y-53750000D01*
X50375000Y-52500000D01*
X54086287Y-52500000D01*
X54140615Y-52773126D01*
X54295329Y-53004671D01*
X54526874Y-53159385D01*
X54731060Y-53200000D01*
X54868940Y-53200000D01*
X55073126Y-53159385D01*
X55304671Y-53004671D01*
X55459385Y-52773126D01*
X55513713Y-52500000D01*
X55459385Y-52226874D01*
X55304671Y-51995329D01*
X55073126Y-51840615D01*
X54868940Y-51800000D01*
X54731060Y-51800000D01*
X54526874Y-51840615D01*
X54295329Y-51995329D01*
X54140615Y-52226874D01*
X54086287Y-52500000D01*
X50375000Y-52500000D01*
X50375000Y-41742501D01*
X70500000Y-41742501D01*
X70500000Y-42657499D01*
X70850154Y-43502846D01*
X71497154Y-44149846D01*
X72342501Y-44500000D01*
X73257499Y-44500000D01*
X74102846Y-44149846D01*
X74749846Y-43502846D01*
X75100000Y-42657499D01*
X75100000Y-41742501D01*
X74749846Y-40897154D01*
X74102846Y-40250154D01*
X73257499Y-39900000D01*
X72342501Y-39900000D01*
X71497154Y-40250154D01*
X70850154Y-40897154D01*
X70500000Y-41742501D01*
X50375000Y-41742501D01*
X50375000Y-38133961D01*
X50391547Y-38081798D01*
X50397952Y-38040423D01*
X50412723Y-37895000D01*
X78714286Y-37895000D01*
X78714286Y-41045000D01*
X82185715Y-41045000D01*
X82185715Y-37895000D01*
X78714286Y-37895000D01*
X50412723Y-37895000D01*
X50475545Y-37276534D01*
X50693004Y-36582621D01*
X51045552Y-35946606D01*
X51518788Y-35394473D01*
X52093384Y-34948771D01*
X52745857Y-34627715D01*
X53454341Y-34443168D01*
X54030687Y-34398821D01*
X54110255Y-34384505D01*
X54134019Y-34375000D01*
X86866039Y-34375000D01*
X86918202Y-34391547D01*
X86918202Y-34391547D01*
G37*
X86918202Y-34391547D02*
X86959577Y-34397952D01*
X87723466Y-34475545D01*
X88417379Y-34693004D01*
X89053394Y-35045552D01*
X89605527Y-35518788D01*
X90051229Y-36093384D01*
X90372285Y-36745857D01*
X90556832Y-37454341D01*
X90601179Y-38030687D01*
X90615495Y-38110255D01*
X90625001Y-38134021D01*
X90625000Y-61866039D01*
X90608453Y-61918202D01*
X90602048Y-61959577D01*
X90524455Y-62723465D01*
X90306996Y-63417379D01*
X89954446Y-64053395D01*
X89481212Y-64605527D01*
X88906616Y-65051229D01*
X88254146Y-65372285D01*
X87545659Y-65556832D01*
X86969313Y-65601179D01*
X86889746Y-65615495D01*
X86865982Y-65625000D01*
X54133961Y-65625000D01*
X54081798Y-65608453D01*
X54040423Y-65602048D01*
X53276535Y-65524455D01*
X52582621Y-65306996D01*
X51946605Y-64954446D01*
X51394473Y-64481212D01*
X50948771Y-63906616D01*
X50627715Y-63254146D01*
X50443168Y-62545659D01*
X50398821Y-61969313D01*
X50384505Y-61889746D01*
X50375000Y-61865982D01*
X50375000Y-61750000D01*
X65344123Y-61750000D01*
X65344123Y-63450000D01*
X65367407Y-63567054D01*
X65433712Y-63666288D01*
X65532946Y-63732593D01*
X65650000Y-63755877D01*
X67350000Y-63755877D01*
X67467054Y-63732593D01*
X67566288Y-63666288D01*
X67632593Y-63567054D01*
X67655877Y-63450000D01*
X67655877Y-62600000D01*
X67867471Y-62600000D01*
X67956724Y-63048707D01*
X68210897Y-63429103D01*
X68591293Y-63683276D01*
X68926739Y-63750000D01*
X69153261Y-63750000D01*
X69488707Y-63683276D01*
X69869103Y-63429103D01*
X70123276Y-63048707D01*
X70212529Y-62600000D01*
X70123276Y-62151293D01*
X69869103Y-61770897D01*
X69488707Y-61516724D01*
X69153261Y-61450000D01*
X68926739Y-61450000D01*
X68591293Y-61516724D01*
X68210897Y-61770897D01*
X67956724Y-62151293D01*
X67867471Y-62600000D01*
X67655877Y-62600000D01*
X67655877Y-61750000D01*
X67632593Y-61632946D01*
X67566288Y-61533712D01*
X67467054Y-61467407D01*
X67350000Y-61444123D01*
X65650000Y-61444123D01*
X65532946Y-61467407D01*
X65433712Y-61533712D01*
X65367407Y-61632946D01*
X65344123Y-61750000D01*
X50375000Y-61750000D01*
X50375000Y-57500000D01*
X54086287Y-57500000D01*
X54140615Y-57773126D01*
X54295329Y-58004671D01*
X54526874Y-58159385D01*
X54731060Y-58200000D01*
X54868940Y-58200000D01*
X55073126Y-58159385D01*
X55087171Y-58150000D01*
X65344123Y-58150000D01*
X65344123Y-59850000D01*
X65367407Y-59967054D01*
X65433712Y-60066288D01*
X65532946Y-60132593D01*
X65650000Y-60155877D01*
X67350000Y-60155877D01*
X67467054Y-60132593D01*
X67566288Y-60066288D01*
X67632593Y-59967054D01*
X67655877Y-59850000D01*
X67655877Y-59000000D01*
X67867471Y-59000000D01*
X67956724Y-59448707D01*
X68210897Y-59829103D01*
X68591293Y-60083276D01*
X68926739Y-60150000D01*
X69153261Y-60150000D01*
X69488707Y-60083276D01*
X69869103Y-59829103D01*
X70123276Y-59448707D01*
X70212529Y-59000000D01*
X70123276Y-58551293D01*
X69921959Y-58250000D01*
X77944123Y-58250000D01*
X77944123Y-59750000D01*
X77967407Y-59867054D01*
X78033712Y-59966288D01*
X78132946Y-60032593D01*
X78250000Y-60055877D01*
X79750000Y-60055877D01*
X79867054Y-60032593D01*
X79966288Y-59966288D01*
X80032593Y-59867054D01*
X80055877Y-59750000D01*
X80055877Y-58250000D01*
X80032593Y-58132946D01*
X79966288Y-58033712D01*
X79867054Y-57967407D01*
X79750000Y-57944123D01*
X78250000Y-57944123D01*
X78132946Y-57967407D01*
X78033712Y-58033712D01*
X77967407Y-58132946D01*
X77944123Y-58250000D01*
X69921959Y-58250000D01*
X69869103Y-58170897D01*
X69488707Y-57916724D01*
X69153261Y-57850000D01*
X68926739Y-57850000D01*
X68591293Y-57916724D01*
X68210897Y-58170897D01*
X67956724Y-58551293D01*
X67867471Y-59000000D01*
X67655877Y-59000000D01*
X67655877Y-58150000D01*
X67632593Y-58032946D01*
X67566288Y-57933712D01*
X67467054Y-57867407D01*
X67350000Y-57844123D01*
X65650000Y-57844123D01*
X65532946Y-57867407D01*
X65433712Y-57933712D01*
X65367407Y-58032946D01*
X65344123Y-58150000D01*
X55087171Y-58150000D01*
X55304671Y-58004671D01*
X55459385Y-57773126D01*
X55513713Y-57500000D01*
X55459385Y-57226874D01*
X55304671Y-56995329D01*
X55073126Y-56840615D01*
X54868940Y-56800000D01*
X54731060Y-56800000D01*
X54526874Y-56840615D01*
X54295329Y-56995329D01*
X54140615Y-57226874D01*
X54086287Y-57500000D01*
X50375000Y-57500000D01*
X50375000Y-53750000D01*
X62144123Y-53750000D01*
X62144123Y-55450000D01*
X62167407Y-55567054D01*
X62233712Y-55666288D01*
X62332946Y-55732593D01*
X62450000Y-55755877D01*
X64150000Y-55755877D01*
X64267054Y-55732593D01*
X64366288Y-55666288D01*
X64432593Y-55567054D01*
X64455877Y-55450000D01*
X64455877Y-54600000D01*
X64667471Y-54600000D01*
X64756724Y-55048707D01*
X65010897Y-55429103D01*
X65391293Y-55683276D01*
X65726739Y-55750000D01*
X65953261Y-55750000D01*
X66288707Y-55683276D01*
X66669103Y-55429103D01*
X66923276Y-55048707D01*
X67012529Y-54600000D01*
X67207471Y-54600000D01*
X67296724Y-55048707D01*
X67550897Y-55429103D01*
X67931293Y-55683276D01*
X68266739Y-55750000D01*
X68493261Y-55750000D01*
X68828707Y-55683276D01*
X69209103Y-55429103D01*
X69463276Y-55048707D01*
X69552529Y-54600000D01*
X69491094Y-54291142D01*
X77950000Y-54291142D01*
X77950000Y-54708858D01*
X78109853Y-55094777D01*
X78405223Y-55390147D01*
X78670431Y-55500000D01*
X78405223Y-55609853D01*
X78109853Y-55905223D01*
X77950000Y-56291142D01*
X77950000Y-56708858D01*
X78109853Y-57094777D01*
X78405223Y-57390147D01*
X78791142Y-57550000D01*
X79208858Y-57550000D01*
X79594777Y-57390147D01*
X79890147Y-57094777D01*
X80050000Y-56708858D01*
X80050000Y-56291142D01*
X79890147Y-55905223D01*
X79594777Y-55609853D01*
X79329569Y-55500000D01*
X79594777Y-55390147D01*
X79890147Y-55094777D01*
X80050000Y-54708858D01*
X80050000Y-54291142D01*
X79890147Y-53905223D01*
X79594777Y-53609853D01*
X79208858Y-53450000D01*
X78791142Y-53450000D01*
X78405223Y-53609853D01*
X78109853Y-53905223D01*
X77950000Y-54291142D01*
X69491094Y-54291142D01*
X69463276Y-54151293D01*
X69209103Y-53770897D01*
X68828707Y-53516724D01*
X68493261Y-53450000D01*
X68266739Y-53450000D01*
X67931293Y-53516724D01*
X67550897Y-53770897D01*
X67296724Y-54151293D01*
X67207471Y-54600000D01*
X67012529Y-54600000D01*
X66923276Y-54151293D01*
X66669103Y-53770897D01*
X66288707Y-53516724D01*
X65953261Y-53450000D01*
X65726739Y-53450000D01*
X65391293Y-53516724D01*
X65010897Y-53770897D01*
X64756724Y-54151293D01*
X64667471Y-54600000D01*
X64455877Y-54600000D01*
X64455877Y-53750000D01*
X64432593Y-53632946D01*
X64366288Y-53533712D01*
X64267054Y-53467407D01*
X64150000Y-53444123D01*
X62450000Y-53444123D01*
X62332946Y-53467407D01*
X62233712Y-53533712D01*
X62167407Y-53632946D01*
X62144123Y-53750000D01*
X50375000Y-53750000D01*
X50375000Y-52500000D01*
X54086287Y-52500000D01*
X54140615Y-52773126D01*
X54295329Y-53004671D01*
X54526874Y-53159385D01*
X54731060Y-53200000D01*
X54868940Y-53200000D01*
X55073126Y-53159385D01*
X55304671Y-53004671D01*
X55459385Y-52773126D01*
X55513713Y-52500000D01*
X55459385Y-52226874D01*
X55304671Y-51995329D01*
X55073126Y-51840615D01*
X54868940Y-51800000D01*
X54731060Y-51800000D01*
X54526874Y-51840615D01*
X54295329Y-51995329D01*
X54140615Y-52226874D01*
X54086287Y-52500000D01*
X50375000Y-52500000D01*
X50375000Y-41742501D01*
X70500000Y-41742501D01*
X70500000Y-42657499D01*
X70850154Y-43502846D01*
X71497154Y-44149846D01*
X72342501Y-44500000D01*
X73257499Y-44500000D01*
X74102846Y-44149846D01*
X74749846Y-43502846D01*
X75100000Y-42657499D01*
X75100000Y-41742501D01*
X74749846Y-40897154D01*
X74102846Y-40250154D01*
X73257499Y-39900000D01*
X72342501Y-39900000D01*
X71497154Y-40250154D01*
X70850154Y-40897154D01*
X70500000Y-41742501D01*
X50375000Y-41742501D01*
X50375000Y-38133961D01*
X50391547Y-38081798D01*
X50397952Y-38040423D01*
X50412723Y-37895000D01*
X78714286Y-37895000D01*
X78714286Y-41045000D01*
X82185715Y-41045000D01*
X82185715Y-37895000D01*
X78714286Y-37895000D01*
X50412723Y-37895000D01*
X50475545Y-37276534D01*
X50693004Y-36582621D01*
X51045552Y-35946606D01*
X51518788Y-35394473D01*
X52093384Y-34948771D01*
X52745857Y-34627715D01*
X53454341Y-34443168D01*
X54030687Y-34398821D01*
X54110255Y-34384505D01*
X54134019Y-34375000D01*
X86866039Y-34375000D01*
X86918202Y-34391547D01*
G04 #@! TD*
M02*
