G04 #@! TF.GenerationSoftware,KiCad,Pcbnew,(5.0.2-5-10.14)*
G04 #@! TF.CreationDate,2019-03-07T12:58:03+01:00*
G04 #@! TF.ProjectId,USBSwitch,55534253-7769-4746-9368-2e6b69636164,rev?*
G04 #@! TF.SameCoordinates,Original*
G04 #@! TF.FileFunction,Copper,L1,Top*
G04 #@! TF.FilePolarity,Positive*
%FSLAX46Y46*%
G04 Gerber Fmt 4.6, Leading zero omitted, Abs format (unit mm)*
G04 Created by KiCad (PCBNEW (5.0.2-5-10.14)) date 2019 March 07, Thursday 12:58:03*
%MOMM*%
%LPD*%
G01*
G04 APERTURE LIST*
G04 #@! TA.AperFunction,ComponentPad*
%ADD10C,4.000000*%
G04 #@! TD*
G04 #@! TA.AperFunction,ComponentPad*
%ADD11O,1.800000X1.150000*%
G04 #@! TD*
G04 #@! TA.AperFunction,ComponentPad*
%ADD12O,2.000000X1.450000*%
G04 #@! TD*
G04 #@! TA.AperFunction,SMDPad,CuDef*
%ADD13R,1.300000X0.450000*%
G04 #@! TD*
G04 #@! TA.AperFunction,ComponentPad*
%ADD14C,3.000000*%
G04 #@! TD*
G04 #@! TA.AperFunction,ComponentPad*
%ADD15R,1.500000X1.500000*%
G04 #@! TD*
G04 #@! TA.AperFunction,ComponentPad*
%ADD16C,1.500000*%
G04 #@! TD*
G04 #@! TA.AperFunction,ComponentPad*
%ADD17O,1.700000X1.700000*%
G04 #@! TD*
G04 #@! TA.AperFunction,ComponentPad*
%ADD18R,1.700000X1.700000*%
G04 #@! TD*
G04 #@! TA.AperFunction,Conductor*
%ADD19C,0.100000*%
G04 #@! TD*
G04 #@! TA.AperFunction,SMDPad,CuDef*
%ADD20C,0.950000*%
G04 #@! TD*
G04 #@! TA.AperFunction,ComponentPad*
%ADD21C,0.700000*%
G04 #@! TD*
G04 #@! TA.AperFunction,ComponentPad*
%ADD22C,4.400000*%
G04 #@! TD*
G04 #@! TA.AperFunction,ViaPad*
%ADD23C,0.800000*%
G04 #@! TD*
G04 #@! TA.AperFunction,Conductor*
%ADD24C,0.600000*%
G04 #@! TD*
G04 #@! TA.AperFunction,Conductor*
%ADD25C,0.250000*%
G04 #@! TD*
G04 #@! TA.AperFunction,Conductor*
%ADD26C,2.000000*%
G04 #@! TD*
G04 #@! TA.AperFunction,Conductor*
%ADD27C,1.000000*%
G04 #@! TD*
G04 #@! TA.AperFunction,Conductor*
%ADD28C,0.200000*%
G04 #@! TD*
G04 APERTURE END LIST*
D10*
G04 #@! TO.P,J2,1*
G04 #@! TO.N,GND*
X58100000Y-42200000D03*
G04 #@! TD*
G04 #@! TO.P,J1,1*
G04 #@! TO.N,+5V*
X72800000Y-42200000D03*
G04 #@! TD*
D11*
G04 #@! TO.P,J4,6*
G04 #@! TO.N,GND*
X52050000Y-58875000D03*
X52050000Y-51125000D03*
D12*
X55850000Y-58725000D03*
X55850000Y-51275000D03*
D13*
G04 #@! TO.P,J4,5*
X55900000Y-56300000D03*
G04 #@! TO.P,J4,4*
G04 #@! TO.N,N/C*
X55900000Y-55650000D03*
G04 #@! TO.P,J4,3*
G04 #@! TO.N,/D+*
X55900000Y-55000000D03*
G04 #@! TO.P,J4,2*
G04 #@! TO.N,/D-*
X55900000Y-54350000D03*
G04 #@! TO.P,J4,1*
G04 #@! TO.N,VBUS*
X55900000Y-53700000D03*
G04 #@! TD*
D14*
G04 #@! TO.P,J3,5*
G04 #@! TO.N,GND*
X81650000Y-48930000D03*
X81650000Y-62070000D03*
D15*
G04 #@! TO.P,J3,1*
G04 #@! TO.N,VCC*
X79000000Y-59000000D03*
D16*
G04 #@! TO.P,J3,2*
G04 #@! TO.N,Net-(J3-Pad2)*
X79000000Y-56500000D03*
G04 #@! TO.P,J3,3*
G04 #@! TO.N,Net-(J3-Pad3)*
X79000000Y-54500000D03*
G04 #@! TO.P,J3,4*
G04 #@! TO.N,GND*
X79000000Y-52000000D03*
G04 #@! TD*
D17*
G04 #@! TO.P,JP1,3*
G04 #@! TO.N,+5V*
X68380000Y-54600000D03*
G04 #@! TO.P,JP1,2*
G04 #@! TO.N,VCC*
X65840000Y-54600000D03*
D18*
G04 #@! TO.P,JP1,1*
G04 #@! TO.N,VBUS*
X63300000Y-54600000D03*
G04 #@! TD*
D17*
G04 #@! TO.P,JP2,2*
G04 #@! TO.N,Net-(J3-Pad3)*
X69040000Y-62600000D03*
D18*
G04 #@! TO.P,JP2,1*
G04 #@! TO.N,/D+*
X66500000Y-62600000D03*
G04 #@! TD*
D17*
G04 #@! TO.P,JP3,2*
G04 #@! TO.N,Net-(J3-Pad2)*
X69040000Y-59000000D03*
D18*
G04 #@! TO.P,JP3,1*
G04 #@! TO.N,/D-*
X66500000Y-59000000D03*
G04 #@! TD*
D19*
G04 #@! TO.N,Net-(D1-Pad2)*
G04 #@! TO.C,D1*
G36*
X82460779Y-38251144D02*
X82483834Y-38254563D01*
X82506443Y-38260227D01*
X82528387Y-38268079D01*
X82549457Y-38278044D01*
X82569448Y-38290026D01*
X82588168Y-38303910D01*
X82605438Y-38319562D01*
X82621090Y-38336832D01*
X82634974Y-38355552D01*
X82646956Y-38375543D01*
X82656921Y-38396613D01*
X82664773Y-38418557D01*
X82670437Y-38441166D01*
X82673856Y-38464221D01*
X82675000Y-38487500D01*
X82675000Y-39062500D01*
X82673856Y-39085779D01*
X82670437Y-39108834D01*
X82664773Y-39131443D01*
X82656921Y-39153387D01*
X82646956Y-39174457D01*
X82634974Y-39194448D01*
X82621090Y-39213168D01*
X82605438Y-39230438D01*
X82588168Y-39246090D01*
X82569448Y-39259974D01*
X82549457Y-39271956D01*
X82528387Y-39281921D01*
X82506443Y-39289773D01*
X82483834Y-39295437D01*
X82460779Y-39298856D01*
X82437500Y-39300000D01*
X81962500Y-39300000D01*
X81939221Y-39298856D01*
X81916166Y-39295437D01*
X81893557Y-39289773D01*
X81871613Y-39281921D01*
X81850543Y-39271956D01*
X81830552Y-39259974D01*
X81811832Y-39246090D01*
X81794562Y-39230438D01*
X81778910Y-39213168D01*
X81765026Y-39194448D01*
X81753044Y-39174457D01*
X81743079Y-39153387D01*
X81735227Y-39131443D01*
X81729563Y-39108834D01*
X81726144Y-39085779D01*
X81725000Y-39062500D01*
X81725000Y-38487500D01*
X81726144Y-38464221D01*
X81729563Y-38441166D01*
X81735227Y-38418557D01*
X81743079Y-38396613D01*
X81753044Y-38375543D01*
X81765026Y-38355552D01*
X81778910Y-38336832D01*
X81794562Y-38319562D01*
X81811832Y-38303910D01*
X81830552Y-38290026D01*
X81850543Y-38278044D01*
X81871613Y-38268079D01*
X81893557Y-38260227D01*
X81916166Y-38254563D01*
X81939221Y-38251144D01*
X81962500Y-38250000D01*
X82437500Y-38250000D01*
X82460779Y-38251144D01*
X82460779Y-38251144D01*
G37*
D20*
G04 #@! TD*
G04 #@! TO.P,D1,2*
G04 #@! TO.N,Net-(D1-Pad2)*
X82200000Y-38775000D03*
D19*
G04 #@! TO.N,GND*
G04 #@! TO.C,D1*
G36*
X82460779Y-36501144D02*
X82483834Y-36504563D01*
X82506443Y-36510227D01*
X82528387Y-36518079D01*
X82549457Y-36528044D01*
X82569448Y-36540026D01*
X82588168Y-36553910D01*
X82605438Y-36569562D01*
X82621090Y-36586832D01*
X82634974Y-36605552D01*
X82646956Y-36625543D01*
X82656921Y-36646613D01*
X82664773Y-36668557D01*
X82670437Y-36691166D01*
X82673856Y-36714221D01*
X82675000Y-36737500D01*
X82675000Y-37312500D01*
X82673856Y-37335779D01*
X82670437Y-37358834D01*
X82664773Y-37381443D01*
X82656921Y-37403387D01*
X82646956Y-37424457D01*
X82634974Y-37444448D01*
X82621090Y-37463168D01*
X82605438Y-37480438D01*
X82588168Y-37496090D01*
X82569448Y-37509974D01*
X82549457Y-37521956D01*
X82528387Y-37531921D01*
X82506443Y-37539773D01*
X82483834Y-37545437D01*
X82460779Y-37548856D01*
X82437500Y-37550000D01*
X81962500Y-37550000D01*
X81939221Y-37548856D01*
X81916166Y-37545437D01*
X81893557Y-37539773D01*
X81871613Y-37531921D01*
X81850543Y-37521956D01*
X81830552Y-37509974D01*
X81811832Y-37496090D01*
X81794562Y-37480438D01*
X81778910Y-37463168D01*
X81765026Y-37444448D01*
X81753044Y-37424457D01*
X81743079Y-37403387D01*
X81735227Y-37381443D01*
X81729563Y-37358834D01*
X81726144Y-37335779D01*
X81725000Y-37312500D01*
X81725000Y-36737500D01*
X81726144Y-36714221D01*
X81729563Y-36691166D01*
X81735227Y-36668557D01*
X81743079Y-36646613D01*
X81753044Y-36625543D01*
X81765026Y-36605552D01*
X81778910Y-36586832D01*
X81794562Y-36569562D01*
X81811832Y-36553910D01*
X81830552Y-36540026D01*
X81850543Y-36528044D01*
X81871613Y-36518079D01*
X81893557Y-36510227D01*
X81916166Y-36504563D01*
X81939221Y-36501144D01*
X81962500Y-36500000D01*
X82437500Y-36500000D01*
X82460779Y-36501144D01*
X82460779Y-36501144D01*
G37*
D20*
G04 #@! TD*
G04 #@! TO.P,D1,1*
G04 #@! TO.N,GND*
X82200000Y-37025000D03*
D19*
G04 #@! TO.N,Net-(D2-Pad2)*
G04 #@! TO.C,D2*
G36*
X60260779Y-62171144D02*
X60283834Y-62174563D01*
X60306443Y-62180227D01*
X60328387Y-62188079D01*
X60349457Y-62198044D01*
X60369448Y-62210026D01*
X60388168Y-62223910D01*
X60405438Y-62239562D01*
X60421090Y-62256832D01*
X60434974Y-62275552D01*
X60446956Y-62295543D01*
X60456921Y-62316613D01*
X60464773Y-62338557D01*
X60470437Y-62361166D01*
X60473856Y-62384221D01*
X60475000Y-62407500D01*
X60475000Y-62982500D01*
X60473856Y-63005779D01*
X60470437Y-63028834D01*
X60464773Y-63051443D01*
X60456921Y-63073387D01*
X60446956Y-63094457D01*
X60434974Y-63114448D01*
X60421090Y-63133168D01*
X60405438Y-63150438D01*
X60388168Y-63166090D01*
X60369448Y-63179974D01*
X60349457Y-63191956D01*
X60328387Y-63201921D01*
X60306443Y-63209773D01*
X60283834Y-63215437D01*
X60260779Y-63218856D01*
X60237500Y-63220000D01*
X59762500Y-63220000D01*
X59739221Y-63218856D01*
X59716166Y-63215437D01*
X59693557Y-63209773D01*
X59671613Y-63201921D01*
X59650543Y-63191956D01*
X59630552Y-63179974D01*
X59611832Y-63166090D01*
X59594562Y-63150438D01*
X59578910Y-63133168D01*
X59565026Y-63114448D01*
X59553044Y-63094457D01*
X59543079Y-63073387D01*
X59535227Y-63051443D01*
X59529563Y-63028834D01*
X59526144Y-63005779D01*
X59525000Y-62982500D01*
X59525000Y-62407500D01*
X59526144Y-62384221D01*
X59529563Y-62361166D01*
X59535227Y-62338557D01*
X59543079Y-62316613D01*
X59553044Y-62295543D01*
X59565026Y-62275552D01*
X59578910Y-62256832D01*
X59594562Y-62239562D01*
X59611832Y-62223910D01*
X59630552Y-62210026D01*
X59650543Y-62198044D01*
X59671613Y-62188079D01*
X59693557Y-62180227D01*
X59716166Y-62174563D01*
X59739221Y-62171144D01*
X59762500Y-62170000D01*
X60237500Y-62170000D01*
X60260779Y-62171144D01*
X60260779Y-62171144D01*
G37*
D20*
G04 #@! TD*
G04 #@! TO.P,D2,2*
G04 #@! TO.N,Net-(D2-Pad2)*
X60000000Y-62695000D03*
D19*
G04 #@! TO.N,GND*
G04 #@! TO.C,D2*
G36*
X60260779Y-60421144D02*
X60283834Y-60424563D01*
X60306443Y-60430227D01*
X60328387Y-60438079D01*
X60349457Y-60448044D01*
X60369448Y-60460026D01*
X60388168Y-60473910D01*
X60405438Y-60489562D01*
X60421090Y-60506832D01*
X60434974Y-60525552D01*
X60446956Y-60545543D01*
X60456921Y-60566613D01*
X60464773Y-60588557D01*
X60470437Y-60611166D01*
X60473856Y-60634221D01*
X60475000Y-60657500D01*
X60475000Y-61232500D01*
X60473856Y-61255779D01*
X60470437Y-61278834D01*
X60464773Y-61301443D01*
X60456921Y-61323387D01*
X60446956Y-61344457D01*
X60434974Y-61364448D01*
X60421090Y-61383168D01*
X60405438Y-61400438D01*
X60388168Y-61416090D01*
X60369448Y-61429974D01*
X60349457Y-61441956D01*
X60328387Y-61451921D01*
X60306443Y-61459773D01*
X60283834Y-61465437D01*
X60260779Y-61468856D01*
X60237500Y-61470000D01*
X59762500Y-61470000D01*
X59739221Y-61468856D01*
X59716166Y-61465437D01*
X59693557Y-61459773D01*
X59671613Y-61451921D01*
X59650543Y-61441956D01*
X59630552Y-61429974D01*
X59611832Y-61416090D01*
X59594562Y-61400438D01*
X59578910Y-61383168D01*
X59565026Y-61364448D01*
X59553044Y-61344457D01*
X59543079Y-61323387D01*
X59535227Y-61301443D01*
X59529563Y-61278834D01*
X59526144Y-61255779D01*
X59525000Y-61232500D01*
X59525000Y-60657500D01*
X59526144Y-60634221D01*
X59529563Y-60611166D01*
X59535227Y-60588557D01*
X59543079Y-60566613D01*
X59553044Y-60545543D01*
X59565026Y-60525552D01*
X59578910Y-60506832D01*
X59594562Y-60489562D01*
X59611832Y-60473910D01*
X59630552Y-60460026D01*
X59650543Y-60448044D01*
X59671613Y-60438079D01*
X59693557Y-60430227D01*
X59716166Y-60424563D01*
X59739221Y-60421144D01*
X59762500Y-60420000D01*
X60237500Y-60420000D01*
X60260779Y-60421144D01*
X60260779Y-60421144D01*
G37*
D20*
G04 #@! TD*
G04 #@! TO.P,D2,1*
G04 #@! TO.N,GND*
X60000000Y-60945000D03*
D19*
G04 #@! TO.N,Net-(D3-Pad2)*
G04 #@! TO.C,D3*
G36*
X74760779Y-62126144D02*
X74783834Y-62129563D01*
X74806443Y-62135227D01*
X74828387Y-62143079D01*
X74849457Y-62153044D01*
X74869448Y-62165026D01*
X74888168Y-62178910D01*
X74905438Y-62194562D01*
X74921090Y-62211832D01*
X74934974Y-62230552D01*
X74946956Y-62250543D01*
X74956921Y-62271613D01*
X74964773Y-62293557D01*
X74970437Y-62316166D01*
X74973856Y-62339221D01*
X74975000Y-62362500D01*
X74975000Y-62937500D01*
X74973856Y-62960779D01*
X74970437Y-62983834D01*
X74964773Y-63006443D01*
X74956921Y-63028387D01*
X74946956Y-63049457D01*
X74934974Y-63069448D01*
X74921090Y-63088168D01*
X74905438Y-63105438D01*
X74888168Y-63121090D01*
X74869448Y-63134974D01*
X74849457Y-63146956D01*
X74828387Y-63156921D01*
X74806443Y-63164773D01*
X74783834Y-63170437D01*
X74760779Y-63173856D01*
X74737500Y-63175000D01*
X74262500Y-63175000D01*
X74239221Y-63173856D01*
X74216166Y-63170437D01*
X74193557Y-63164773D01*
X74171613Y-63156921D01*
X74150543Y-63146956D01*
X74130552Y-63134974D01*
X74111832Y-63121090D01*
X74094562Y-63105438D01*
X74078910Y-63088168D01*
X74065026Y-63069448D01*
X74053044Y-63049457D01*
X74043079Y-63028387D01*
X74035227Y-63006443D01*
X74029563Y-62983834D01*
X74026144Y-62960779D01*
X74025000Y-62937500D01*
X74025000Y-62362500D01*
X74026144Y-62339221D01*
X74029563Y-62316166D01*
X74035227Y-62293557D01*
X74043079Y-62271613D01*
X74053044Y-62250543D01*
X74065026Y-62230552D01*
X74078910Y-62211832D01*
X74094562Y-62194562D01*
X74111832Y-62178910D01*
X74130552Y-62165026D01*
X74150543Y-62153044D01*
X74171613Y-62143079D01*
X74193557Y-62135227D01*
X74216166Y-62129563D01*
X74239221Y-62126144D01*
X74262500Y-62125000D01*
X74737500Y-62125000D01*
X74760779Y-62126144D01*
X74760779Y-62126144D01*
G37*
D20*
G04 #@! TD*
G04 #@! TO.P,D3,2*
G04 #@! TO.N,Net-(D3-Pad2)*
X74500000Y-62650000D03*
D19*
G04 #@! TO.N,GND*
G04 #@! TO.C,D3*
G36*
X74760779Y-60376144D02*
X74783834Y-60379563D01*
X74806443Y-60385227D01*
X74828387Y-60393079D01*
X74849457Y-60403044D01*
X74869448Y-60415026D01*
X74888168Y-60428910D01*
X74905438Y-60444562D01*
X74921090Y-60461832D01*
X74934974Y-60480552D01*
X74946956Y-60500543D01*
X74956921Y-60521613D01*
X74964773Y-60543557D01*
X74970437Y-60566166D01*
X74973856Y-60589221D01*
X74975000Y-60612500D01*
X74975000Y-61187500D01*
X74973856Y-61210779D01*
X74970437Y-61233834D01*
X74964773Y-61256443D01*
X74956921Y-61278387D01*
X74946956Y-61299457D01*
X74934974Y-61319448D01*
X74921090Y-61338168D01*
X74905438Y-61355438D01*
X74888168Y-61371090D01*
X74869448Y-61384974D01*
X74849457Y-61396956D01*
X74828387Y-61406921D01*
X74806443Y-61414773D01*
X74783834Y-61420437D01*
X74760779Y-61423856D01*
X74737500Y-61425000D01*
X74262500Y-61425000D01*
X74239221Y-61423856D01*
X74216166Y-61420437D01*
X74193557Y-61414773D01*
X74171613Y-61406921D01*
X74150543Y-61396956D01*
X74130552Y-61384974D01*
X74111832Y-61371090D01*
X74094562Y-61355438D01*
X74078910Y-61338168D01*
X74065026Y-61319448D01*
X74053044Y-61299457D01*
X74043079Y-61278387D01*
X74035227Y-61256443D01*
X74029563Y-61233834D01*
X74026144Y-61210779D01*
X74025000Y-61187500D01*
X74025000Y-60612500D01*
X74026144Y-60589221D01*
X74029563Y-60566166D01*
X74035227Y-60543557D01*
X74043079Y-60521613D01*
X74053044Y-60500543D01*
X74065026Y-60480552D01*
X74078910Y-60461832D01*
X74094562Y-60444562D01*
X74111832Y-60428910D01*
X74130552Y-60415026D01*
X74150543Y-60403044D01*
X74171613Y-60393079D01*
X74193557Y-60385227D01*
X74216166Y-60379563D01*
X74239221Y-60376144D01*
X74262500Y-60375000D01*
X74737500Y-60375000D01*
X74760779Y-60376144D01*
X74760779Y-60376144D01*
G37*
D20*
G04 #@! TD*
G04 #@! TO.P,D3,1*
G04 #@! TO.N,GND*
X74500000Y-60900000D03*
D21*
G04 #@! TO.P,H1,1*
G04 #@! TO.N,GND*
X88666726Y-36133274D03*
X87500000Y-35650000D03*
X86333274Y-36133274D03*
X85850000Y-37300000D03*
X86333274Y-38466726D03*
X87500000Y-38950000D03*
X88666726Y-38466726D03*
X89150000Y-37300000D03*
D22*
X87500000Y-37300000D03*
G04 #@! TD*
D21*
G04 #@! TO.P,H2,1*
G04 #@! TO.N,GND*
X54266726Y-61533274D03*
X53100000Y-61050000D03*
X51933274Y-61533274D03*
X51450000Y-62700000D03*
X51933274Y-63866726D03*
X53100000Y-64350000D03*
X54266726Y-63866726D03*
X54750000Y-62700000D03*
D22*
X53100000Y-62700000D03*
G04 #@! TD*
D19*
G04 #@! TO.N,Net-(D1-Pad2)*
G04 #@! TO.C,R1*
G36*
X80960779Y-38251144D02*
X80983834Y-38254563D01*
X81006443Y-38260227D01*
X81028387Y-38268079D01*
X81049457Y-38278044D01*
X81069448Y-38290026D01*
X81088168Y-38303910D01*
X81105438Y-38319562D01*
X81121090Y-38336832D01*
X81134974Y-38355552D01*
X81146956Y-38375543D01*
X81156921Y-38396613D01*
X81164773Y-38418557D01*
X81170437Y-38441166D01*
X81173856Y-38464221D01*
X81175000Y-38487500D01*
X81175000Y-39062500D01*
X81173856Y-39085779D01*
X81170437Y-39108834D01*
X81164773Y-39131443D01*
X81156921Y-39153387D01*
X81146956Y-39174457D01*
X81134974Y-39194448D01*
X81121090Y-39213168D01*
X81105438Y-39230438D01*
X81088168Y-39246090D01*
X81069448Y-39259974D01*
X81049457Y-39271956D01*
X81028387Y-39281921D01*
X81006443Y-39289773D01*
X80983834Y-39295437D01*
X80960779Y-39298856D01*
X80937500Y-39300000D01*
X80462500Y-39300000D01*
X80439221Y-39298856D01*
X80416166Y-39295437D01*
X80393557Y-39289773D01*
X80371613Y-39281921D01*
X80350543Y-39271956D01*
X80330552Y-39259974D01*
X80311832Y-39246090D01*
X80294562Y-39230438D01*
X80278910Y-39213168D01*
X80265026Y-39194448D01*
X80253044Y-39174457D01*
X80243079Y-39153387D01*
X80235227Y-39131443D01*
X80229563Y-39108834D01*
X80226144Y-39085779D01*
X80225000Y-39062500D01*
X80225000Y-38487500D01*
X80226144Y-38464221D01*
X80229563Y-38441166D01*
X80235227Y-38418557D01*
X80243079Y-38396613D01*
X80253044Y-38375543D01*
X80265026Y-38355552D01*
X80278910Y-38336832D01*
X80294562Y-38319562D01*
X80311832Y-38303910D01*
X80330552Y-38290026D01*
X80350543Y-38278044D01*
X80371613Y-38268079D01*
X80393557Y-38260227D01*
X80416166Y-38254563D01*
X80439221Y-38251144D01*
X80462500Y-38250000D01*
X80937500Y-38250000D01*
X80960779Y-38251144D01*
X80960779Y-38251144D01*
G37*
D20*
G04 #@! TD*
G04 #@! TO.P,R1,2*
G04 #@! TO.N,Net-(D1-Pad2)*
X80700000Y-38775000D03*
D19*
G04 #@! TO.N,+5V*
G04 #@! TO.C,R1*
G36*
X80960779Y-36501144D02*
X80983834Y-36504563D01*
X81006443Y-36510227D01*
X81028387Y-36518079D01*
X81049457Y-36528044D01*
X81069448Y-36540026D01*
X81088168Y-36553910D01*
X81105438Y-36569562D01*
X81121090Y-36586832D01*
X81134974Y-36605552D01*
X81146956Y-36625543D01*
X81156921Y-36646613D01*
X81164773Y-36668557D01*
X81170437Y-36691166D01*
X81173856Y-36714221D01*
X81175000Y-36737500D01*
X81175000Y-37312500D01*
X81173856Y-37335779D01*
X81170437Y-37358834D01*
X81164773Y-37381443D01*
X81156921Y-37403387D01*
X81146956Y-37424457D01*
X81134974Y-37444448D01*
X81121090Y-37463168D01*
X81105438Y-37480438D01*
X81088168Y-37496090D01*
X81069448Y-37509974D01*
X81049457Y-37521956D01*
X81028387Y-37531921D01*
X81006443Y-37539773D01*
X80983834Y-37545437D01*
X80960779Y-37548856D01*
X80937500Y-37550000D01*
X80462500Y-37550000D01*
X80439221Y-37548856D01*
X80416166Y-37545437D01*
X80393557Y-37539773D01*
X80371613Y-37531921D01*
X80350543Y-37521956D01*
X80330552Y-37509974D01*
X80311832Y-37496090D01*
X80294562Y-37480438D01*
X80278910Y-37463168D01*
X80265026Y-37444448D01*
X80253044Y-37424457D01*
X80243079Y-37403387D01*
X80235227Y-37381443D01*
X80229563Y-37358834D01*
X80226144Y-37335779D01*
X80225000Y-37312500D01*
X80225000Y-36737500D01*
X80226144Y-36714221D01*
X80229563Y-36691166D01*
X80235227Y-36668557D01*
X80243079Y-36646613D01*
X80253044Y-36625543D01*
X80265026Y-36605552D01*
X80278910Y-36586832D01*
X80294562Y-36569562D01*
X80311832Y-36553910D01*
X80330552Y-36540026D01*
X80350543Y-36528044D01*
X80371613Y-36518079D01*
X80393557Y-36510227D01*
X80416166Y-36504563D01*
X80439221Y-36501144D01*
X80462500Y-36500000D01*
X80937500Y-36500000D01*
X80960779Y-36501144D01*
X80960779Y-36501144D01*
G37*
D20*
G04 #@! TD*
G04 #@! TO.P,R1,1*
G04 #@! TO.N,+5V*
X80700000Y-37025000D03*
D19*
G04 #@! TO.N,Net-(D2-Pad2)*
G04 #@! TO.C,R2*
G36*
X58760779Y-62126144D02*
X58783834Y-62129563D01*
X58806443Y-62135227D01*
X58828387Y-62143079D01*
X58849457Y-62153044D01*
X58869448Y-62165026D01*
X58888168Y-62178910D01*
X58905438Y-62194562D01*
X58921090Y-62211832D01*
X58934974Y-62230552D01*
X58946956Y-62250543D01*
X58956921Y-62271613D01*
X58964773Y-62293557D01*
X58970437Y-62316166D01*
X58973856Y-62339221D01*
X58975000Y-62362500D01*
X58975000Y-62937500D01*
X58973856Y-62960779D01*
X58970437Y-62983834D01*
X58964773Y-63006443D01*
X58956921Y-63028387D01*
X58946956Y-63049457D01*
X58934974Y-63069448D01*
X58921090Y-63088168D01*
X58905438Y-63105438D01*
X58888168Y-63121090D01*
X58869448Y-63134974D01*
X58849457Y-63146956D01*
X58828387Y-63156921D01*
X58806443Y-63164773D01*
X58783834Y-63170437D01*
X58760779Y-63173856D01*
X58737500Y-63175000D01*
X58262500Y-63175000D01*
X58239221Y-63173856D01*
X58216166Y-63170437D01*
X58193557Y-63164773D01*
X58171613Y-63156921D01*
X58150543Y-63146956D01*
X58130552Y-63134974D01*
X58111832Y-63121090D01*
X58094562Y-63105438D01*
X58078910Y-63088168D01*
X58065026Y-63069448D01*
X58053044Y-63049457D01*
X58043079Y-63028387D01*
X58035227Y-63006443D01*
X58029563Y-62983834D01*
X58026144Y-62960779D01*
X58025000Y-62937500D01*
X58025000Y-62362500D01*
X58026144Y-62339221D01*
X58029563Y-62316166D01*
X58035227Y-62293557D01*
X58043079Y-62271613D01*
X58053044Y-62250543D01*
X58065026Y-62230552D01*
X58078910Y-62211832D01*
X58094562Y-62194562D01*
X58111832Y-62178910D01*
X58130552Y-62165026D01*
X58150543Y-62153044D01*
X58171613Y-62143079D01*
X58193557Y-62135227D01*
X58216166Y-62129563D01*
X58239221Y-62126144D01*
X58262500Y-62125000D01*
X58737500Y-62125000D01*
X58760779Y-62126144D01*
X58760779Y-62126144D01*
G37*
D20*
G04 #@! TD*
G04 #@! TO.P,R2,2*
G04 #@! TO.N,Net-(D2-Pad2)*
X58500000Y-62650000D03*
D19*
G04 #@! TO.N,VBUS*
G04 #@! TO.C,R2*
G36*
X58760779Y-60376144D02*
X58783834Y-60379563D01*
X58806443Y-60385227D01*
X58828387Y-60393079D01*
X58849457Y-60403044D01*
X58869448Y-60415026D01*
X58888168Y-60428910D01*
X58905438Y-60444562D01*
X58921090Y-60461832D01*
X58934974Y-60480552D01*
X58946956Y-60500543D01*
X58956921Y-60521613D01*
X58964773Y-60543557D01*
X58970437Y-60566166D01*
X58973856Y-60589221D01*
X58975000Y-60612500D01*
X58975000Y-61187500D01*
X58973856Y-61210779D01*
X58970437Y-61233834D01*
X58964773Y-61256443D01*
X58956921Y-61278387D01*
X58946956Y-61299457D01*
X58934974Y-61319448D01*
X58921090Y-61338168D01*
X58905438Y-61355438D01*
X58888168Y-61371090D01*
X58869448Y-61384974D01*
X58849457Y-61396956D01*
X58828387Y-61406921D01*
X58806443Y-61414773D01*
X58783834Y-61420437D01*
X58760779Y-61423856D01*
X58737500Y-61425000D01*
X58262500Y-61425000D01*
X58239221Y-61423856D01*
X58216166Y-61420437D01*
X58193557Y-61414773D01*
X58171613Y-61406921D01*
X58150543Y-61396956D01*
X58130552Y-61384974D01*
X58111832Y-61371090D01*
X58094562Y-61355438D01*
X58078910Y-61338168D01*
X58065026Y-61319448D01*
X58053044Y-61299457D01*
X58043079Y-61278387D01*
X58035227Y-61256443D01*
X58029563Y-61233834D01*
X58026144Y-61210779D01*
X58025000Y-61187500D01*
X58025000Y-60612500D01*
X58026144Y-60589221D01*
X58029563Y-60566166D01*
X58035227Y-60543557D01*
X58043079Y-60521613D01*
X58053044Y-60500543D01*
X58065026Y-60480552D01*
X58078910Y-60461832D01*
X58094562Y-60444562D01*
X58111832Y-60428910D01*
X58130552Y-60415026D01*
X58150543Y-60403044D01*
X58171613Y-60393079D01*
X58193557Y-60385227D01*
X58216166Y-60379563D01*
X58239221Y-60376144D01*
X58262500Y-60375000D01*
X58737500Y-60375000D01*
X58760779Y-60376144D01*
X58760779Y-60376144D01*
G37*
D20*
G04 #@! TD*
G04 #@! TO.P,R2,1*
G04 #@! TO.N,VBUS*
X58500000Y-60900000D03*
D19*
G04 #@! TO.N,Net-(D3-Pad2)*
G04 #@! TO.C,R3*
G36*
X76260779Y-62126144D02*
X76283834Y-62129563D01*
X76306443Y-62135227D01*
X76328387Y-62143079D01*
X76349457Y-62153044D01*
X76369448Y-62165026D01*
X76388168Y-62178910D01*
X76405438Y-62194562D01*
X76421090Y-62211832D01*
X76434974Y-62230552D01*
X76446956Y-62250543D01*
X76456921Y-62271613D01*
X76464773Y-62293557D01*
X76470437Y-62316166D01*
X76473856Y-62339221D01*
X76475000Y-62362500D01*
X76475000Y-62937500D01*
X76473856Y-62960779D01*
X76470437Y-62983834D01*
X76464773Y-63006443D01*
X76456921Y-63028387D01*
X76446956Y-63049457D01*
X76434974Y-63069448D01*
X76421090Y-63088168D01*
X76405438Y-63105438D01*
X76388168Y-63121090D01*
X76369448Y-63134974D01*
X76349457Y-63146956D01*
X76328387Y-63156921D01*
X76306443Y-63164773D01*
X76283834Y-63170437D01*
X76260779Y-63173856D01*
X76237500Y-63175000D01*
X75762500Y-63175000D01*
X75739221Y-63173856D01*
X75716166Y-63170437D01*
X75693557Y-63164773D01*
X75671613Y-63156921D01*
X75650543Y-63146956D01*
X75630552Y-63134974D01*
X75611832Y-63121090D01*
X75594562Y-63105438D01*
X75578910Y-63088168D01*
X75565026Y-63069448D01*
X75553044Y-63049457D01*
X75543079Y-63028387D01*
X75535227Y-63006443D01*
X75529563Y-62983834D01*
X75526144Y-62960779D01*
X75525000Y-62937500D01*
X75525000Y-62362500D01*
X75526144Y-62339221D01*
X75529563Y-62316166D01*
X75535227Y-62293557D01*
X75543079Y-62271613D01*
X75553044Y-62250543D01*
X75565026Y-62230552D01*
X75578910Y-62211832D01*
X75594562Y-62194562D01*
X75611832Y-62178910D01*
X75630552Y-62165026D01*
X75650543Y-62153044D01*
X75671613Y-62143079D01*
X75693557Y-62135227D01*
X75716166Y-62129563D01*
X75739221Y-62126144D01*
X75762500Y-62125000D01*
X76237500Y-62125000D01*
X76260779Y-62126144D01*
X76260779Y-62126144D01*
G37*
D20*
G04 #@! TD*
G04 #@! TO.P,R3,2*
G04 #@! TO.N,Net-(D3-Pad2)*
X76000000Y-62650000D03*
D19*
G04 #@! TO.N,VCC*
G04 #@! TO.C,R3*
G36*
X76260779Y-60376144D02*
X76283834Y-60379563D01*
X76306443Y-60385227D01*
X76328387Y-60393079D01*
X76349457Y-60403044D01*
X76369448Y-60415026D01*
X76388168Y-60428910D01*
X76405438Y-60444562D01*
X76421090Y-60461832D01*
X76434974Y-60480552D01*
X76446956Y-60500543D01*
X76456921Y-60521613D01*
X76464773Y-60543557D01*
X76470437Y-60566166D01*
X76473856Y-60589221D01*
X76475000Y-60612500D01*
X76475000Y-61187500D01*
X76473856Y-61210779D01*
X76470437Y-61233834D01*
X76464773Y-61256443D01*
X76456921Y-61278387D01*
X76446956Y-61299457D01*
X76434974Y-61319448D01*
X76421090Y-61338168D01*
X76405438Y-61355438D01*
X76388168Y-61371090D01*
X76369448Y-61384974D01*
X76349457Y-61396956D01*
X76328387Y-61406921D01*
X76306443Y-61414773D01*
X76283834Y-61420437D01*
X76260779Y-61423856D01*
X76237500Y-61425000D01*
X75762500Y-61425000D01*
X75739221Y-61423856D01*
X75716166Y-61420437D01*
X75693557Y-61414773D01*
X75671613Y-61406921D01*
X75650543Y-61396956D01*
X75630552Y-61384974D01*
X75611832Y-61371090D01*
X75594562Y-61355438D01*
X75578910Y-61338168D01*
X75565026Y-61319448D01*
X75553044Y-61299457D01*
X75543079Y-61278387D01*
X75535227Y-61256443D01*
X75529563Y-61233834D01*
X75526144Y-61210779D01*
X75525000Y-61187500D01*
X75525000Y-60612500D01*
X75526144Y-60589221D01*
X75529563Y-60566166D01*
X75535227Y-60543557D01*
X75543079Y-60521613D01*
X75553044Y-60500543D01*
X75565026Y-60480552D01*
X75578910Y-60461832D01*
X75594562Y-60444562D01*
X75611832Y-60428910D01*
X75630552Y-60415026D01*
X75650543Y-60403044D01*
X75671613Y-60393079D01*
X75693557Y-60385227D01*
X75716166Y-60379563D01*
X75739221Y-60376144D01*
X75762500Y-60375000D01*
X76237500Y-60375000D01*
X76260779Y-60376144D01*
X76260779Y-60376144D01*
G37*
D20*
G04 #@! TD*
G04 #@! TO.P,R3,1*
G04 #@! TO.N,VCC*
X76000000Y-60900000D03*
D23*
G04 #@! TO.N,GND*
X52000000Y-38000000D03*
X52000000Y-40000000D03*
X52000000Y-42000000D03*
X52000000Y-44000000D03*
X52000000Y-46000000D03*
X52000000Y-48000000D03*
X52000000Y-36000000D03*
X54000000Y-36000000D03*
X56000000Y-36000000D03*
X58000000Y-36000000D03*
X60000000Y-36000000D03*
X62000000Y-36000000D03*
X64000000Y-36000000D03*
X66000000Y-36000000D03*
X68000000Y-36000000D03*
X70000000Y-36000000D03*
X72000000Y-36000000D03*
X74000000Y-36000000D03*
X76000000Y-36000000D03*
X78000000Y-36000000D03*
X89000000Y-42000000D03*
X89000000Y-44000000D03*
X89000000Y-46000000D03*
X89000000Y-48000000D03*
X89000000Y-50000000D03*
X89000000Y-52000000D03*
X89000000Y-54000000D03*
X89000000Y-56000000D03*
X89000000Y-58000000D03*
X89000000Y-60000000D03*
X89000000Y-62000000D03*
X88000000Y-64000000D03*
X86000000Y-64000000D03*
X84000000Y-64000000D03*
X57000000Y-64000000D03*
X60000000Y-64000000D03*
X63000000Y-64000000D03*
X71000000Y-64000000D03*
X74000000Y-64000000D03*
X77000000Y-64000000D03*
X79000000Y-64000000D03*
X62000000Y-40000000D03*
X62000000Y-44000000D03*
X62000000Y-48000000D03*
X67000000Y-48000000D03*
X67000000Y-44000000D03*
X67000000Y-40000000D03*
X57000000Y-48000000D03*
X78000000Y-48000000D03*
X78000000Y-45000000D03*
X78000000Y-41000000D03*
X82000000Y-45000000D03*
X86000000Y-45000000D03*
X86000000Y-49000000D03*
X86000000Y-53000000D03*
X86000000Y-57000000D03*
X86000000Y-61000000D03*
X67000000Y-52000000D03*
X62000000Y-52000000D03*
X82000000Y-41000000D03*
X86000000Y-41000000D03*
X54500000Y-56300000D03*
X57300000Y-56700000D03*
X82700000Y-35900000D03*
X60955000Y-61000000D03*
X73500000Y-60899986D03*
G04 #@! TD*
D24*
G04 #@! TO.N,GND*
X82200000Y-36400000D02*
X82700000Y-35900000D01*
X82200000Y-37025000D02*
X82200000Y-36400000D01*
X60000000Y-61000000D02*
X60955000Y-61000000D01*
X74500000Y-60900000D02*
X73500014Y-60900000D01*
X73500014Y-60900000D02*
X73500000Y-60899986D01*
X56409316Y-56375001D02*
X54575001Y-56375001D01*
X56734315Y-56700000D02*
X56409316Y-56375001D01*
X54575001Y-56375001D02*
X54500000Y-56300000D01*
X57300000Y-56700000D02*
X56734315Y-56700000D01*
D25*
G04 #@! TO.N,Net-(J3-Pad3)*
X79749999Y-55249999D02*
X79000000Y-54500000D01*
X80075001Y-55575001D02*
X79749999Y-55249999D01*
X80075001Y-57016001D02*
X80075001Y-55575001D01*
X79166003Y-57924999D02*
X80075001Y-57016001D01*
X73711411Y-57924999D02*
X77989999Y-57924999D01*
X69136411Y-62500000D02*
X73686399Y-57950011D01*
X69040000Y-62500000D02*
X69136411Y-62500000D01*
X77989999Y-57924999D02*
X79166003Y-57924999D01*
G04 #@! TO.N,Net-(J3-Pad2)*
X78025012Y-57474988D02*
X79000000Y-56500000D01*
X73525012Y-57474988D02*
X78025012Y-57474988D01*
X72000000Y-59000000D02*
X73525012Y-57474988D01*
X69040000Y-59000000D02*
X72000000Y-59000000D01*
D26*
G04 #@! TO.N,+5V*
X72800000Y-50180000D02*
X72800000Y-42200000D01*
X68380000Y-54600000D02*
X72800000Y-50180000D01*
D24*
X77975000Y-37025000D02*
X80700000Y-37025000D01*
X72800000Y-42200000D02*
X77975000Y-37025000D01*
G04 #@! TO.N,VCC*
X77100000Y-60900000D02*
X76000000Y-60900000D01*
X79000000Y-59000000D02*
X77100000Y-60900000D01*
D27*
X65840000Y-55802081D02*
X66687919Y-56650000D01*
X65840000Y-54600000D02*
X65840000Y-55802081D01*
X66687919Y-56650000D02*
X71900000Y-56650000D01*
X79496002Y-50350000D02*
X81450000Y-52303998D01*
X78200000Y-50350000D02*
X79496002Y-50350000D01*
X71900000Y-56650000D02*
X78200000Y-50350000D01*
X80750000Y-59000000D02*
X79000000Y-59000000D01*
X81450000Y-58300000D02*
X80750000Y-59000000D01*
X81450000Y-52303998D02*
X81450000Y-58300000D01*
G04 #@! TO.N,VBUS*
X63300000Y-54600000D02*
X61150000Y-54600000D01*
X61150000Y-54600000D02*
X59950001Y-53400001D01*
D24*
X58399999Y-60799999D02*
X58500000Y-60900000D01*
X53599999Y-59079706D02*
X55320292Y-60799999D01*
X53599999Y-54874999D02*
X53599999Y-59079706D01*
X55320292Y-60799999D02*
X58399999Y-60799999D01*
X55074997Y-53400001D02*
X53599999Y-54874999D01*
D27*
X59950001Y-53400001D02*
X55999999Y-53400001D01*
D24*
X55074997Y-53400001D02*
X55999999Y-53400001D01*
D25*
G04 #@! TO.N,Net-(D1-Pad2)*
X80700000Y-38775000D02*
X82200000Y-38775000D01*
G04 #@! TO.N,Net-(D2-Pad2)*
X60000000Y-62695000D02*
X58545000Y-62695000D01*
G04 #@! TO.N,Net-(D3-Pad2)*
X74500000Y-62650000D02*
X76000000Y-62650000D01*
G04 #@! TO.N,/D-*
X64900000Y-60600000D02*
X66500000Y-59000000D01*
X63050000Y-60600000D02*
X64900000Y-60600000D01*
X56800000Y-54350000D02*
X63050000Y-60600000D01*
X55900000Y-54350000D02*
X56800000Y-54350000D01*
G04 #@! TO.N,/D+*
X64349990Y-62500000D02*
X66500000Y-62500000D01*
X64800000Y-62500000D02*
X64349990Y-62500000D01*
X55900000Y-55000000D02*
X56800000Y-55000000D01*
X64300000Y-62500000D02*
X64349990Y-62500000D01*
X56800000Y-55000000D02*
X64300000Y-62500000D01*
G04 #@! TD*
D28*
G04 #@! TO.N,GND*
G36*
X86918202Y-34391547D02*
X86959577Y-34397952D01*
X87723466Y-34475545D01*
X88417379Y-34693004D01*
X89053394Y-35045552D01*
X89605527Y-35518788D01*
X90051229Y-36093384D01*
X90372285Y-36745857D01*
X90556832Y-37454341D01*
X90601179Y-38030687D01*
X90615495Y-38110255D01*
X90625001Y-38134021D01*
X90625000Y-61866039D01*
X90608453Y-61918202D01*
X90602048Y-61959577D01*
X90524455Y-62723465D01*
X90306996Y-63417379D01*
X89954446Y-64053395D01*
X89481212Y-64605527D01*
X88906616Y-65051229D01*
X88254146Y-65372285D01*
X87545659Y-65556832D01*
X86969313Y-65601179D01*
X86889746Y-65615495D01*
X86865982Y-65625000D01*
X54133961Y-65625000D01*
X54081798Y-65608453D01*
X54040423Y-65602048D01*
X53276535Y-65524455D01*
X52582621Y-65306996D01*
X51946605Y-64954446D01*
X51394473Y-64481212D01*
X50948771Y-63906616D01*
X50627715Y-63254146D01*
X50443168Y-62545659D01*
X50429075Y-62362500D01*
X57719123Y-62362500D01*
X57719123Y-62937500D01*
X57760485Y-63145441D01*
X57878274Y-63321726D01*
X58054559Y-63439515D01*
X58262500Y-63480877D01*
X58737500Y-63480877D01*
X58945441Y-63439515D01*
X59121726Y-63321726D01*
X59239515Y-63145441D01*
X59244576Y-63120000D01*
X59246473Y-63120000D01*
X59260485Y-63190441D01*
X59378274Y-63366726D01*
X59554559Y-63484515D01*
X59762500Y-63525877D01*
X60237500Y-63525877D01*
X60445441Y-63484515D01*
X60621726Y-63366726D01*
X60739515Y-63190441D01*
X60780877Y-62982500D01*
X60780877Y-62407500D01*
X60739515Y-62199559D01*
X60621726Y-62023274D01*
X60445441Y-61905485D01*
X60237500Y-61864123D01*
X59762500Y-61864123D01*
X59554559Y-61905485D01*
X59378274Y-62023274D01*
X59260485Y-62199559D01*
X59254476Y-62229771D01*
X59239515Y-62154559D01*
X59121726Y-61978274D01*
X58945441Y-61860485D01*
X58737500Y-61819123D01*
X58262500Y-61819123D01*
X58054559Y-61860485D01*
X57878274Y-61978274D01*
X57760485Y-62154559D01*
X57719123Y-62362500D01*
X50429075Y-62362500D01*
X50398821Y-61969313D01*
X50384505Y-61889746D01*
X50375000Y-61865982D01*
X50375000Y-54874999D01*
X52988246Y-54874999D01*
X52999999Y-54934085D01*
X53000000Y-59020615D01*
X52988246Y-59079706D01*
X53034813Y-59313814D01*
X53114669Y-59433326D01*
X53167425Y-59512281D01*
X53217519Y-59545753D01*
X54854244Y-61182479D01*
X54887717Y-61232574D01*
X55086184Y-61365186D01*
X55261201Y-61399999D01*
X55261204Y-61399999D01*
X55320292Y-61411752D01*
X55379380Y-61399999D01*
X57763531Y-61399999D01*
X57878274Y-61571726D01*
X58054559Y-61689515D01*
X58262500Y-61730877D01*
X58737500Y-61730877D01*
X58945441Y-61689515D01*
X59121726Y-61571726D01*
X59239515Y-61395441D01*
X59280877Y-61187500D01*
X59280877Y-60612500D01*
X59239515Y-60404559D01*
X59121726Y-60228274D01*
X58945441Y-60110485D01*
X58737500Y-60069123D01*
X58262500Y-60069123D01*
X58054559Y-60110485D01*
X57920591Y-60199999D01*
X55568820Y-60199999D01*
X54199999Y-58831179D01*
X54199999Y-57862000D01*
X54295329Y-58004671D01*
X54526874Y-58159385D01*
X54731060Y-58200000D01*
X54868940Y-58200000D01*
X55073126Y-58159385D01*
X55304671Y-58004671D01*
X55459385Y-57773126D01*
X55513713Y-57500000D01*
X55459385Y-57226874D01*
X55304671Y-56995329D01*
X55073126Y-56840615D01*
X54868940Y-56800000D01*
X54731060Y-56800000D01*
X54526874Y-56840615D01*
X54295329Y-56995329D01*
X54199999Y-57138000D01*
X54199999Y-55123526D01*
X54944123Y-54379403D01*
X54944123Y-54575000D01*
X54964015Y-54675000D01*
X54944123Y-54775000D01*
X54944123Y-55225000D01*
X54964015Y-55325000D01*
X54944123Y-55425000D01*
X54944123Y-55875000D01*
X54967407Y-55992054D01*
X55033712Y-56091288D01*
X55132946Y-56157593D01*
X55250000Y-56180877D01*
X56550000Y-56180877D01*
X56667054Y-56157593D01*
X56766288Y-56091288D01*
X56832593Y-55992054D01*
X56855877Y-55875000D01*
X56855877Y-55656917D01*
X63969881Y-62770922D01*
X63993592Y-62806408D01*
X64029077Y-62830118D01*
X64134173Y-62900341D01*
X64300000Y-62933326D01*
X64341857Y-62925000D01*
X65344123Y-62925000D01*
X65344123Y-63450000D01*
X65367407Y-63567054D01*
X65433712Y-63666288D01*
X65532946Y-63732593D01*
X65650000Y-63755877D01*
X67350000Y-63755877D01*
X67467054Y-63732593D01*
X67566288Y-63666288D01*
X67632593Y-63567054D01*
X67655877Y-63450000D01*
X67655877Y-61750000D01*
X67632593Y-61632946D01*
X67566288Y-61533712D01*
X67467054Y-61467407D01*
X67350000Y-61444123D01*
X65650000Y-61444123D01*
X65532946Y-61467407D01*
X65433712Y-61533712D01*
X65367407Y-61632946D01*
X65344123Y-61750000D01*
X65344123Y-62075000D01*
X64476041Y-62075000D01*
X63426041Y-61025000D01*
X64858143Y-61025000D01*
X64900000Y-61033326D01*
X64941857Y-61025000D01*
X64941858Y-61025000D01*
X65065827Y-61000341D01*
X65206408Y-60906408D01*
X65230121Y-60870919D01*
X65945163Y-60155877D01*
X67350000Y-60155877D01*
X67467054Y-60132593D01*
X67566288Y-60066288D01*
X67632593Y-59967054D01*
X67655877Y-59850000D01*
X67655877Y-58150000D01*
X67632593Y-58032946D01*
X67566288Y-57933712D01*
X67467054Y-57867407D01*
X67350000Y-57844123D01*
X65650000Y-57844123D01*
X65532946Y-57867407D01*
X65433712Y-57933712D01*
X65367407Y-58032946D01*
X65344123Y-58150000D01*
X65344123Y-59554837D01*
X64723960Y-60175000D01*
X63226041Y-60175000D01*
X57251041Y-54200001D01*
X59618631Y-54200001D01*
X60528603Y-55109974D01*
X60573233Y-55176767D01*
X60640025Y-55221396D01*
X60640026Y-55221397D01*
X60645888Y-55225314D01*
X60837856Y-55353583D01*
X61071211Y-55400000D01*
X61071216Y-55400000D01*
X61150000Y-55415671D01*
X61228784Y-55400000D01*
X62144123Y-55400000D01*
X62144123Y-55450000D01*
X62167407Y-55567054D01*
X62233712Y-55666288D01*
X62332946Y-55732593D01*
X62450000Y-55755877D01*
X64150000Y-55755877D01*
X64267054Y-55732593D01*
X64366288Y-55666288D01*
X64432593Y-55567054D01*
X64455877Y-55450000D01*
X64455877Y-54600000D01*
X64667471Y-54600000D01*
X64756724Y-55048707D01*
X65010897Y-55429103D01*
X65040001Y-55448549D01*
X65040001Y-55723293D01*
X65024329Y-55802081D01*
X65040001Y-55880870D01*
X65044824Y-55905119D01*
X65086418Y-56114225D01*
X65218603Y-56312054D01*
X65218605Y-56312056D01*
X65263234Y-56378848D01*
X65330026Y-56423477D01*
X66066521Y-57159972D01*
X66111152Y-57226767D01*
X66254290Y-57322409D01*
X66375774Y-57403583D01*
X66687919Y-57465672D01*
X66766708Y-57450000D01*
X71821216Y-57450000D01*
X71900000Y-57465671D01*
X71978784Y-57450000D01*
X71978789Y-57450000D01*
X72212144Y-57403583D01*
X72476767Y-57226767D01*
X72521398Y-57159972D01*
X78531371Y-51150000D01*
X79164632Y-51150000D01*
X80650000Y-52635369D01*
X80650001Y-57968628D01*
X80418630Y-58200000D01*
X80045931Y-58200000D01*
X80032593Y-58132946D01*
X79966288Y-58033712D01*
X79867054Y-57967407D01*
X79750000Y-57944123D01*
X79747919Y-57944123D01*
X80345924Y-57346119D01*
X80381409Y-57322409D01*
X80475342Y-57181828D01*
X80500001Y-57057859D01*
X80500001Y-57057858D01*
X80508327Y-57016002D01*
X80500001Y-56974144D01*
X80500001Y-55616858D01*
X80508327Y-55575000D01*
X80475342Y-55409174D01*
X80405119Y-55304078D01*
X80381409Y-55268593D01*
X80345923Y-55244882D01*
X80080119Y-54979079D01*
X80080117Y-54979076D01*
X79979676Y-54878635D01*
X80050000Y-54708858D01*
X80050000Y-54291142D01*
X79890147Y-53905223D01*
X79594777Y-53609853D01*
X79208858Y-53450000D01*
X78791142Y-53450000D01*
X78405223Y-53609853D01*
X78109853Y-53905223D01*
X77950000Y-54291142D01*
X77950000Y-54708858D01*
X78109853Y-55094777D01*
X78405223Y-55390147D01*
X78670431Y-55500000D01*
X78405223Y-55609853D01*
X78109853Y-55905223D01*
X77950000Y-56291142D01*
X77950000Y-56708858D01*
X78020324Y-56878635D01*
X77848972Y-57049988D01*
X73566869Y-57049988D01*
X73525012Y-57041662D01*
X73483154Y-57049988D01*
X73359185Y-57074647D01*
X73218604Y-57168580D01*
X73194893Y-57204066D01*
X71823960Y-58575000D01*
X70127992Y-58575000D01*
X70123276Y-58551293D01*
X69869103Y-58170897D01*
X69488707Y-57916724D01*
X69153261Y-57850000D01*
X68926739Y-57850000D01*
X68591293Y-57916724D01*
X68210897Y-58170897D01*
X67956724Y-58551293D01*
X67867471Y-59000000D01*
X67956724Y-59448707D01*
X68210897Y-59829103D01*
X68591293Y-60083276D01*
X68926739Y-60150000D01*
X69153261Y-60150000D01*
X69488707Y-60083276D01*
X69869103Y-59829103D01*
X70123276Y-59448707D01*
X70127992Y-59425000D01*
X71610370Y-59425000D01*
X69506655Y-61528716D01*
X69488707Y-61516724D01*
X69153261Y-61450000D01*
X68926739Y-61450000D01*
X68591293Y-61516724D01*
X68210897Y-61770897D01*
X67956724Y-62151293D01*
X67867471Y-62600000D01*
X67956724Y-63048707D01*
X68210897Y-63429103D01*
X68591293Y-63683276D01*
X68926739Y-63750000D01*
X69153261Y-63750000D01*
X69488707Y-63683276D01*
X69869103Y-63429103D01*
X70123276Y-63048707D01*
X70212529Y-62600000D01*
X70165288Y-62362500D01*
X73719123Y-62362500D01*
X73719123Y-62937500D01*
X73760485Y-63145441D01*
X73878274Y-63321726D01*
X74054559Y-63439515D01*
X74262500Y-63480877D01*
X74737500Y-63480877D01*
X74945441Y-63439515D01*
X75121726Y-63321726D01*
X75239515Y-63145441D01*
X75250000Y-63092729D01*
X75260485Y-63145441D01*
X75378274Y-63321726D01*
X75554559Y-63439515D01*
X75762500Y-63480877D01*
X76237500Y-63480877D01*
X76445441Y-63439515D01*
X76621726Y-63321726D01*
X76739515Y-63145441D01*
X76780877Y-62937500D01*
X76780877Y-62362500D01*
X76739515Y-62154559D01*
X76621726Y-61978274D01*
X76445441Y-61860485D01*
X76237500Y-61819123D01*
X75762500Y-61819123D01*
X75554559Y-61860485D01*
X75378274Y-61978274D01*
X75260485Y-62154559D01*
X75250000Y-62207271D01*
X75239515Y-62154559D01*
X75121726Y-61978274D01*
X74945441Y-61860485D01*
X74737500Y-61819123D01*
X74262500Y-61819123D01*
X74054559Y-61860485D01*
X73878274Y-61978274D01*
X73760485Y-62154559D01*
X73719123Y-62362500D01*
X70165288Y-62362500D01*
X70123276Y-62151293D01*
X70108409Y-62129042D01*
X73887452Y-58349999D01*
X77944123Y-58349999D01*
X77944123Y-59207349D01*
X76851473Y-60300000D01*
X76669651Y-60300000D01*
X76621726Y-60228274D01*
X76445441Y-60110485D01*
X76237500Y-60069123D01*
X75762500Y-60069123D01*
X75554559Y-60110485D01*
X75378274Y-60228274D01*
X75260485Y-60404559D01*
X75219123Y-60612500D01*
X75219123Y-61187500D01*
X75260485Y-61395441D01*
X75378274Y-61571726D01*
X75554559Y-61689515D01*
X75762500Y-61730877D01*
X76237500Y-61730877D01*
X76445441Y-61689515D01*
X76621726Y-61571726D01*
X76669651Y-61500000D01*
X77040914Y-61500000D01*
X77100000Y-61511753D01*
X77159086Y-61500000D01*
X77159091Y-61500000D01*
X77334108Y-61465187D01*
X77532575Y-61332575D01*
X77566049Y-61282478D01*
X78792651Y-60055877D01*
X79750000Y-60055877D01*
X79867054Y-60032593D01*
X79966288Y-59966288D01*
X80032593Y-59867054D01*
X80045931Y-59800000D01*
X80671216Y-59800000D01*
X80750000Y-59815671D01*
X80828784Y-59800000D01*
X80828789Y-59800000D01*
X81062144Y-59753583D01*
X81326767Y-59576767D01*
X81371398Y-59509972D01*
X81959974Y-58921397D01*
X82026767Y-58876767D01*
X82203583Y-58612144D01*
X82250000Y-58378789D01*
X82250000Y-58378785D01*
X82265671Y-58300001D01*
X82250000Y-58221217D01*
X82250000Y-52382781D01*
X82265671Y-52303997D01*
X82250000Y-52225213D01*
X82250000Y-52225209D01*
X82203583Y-51991854D01*
X82026767Y-51727231D01*
X81959975Y-51682602D01*
X80117400Y-49840028D01*
X80072769Y-49773233D01*
X79808146Y-49596417D01*
X79574791Y-49550000D01*
X79574786Y-49550000D01*
X79496002Y-49534329D01*
X79417218Y-49550000D01*
X78278783Y-49550000D01*
X78199999Y-49534329D01*
X78121215Y-49550000D01*
X78121211Y-49550000D01*
X77887856Y-49596417D01*
X77623233Y-49773233D01*
X77578604Y-49840025D01*
X71568630Y-55850000D01*
X68759402Y-55850000D01*
X68887234Y-55824573D01*
X69208702Y-55609774D01*
X73628703Y-51189774D01*
X73737247Y-51117247D01*
X74024573Y-50687235D01*
X74100000Y-50308037D01*
X74100000Y-50308033D01*
X74125467Y-50180000D01*
X74100000Y-50051967D01*
X74100000Y-44151025D01*
X74102846Y-44149846D01*
X74749846Y-43502846D01*
X75100000Y-42657499D01*
X75100000Y-41742501D01*
X74808872Y-41039655D01*
X77361027Y-38487500D01*
X79919123Y-38487500D01*
X79919123Y-39062500D01*
X79960485Y-39270441D01*
X80078274Y-39446726D01*
X80254559Y-39564515D01*
X80462500Y-39605877D01*
X80937500Y-39605877D01*
X81145441Y-39564515D01*
X81321726Y-39446726D01*
X81439515Y-39270441D01*
X81450000Y-39217729D01*
X81460485Y-39270441D01*
X81578274Y-39446726D01*
X81754559Y-39564515D01*
X81962500Y-39605877D01*
X82437500Y-39605877D01*
X82645441Y-39564515D01*
X82821726Y-39446726D01*
X82939515Y-39270441D01*
X82980877Y-39062500D01*
X82980877Y-38487500D01*
X82939515Y-38279559D01*
X82821726Y-38103274D01*
X82645441Y-37985485D01*
X82437500Y-37944123D01*
X81962500Y-37944123D01*
X81754559Y-37985485D01*
X81578274Y-38103274D01*
X81460485Y-38279559D01*
X81450000Y-38332271D01*
X81439515Y-38279559D01*
X81321726Y-38103274D01*
X81145441Y-37985485D01*
X80937500Y-37944123D01*
X80462500Y-37944123D01*
X80254559Y-37985485D01*
X80078274Y-38103274D01*
X79960485Y-38279559D01*
X79919123Y-38487500D01*
X77361027Y-38487500D01*
X78223528Y-37625000D01*
X80030349Y-37625000D01*
X80078274Y-37696726D01*
X80254559Y-37814515D01*
X80462500Y-37855877D01*
X80937500Y-37855877D01*
X81145441Y-37814515D01*
X81321726Y-37696726D01*
X81439515Y-37520441D01*
X81480877Y-37312500D01*
X81480877Y-36737500D01*
X81439515Y-36529559D01*
X81321726Y-36353274D01*
X81145441Y-36235485D01*
X80937500Y-36194123D01*
X80462500Y-36194123D01*
X80254559Y-36235485D01*
X80078274Y-36353274D01*
X80030349Y-36425000D01*
X78034086Y-36425000D01*
X77974999Y-36413247D01*
X77915913Y-36425000D01*
X77915909Y-36425000D01*
X77740892Y-36459813D01*
X77542425Y-36592425D01*
X77508953Y-36642519D01*
X73960345Y-40191128D01*
X73257499Y-39900000D01*
X72342501Y-39900000D01*
X71497154Y-40250154D01*
X70850154Y-40897154D01*
X70500000Y-41742501D01*
X70500000Y-42657499D01*
X70850154Y-43502846D01*
X71497154Y-44149846D01*
X71500001Y-44151025D01*
X71500000Y-49641523D01*
X67370226Y-53771298D01*
X67155427Y-54092766D01*
X67054533Y-54600000D01*
X67155427Y-55107234D01*
X67442753Y-55537247D01*
X67872766Y-55824573D01*
X68000598Y-55850000D01*
X67019289Y-55850000D01*
X66640000Y-55470711D01*
X66640000Y-55448549D01*
X66669103Y-55429103D01*
X66923276Y-55048707D01*
X67012529Y-54600000D01*
X66923276Y-54151293D01*
X66669103Y-53770897D01*
X66288707Y-53516724D01*
X65953261Y-53450000D01*
X65726739Y-53450000D01*
X65391293Y-53516724D01*
X65010897Y-53770897D01*
X64756724Y-54151293D01*
X64667471Y-54600000D01*
X64455877Y-54600000D01*
X64455877Y-53750000D01*
X64432593Y-53632946D01*
X64366288Y-53533712D01*
X64267054Y-53467407D01*
X64150000Y-53444123D01*
X62450000Y-53444123D01*
X62332946Y-53467407D01*
X62233712Y-53533712D01*
X62167407Y-53632946D01*
X62144123Y-53750000D01*
X62144123Y-53800000D01*
X61481371Y-53800000D01*
X60571399Y-52890029D01*
X60526768Y-52823234D01*
X60262145Y-52646418D01*
X60028790Y-52600001D01*
X60028785Y-52600001D01*
X59950001Y-52584330D01*
X59871217Y-52600001D01*
X55921210Y-52600001D01*
X55687855Y-52646418D01*
X55458003Y-52800001D01*
X55441428Y-52800001D01*
X55459385Y-52773126D01*
X55513713Y-52500000D01*
X55459385Y-52226874D01*
X55304671Y-51995329D01*
X55073126Y-51840615D01*
X54868940Y-51800000D01*
X54731060Y-51800000D01*
X54526874Y-51840615D01*
X54295329Y-51995329D01*
X54140615Y-52226874D01*
X54086287Y-52500000D01*
X54140615Y-52773126D01*
X54295329Y-53004671D01*
X54491033Y-53135437D01*
X53217521Y-54408950D01*
X53167424Y-54442424D01*
X53034812Y-54640892D01*
X52999999Y-54815909D01*
X52999999Y-54815913D01*
X52988246Y-54874999D01*
X50375000Y-54874999D01*
X50375000Y-38133961D01*
X50391547Y-38081798D01*
X50397952Y-38040423D01*
X50475545Y-37276534D01*
X50693004Y-36582621D01*
X51045552Y-35946606D01*
X51518788Y-35394473D01*
X52093384Y-34948771D01*
X52745857Y-34627715D01*
X53454341Y-34443168D01*
X54030687Y-34398821D01*
X54110255Y-34384505D01*
X54134019Y-34375000D01*
X86866039Y-34375000D01*
X86918202Y-34391547D01*
X86918202Y-34391547D01*
G37*
X86918202Y-34391547D02*
X86959577Y-34397952D01*
X87723466Y-34475545D01*
X88417379Y-34693004D01*
X89053394Y-35045552D01*
X89605527Y-35518788D01*
X90051229Y-36093384D01*
X90372285Y-36745857D01*
X90556832Y-37454341D01*
X90601179Y-38030687D01*
X90615495Y-38110255D01*
X90625001Y-38134021D01*
X90625000Y-61866039D01*
X90608453Y-61918202D01*
X90602048Y-61959577D01*
X90524455Y-62723465D01*
X90306996Y-63417379D01*
X89954446Y-64053395D01*
X89481212Y-64605527D01*
X88906616Y-65051229D01*
X88254146Y-65372285D01*
X87545659Y-65556832D01*
X86969313Y-65601179D01*
X86889746Y-65615495D01*
X86865982Y-65625000D01*
X54133961Y-65625000D01*
X54081798Y-65608453D01*
X54040423Y-65602048D01*
X53276535Y-65524455D01*
X52582621Y-65306996D01*
X51946605Y-64954446D01*
X51394473Y-64481212D01*
X50948771Y-63906616D01*
X50627715Y-63254146D01*
X50443168Y-62545659D01*
X50429075Y-62362500D01*
X57719123Y-62362500D01*
X57719123Y-62937500D01*
X57760485Y-63145441D01*
X57878274Y-63321726D01*
X58054559Y-63439515D01*
X58262500Y-63480877D01*
X58737500Y-63480877D01*
X58945441Y-63439515D01*
X59121726Y-63321726D01*
X59239515Y-63145441D01*
X59244576Y-63120000D01*
X59246473Y-63120000D01*
X59260485Y-63190441D01*
X59378274Y-63366726D01*
X59554559Y-63484515D01*
X59762500Y-63525877D01*
X60237500Y-63525877D01*
X60445441Y-63484515D01*
X60621726Y-63366726D01*
X60739515Y-63190441D01*
X60780877Y-62982500D01*
X60780877Y-62407500D01*
X60739515Y-62199559D01*
X60621726Y-62023274D01*
X60445441Y-61905485D01*
X60237500Y-61864123D01*
X59762500Y-61864123D01*
X59554559Y-61905485D01*
X59378274Y-62023274D01*
X59260485Y-62199559D01*
X59254476Y-62229771D01*
X59239515Y-62154559D01*
X59121726Y-61978274D01*
X58945441Y-61860485D01*
X58737500Y-61819123D01*
X58262500Y-61819123D01*
X58054559Y-61860485D01*
X57878274Y-61978274D01*
X57760485Y-62154559D01*
X57719123Y-62362500D01*
X50429075Y-62362500D01*
X50398821Y-61969313D01*
X50384505Y-61889746D01*
X50375000Y-61865982D01*
X50375000Y-54874999D01*
X52988246Y-54874999D01*
X52999999Y-54934085D01*
X53000000Y-59020615D01*
X52988246Y-59079706D01*
X53034813Y-59313814D01*
X53114669Y-59433326D01*
X53167425Y-59512281D01*
X53217519Y-59545753D01*
X54854244Y-61182479D01*
X54887717Y-61232574D01*
X55086184Y-61365186D01*
X55261201Y-61399999D01*
X55261204Y-61399999D01*
X55320292Y-61411752D01*
X55379380Y-61399999D01*
X57763531Y-61399999D01*
X57878274Y-61571726D01*
X58054559Y-61689515D01*
X58262500Y-61730877D01*
X58737500Y-61730877D01*
X58945441Y-61689515D01*
X59121726Y-61571726D01*
X59239515Y-61395441D01*
X59280877Y-61187500D01*
X59280877Y-60612500D01*
X59239515Y-60404559D01*
X59121726Y-60228274D01*
X58945441Y-60110485D01*
X58737500Y-60069123D01*
X58262500Y-60069123D01*
X58054559Y-60110485D01*
X57920591Y-60199999D01*
X55568820Y-60199999D01*
X54199999Y-58831179D01*
X54199999Y-57862000D01*
X54295329Y-58004671D01*
X54526874Y-58159385D01*
X54731060Y-58200000D01*
X54868940Y-58200000D01*
X55073126Y-58159385D01*
X55304671Y-58004671D01*
X55459385Y-57773126D01*
X55513713Y-57500000D01*
X55459385Y-57226874D01*
X55304671Y-56995329D01*
X55073126Y-56840615D01*
X54868940Y-56800000D01*
X54731060Y-56800000D01*
X54526874Y-56840615D01*
X54295329Y-56995329D01*
X54199999Y-57138000D01*
X54199999Y-55123526D01*
X54944123Y-54379403D01*
X54944123Y-54575000D01*
X54964015Y-54675000D01*
X54944123Y-54775000D01*
X54944123Y-55225000D01*
X54964015Y-55325000D01*
X54944123Y-55425000D01*
X54944123Y-55875000D01*
X54967407Y-55992054D01*
X55033712Y-56091288D01*
X55132946Y-56157593D01*
X55250000Y-56180877D01*
X56550000Y-56180877D01*
X56667054Y-56157593D01*
X56766288Y-56091288D01*
X56832593Y-55992054D01*
X56855877Y-55875000D01*
X56855877Y-55656917D01*
X63969881Y-62770922D01*
X63993592Y-62806408D01*
X64029077Y-62830118D01*
X64134173Y-62900341D01*
X64300000Y-62933326D01*
X64341857Y-62925000D01*
X65344123Y-62925000D01*
X65344123Y-63450000D01*
X65367407Y-63567054D01*
X65433712Y-63666288D01*
X65532946Y-63732593D01*
X65650000Y-63755877D01*
X67350000Y-63755877D01*
X67467054Y-63732593D01*
X67566288Y-63666288D01*
X67632593Y-63567054D01*
X67655877Y-63450000D01*
X67655877Y-61750000D01*
X67632593Y-61632946D01*
X67566288Y-61533712D01*
X67467054Y-61467407D01*
X67350000Y-61444123D01*
X65650000Y-61444123D01*
X65532946Y-61467407D01*
X65433712Y-61533712D01*
X65367407Y-61632946D01*
X65344123Y-61750000D01*
X65344123Y-62075000D01*
X64476041Y-62075000D01*
X63426041Y-61025000D01*
X64858143Y-61025000D01*
X64900000Y-61033326D01*
X64941857Y-61025000D01*
X64941858Y-61025000D01*
X65065827Y-61000341D01*
X65206408Y-60906408D01*
X65230121Y-60870919D01*
X65945163Y-60155877D01*
X67350000Y-60155877D01*
X67467054Y-60132593D01*
X67566288Y-60066288D01*
X67632593Y-59967054D01*
X67655877Y-59850000D01*
X67655877Y-58150000D01*
X67632593Y-58032946D01*
X67566288Y-57933712D01*
X67467054Y-57867407D01*
X67350000Y-57844123D01*
X65650000Y-57844123D01*
X65532946Y-57867407D01*
X65433712Y-57933712D01*
X65367407Y-58032946D01*
X65344123Y-58150000D01*
X65344123Y-59554837D01*
X64723960Y-60175000D01*
X63226041Y-60175000D01*
X57251041Y-54200001D01*
X59618631Y-54200001D01*
X60528603Y-55109974D01*
X60573233Y-55176767D01*
X60640025Y-55221396D01*
X60640026Y-55221397D01*
X60645888Y-55225314D01*
X60837856Y-55353583D01*
X61071211Y-55400000D01*
X61071216Y-55400000D01*
X61150000Y-55415671D01*
X61228784Y-55400000D01*
X62144123Y-55400000D01*
X62144123Y-55450000D01*
X62167407Y-55567054D01*
X62233712Y-55666288D01*
X62332946Y-55732593D01*
X62450000Y-55755877D01*
X64150000Y-55755877D01*
X64267054Y-55732593D01*
X64366288Y-55666288D01*
X64432593Y-55567054D01*
X64455877Y-55450000D01*
X64455877Y-54600000D01*
X64667471Y-54600000D01*
X64756724Y-55048707D01*
X65010897Y-55429103D01*
X65040001Y-55448549D01*
X65040001Y-55723293D01*
X65024329Y-55802081D01*
X65040001Y-55880870D01*
X65044824Y-55905119D01*
X65086418Y-56114225D01*
X65218603Y-56312054D01*
X65218605Y-56312056D01*
X65263234Y-56378848D01*
X65330026Y-56423477D01*
X66066521Y-57159972D01*
X66111152Y-57226767D01*
X66254290Y-57322409D01*
X66375774Y-57403583D01*
X66687919Y-57465672D01*
X66766708Y-57450000D01*
X71821216Y-57450000D01*
X71900000Y-57465671D01*
X71978784Y-57450000D01*
X71978789Y-57450000D01*
X72212144Y-57403583D01*
X72476767Y-57226767D01*
X72521398Y-57159972D01*
X78531371Y-51150000D01*
X79164632Y-51150000D01*
X80650000Y-52635369D01*
X80650001Y-57968628D01*
X80418630Y-58200000D01*
X80045931Y-58200000D01*
X80032593Y-58132946D01*
X79966288Y-58033712D01*
X79867054Y-57967407D01*
X79750000Y-57944123D01*
X79747919Y-57944123D01*
X80345924Y-57346119D01*
X80381409Y-57322409D01*
X80475342Y-57181828D01*
X80500001Y-57057859D01*
X80500001Y-57057858D01*
X80508327Y-57016002D01*
X80500001Y-56974144D01*
X80500001Y-55616858D01*
X80508327Y-55575000D01*
X80475342Y-55409174D01*
X80405119Y-55304078D01*
X80381409Y-55268593D01*
X80345923Y-55244882D01*
X80080119Y-54979079D01*
X80080117Y-54979076D01*
X79979676Y-54878635D01*
X80050000Y-54708858D01*
X80050000Y-54291142D01*
X79890147Y-53905223D01*
X79594777Y-53609853D01*
X79208858Y-53450000D01*
X78791142Y-53450000D01*
X78405223Y-53609853D01*
X78109853Y-53905223D01*
X77950000Y-54291142D01*
X77950000Y-54708858D01*
X78109853Y-55094777D01*
X78405223Y-55390147D01*
X78670431Y-55500000D01*
X78405223Y-55609853D01*
X78109853Y-55905223D01*
X77950000Y-56291142D01*
X77950000Y-56708858D01*
X78020324Y-56878635D01*
X77848972Y-57049988D01*
X73566869Y-57049988D01*
X73525012Y-57041662D01*
X73483154Y-57049988D01*
X73359185Y-57074647D01*
X73218604Y-57168580D01*
X73194893Y-57204066D01*
X71823960Y-58575000D01*
X70127992Y-58575000D01*
X70123276Y-58551293D01*
X69869103Y-58170897D01*
X69488707Y-57916724D01*
X69153261Y-57850000D01*
X68926739Y-57850000D01*
X68591293Y-57916724D01*
X68210897Y-58170897D01*
X67956724Y-58551293D01*
X67867471Y-59000000D01*
X67956724Y-59448707D01*
X68210897Y-59829103D01*
X68591293Y-60083276D01*
X68926739Y-60150000D01*
X69153261Y-60150000D01*
X69488707Y-60083276D01*
X69869103Y-59829103D01*
X70123276Y-59448707D01*
X70127992Y-59425000D01*
X71610370Y-59425000D01*
X69506655Y-61528716D01*
X69488707Y-61516724D01*
X69153261Y-61450000D01*
X68926739Y-61450000D01*
X68591293Y-61516724D01*
X68210897Y-61770897D01*
X67956724Y-62151293D01*
X67867471Y-62600000D01*
X67956724Y-63048707D01*
X68210897Y-63429103D01*
X68591293Y-63683276D01*
X68926739Y-63750000D01*
X69153261Y-63750000D01*
X69488707Y-63683276D01*
X69869103Y-63429103D01*
X70123276Y-63048707D01*
X70212529Y-62600000D01*
X70165288Y-62362500D01*
X73719123Y-62362500D01*
X73719123Y-62937500D01*
X73760485Y-63145441D01*
X73878274Y-63321726D01*
X74054559Y-63439515D01*
X74262500Y-63480877D01*
X74737500Y-63480877D01*
X74945441Y-63439515D01*
X75121726Y-63321726D01*
X75239515Y-63145441D01*
X75250000Y-63092729D01*
X75260485Y-63145441D01*
X75378274Y-63321726D01*
X75554559Y-63439515D01*
X75762500Y-63480877D01*
X76237500Y-63480877D01*
X76445441Y-63439515D01*
X76621726Y-63321726D01*
X76739515Y-63145441D01*
X76780877Y-62937500D01*
X76780877Y-62362500D01*
X76739515Y-62154559D01*
X76621726Y-61978274D01*
X76445441Y-61860485D01*
X76237500Y-61819123D01*
X75762500Y-61819123D01*
X75554559Y-61860485D01*
X75378274Y-61978274D01*
X75260485Y-62154559D01*
X75250000Y-62207271D01*
X75239515Y-62154559D01*
X75121726Y-61978274D01*
X74945441Y-61860485D01*
X74737500Y-61819123D01*
X74262500Y-61819123D01*
X74054559Y-61860485D01*
X73878274Y-61978274D01*
X73760485Y-62154559D01*
X73719123Y-62362500D01*
X70165288Y-62362500D01*
X70123276Y-62151293D01*
X70108409Y-62129042D01*
X73887452Y-58349999D01*
X77944123Y-58349999D01*
X77944123Y-59207349D01*
X76851473Y-60300000D01*
X76669651Y-60300000D01*
X76621726Y-60228274D01*
X76445441Y-60110485D01*
X76237500Y-60069123D01*
X75762500Y-60069123D01*
X75554559Y-60110485D01*
X75378274Y-60228274D01*
X75260485Y-60404559D01*
X75219123Y-60612500D01*
X75219123Y-61187500D01*
X75260485Y-61395441D01*
X75378274Y-61571726D01*
X75554559Y-61689515D01*
X75762500Y-61730877D01*
X76237500Y-61730877D01*
X76445441Y-61689515D01*
X76621726Y-61571726D01*
X76669651Y-61500000D01*
X77040914Y-61500000D01*
X77100000Y-61511753D01*
X77159086Y-61500000D01*
X77159091Y-61500000D01*
X77334108Y-61465187D01*
X77532575Y-61332575D01*
X77566049Y-61282478D01*
X78792651Y-60055877D01*
X79750000Y-60055877D01*
X79867054Y-60032593D01*
X79966288Y-59966288D01*
X80032593Y-59867054D01*
X80045931Y-59800000D01*
X80671216Y-59800000D01*
X80750000Y-59815671D01*
X80828784Y-59800000D01*
X80828789Y-59800000D01*
X81062144Y-59753583D01*
X81326767Y-59576767D01*
X81371398Y-59509972D01*
X81959974Y-58921397D01*
X82026767Y-58876767D01*
X82203583Y-58612144D01*
X82250000Y-58378789D01*
X82250000Y-58378785D01*
X82265671Y-58300001D01*
X82250000Y-58221217D01*
X82250000Y-52382781D01*
X82265671Y-52303997D01*
X82250000Y-52225213D01*
X82250000Y-52225209D01*
X82203583Y-51991854D01*
X82026767Y-51727231D01*
X81959975Y-51682602D01*
X80117400Y-49840028D01*
X80072769Y-49773233D01*
X79808146Y-49596417D01*
X79574791Y-49550000D01*
X79574786Y-49550000D01*
X79496002Y-49534329D01*
X79417218Y-49550000D01*
X78278783Y-49550000D01*
X78199999Y-49534329D01*
X78121215Y-49550000D01*
X78121211Y-49550000D01*
X77887856Y-49596417D01*
X77623233Y-49773233D01*
X77578604Y-49840025D01*
X71568630Y-55850000D01*
X68759402Y-55850000D01*
X68887234Y-55824573D01*
X69208702Y-55609774D01*
X73628703Y-51189774D01*
X73737247Y-51117247D01*
X74024573Y-50687235D01*
X74100000Y-50308037D01*
X74100000Y-50308033D01*
X74125467Y-50180000D01*
X74100000Y-50051967D01*
X74100000Y-44151025D01*
X74102846Y-44149846D01*
X74749846Y-43502846D01*
X75100000Y-42657499D01*
X75100000Y-41742501D01*
X74808872Y-41039655D01*
X77361027Y-38487500D01*
X79919123Y-38487500D01*
X79919123Y-39062500D01*
X79960485Y-39270441D01*
X80078274Y-39446726D01*
X80254559Y-39564515D01*
X80462500Y-39605877D01*
X80937500Y-39605877D01*
X81145441Y-39564515D01*
X81321726Y-39446726D01*
X81439515Y-39270441D01*
X81450000Y-39217729D01*
X81460485Y-39270441D01*
X81578274Y-39446726D01*
X81754559Y-39564515D01*
X81962500Y-39605877D01*
X82437500Y-39605877D01*
X82645441Y-39564515D01*
X82821726Y-39446726D01*
X82939515Y-39270441D01*
X82980877Y-39062500D01*
X82980877Y-38487500D01*
X82939515Y-38279559D01*
X82821726Y-38103274D01*
X82645441Y-37985485D01*
X82437500Y-37944123D01*
X81962500Y-37944123D01*
X81754559Y-37985485D01*
X81578274Y-38103274D01*
X81460485Y-38279559D01*
X81450000Y-38332271D01*
X81439515Y-38279559D01*
X81321726Y-38103274D01*
X81145441Y-37985485D01*
X80937500Y-37944123D01*
X80462500Y-37944123D01*
X80254559Y-37985485D01*
X80078274Y-38103274D01*
X79960485Y-38279559D01*
X79919123Y-38487500D01*
X77361027Y-38487500D01*
X78223528Y-37625000D01*
X80030349Y-37625000D01*
X80078274Y-37696726D01*
X80254559Y-37814515D01*
X80462500Y-37855877D01*
X80937500Y-37855877D01*
X81145441Y-37814515D01*
X81321726Y-37696726D01*
X81439515Y-37520441D01*
X81480877Y-37312500D01*
X81480877Y-36737500D01*
X81439515Y-36529559D01*
X81321726Y-36353274D01*
X81145441Y-36235485D01*
X80937500Y-36194123D01*
X80462500Y-36194123D01*
X80254559Y-36235485D01*
X80078274Y-36353274D01*
X80030349Y-36425000D01*
X78034086Y-36425000D01*
X77974999Y-36413247D01*
X77915913Y-36425000D01*
X77915909Y-36425000D01*
X77740892Y-36459813D01*
X77542425Y-36592425D01*
X77508953Y-36642519D01*
X73960345Y-40191128D01*
X73257499Y-39900000D01*
X72342501Y-39900000D01*
X71497154Y-40250154D01*
X70850154Y-40897154D01*
X70500000Y-41742501D01*
X70500000Y-42657499D01*
X70850154Y-43502846D01*
X71497154Y-44149846D01*
X71500001Y-44151025D01*
X71500000Y-49641523D01*
X67370226Y-53771298D01*
X67155427Y-54092766D01*
X67054533Y-54600000D01*
X67155427Y-55107234D01*
X67442753Y-55537247D01*
X67872766Y-55824573D01*
X68000598Y-55850000D01*
X67019289Y-55850000D01*
X66640000Y-55470711D01*
X66640000Y-55448549D01*
X66669103Y-55429103D01*
X66923276Y-55048707D01*
X67012529Y-54600000D01*
X66923276Y-54151293D01*
X66669103Y-53770897D01*
X66288707Y-53516724D01*
X65953261Y-53450000D01*
X65726739Y-53450000D01*
X65391293Y-53516724D01*
X65010897Y-53770897D01*
X64756724Y-54151293D01*
X64667471Y-54600000D01*
X64455877Y-54600000D01*
X64455877Y-53750000D01*
X64432593Y-53632946D01*
X64366288Y-53533712D01*
X64267054Y-53467407D01*
X64150000Y-53444123D01*
X62450000Y-53444123D01*
X62332946Y-53467407D01*
X62233712Y-53533712D01*
X62167407Y-53632946D01*
X62144123Y-53750000D01*
X62144123Y-53800000D01*
X61481371Y-53800000D01*
X60571399Y-52890029D01*
X60526768Y-52823234D01*
X60262145Y-52646418D01*
X60028790Y-52600001D01*
X60028785Y-52600001D01*
X59950001Y-52584330D01*
X59871217Y-52600001D01*
X55921210Y-52600001D01*
X55687855Y-52646418D01*
X55458003Y-52800001D01*
X55441428Y-52800001D01*
X55459385Y-52773126D01*
X55513713Y-52500000D01*
X55459385Y-52226874D01*
X55304671Y-51995329D01*
X55073126Y-51840615D01*
X54868940Y-51800000D01*
X54731060Y-51800000D01*
X54526874Y-51840615D01*
X54295329Y-51995329D01*
X54140615Y-52226874D01*
X54086287Y-52500000D01*
X54140615Y-52773126D01*
X54295329Y-53004671D01*
X54491033Y-53135437D01*
X53217521Y-54408950D01*
X53167424Y-54442424D01*
X53034812Y-54640892D01*
X52999999Y-54815909D01*
X52999999Y-54815913D01*
X52988246Y-54874999D01*
X50375000Y-54874999D01*
X50375000Y-38133961D01*
X50391547Y-38081798D01*
X50397952Y-38040423D01*
X50475545Y-37276534D01*
X50693004Y-36582621D01*
X51045552Y-35946606D01*
X51518788Y-35394473D01*
X52093384Y-34948771D01*
X52745857Y-34627715D01*
X53454341Y-34443168D01*
X54030687Y-34398821D01*
X54110255Y-34384505D01*
X54134019Y-34375000D01*
X86866039Y-34375000D01*
X86918202Y-34391547D01*
G04 #@! TD*
M02*
