G04 #@! TF.GenerationSoftware,KiCad,Pcbnew,(5.0.2-5-10.14)*
G04 #@! TF.CreationDate,2019-03-07T11:52:20+01:00*
G04 #@! TF.ProjectId,USBSwitch,55534253-7769-4746-9368-2e6b69636164,rev?*
G04 #@! TF.SameCoordinates,Original*
G04 #@! TF.FileFunction,Soldermask,Bot*
G04 #@! TF.FilePolarity,Negative*
%FSLAX46Y46*%
G04 Gerber Fmt 4.6, Leading zero omitted, Abs format (unit mm)*
G04 Created by KiCad (PCBNEW (5.0.2-5-10.14)) date 2019 March 07, Thursday 11:52:20*
%MOMM*%
%LPD*%
G01*
G04 APERTURE LIST*
%ADD10C,0.800000*%
%ADD11C,0.010000*%
%ADD12C,0.100000*%
G04 APERTURE END LIST*
D10*
G04 #@! TO.C,REF\002A\002A*
X61830000Y-49580000D02*
X63430000Y-49580000D01*
X63430000Y-49580000D02*
X63430000Y-46480000D01*
X65330000Y-49580000D02*
X65330000Y-46480000D01*
X63530000Y-46480000D02*
X65330000Y-46480000D01*
D11*
G36*
X55974040Y-43494059D02*
X55907605Y-43376455D01*
X55804955Y-43282977D01*
X55718876Y-43239188D01*
X55580386Y-43208578D01*
X55442409Y-43217679D01*
X55320916Y-43265027D01*
X55302150Y-43277412D01*
X55214592Y-43367851D01*
X55154447Y-43486729D01*
X55124582Y-43619667D01*
X55127866Y-43752287D01*
X55167168Y-43870210D01*
X55179756Y-43890994D01*
X55258606Y-43973263D01*
X55367230Y-44041086D01*
X55484705Y-44083253D01*
X55554201Y-44091600D01*
X55663425Y-44072326D01*
X55777890Y-44021810D01*
X55876842Y-43951018D01*
X55925705Y-43895358D01*
X55986124Y-43763139D01*
X56001224Y-43626163D01*
X55974040Y-43494059D01*
X55974040Y-43494059D01*
G37*
X55974040Y-43494059D02*
X55907605Y-43376455D01*
X55804955Y-43282977D01*
X55718876Y-43239188D01*
X55580386Y-43208578D01*
X55442409Y-43217679D01*
X55320916Y-43265027D01*
X55302150Y-43277412D01*
X55214592Y-43367851D01*
X55154447Y-43486729D01*
X55124582Y-43619667D01*
X55127866Y-43752287D01*
X55167168Y-43870210D01*
X55179756Y-43890994D01*
X55258606Y-43973263D01*
X55367230Y-44041086D01*
X55484705Y-44083253D01*
X55554201Y-44091600D01*
X55663425Y-44072326D01*
X55777890Y-44021810D01*
X55876842Y-43951018D01*
X55925705Y-43895358D01*
X55986124Y-43763139D01*
X56001224Y-43626163D01*
X55974040Y-43494059D01*
G36*
X53107955Y-43253400D02*
X52836472Y-43253179D01*
X52611382Y-43252417D01*
X52428279Y-43250974D01*
X52282760Y-43248706D01*
X52170417Y-43245469D01*
X52086845Y-43241122D01*
X52027641Y-43235520D01*
X51988397Y-43228522D01*
X51964708Y-43219984D01*
X51958605Y-43216108D01*
X51921057Y-43189822D01*
X51892915Y-43179109D01*
X51872826Y-43189290D01*
X51859437Y-43225688D01*
X51851395Y-43293624D01*
X51847347Y-43398422D01*
X51845940Y-43545402D01*
X51845800Y-43659800D01*
X51846485Y-43810082D01*
X51848392Y-43941273D01*
X51851298Y-44045573D01*
X51854983Y-44115181D01*
X51859224Y-44142295D01*
X51859512Y-44142400D01*
X51888546Y-44131845D01*
X51945491Y-44105274D01*
X51972800Y-44091600D01*
X52000240Y-44078734D01*
X52030606Y-44068241D01*
X52069080Y-44059880D01*
X52120845Y-44053409D01*
X52191082Y-44048589D01*
X52284973Y-44045178D01*
X52407699Y-44042935D01*
X52564441Y-44041619D01*
X52760383Y-44040990D01*
X53000704Y-44040805D01*
X53065250Y-44040800D01*
X53322731Y-44041053D01*
X53534251Y-44041929D01*
X53704649Y-44043604D01*
X53838762Y-44046252D01*
X53941429Y-44050050D01*
X54017487Y-44055173D01*
X54071774Y-44061797D01*
X54109128Y-44070097D01*
X54133062Y-44079553D01*
X54208000Y-44118305D01*
X54208000Y-43253400D01*
X53107955Y-43253400D01*
X53107955Y-43253400D01*
G37*
X53107955Y-43253400D02*
X52836472Y-43253179D01*
X52611382Y-43252417D01*
X52428279Y-43250974D01*
X52282760Y-43248706D01*
X52170417Y-43245469D01*
X52086845Y-43241122D01*
X52027641Y-43235520D01*
X51988397Y-43228522D01*
X51964708Y-43219984D01*
X51958605Y-43216108D01*
X51921057Y-43189822D01*
X51892915Y-43179109D01*
X51872826Y-43189290D01*
X51859437Y-43225688D01*
X51851395Y-43293624D01*
X51847347Y-43398422D01*
X51845940Y-43545402D01*
X51845800Y-43659800D01*
X51846485Y-43810082D01*
X51848392Y-43941273D01*
X51851298Y-44045573D01*
X51854983Y-44115181D01*
X51859224Y-44142295D01*
X51859512Y-44142400D01*
X51888546Y-44131845D01*
X51945491Y-44105274D01*
X51972800Y-44091600D01*
X52000240Y-44078734D01*
X52030606Y-44068241D01*
X52069080Y-44059880D01*
X52120845Y-44053409D01*
X52191082Y-44048589D01*
X52284973Y-44045178D01*
X52407699Y-44042935D01*
X52564441Y-44041619D01*
X52760383Y-44040990D01*
X53000704Y-44040805D01*
X53065250Y-44040800D01*
X53322731Y-44041053D01*
X53534251Y-44041929D01*
X53704649Y-44043604D01*
X53838762Y-44046252D01*
X53941429Y-44050050D01*
X54017487Y-44055173D01*
X54071774Y-44061797D01*
X54109128Y-44070097D01*
X54133062Y-44079553D01*
X54208000Y-44118305D01*
X54208000Y-43253400D01*
X53107955Y-43253400D01*
G36*
X55071600Y-44836253D02*
X55071600Y-44290941D01*
X54870213Y-44489721D01*
X54507309Y-44819429D01*
X54233185Y-45033849D01*
X54129600Y-45112297D01*
X54009471Y-45206856D01*
X53885798Y-45306950D01*
X53771581Y-45402002D01*
X53679819Y-45481434D01*
X53652240Y-45506532D01*
X53564788Y-45587964D01*
X53473644Y-45518006D01*
X53284396Y-45382564D01*
X53144950Y-45295022D01*
X53062714Y-45240152D01*
X52983388Y-45178876D01*
X52977393Y-45173727D01*
X52894419Y-45104778D01*
X52791863Y-45024253D01*
X52681712Y-44941058D01*
X52575953Y-44864098D01*
X52486575Y-44802281D01*
X52429453Y-44766624D01*
X52376404Y-44731543D01*
X52297938Y-44673014D01*
X52206748Y-44601180D01*
X52115528Y-44526185D01*
X52036968Y-44458172D01*
X51997980Y-44421800D01*
X51971919Y-44397911D01*
X51924594Y-44355637D01*
X51915430Y-44347523D01*
X51845800Y-44285945D01*
X51845800Y-45412400D01*
X51924077Y-45412400D01*
X52000605Y-45429163D01*
X52105851Y-45476393D01*
X52231761Y-45549507D01*
X52370284Y-45643919D01*
X52484467Y-45731458D01*
X52576687Y-45802732D01*
X52667731Y-45868053D01*
X52740465Y-45915223D01*
X52751167Y-45921329D01*
X52817566Y-45961371D01*
X52865716Y-45996658D01*
X52874500Y-46005301D01*
X52913184Y-46039862D01*
X52969750Y-46080085D01*
X53017907Y-46117774D01*
X53039513Y-46148285D01*
X53039600Y-46149586D01*
X53014909Y-46158462D01*
X52943619Y-46165582D01*
X52829908Y-46170736D01*
X52677956Y-46173717D01*
X52543039Y-46174400D01*
X52363737Y-46173716D01*
X52227730Y-46171305D01*
X52127525Y-46166625D01*
X52055631Y-46159137D01*
X52004557Y-46148302D01*
X51966812Y-46133579D01*
X51965189Y-46132756D01*
X51905509Y-46097283D01*
X51867382Y-46065777D01*
X51865239Y-46062906D01*
X51859677Y-46078403D01*
X51854738Y-46137753D01*
X51850688Y-46234014D01*
X51847793Y-46360241D01*
X51846318Y-46509489D01*
X51846189Y-46561206D01*
X51845800Y-47087711D01*
X51915650Y-47058032D01*
X51974242Y-47029859D01*
X52009630Y-47007776D01*
X52038858Y-47003943D01*
X52114219Y-47000343D01*
X52231049Y-46997041D01*
X52384683Y-46994104D01*
X52570454Y-46991601D01*
X52783698Y-46989596D01*
X53019749Y-46988158D01*
X53273941Y-46987353D01*
X53445710Y-46987201D01*
X53749689Y-46987259D01*
X54007088Y-46987530D01*
X54222126Y-46988154D01*
X54399022Y-46989274D01*
X54541996Y-46991031D01*
X54655267Y-46993567D01*
X54743055Y-46997024D01*
X54809579Y-47001543D01*
X54859059Y-47007267D01*
X54895714Y-47014338D01*
X54923763Y-47022896D01*
X54947426Y-47033084D01*
X54957301Y-47038001D01*
X55019131Y-47068756D01*
X55058340Y-47086810D01*
X55064271Y-47088801D01*
X55066493Y-47064665D01*
X55068444Y-46997312D01*
X55070016Y-46894328D01*
X55071099Y-46763294D01*
X55071585Y-46611795D01*
X55071600Y-46578083D01*
X55071336Y-46404940D01*
X55070169Y-46276371D01*
X55067536Y-46186154D01*
X55062877Y-46128063D01*
X55055628Y-46095876D01*
X55045228Y-46083368D01*
X55031115Y-46084314D01*
X55027150Y-46085836D01*
X54938327Y-46119195D01*
X54849819Y-46143261D01*
X54750859Y-46159420D01*
X54630679Y-46169058D01*
X54478512Y-46173560D01*
X54338912Y-46174400D01*
X53919096Y-46174401D01*
X53992100Y-46098201D01*
X54042443Y-46050587D01*
X54079722Y-46024006D01*
X54086517Y-46022000D01*
X54112450Y-46006863D01*
X54165872Y-45967372D01*
X54235855Y-45912412D01*
X54311471Y-45850868D01*
X54381791Y-45791623D01*
X54435886Y-45743561D01*
X54462000Y-45716761D01*
X54489266Y-45694439D01*
X54545370Y-45656064D01*
X54589000Y-45628198D01*
X54676702Y-45569995D01*
X54763302Y-45507049D01*
X54791638Y-45484701D01*
X54858264Y-45439987D01*
X54919357Y-45414592D01*
X54935610Y-45412400D01*
X54979323Y-45411878D01*
X55012498Y-45406209D01*
X55036588Y-45389238D01*
X55053045Y-45354811D01*
X55063323Y-45296774D01*
X55068873Y-45208972D01*
X55071149Y-45085250D01*
X55071604Y-44919455D01*
X55071600Y-44836253D01*
X55071600Y-44836253D01*
G37*
X55071600Y-44836253D02*
X55071600Y-44290941D01*
X54870213Y-44489721D01*
X54507309Y-44819429D01*
X54233185Y-45033849D01*
X54129600Y-45112297D01*
X54009471Y-45206856D01*
X53885798Y-45306950D01*
X53771581Y-45402002D01*
X53679819Y-45481434D01*
X53652240Y-45506532D01*
X53564788Y-45587964D01*
X53473644Y-45518006D01*
X53284396Y-45382564D01*
X53144950Y-45295022D01*
X53062714Y-45240152D01*
X52983388Y-45178876D01*
X52977393Y-45173727D01*
X52894419Y-45104778D01*
X52791863Y-45024253D01*
X52681712Y-44941058D01*
X52575953Y-44864098D01*
X52486575Y-44802281D01*
X52429453Y-44766624D01*
X52376404Y-44731543D01*
X52297938Y-44673014D01*
X52206748Y-44601180D01*
X52115528Y-44526185D01*
X52036968Y-44458172D01*
X51997980Y-44421800D01*
X51971919Y-44397911D01*
X51924594Y-44355637D01*
X51915430Y-44347523D01*
X51845800Y-44285945D01*
X51845800Y-45412400D01*
X51924077Y-45412400D01*
X52000605Y-45429163D01*
X52105851Y-45476393D01*
X52231761Y-45549507D01*
X52370284Y-45643919D01*
X52484467Y-45731458D01*
X52576687Y-45802732D01*
X52667731Y-45868053D01*
X52740465Y-45915223D01*
X52751167Y-45921329D01*
X52817566Y-45961371D01*
X52865716Y-45996658D01*
X52874500Y-46005301D01*
X52913184Y-46039862D01*
X52969750Y-46080085D01*
X53017907Y-46117774D01*
X53039513Y-46148285D01*
X53039600Y-46149586D01*
X53014909Y-46158462D01*
X52943619Y-46165582D01*
X52829908Y-46170736D01*
X52677956Y-46173717D01*
X52543039Y-46174400D01*
X52363737Y-46173716D01*
X52227730Y-46171305D01*
X52127525Y-46166625D01*
X52055631Y-46159137D01*
X52004557Y-46148302D01*
X51966812Y-46133579D01*
X51965189Y-46132756D01*
X51905509Y-46097283D01*
X51867382Y-46065777D01*
X51865239Y-46062906D01*
X51859677Y-46078403D01*
X51854738Y-46137753D01*
X51850688Y-46234014D01*
X51847793Y-46360241D01*
X51846318Y-46509489D01*
X51846189Y-46561206D01*
X51845800Y-47087711D01*
X51915650Y-47058032D01*
X51974242Y-47029859D01*
X52009630Y-47007776D01*
X52038858Y-47003943D01*
X52114219Y-47000343D01*
X52231049Y-46997041D01*
X52384683Y-46994104D01*
X52570454Y-46991601D01*
X52783698Y-46989596D01*
X53019749Y-46988158D01*
X53273941Y-46987353D01*
X53445710Y-46987201D01*
X53749689Y-46987259D01*
X54007088Y-46987530D01*
X54222126Y-46988154D01*
X54399022Y-46989274D01*
X54541996Y-46991031D01*
X54655267Y-46993567D01*
X54743055Y-46997024D01*
X54809579Y-47001543D01*
X54859059Y-47007267D01*
X54895714Y-47014338D01*
X54923763Y-47022896D01*
X54947426Y-47033084D01*
X54957301Y-47038001D01*
X55019131Y-47068756D01*
X55058340Y-47086810D01*
X55064271Y-47088801D01*
X55066493Y-47064665D01*
X55068444Y-46997312D01*
X55070016Y-46894328D01*
X55071099Y-46763294D01*
X55071585Y-46611795D01*
X55071600Y-46578083D01*
X55071336Y-46404940D01*
X55070169Y-46276371D01*
X55067536Y-46186154D01*
X55062877Y-46128063D01*
X55055628Y-46095876D01*
X55045228Y-46083368D01*
X55031115Y-46084314D01*
X55027150Y-46085836D01*
X54938327Y-46119195D01*
X54849819Y-46143261D01*
X54750859Y-46159420D01*
X54630679Y-46169058D01*
X54478512Y-46173560D01*
X54338912Y-46174400D01*
X53919096Y-46174401D01*
X53992100Y-46098201D01*
X54042443Y-46050587D01*
X54079722Y-46024006D01*
X54086517Y-46022000D01*
X54112450Y-46006863D01*
X54165872Y-45967372D01*
X54235855Y-45912412D01*
X54311471Y-45850868D01*
X54381791Y-45791623D01*
X54435886Y-45743561D01*
X54462000Y-45716761D01*
X54489266Y-45694439D01*
X54545370Y-45656064D01*
X54589000Y-45628198D01*
X54676702Y-45569995D01*
X54763302Y-45507049D01*
X54791638Y-45484701D01*
X54858264Y-45439987D01*
X54919357Y-45414592D01*
X54935610Y-45412400D01*
X54979323Y-45411878D01*
X55012498Y-45406209D01*
X55036588Y-45389238D01*
X55053045Y-45354811D01*
X55063323Y-45296774D01*
X55068873Y-45208972D01*
X55071149Y-45085250D01*
X55071604Y-44919455D01*
X55071600Y-44836253D01*
D12*
G36*
X53753384Y-60546081D02*
X54161037Y-60714937D01*
X54527917Y-60960078D01*
X54839922Y-61272083D01*
X55085063Y-61638963D01*
X55253919Y-62046616D01*
X55340000Y-62479378D01*
X55340000Y-62920622D01*
X55253919Y-63353384D01*
X55085063Y-63761037D01*
X54839922Y-64127917D01*
X54527917Y-64439922D01*
X54161037Y-64685063D01*
X53753384Y-64853919D01*
X53320622Y-64940000D01*
X52879378Y-64940000D01*
X52446616Y-64853919D01*
X52038963Y-64685063D01*
X51672083Y-64439922D01*
X51360078Y-64127917D01*
X51114937Y-63761037D01*
X50946081Y-63353384D01*
X50860000Y-62920622D01*
X50860000Y-62479378D01*
X50946081Y-62046616D01*
X51114937Y-61638963D01*
X51360078Y-61272083D01*
X51672083Y-60960078D01*
X52038963Y-60714937D01*
X52446616Y-60546081D01*
X52879378Y-60460000D01*
X53320622Y-60460000D01*
X53753384Y-60546081D01*
X53753384Y-60546081D01*
G37*
G36*
X82099201Y-60589180D02*
X82379463Y-60705269D01*
X82631693Y-60873803D01*
X82846197Y-61088307D01*
X83014731Y-61340537D01*
X83130820Y-61620799D01*
X83190000Y-61918322D01*
X83190000Y-62221678D01*
X83130820Y-62519201D01*
X83014731Y-62799463D01*
X82846197Y-63051693D01*
X82631693Y-63266197D01*
X82379463Y-63434731D01*
X82099201Y-63550820D01*
X81801678Y-63610000D01*
X81498322Y-63610000D01*
X81200799Y-63550820D01*
X80920537Y-63434731D01*
X80668307Y-63266197D01*
X80453803Y-63051693D01*
X80285269Y-62799463D01*
X80169180Y-62519201D01*
X80110000Y-62221678D01*
X80110000Y-61918322D01*
X80169180Y-61620799D01*
X80285269Y-61340537D01*
X80453803Y-61088307D01*
X80668307Y-60873803D01*
X80920537Y-60705269D01*
X81200799Y-60589180D01*
X81498322Y-60530000D01*
X81801678Y-60530000D01*
X82099201Y-60589180D01*
X82099201Y-60589180D01*
G37*
G36*
X69116407Y-61713219D02*
X69214470Y-61722878D01*
X69382236Y-61773769D01*
X69536850Y-61856412D01*
X69672370Y-61967630D01*
X69783588Y-62103150D01*
X69866231Y-62257764D01*
X69917122Y-62425530D01*
X69934306Y-62600000D01*
X69917122Y-62774470D01*
X69866231Y-62942236D01*
X69783588Y-63096850D01*
X69672370Y-63232370D01*
X69536850Y-63343588D01*
X69382236Y-63426231D01*
X69214470Y-63477122D01*
X69116407Y-63486781D01*
X69083720Y-63490000D01*
X68996280Y-63490000D01*
X68963593Y-63486781D01*
X68865530Y-63477122D01*
X68697764Y-63426231D01*
X68543150Y-63343588D01*
X68407630Y-63232370D01*
X68296412Y-63096850D01*
X68213769Y-62942236D01*
X68162878Y-62774470D01*
X68145694Y-62600000D01*
X68162878Y-62425530D01*
X68213769Y-62257764D01*
X68296412Y-62103150D01*
X68407630Y-61967630D01*
X68543150Y-61856412D01*
X68697764Y-61773769D01*
X68865530Y-61722878D01*
X68963593Y-61713219D01*
X68996280Y-61710000D01*
X69083720Y-61710000D01*
X69116407Y-61713219D01*
X69116407Y-61713219D01*
G37*
G36*
X67390000Y-63490000D02*
X65610000Y-63490000D01*
X65610000Y-61710000D01*
X67390000Y-61710000D01*
X67390000Y-63490000D01*
X67390000Y-63490000D01*
G37*
G36*
X69116407Y-58113220D02*
X69214470Y-58122878D01*
X69382236Y-58173769D01*
X69536850Y-58256412D01*
X69672370Y-58367630D01*
X69783588Y-58503150D01*
X69866231Y-58657764D01*
X69917122Y-58825530D01*
X69934306Y-59000000D01*
X69917122Y-59174470D01*
X69866231Y-59342236D01*
X69783588Y-59496850D01*
X69672370Y-59632370D01*
X69536850Y-59743588D01*
X69382236Y-59826231D01*
X69214470Y-59877122D01*
X69116407Y-59886780D01*
X69083720Y-59890000D01*
X68996280Y-59890000D01*
X68963593Y-59886780D01*
X68865530Y-59877122D01*
X68697764Y-59826231D01*
X68543150Y-59743588D01*
X68407630Y-59632370D01*
X68296412Y-59496850D01*
X68213769Y-59342236D01*
X68162878Y-59174470D01*
X68145694Y-59000000D01*
X68162878Y-58825530D01*
X68213769Y-58657764D01*
X68296412Y-58503150D01*
X68407630Y-58367630D01*
X68543150Y-58256412D01*
X68697764Y-58173769D01*
X68865530Y-58122878D01*
X68963593Y-58113220D01*
X68996280Y-58110000D01*
X69083720Y-58110000D01*
X69116407Y-58113220D01*
X69116407Y-58113220D01*
G37*
G36*
X67390000Y-59890000D02*
X65610000Y-59890000D01*
X65610000Y-58110000D01*
X67390000Y-58110000D01*
X67390000Y-59890000D01*
X67390000Y-59890000D01*
G37*
G36*
X79790000Y-59790000D02*
X78210000Y-59790000D01*
X78210000Y-58210000D01*
X79790000Y-58210000D01*
X79790000Y-59790000D01*
X79790000Y-59790000D01*
G37*
G36*
X52435324Y-58262966D02*
X52495561Y-58268899D01*
X52611489Y-58304066D01*
X52718329Y-58361173D01*
X52811974Y-58438026D01*
X52888827Y-58531671D01*
X52945934Y-58638511D01*
X52981101Y-58754439D01*
X52992975Y-58875000D01*
X52981101Y-58995561D01*
X52945934Y-59111489D01*
X52888827Y-59218329D01*
X52811974Y-59311974D01*
X52718329Y-59388827D01*
X52611489Y-59445934D01*
X52495561Y-59481101D01*
X52435324Y-59487034D01*
X52405207Y-59490000D01*
X51694793Y-59490000D01*
X51664676Y-59487034D01*
X51604439Y-59481101D01*
X51488511Y-59445934D01*
X51381671Y-59388827D01*
X51288026Y-59311974D01*
X51211173Y-59218329D01*
X51154066Y-59111489D01*
X51118899Y-58995561D01*
X51107025Y-58875000D01*
X51118899Y-58754439D01*
X51154066Y-58638511D01*
X51211173Y-58531671D01*
X51288026Y-58438026D01*
X51381671Y-58361173D01*
X51488511Y-58304066D01*
X51604439Y-58268899D01*
X51664676Y-58262966D01*
X51694793Y-58260000D01*
X52405207Y-58260000D01*
X52435324Y-58262966D01*
X52435324Y-58262966D01*
G37*
G36*
X56274966Y-57971069D02*
X56419169Y-58014813D01*
X56552067Y-58085848D01*
X56668554Y-58181446D01*
X56764152Y-58297933D01*
X56835187Y-58430831D01*
X56878931Y-58575034D01*
X56893701Y-58725000D01*
X56878931Y-58874966D01*
X56835187Y-59019169D01*
X56764152Y-59152067D01*
X56668554Y-59268554D01*
X56552067Y-59364152D01*
X56419169Y-59435187D01*
X56274966Y-59478931D01*
X56162578Y-59490000D01*
X55537422Y-59490000D01*
X55425034Y-59478931D01*
X55280831Y-59435187D01*
X55147933Y-59364152D01*
X55031446Y-59268554D01*
X54935848Y-59152067D01*
X54864813Y-59019169D01*
X54821069Y-58874966D01*
X54806299Y-58725000D01*
X54821069Y-58575034D01*
X54864813Y-58430831D01*
X54935848Y-58297933D01*
X55031446Y-58181446D01*
X55147933Y-58085848D01*
X55280831Y-58014813D01*
X55425034Y-57971069D01*
X55537422Y-57960000D01*
X56162578Y-57960000D01*
X56274966Y-57971069D01*
X56274966Y-57971069D01*
G37*
G36*
X54886252Y-57066366D02*
X54969195Y-57091527D01*
X55045636Y-57132385D01*
X55112632Y-57187368D01*
X55167615Y-57254364D01*
X55208473Y-57330805D01*
X55233634Y-57413748D01*
X55242129Y-57500000D01*
X55233634Y-57586252D01*
X55208473Y-57669195D01*
X55167615Y-57745636D01*
X55112632Y-57812632D01*
X55045636Y-57867615D01*
X54969195Y-57908473D01*
X54886252Y-57933634D01*
X54821618Y-57940000D01*
X54778382Y-57940000D01*
X54713748Y-57933634D01*
X54630805Y-57908473D01*
X54554364Y-57867615D01*
X54487368Y-57812632D01*
X54432385Y-57745636D01*
X54391527Y-57669195D01*
X54366366Y-57586252D01*
X54357871Y-57500000D01*
X54366366Y-57413748D01*
X54391527Y-57330805D01*
X54432385Y-57254364D01*
X54487368Y-57187368D01*
X54554364Y-57132385D01*
X54630805Y-57091527D01*
X54713748Y-57066366D01*
X54778382Y-57060000D01*
X54821618Y-57060000D01*
X54886252Y-57066366D01*
X54886252Y-57066366D01*
G37*
G36*
X79230435Y-55740358D02*
X79374205Y-55799910D01*
X79503595Y-55886366D01*
X79613634Y-55996405D01*
X79700090Y-56125795D01*
X79759642Y-56269565D01*
X79790000Y-56422191D01*
X79790000Y-56577809D01*
X79759642Y-56730435D01*
X79700090Y-56874205D01*
X79613634Y-57003595D01*
X79503595Y-57113634D01*
X79374205Y-57200090D01*
X79230435Y-57259642D01*
X79077809Y-57290000D01*
X78922191Y-57290000D01*
X78769565Y-57259642D01*
X78625795Y-57200090D01*
X78496405Y-57113634D01*
X78386366Y-57003595D01*
X78299910Y-56874205D01*
X78240358Y-56730435D01*
X78210000Y-56577809D01*
X78210000Y-56422191D01*
X78240358Y-56269565D01*
X78299910Y-56125795D01*
X78386366Y-55996405D01*
X78496405Y-55886366D01*
X78625795Y-55799910D01*
X78769565Y-55740358D01*
X78922191Y-55710000D01*
X79077809Y-55710000D01*
X79230435Y-55740358D01*
X79230435Y-55740358D01*
G37*
G36*
X68456407Y-53713220D02*
X68554470Y-53722878D01*
X68722236Y-53773769D01*
X68876850Y-53856412D01*
X69012370Y-53967630D01*
X69123588Y-54103150D01*
X69206231Y-54257764D01*
X69257122Y-54425530D01*
X69274306Y-54600000D01*
X69257122Y-54774470D01*
X69206231Y-54942236D01*
X69123588Y-55096850D01*
X69012370Y-55232370D01*
X68876850Y-55343588D01*
X68722236Y-55426231D01*
X68554470Y-55477122D01*
X68456407Y-55486781D01*
X68423720Y-55490000D01*
X68336280Y-55490000D01*
X68303593Y-55486781D01*
X68205530Y-55477122D01*
X68037764Y-55426231D01*
X67883150Y-55343588D01*
X67747630Y-55232370D01*
X67636412Y-55096850D01*
X67553769Y-54942236D01*
X67502878Y-54774470D01*
X67485694Y-54600000D01*
X67502878Y-54425530D01*
X67553769Y-54257764D01*
X67636412Y-54103150D01*
X67747630Y-53967630D01*
X67883150Y-53856412D01*
X68037764Y-53773769D01*
X68205530Y-53722878D01*
X68303593Y-53713220D01*
X68336280Y-53710000D01*
X68423720Y-53710000D01*
X68456407Y-53713220D01*
X68456407Y-53713220D01*
G37*
G36*
X65916407Y-53713220D02*
X66014470Y-53722878D01*
X66182236Y-53773769D01*
X66336850Y-53856412D01*
X66472370Y-53967630D01*
X66583588Y-54103150D01*
X66666231Y-54257764D01*
X66717122Y-54425530D01*
X66734306Y-54600000D01*
X66717122Y-54774470D01*
X66666231Y-54942236D01*
X66583588Y-55096850D01*
X66472370Y-55232370D01*
X66336850Y-55343588D01*
X66182236Y-55426231D01*
X66014470Y-55477122D01*
X65916407Y-55486781D01*
X65883720Y-55490000D01*
X65796280Y-55490000D01*
X65763593Y-55486781D01*
X65665530Y-55477122D01*
X65497764Y-55426231D01*
X65343150Y-55343588D01*
X65207630Y-55232370D01*
X65096412Y-55096850D01*
X65013769Y-54942236D01*
X64962878Y-54774470D01*
X64945694Y-54600000D01*
X64962878Y-54425530D01*
X65013769Y-54257764D01*
X65096412Y-54103150D01*
X65207630Y-53967630D01*
X65343150Y-53856412D01*
X65497764Y-53773769D01*
X65665530Y-53722878D01*
X65763593Y-53713220D01*
X65796280Y-53710000D01*
X65883720Y-53710000D01*
X65916407Y-53713220D01*
X65916407Y-53713220D01*
G37*
G36*
X64190000Y-55490000D02*
X62410000Y-55490000D01*
X62410000Y-53710000D01*
X64190000Y-53710000D01*
X64190000Y-55490000D01*
X64190000Y-55490000D01*
G37*
G36*
X79230435Y-53740358D02*
X79374205Y-53799910D01*
X79503595Y-53886366D01*
X79613634Y-53996405D01*
X79700090Y-54125795D01*
X79759642Y-54269565D01*
X79790000Y-54422191D01*
X79790000Y-54577809D01*
X79759642Y-54730435D01*
X79700090Y-54874205D01*
X79613634Y-55003595D01*
X79503595Y-55113634D01*
X79374205Y-55200090D01*
X79230435Y-55259642D01*
X79077809Y-55290000D01*
X78922191Y-55290000D01*
X78769565Y-55259642D01*
X78625795Y-55200090D01*
X78496405Y-55113634D01*
X78386366Y-55003595D01*
X78299910Y-54874205D01*
X78240358Y-54730435D01*
X78210000Y-54577809D01*
X78210000Y-54422191D01*
X78240358Y-54269565D01*
X78299910Y-54125795D01*
X78386366Y-53996405D01*
X78496405Y-53886366D01*
X78625795Y-53799910D01*
X78769565Y-53740358D01*
X78922191Y-53710000D01*
X79077809Y-53710000D01*
X79230435Y-53740358D01*
X79230435Y-53740358D01*
G37*
G36*
X54886252Y-52066366D02*
X54969195Y-52091527D01*
X55045636Y-52132385D01*
X55112632Y-52187368D01*
X55167615Y-52254364D01*
X55208473Y-52330805D01*
X55233634Y-52413748D01*
X55242129Y-52500000D01*
X55233634Y-52586252D01*
X55208473Y-52669195D01*
X55167615Y-52745636D01*
X55112632Y-52812632D01*
X55045636Y-52867615D01*
X54969195Y-52908473D01*
X54886252Y-52933634D01*
X54821618Y-52940000D01*
X54778382Y-52940000D01*
X54713748Y-52933634D01*
X54630805Y-52908473D01*
X54554364Y-52867615D01*
X54487368Y-52812632D01*
X54432385Y-52745636D01*
X54391527Y-52669195D01*
X54366366Y-52586252D01*
X54357871Y-52500000D01*
X54366366Y-52413748D01*
X54391527Y-52330805D01*
X54432385Y-52254364D01*
X54487368Y-52187368D01*
X54554364Y-52132385D01*
X54630805Y-52091527D01*
X54713748Y-52066366D01*
X54778382Y-52060000D01*
X54821618Y-52060000D01*
X54886252Y-52066366D01*
X54886252Y-52066366D01*
G37*
G36*
X79230435Y-51240358D02*
X79374205Y-51299910D01*
X79503595Y-51386366D01*
X79613634Y-51496405D01*
X79700090Y-51625795D01*
X79759642Y-51769565D01*
X79790000Y-51922191D01*
X79790000Y-52077809D01*
X79759642Y-52230435D01*
X79700090Y-52374205D01*
X79613634Y-52503595D01*
X79503595Y-52613634D01*
X79374205Y-52700090D01*
X79230435Y-52759642D01*
X79077809Y-52790000D01*
X78922191Y-52790000D01*
X78769565Y-52759642D01*
X78625795Y-52700090D01*
X78496405Y-52613634D01*
X78386366Y-52503595D01*
X78299910Y-52374205D01*
X78240358Y-52230435D01*
X78210000Y-52077809D01*
X78210000Y-51922191D01*
X78240358Y-51769565D01*
X78299910Y-51625795D01*
X78386366Y-51496405D01*
X78496405Y-51386366D01*
X78625795Y-51299910D01*
X78769565Y-51240358D01*
X78922191Y-51210000D01*
X79077809Y-51210000D01*
X79230435Y-51240358D01*
X79230435Y-51240358D01*
G37*
G36*
X56274966Y-50521069D02*
X56419169Y-50564813D01*
X56552067Y-50635848D01*
X56668554Y-50731446D01*
X56764152Y-50847933D01*
X56835187Y-50980831D01*
X56878931Y-51125034D01*
X56893701Y-51275000D01*
X56878931Y-51424966D01*
X56835187Y-51569169D01*
X56764152Y-51702067D01*
X56668554Y-51818554D01*
X56552067Y-51914152D01*
X56419169Y-51985187D01*
X56274966Y-52028931D01*
X56162578Y-52040000D01*
X55537422Y-52040000D01*
X55425034Y-52028931D01*
X55280831Y-51985187D01*
X55147933Y-51914152D01*
X55031446Y-51818554D01*
X54935848Y-51702067D01*
X54864813Y-51569169D01*
X54821069Y-51424966D01*
X54806299Y-51275000D01*
X54821069Y-51125034D01*
X54864813Y-50980831D01*
X54935848Y-50847933D01*
X55031446Y-50731446D01*
X55147933Y-50635848D01*
X55280831Y-50564813D01*
X55425034Y-50521069D01*
X55537422Y-50510000D01*
X56162578Y-50510000D01*
X56274966Y-50521069D01*
X56274966Y-50521069D01*
G37*
G36*
X52435324Y-50512966D02*
X52495561Y-50518899D01*
X52611489Y-50554066D01*
X52718329Y-50611173D01*
X52811974Y-50688026D01*
X52888827Y-50781671D01*
X52945934Y-50888511D01*
X52981101Y-51004439D01*
X52992975Y-51125000D01*
X52981101Y-51245561D01*
X52945934Y-51361489D01*
X52888827Y-51468329D01*
X52811974Y-51561974D01*
X52718329Y-51638827D01*
X52611489Y-51695934D01*
X52495561Y-51731101D01*
X52435324Y-51737034D01*
X52405207Y-51740000D01*
X51694793Y-51740000D01*
X51664676Y-51737034D01*
X51604439Y-51731101D01*
X51488511Y-51695934D01*
X51381671Y-51638827D01*
X51288026Y-51561974D01*
X51211173Y-51468329D01*
X51154066Y-51361489D01*
X51118899Y-51245561D01*
X51107025Y-51125000D01*
X51118899Y-51004439D01*
X51154066Y-50888511D01*
X51211173Y-50781671D01*
X51288026Y-50688026D01*
X51381671Y-50611173D01*
X51488511Y-50554066D01*
X51604439Y-50518899D01*
X51664676Y-50512966D01*
X51694793Y-50510000D01*
X52405207Y-50510000D01*
X52435324Y-50512966D01*
X52435324Y-50512966D01*
G37*
G36*
X82099201Y-47449180D02*
X82379463Y-47565269D01*
X82631693Y-47733803D01*
X82846197Y-47948307D01*
X83014731Y-48200537D01*
X83130820Y-48480799D01*
X83190000Y-48778322D01*
X83190000Y-49081678D01*
X83130820Y-49379201D01*
X83014731Y-49659463D01*
X82846197Y-49911693D01*
X82631693Y-50126197D01*
X82379463Y-50294731D01*
X82099201Y-50410820D01*
X81801678Y-50470000D01*
X81498322Y-50470000D01*
X81200799Y-50410820D01*
X80920537Y-50294731D01*
X80668307Y-50126197D01*
X80453803Y-49911693D01*
X80285269Y-49659463D01*
X80169180Y-49379201D01*
X80110000Y-49081678D01*
X80110000Y-48778322D01*
X80169180Y-48480799D01*
X80285269Y-48200537D01*
X80453803Y-47948307D01*
X80668307Y-47733803D01*
X80920537Y-47565269D01*
X81200799Y-47449180D01*
X81498322Y-47390000D01*
X81801678Y-47390000D01*
X82099201Y-47449180D01*
X82099201Y-47449180D01*
G37*
G36*
X73395046Y-40238395D02*
X73657564Y-40347134D01*
X73766303Y-40392175D01*
X74100424Y-40615428D01*
X74384572Y-40899576D01*
X74607825Y-41233697D01*
X74607825Y-41233698D01*
X74761605Y-41604954D01*
X74840000Y-41999076D01*
X74840000Y-42400924D01*
X74761605Y-42795046D01*
X74652866Y-43057564D01*
X74607825Y-43166303D01*
X74384572Y-43500424D01*
X74100424Y-43784572D01*
X73766303Y-44007825D01*
X73657564Y-44052866D01*
X73395046Y-44161605D01*
X73000924Y-44240000D01*
X72599076Y-44240000D01*
X72204954Y-44161605D01*
X71942436Y-44052866D01*
X71833697Y-44007825D01*
X71499576Y-43784572D01*
X71215428Y-43500424D01*
X70992175Y-43166303D01*
X70947134Y-43057564D01*
X70838395Y-42795046D01*
X70760000Y-42400924D01*
X70760000Y-41999076D01*
X70838395Y-41604954D01*
X70992175Y-41233698D01*
X70992175Y-41233697D01*
X71215428Y-40899576D01*
X71499576Y-40615428D01*
X71833697Y-40392175D01*
X71942436Y-40347134D01*
X72204954Y-40238395D01*
X72599076Y-40160000D01*
X73000924Y-40160000D01*
X73395046Y-40238395D01*
X73395046Y-40238395D01*
G37*
G36*
X58695046Y-40238395D02*
X58957564Y-40347134D01*
X59066303Y-40392175D01*
X59400424Y-40615428D01*
X59684572Y-40899576D01*
X59907825Y-41233697D01*
X59907825Y-41233698D01*
X60061605Y-41604954D01*
X60140000Y-41999076D01*
X60140000Y-42400924D01*
X60061605Y-42795046D01*
X59952866Y-43057564D01*
X59907825Y-43166303D01*
X59684572Y-43500424D01*
X59400424Y-43784572D01*
X59066303Y-44007825D01*
X58957564Y-44052866D01*
X58695046Y-44161605D01*
X58300924Y-44240000D01*
X57899076Y-44240000D01*
X57504954Y-44161605D01*
X57242436Y-44052866D01*
X57133697Y-44007825D01*
X56799576Y-43784572D01*
X56515428Y-43500424D01*
X56292175Y-43166303D01*
X56247134Y-43057564D01*
X56138395Y-42795046D01*
X56060000Y-42400924D01*
X56060000Y-41999076D01*
X56138395Y-41604954D01*
X56292175Y-41233698D01*
X56292175Y-41233697D01*
X56515428Y-40899576D01*
X56799576Y-40615428D01*
X57133697Y-40392175D01*
X57242436Y-40347134D01*
X57504954Y-40238395D01*
X57899076Y-40160000D01*
X58300924Y-40160000D01*
X58695046Y-40238395D01*
X58695046Y-40238395D01*
G37*
G36*
X88153384Y-35146081D02*
X88561037Y-35314937D01*
X88927917Y-35560078D01*
X89239922Y-35872083D01*
X89485063Y-36238963D01*
X89653919Y-36646616D01*
X89740000Y-37079378D01*
X89740000Y-37520622D01*
X89653919Y-37953384D01*
X89485063Y-38361037D01*
X89239922Y-38727917D01*
X88927917Y-39039922D01*
X88561037Y-39285063D01*
X88153384Y-39453919D01*
X87720622Y-39540000D01*
X87279378Y-39540000D01*
X86846616Y-39453919D01*
X86438963Y-39285063D01*
X86072083Y-39039922D01*
X85760078Y-38727917D01*
X85514937Y-38361037D01*
X85346081Y-37953384D01*
X85260000Y-37520622D01*
X85260000Y-37079378D01*
X85346081Y-36646616D01*
X85514937Y-36238963D01*
X85760078Y-35872083D01*
X86072083Y-35560078D01*
X86438963Y-35314937D01*
X86846616Y-35146081D01*
X87279378Y-35060000D01*
X87720622Y-35060000D01*
X88153384Y-35146081D01*
X88153384Y-35146081D01*
G37*
M02*
